%TF.GenerationSoftware,KiCad,Pcbnew,10.0.5-10.0.5~ubuntu26.04.1*%
%TF.CreationDate,2026-08-26T20:29:55+03:00*%
%TF.ProjectId,M5.2_KiCad_esp32_motor,4d352e32-5f4b-4694-9361-645f65737033,rev?*%
%TF.SameCoordinates,Original*%
%TF.FileFunction,Copper,L1,Top*%
%TF.FilePolarity,Positive*%
%FSLAX46Y46*%
G04 Gerber Fmt 4.6, Leading zero omitted, Abs format (unit mm)*
G04 Created by KiCad (PCBNEW 10.0.5-10.0.5~ubuntu26.04.1) date 2026-08-26 20:29:55*
%MOMM*%
%LPD*%
G01*
G04 APERTURE LIST*
G04 Aperture macros list*
%AMRoundRect*
0 Rectangle with rounded corners*
0 $1 Rounding radius*
0 $2 $3 $4 $5 $6 $7 $8 $9 X,Y pos of 4 corners*
0 Add a 4 corners polygon primitive as box body*
4,1,4,$2,$3,$4,$5,$6,$7,$8,$9,$2,$3,0*
0 Add four circle primitives for the rounded corners*
1,1,$1+$1,$2,$3*
1,1,$1+$1,$4,$5*
1,1,$1+$1,$6,$7*
1,1,$1+$1,$8,$9*
0 Add four rect primitives between the rounded corners*
20,1,$1+$1,$2,$3,$4,$5,0*
20,1,$1+$1,$4,$5,$6,$7,0*
20,1,$1+$1,$6,$7,$8,$9,0*
20,1,$1+$1,$8,$9,$2,$3,0*%
G04 Aperture macros list end*
%TA.AperFunction,SMDPad,CuDef*%
%ADD10RoundRect,0.250000X-0.450000X0.262500X-0.450000X-0.262500X0.450000X-0.262500X0.450000X0.262500X0*%
%TD*%
%TA.AperFunction,ComponentPad*%
%ADD11R,1.500000X1.050000*%
%TD*%
%TA.AperFunction,ComponentPad*%
%ADD12O,1.500000X1.050000*%
%TD*%
%TA.AperFunction,SMDPad,CuDef*%
%ADD13RoundRect,0.250000X0.250000X0.475000X-0.250000X0.475000X-0.250000X-0.475000X0.250000X-0.475000X0*%
%TD*%
%TA.AperFunction,ComponentPad*%
%ADD14RoundRect,0.250000X1.050000X-1.050000X1.050000X1.050000X-1.050000X1.050000X-1.050000X-1.050000X0*%
%TD*%
%TA.AperFunction,ComponentPad*%
%ADD15C,2.600000*%
%TD*%
%TA.AperFunction,SMDPad,CuDef*%
%ADD16RoundRect,0.250000X-1.000000X-0.750000X1.000000X-0.750000X1.000000X0.750000X-1.000000X0.750000X0*%
%TD*%
%TA.AperFunction,ComponentPad*%
%ADD17R,2.000000X2.000000*%
%TD*%
%TA.AperFunction,ComponentPad*%
%ADD18O,2.000000X2.000000*%
%TD*%
%TA.AperFunction,SMDPad,CuDef*%
%ADD19RoundRect,0.218750X-0.381250X0.218750X-0.381250X-0.218750X0.381250X-0.218750X0.381250X0.218750X0*%
%TD*%
%TA.AperFunction,SMDPad,CuDef*%
%ADD20RoundRect,0.250000X-0.262500X-0.450000X0.262500X-0.450000X0.262500X0.450000X-0.262500X0.450000X0*%
%TD*%
%TA.AperFunction,ComponentPad*%
%ADD21RoundRect,0.250000X-1.050000X1.050000X-1.050000X-1.050000X1.050000X-1.050000X1.050000X1.050000X0*%
%TD*%
%TA.AperFunction,SMDPad,CuDef*%
%ADD22RoundRect,0.250000X-0.250000X-0.475000X0.250000X-0.475000X0.250000X0.475000X-0.250000X0.475000X0*%
%TD*%
%TA.AperFunction,ComponentPad*%
%ADD23RoundRect,0.249999X-0.850001X0.850001X-0.850001X-0.850001X0.850001X-0.850001X0.850001X0.850001X0*%
%TD*%
%TA.AperFunction,ComponentPad*%
%ADD24C,2.200000*%
%TD*%
%TA.AperFunction,SMDPad,CuDef*%
%ADD25RoundRect,0.250000X0.300000X-0.300000X0.300000X0.300000X-0.300000X0.300000X-0.300000X-0.300000X0*%
%TD*%
%TA.AperFunction,SMDPad,CuDef*%
%ADD26RoundRect,0.250000X-0.475000X0.250000X-0.475000X-0.250000X0.475000X-0.250000X0.475000X0.250000X0*%
%TD*%
%TA.AperFunction,SMDPad,CuDef*%
%ADD27RoundRect,0.150000X-0.150000X0.587500X-0.150000X-0.587500X0.150000X-0.587500X0.150000X0.587500X0*%
%TD*%
%TA.AperFunction,SMDPad,CuDef*%
%ADD28RoundRect,0.150000X-0.587500X-0.150000X0.587500X-0.150000X0.587500X0.150000X-0.587500X0.150000X0*%
%TD*%
%TA.AperFunction,SMDPad,CuDef*%
%ADD29RoundRect,0.250000X0.262500X0.450000X-0.262500X0.450000X-0.262500X-0.450000X0.262500X-0.450000X0*%
%TD*%
%TA.AperFunction,SMDPad,CuDef*%
%ADD30R,2.300000X3.100000*%
%TD*%
%TA.AperFunction,ViaPad*%
%ADD31C,0.600000*%
%TD*%
%TA.AperFunction,Conductor*%
%ADD32C,0.500000*%
%TD*%
%TA.AperFunction,Conductor*%
%ADD33C,1.000000*%
%TD*%
G04 APERTURE END LIST*
D10*
%TO.P,R2,2*%
%TO.N,Net-(U1-DQ)*%
X135500000Y-76055000D03*
%TO.P,R2,1*%
%TO.N,+3.3V*%
X135500000Y-74230000D03*
%TD*%
D11*
%TO.P,U1,1,GND_1*%
%TO.N,GND*%
X132000000Y-77500000D03*
D12*
%TO.P,U1,2,DQ_2*%
%TO.N,Net-(U1-DQ)*%
X132000000Y-76230000D03*
%TO.P,U1,3,V_{DD}_3*%
%TO.N,+3.3V*%
X132000000Y-74960000D03*
%TD*%
D13*
%TO.P,C5,1*%
%TO.N,+3.3V*%
X126450000Y-75000000D03*
%TO.P,C5,2*%
%TO.N,GND*%
X124550000Y-75000000D03*
%TD*%
D14*
%TO.P,J2,1,Pin_1_1*%
%TO.N,Net-(D2-A)*%
X188172500Y-87045000D03*
D15*
%TO.P,J2,2,Pin_2_2*%
%TO.N,+5VP*%
X188172500Y-81965000D03*
%TD*%
D16*
%TO.P,RV1,1,1_1*%
%TO.N,GND*%
X128675000Y-71150000D03*
%TO.P,RV1,2,2_2*%
%TO.N,Net-(U2-GPIO4)*%
X137325000Y-69000000D03*
%TO.P,RV1,3,3_3*%
%TO.N,+3.3V*%
X128675000Y-66850000D03*
%TD*%
D17*
%TO.P,U2,1,3V3_1*%
%TO.N,unconnected-(U2-3V3-Pad1)*%
X141000000Y-62900000D03*
D18*
%TO.P,U2,2,3V3_2*%
%TO.N,+3.3V*%
X141000000Y-65440000D03*
%TO.P,U2,3,RST_3*%
%TO.N,unconnected-(U2-RST-Pad3)*%
X141000000Y-67980000D03*
%TO.P,U2,4,GPIO4_4*%
%TO.N,Net-(U2-GPIO4)*%
X141000000Y-70520000D03*
%TO.P,U2,5,GPIO5_5*%
%TO.N,Net-(U1-DQ)*%
X141000000Y-73060000D03*
%TO.P,U2,6,GPIO6_6*%
%TO.N,unconnected-(U2-GPIO6-Pad6)*%
X141000000Y-75600000D03*
%TO.P,U2,7,GPIO7_7*%
%TO.N,unconnected-(U2-GPIO7-Pad7)*%
X141000000Y-78140000D03*
%TO.P,U2,8,GPIO15_8*%
%TO.N,unconnected-(U2-GPIO15-Pad8)*%
X141000000Y-80680000D03*
%TO.P,U2,9,GPIO16_9*%
%TO.N,unconnected-(U2-GPIO16-Pad9)*%
X141000000Y-83220000D03*
%TO.P,U2,10,GPIO17_10*%
%TO.N,unconnected-(U2-GPIO17-Pad10)*%
X141000000Y-85760000D03*
%TO.P,U2,11,GPIO18_11*%
%TO.N,unconnected-(U2-GPIO18-Pad11)*%
X141000000Y-88300000D03*
%TO.P,U2,12,GPIO8_12*%
%TO.N,unconnected-(U2-GPIO8-Pad12)*%
X141000000Y-90840000D03*
%TO.P,U2,13,GPIO3_13*%
%TO.N,unconnected-(U2-GPIO3-Pad13)*%
X141000000Y-93380000D03*
%TO.P,U2,14,GPIO46_14*%
%TO.N,unconnected-(U2-GPIO46-Pad14)*%
X141000000Y-95920000D03*
%TO.P,U2,15,GPIO9_15*%
%TO.N,unconnected-(U2-GPIO9-Pad15)*%
X141000000Y-98460000D03*
%TO.P,U2,16,GPIO10_16*%
%TO.N,unconnected-(U2-GPIO10-Pad16)*%
X141000000Y-101000000D03*
%TO.P,U2,17,GPIO11_17*%
%TO.N,unconnected-(U2-GPIO11-Pad17)*%
X141000000Y-103540000D03*
%TO.P,U2,18,GPIO12_18*%
%TO.N,unconnected-(U2-GPIO12-Pad18)*%
X141000000Y-106080000D03*
%TO.P,U2,19,GPIO13_19*%
%TO.N,unconnected-(U2-GPIO13-Pad19)*%
X141000000Y-108620000D03*
%TO.P,U2,20,GPIO14_20*%
%TO.N,unconnected-(U2-GPIO14-Pad20)*%
X140996320Y-111157280D03*
%TO.P,U2,21,5V_21*%
%TO.N,+5V*%
X140996320Y-113697280D03*
%TO.P,U2,22,GND_22*%
%TO.N,GND*%
X140996320Y-116237280D03*
%TO.P,U2,23,GND_23*%
X166400000Y-116240000D03*
%TO.P,U2,24,GND_24*%
X166400000Y-113700000D03*
%TO.P,U2,25,GPIO19_25*%
%TO.N,unconnected-(U2-GPIO19-Pad25)*%
X166400000Y-111160000D03*
%TO.P,U2,26,GPIO20_26*%
%TO.N,unconnected-(U2-GPIO20-Pad26)*%
X166400000Y-108620000D03*
%TO.P,U2,27,GPIO21_27*%
%TO.N,unconnected-(U2-GPIO21-Pad27)*%
X166400000Y-106080000D03*
%TO.P,U2,28,GPIO47_28*%
%TO.N,unconnected-(U2-GPIO47-Pad28)*%
X166400000Y-103540000D03*
%TO.P,U2,29,GPIO48_29*%
%TO.N,unconnected-(U2-GPIO48-Pad29)*%
X166400000Y-101000000D03*
%TO.P,U2,30,GPIO45_30*%
%TO.N,unconnected-(U2-GPIO45-Pad30)*%
X166400000Y-98460000D03*
%TO.P,U2,31,GPIO0_31*%
%TO.N,unconnected-(U2-GPIO0-Pad31)*%
X166400000Y-95920000D03*
%TO.P,U2,32,GPIO35_32*%
%TO.N,unconnected-(U2-GPIO35-Pad32)*%
X166400000Y-93380000D03*
%TO.P,U2,33,GPIO36_33*%
%TO.N,unconnected-(U2-GPIO36-Pad33)*%
X166400000Y-90840000D03*
%TO.P,U2,34,GPIO37_34*%
%TO.N,unconnected-(U2-GPIO37-Pad34)*%
X166400000Y-88300000D03*
%TO.P,U2,35,GPIO38_35*%
%TO.N,unconnected-(U2-GPIO38-Pad35)*%
X166400000Y-85760000D03*
%TO.P,U2,36,GPIO39_36*%
%TO.N,unconnected-(U2-GPIO39-Pad36)*%
X166400000Y-83220000D03*
%TO.P,U2,37,GPIO40_37*%
%TO.N,unconnected-(U2-GPIO40-Pad37)*%
X166400000Y-80680000D03*
%TO.P,U2,38,GPIO41_38*%
%TO.N,unconnected-(U2-GPIO41-Pad38)*%
X166400000Y-78140000D03*
%TO.P,U2,39,GPIO42_39*%
%TO.N,unconnected-(U2-GPIO42-Pad39)*%
X166400000Y-75600000D03*
%TO.P,U2,40,GPIO2_40*%
%TO.N,unconnected-(U2-GPIO2-Pad40)*%
X166400000Y-73060000D03*
%TO.P,U2,41,GPIO1_41*%
%TO.N,Net-(U2-GPIO1)*%
X166400000Y-70520000D03*
%TO.P,U2,42,GPIO44_42*%
%TO.N,unconnected-(U2-GPIO44-Pad42)*%
X166400000Y-67980000D03*
%TO.P,U2,43,GPIO43_43*%
%TO.N,unconnected-(U2-GPIO43-Pad43)*%
X166400000Y-65440000D03*
D17*
%TO.P,U2,44,GND_44*%
%TO.N,unconnected-(U2-GND-Pad44)*%
X166400000Y-62900000D03*
%TD*%
D19*
%TO.P,L1,1,1_1*%
%TO.N,+5VP*%
X129045000Y-103685000D03*
%TO.P,L1,2,2_2*%
%TO.N,+5V*%
X129045000Y-105810000D03*
%TD*%
D20*
%TO.P,R3,1*%
%TO.N,Net-(U2-GPIO1)*%
X171087500Y-70500000D03*
%TO.P,R3,2*%
%TO.N,Net-(Q2-B)*%
X172912500Y-70500000D03*
%TD*%
D21*
%TO.P,J1,1,Pin_1_1*%
%TO.N,Net-(J1-Pin_1)*%
X102000000Y-83420000D03*
D15*
%TO.P,J1,2,Pin_2_2*%
%TO.N,GND*%
X102000000Y-88500000D03*
%TD*%
D22*
%TO.P,C3,1*%
%TO.N,+5VP*%
X126145000Y-100747500D03*
%TO.P,C3,2*%
%TO.N,GND*%
X128045000Y-100747500D03*
%TD*%
D23*
%TO.P,D2,1,K_1*%
%TO.N,+5VP*%
X179000000Y-79500000D03*
D24*
%TO.P,D2,2,A_2*%
%TO.N,Net-(D2-A)*%
X179000000Y-89660000D03*
%TD*%
D25*
%TO.P,D1,1,K_1*%
%TO.N,+5VP*%
X120545000Y-93047500D03*
%TO.P,D1,2,A_2*%
%TO.N,Net-(D1-A)*%
X120545000Y-90247500D03*
%TD*%
D13*
%TO.P,C4,1*%
%TO.N,+5V*%
X128045000Y-108747500D03*
%TO.P,C4,2*%
%TO.N,GND*%
X126145000Y-108747500D03*
%TD*%
D26*
%TO.P,C6,1*%
%TO.N,+5V*%
X138000000Y-114050000D03*
%TO.P,C6,2*%
%TO.N,GND*%
X138000000Y-115950000D03*
%TD*%
D27*
%TO.P,Q2,1,B_1*%
%TO.N,Net-(Q2-B)*%
X172950000Y-75500000D03*
%TO.P,Q2,2,E_2*%
%TO.N,GND*%
X171050000Y-75500000D03*
%TO.P,Q2,3,C_3*%
%TO.N,Net-(D2-A)*%
X172000000Y-77375000D03*
%TD*%
D22*
%TO.P,C2,1*%
%TO.N,+5VP*%
X126145000Y-97247500D03*
%TO.P,C2,2*%
%TO.N,GND*%
X128045000Y-97247500D03*
%TD*%
D28*
%TO.P,Q1,1,G_1*%
%TO.N,Net-(D1-A)*%
X124170000Y-90797500D03*
%TO.P,Q1,2,S_2*%
%TO.N,+5VP*%
X124170000Y-92697500D03*
%TO.P,Q1,3,D_3*%
%TO.N,Net-(Q1-D)*%
X126045000Y-91747500D03*
%TD*%
D20*
%TO.P,R4,1*%
%TO.N,GND*%
X171175000Y-72875000D03*
%TO.P,R4,2*%
%TO.N,Net-(Q2-B)*%
X173000000Y-72875000D03*
%TD*%
D29*
%TO.P,R1,1*%
%TO.N,Net-(D1-A)*%
X116045000Y-93247500D03*
%TO.P,R1,2*%
%TO.N,GND*%
X114220000Y-93247500D03*
%TD*%
D30*
%TO.P,F1,1*%
%TO.N,Net-(J1-Pin_1)*%
X117345000Y-83747500D03*
%TO.P,F1,2*%
%TO.N,Net-(Q1-D)*%
X124745000Y-83747500D03*
%TD*%
D13*
%TO.P,C1,1*%
%TO.N,Net-(D1-A)*%
X115995000Y-90247500D03*
%TO.P,C1,2*%
%TO.N,GND*%
X114095000Y-90247500D03*
%TD*%
D31*
%TO.N,+5VP*%
X122500000Y-104000000D03*
%TD*%
%TO.N,+3.3V*%
D32*
X126450000Y-75000000D02*
X131960000Y-75000000D01*
X131960000Y-75000000D02*
X132000000Y-74960000D01*
X132000000Y-74960000D02*
X132000000Y-70350000D01*
%TO.N,Net-(U1-DQ)*%
X135500000Y-76055000D02*
X138005000Y-76055000D01*
X138005000Y-76055000D02*
X141000000Y-73060000D01*
%TO.N,+3.3V*%
X139590000Y-66850000D02*
X135500000Y-66850000D01*
X132000000Y-70350000D02*
X135500000Y-66850000D01*
%TO.N,Net-(U1-DQ)*%
X141000000Y-73060000D02*
X141000000Y-73325000D01*
X132000000Y-76230000D02*
X135325000Y-76230000D01*
X135325000Y-76230000D02*
X135500000Y-76055000D01*
%TO.N,+3.3V*%
X132000000Y-74960000D02*
X134770000Y-74960000D01*
X134770000Y-74960000D02*
X135500000Y-74230000D01*
%TO.N,Net-(U2-GPIO4)*%
X141000000Y-70520000D02*
X138845000Y-70520000D01*
X138845000Y-70520000D02*
X137325000Y-69000000D01*
%TO.N,+3.3V*%
X141000000Y-65440000D02*
X139590000Y-66850000D01*
X135500000Y-66850000D02*
X128675000Y-66850000D01*
%TO.N,Net-(D2-A)*%
D33*
X188172500Y-87045000D02*
X181615000Y-87045000D01*
X181615000Y-87045000D02*
X179000000Y-89660000D01*
D32*
X172000000Y-77375000D02*
X172000000Y-82660000D01*
X179000000Y-89660000D02*
X179840000Y-89660000D01*
X172000000Y-82660000D02*
X179000000Y-89660000D01*
%TO.N,+5VP*%
D33*
X122500000Y-100892500D02*
X126145000Y-97247500D01*
D32*
X126145000Y-95145000D02*
X126145000Y-97247500D01*
D33*
X122500000Y-104000000D02*
X122500000Y-100892500D01*
D32*
X120895000Y-92697500D02*
X120545000Y-93047500D01*
X124170000Y-92697500D02*
X124170000Y-93170000D01*
X124170000Y-93170000D02*
X126145000Y-95145000D01*
X124170000Y-92697500D02*
X120895000Y-92697500D01*
D33*
X179000000Y-79500000D02*
X185707500Y-79500000D01*
D32*
X126145000Y-97247500D02*
X126145000Y-100747500D01*
X126145000Y-100785000D02*
X129045000Y-103685000D01*
X126145000Y-100747500D02*
X126145000Y-100785000D01*
D33*
X185707500Y-79500000D02*
X188172500Y-81965000D01*
%TO.N,+5V*%
D32*
X129045000Y-107747500D02*
X128045000Y-108747500D01*
X128045000Y-108747500D02*
X133347500Y-114050000D01*
X133347500Y-114050000D02*
X138500000Y-114050000D01*
X129045000Y-105810000D02*
X129045000Y-107747500D01*
X140643600Y-114050000D02*
X140996320Y-113697280D01*
X138500000Y-114050000D02*
X140643600Y-114050000D01*
%TO.N,Net-(U2-GPIO1)*%
X166400000Y-70520000D02*
X171067500Y-70520000D01*
X171067500Y-70520000D02*
X171087500Y-70500000D01*
%TO.N,Net-(Q2-B)*%
X173000000Y-75450000D02*
X172950000Y-75500000D01*
X172912500Y-70500000D02*
X172912500Y-72787500D01*
X172912500Y-72787500D02*
X173000000Y-72875000D01*
X173000000Y-72875000D02*
X173000000Y-75450000D01*
%TO.N,Net-(J1-Pin_1)*%
D33*
X117017500Y-83420000D02*
X117345000Y-83747500D01*
X102000000Y-83420000D02*
X117017500Y-83420000D01*
%TO.N,Net-(D1-A)*%
D32*
X115995000Y-93197500D02*
X116045000Y-93247500D01*
X124170000Y-90797500D02*
X121095000Y-90797500D01*
X115995000Y-90247500D02*
X115995000Y-93197500D01*
X121095000Y-90797500D02*
X120545000Y-90247500D01*
X120545000Y-90247500D02*
X115995000Y-90247500D01*
%TO.N,Net-(Q1-D)*%
X127500000Y-86000000D02*
X127500000Y-90292500D01*
X124745000Y-83747500D02*
X125247500Y-83747500D01*
X125247500Y-83747500D02*
X127500000Y-86000000D01*
X127500000Y-90292500D02*
X126045000Y-91747500D01*
%TD*%
%TA.AperFunction,Conductor*%
%TO.N,GND*%
G36*
X166650000Y-115806988D02*
G01*
X166592993Y-115774075D01*
X166465826Y-115740000D01*
X166334174Y-115740000D01*
X166207007Y-115774075D01*
X166150000Y-115806988D01*
X166150000Y-114133012D01*
X166207007Y-114165925D01*
X166334174Y-114200000D01*
X166465826Y-114200000D01*
X166592993Y-114165925D01*
X166650000Y-114133012D01*
X166650000Y-115806988D01*
G37*
%TD.AperFunction*%
%TA.AperFunction,Conductor*%
G36*
X186737046Y-57519685D02*
G01*
X186770713Y-57551653D01*
X187388709Y-58412014D01*
X187390630Y-58414768D01*
X188174383Y-59570716D01*
X188176230Y-59573521D01*
X188928394Y-60750271D01*
X188930164Y-60753124D01*
X189650187Y-61949810D01*
X189651880Y-61952711D01*
X190339258Y-63168503D01*
X190340870Y-63171448D01*
X190752510Y-63947883D01*
X190964210Y-64347192D01*
X190995036Y-64405335D01*
X190996569Y-64408323D01*
X191617109Y-65659528D01*
X191618560Y-65662557D01*
X192204966Y-66930051D01*
X192206335Y-66933117D01*
X192758228Y-68216087D01*
X192759513Y-68219190D01*
X193276441Y-69516582D01*
X193277642Y-69519718D01*
X193759267Y-70830684D01*
X193760382Y-70833852D01*
X194206315Y-72157335D01*
X194207344Y-72160531D01*
X194617285Y-73495636D01*
X194618227Y-73498860D01*
X194991849Y-74844526D01*
X194992704Y-74847773D01*
X195329767Y-76203134D01*
X195330533Y-76206404D01*
X195630764Y-77570361D01*
X195631441Y-77573650D01*
X195894623Y-78945224D01*
X195895199Y-78948458D01*
X196121153Y-80326715D01*
X196121651Y-80330036D01*
X196310197Y-81713889D01*
X196310605Y-81717222D01*
X196461603Y-83105628D01*
X196461921Y-83108971D01*
X196575270Y-84500986D01*
X196575497Y-84504337D01*
X196651105Y-85898864D01*
X196651242Y-85902219D01*
X196689064Y-87298355D01*
X196689109Y-87301713D01*
X196689109Y-88698286D01*
X196689064Y-88701644D01*
X196651242Y-90097780D01*
X196651105Y-90101135D01*
X196575497Y-91495662D01*
X196575270Y-91499013D01*
X196461921Y-92891028D01*
X196461603Y-92894371D01*
X196310605Y-94282777D01*
X196310197Y-94286110D01*
X196121651Y-95669963D01*
X196121155Y-95673265D01*
X195895201Y-97051529D01*
X195894623Y-97054775D01*
X195631441Y-98426349D01*
X195630764Y-98429638D01*
X195330533Y-99793595D01*
X195329767Y-99796865D01*
X194992704Y-101152226D01*
X194991849Y-101155473D01*
X194618227Y-102501139D01*
X194617285Y-102504363D01*
X194207344Y-103839468D01*
X194206315Y-103842664D01*
X193760382Y-105166147D01*
X193759267Y-105169315D01*
X193277642Y-106480281D01*
X193276441Y-106483417D01*
X192759513Y-107780809D01*
X192758228Y-107783912D01*
X192206335Y-109066882D01*
X192204966Y-109069948D01*
X191618560Y-110337442D01*
X191617109Y-110340471D01*
X190996569Y-111591676D01*
X190995036Y-111594664D01*
X190340870Y-112828551D01*
X190339258Y-112831496D01*
X189651880Y-114047288D01*
X189650187Y-114050189D01*
X188930164Y-115246875D01*
X188928394Y-115249728D01*
X188176230Y-116426478D01*
X188174383Y-116429283D01*
X187390630Y-117585231D01*
X187388708Y-117587985D01*
X186573951Y-118722273D01*
X186571956Y-118724974D01*
X185726723Y-119836858D01*
X185724654Y-119839503D01*
X184849697Y-120928000D01*
X184847558Y-120930589D01*
X183943417Y-121995026D01*
X183941209Y-121997556D01*
X183008543Y-123037155D01*
X183006266Y-123039624D01*
X182045831Y-124053542D01*
X182043489Y-124055948D01*
X181055948Y-125043489D01*
X181053542Y-125045831D01*
X180039624Y-126006266D01*
X180037155Y-126008543D01*
X178997556Y-126941209D01*
X178995026Y-126943417D01*
X177930589Y-127847558D01*
X177928000Y-127849697D01*
X176839503Y-128724654D01*
X176836858Y-128726723D01*
X175724974Y-129571956D01*
X175722273Y-129573951D01*
X174587985Y-130388708D01*
X174585231Y-130390630D01*
X173429283Y-131174383D01*
X173426478Y-131176230D01*
X172249728Y-131928394D01*
X172246875Y-131930164D01*
X171050189Y-132650187D01*
X171047288Y-132651880D01*
X169831496Y-133339258D01*
X169828551Y-133340870D01*
X168594664Y-133995036D01*
X168591676Y-133996569D01*
X167340471Y-134617109D01*
X167337442Y-134618560D01*
X166069948Y-135204966D01*
X166066882Y-135206335D01*
X164783912Y-135758228D01*
X164780809Y-135759513D01*
X163483417Y-136276441D01*
X163480281Y-136277642D01*
X162169315Y-136759267D01*
X162166147Y-136760382D01*
X160842664Y-137206315D01*
X160839468Y-137207344D01*
X159504363Y-137617285D01*
X159501139Y-137618227D01*
X158155473Y-137991849D01*
X158152226Y-137992704D01*
X156796865Y-138329767D01*
X156793595Y-138330533D01*
X155429638Y-138630764D01*
X155426349Y-138631441D01*
X154054775Y-138894623D01*
X154051529Y-138895201D01*
X152673265Y-139121155D01*
X152669963Y-139121651D01*
X151286110Y-139310197D01*
X151282777Y-139310605D01*
X149894371Y-139461603D01*
X149891028Y-139461921D01*
X148499013Y-139575270D01*
X148495662Y-139575497D01*
X147101135Y-139651105D01*
X147097780Y-139651242D01*
X145701644Y-139689064D01*
X145698286Y-139689109D01*
X144301714Y-139689109D01*
X144298356Y-139689064D01*
X142902219Y-139651242D01*
X142898864Y-139651105D01*
X141504337Y-139575497D01*
X141500986Y-139575270D01*
X140108971Y-139461921D01*
X140105628Y-139461603D01*
X138717222Y-139310605D01*
X138713889Y-139310197D01*
X137330036Y-139121651D01*
X137326745Y-139121157D01*
X135948458Y-138895199D01*
X135945224Y-138894623D01*
X134573650Y-138631441D01*
X134570361Y-138630764D01*
X133206404Y-138330533D01*
X133203134Y-138329767D01*
X131847773Y-137992704D01*
X131844526Y-137991849D01*
X130498860Y-137618227D01*
X130495636Y-137617285D01*
X129160531Y-137207344D01*
X129157335Y-137206315D01*
X127833852Y-136760382D01*
X127830684Y-136759267D01*
X126519718Y-136277642D01*
X126516582Y-136276441D01*
X125219190Y-135759513D01*
X125216087Y-135758228D01*
X123933117Y-135206335D01*
X123930051Y-135204966D01*
X122662557Y-134618560D01*
X122659528Y-134617109D01*
X121408323Y-133996569D01*
X121405335Y-133995036D01*
X120171448Y-133340870D01*
X120168503Y-133339258D01*
X118952711Y-132651880D01*
X118949810Y-132650187D01*
X117753124Y-131930164D01*
X117750271Y-131928394D01*
X116573521Y-131176230D01*
X116570716Y-131174383D01*
X115414768Y-130390630D01*
X115412014Y-130388708D01*
X114277726Y-129573951D01*
X114275025Y-129571956D01*
X113163141Y-128726723D01*
X113160496Y-128724654D01*
X112790281Y-128427067D01*
X112071973Y-127849676D01*
X112069435Y-127847579D01*
X111004942Y-126943390D01*
X111002474Y-126941236D01*
X109962844Y-126008543D01*
X109960375Y-126006266D01*
X108946457Y-125045831D01*
X108944051Y-125043489D01*
X107956510Y-124055948D01*
X107954168Y-124053542D01*
X106993733Y-123039624D01*
X106991456Y-123037155D01*
X106651124Y-122657803D01*
X106058759Y-121997520D01*
X106056614Y-121995063D01*
X105152414Y-120930556D01*
X105150330Y-120928033D01*
X104275345Y-119839503D01*
X104273276Y-119836858D01*
X103428043Y-118724974D01*
X103426048Y-118722273D01*
X102611291Y-117587985D01*
X102609369Y-117585231D01*
X101825616Y-116429283D01*
X101823769Y-116426478D01*
X101071605Y-115249728D01*
X101069835Y-115246875D01*
X100885775Y-114940965D01*
X100850238Y-114881902D01*
X104999500Y-114881902D01*
X104999500Y-115118097D01*
X105036446Y-115351368D01*
X105109433Y-115575996D01*
X105172617Y-115700000D01*
X105216657Y-115786433D01*
X105355483Y-115977510D01*
X105522490Y-116144517D01*
X105713567Y-116283343D01*
X105812991Y-116334002D01*
X105924003Y-116390566D01*
X105924005Y-116390566D01*
X105924008Y-116390568D01*
X105987547Y-116411213D01*
X106148631Y-116463553D01*
X106381903Y-116500500D01*
X106381908Y-116500500D01*
X106618097Y-116500500D01*
X106851368Y-116463553D01*
X107075992Y-116390568D01*
X107286433Y-116283343D01*
X107332345Y-116249986D01*
X136775001Y-116249986D01*
X136785494Y-116352697D01*
X136840641Y-116519119D01*
X136840643Y-116519124D01*
X136932684Y-116668345D01*
X137056654Y-116792315D01*
X137205875Y-116884356D01*
X137205880Y-116884358D01*
X137372302Y-116939505D01*
X137372309Y-116939506D01*
X137475019Y-116949999D01*
X137749999Y-116949999D01*
X138250000Y-116949999D01*
X138524972Y-116949999D01*
X138524986Y-116949998D01*
X138627697Y-116939505D01*
X138794119Y-116884358D01*
X138794124Y-116884356D01*
X138943345Y-116792315D01*
X139067315Y-116668345D01*
X139159356Y-116519124D01*
X139159358Y-116519119D01*
X139195115Y-116411213D01*
X139214505Y-116352697D01*
X139214506Y-116352690D01*
X139224999Y-116249986D01*
X139225000Y-116249973D01*
X139225000Y-116200000D01*
X138250000Y-116200000D01*
X138250000Y-116949999D01*
X137749999Y-116949999D01*
X137750000Y-116949998D01*
X137750000Y-116200000D01*
X136775001Y-116200000D01*
X136775001Y-116249986D01*
X107332345Y-116249986D01*
X107477510Y-116144517D01*
X107644517Y-115977510D01*
X107783343Y-115786433D01*
X107890568Y-115575992D01*
X107963553Y-115351368D01*
X107977579Y-115262813D01*
X108000500Y-115118097D01*
X108000500Y-114881902D01*
X107963553Y-114648631D01*
X107890566Y-114424003D01*
X107783342Y-114213566D01*
X107773486Y-114200000D01*
X107644517Y-114022490D01*
X107477510Y-113855483D01*
X107286433Y-113716657D01*
X107075996Y-113609433D01*
X106851368Y-113536446D01*
X106618097Y-113499500D01*
X106618092Y-113499500D01*
X106381908Y-113499500D01*
X106381903Y-113499500D01*
X106148631Y-113536446D01*
X105924003Y-113609433D01*
X105713566Y-113716657D01*
X105645892Y-113765826D01*
X105522490Y-113855483D01*
X105522488Y-113855485D01*
X105522487Y-113855485D01*
X105355485Y-114022487D01*
X105355485Y-114022488D01*
X105355483Y-114022490D01*
X105334590Y-114051247D01*
X105216657Y-114213566D01*
X105109433Y-114424003D01*
X105036446Y-114648631D01*
X104999500Y-114881902D01*
X100850238Y-114881902D01*
X100484037Y-114273272D01*
X100349797Y-114050164D01*
X100348119Y-114047288D01*
X100334097Y-114022487D01*
X99660740Y-112831495D01*
X99659129Y-112828551D01*
X99550446Y-112623553D01*
X99004946Y-111594632D01*
X99003446Y-111591708D01*
X98382890Y-110340471D01*
X98381439Y-110337442D01*
X98356901Y-110284405D01*
X97888737Y-109272486D01*
X125145001Y-109272486D01*
X125155494Y-109375197D01*
X125210641Y-109541619D01*
X125210643Y-109541624D01*
X125302684Y-109690845D01*
X125426654Y-109814815D01*
X125575875Y-109906856D01*
X125575880Y-109906858D01*
X125742302Y-109962005D01*
X125742309Y-109962006D01*
X125845019Y-109972499D01*
X125894999Y-109972498D01*
X125895000Y-109972498D01*
X125895000Y-108997500D01*
X125145001Y-108997500D01*
X125145001Y-109272486D01*
X97888737Y-109272486D01*
X97795021Y-109069922D01*
X97793664Y-109066882D01*
X97762802Y-108995138D01*
X97693993Y-108835180D01*
X97430443Y-108222513D01*
X125145000Y-108222513D01*
X125145000Y-108497500D01*
X125895000Y-108497500D01*
X125895000Y-107522500D01*
X125894999Y-107522499D01*
X125845029Y-107522500D01*
X125845011Y-107522501D01*
X125742302Y-107532994D01*
X125575880Y-107588141D01*
X125575875Y-107588143D01*
X125426654Y-107680184D01*
X125302684Y-107804154D01*
X125210643Y-107953375D01*
X125210641Y-107953380D01*
X125155494Y-108119802D01*
X125155493Y-108119809D01*
X125145000Y-108222513D01*
X97430443Y-108222513D01*
X97241759Y-107783884D01*
X97240486Y-107780809D01*
X97200393Y-107680184D01*
X96723554Y-106483408D01*
X96722357Y-106480281D01*
X96721477Y-106477887D01*
X96286380Y-105293567D01*
X96240732Y-105169315D01*
X96239617Y-105166147D01*
X95793684Y-103842664D01*
X95792655Y-103839468D01*
X95740888Y-103670871D01*
X95382711Y-102504354D01*
X95381772Y-102501139D01*
X95008143Y-101155449D01*
X95007295Y-101152226D01*
X94998806Y-101118092D01*
X94670229Y-99796856D01*
X94669466Y-99793595D01*
X94668198Y-99787833D01*
X94369225Y-98429589D01*
X94368568Y-98426399D01*
X94105365Y-97054713D01*
X94104810Y-97051599D01*
X93878832Y-95673194D01*
X93878348Y-95669963D01*
X93805266Y-95133567D01*
X93689797Y-94286074D01*
X93689398Y-94282814D01*
X93631177Y-93747486D01*
X113207501Y-93747486D01*
X113217994Y-93850197D01*
X113273141Y-94016619D01*
X113273143Y-94016624D01*
X113365184Y-94165845D01*
X113489154Y-94289815D01*
X113638375Y-94381856D01*
X113638380Y-94381858D01*
X113804802Y-94437005D01*
X113804809Y-94437006D01*
X113907519Y-94447499D01*
X113969999Y-94447498D01*
X113970000Y-94447498D01*
X113970000Y-93497500D01*
X113207501Y-93497500D01*
X113207501Y-93747486D01*
X93631177Y-93747486D01*
X93538394Y-92894358D01*
X93538078Y-92891028D01*
X93526955Y-92754428D01*
X93526392Y-92747513D01*
X113207500Y-92747513D01*
X113207500Y-92997500D01*
X113970000Y-92997500D01*
X113970000Y-92047500D01*
X113969999Y-92047499D01*
X113907528Y-92047500D01*
X113907511Y-92047501D01*
X113804802Y-92057994D01*
X113638380Y-92113141D01*
X113638375Y-92113143D01*
X113489154Y-92205184D01*
X113365184Y-92329154D01*
X113273143Y-92478375D01*
X113273141Y-92478380D01*
X113217994Y-92644802D01*
X113217993Y-92644809D01*
X113207500Y-92747513D01*
X93526392Y-92747513D01*
X93518029Y-92644809D01*
X93424726Y-91498970D01*
X93424504Y-91495705D01*
X93385293Y-90772486D01*
X113095001Y-90772486D01*
X113105494Y-90875197D01*
X113160641Y-91041619D01*
X113160643Y-91041624D01*
X113252684Y-91190845D01*
X113376654Y-91314815D01*
X113525875Y-91406856D01*
X113525880Y-91406858D01*
X113692302Y-91462005D01*
X113692309Y-91462006D01*
X113795019Y-91472499D01*
X113844999Y-91472498D01*
X113845000Y-91472498D01*
X113845000Y-90497500D01*
X113095001Y-90497500D01*
X113095001Y-90772486D01*
X93385293Y-90772486D01*
X93348893Y-90101126D01*
X93348757Y-90097780D01*
X93347381Y-90047000D01*
X93310936Y-88701644D01*
X93310891Y-88698286D01*
X93310891Y-88382014D01*
X100200000Y-88382014D01*
X100200000Y-88617985D01*
X100230799Y-88851914D01*
X100291870Y-89079837D01*
X100382160Y-89297819D01*
X100382165Y-89297828D01*
X100500144Y-89502171D01*
X100500145Y-89502172D01*
X100562721Y-89583723D01*
X101398958Y-88747487D01*
X101423978Y-88807890D01*
X101495112Y-88914351D01*
X101585649Y-89004888D01*
X101692110Y-89076022D01*
X101752511Y-89101041D01*
X100916275Y-89937277D01*
X100997827Y-89999854D01*
X100997828Y-89999855D01*
X101202171Y-90117834D01*
X101202180Y-90117839D01*
X101420163Y-90208129D01*
X101420161Y-90208129D01*
X101648085Y-90269200D01*
X101882014Y-90299999D01*
X101882029Y-90300000D01*
X102117971Y-90300000D01*
X102117985Y-90299999D01*
X102351914Y-90269200D01*
X102579837Y-90208129D01*
X102797819Y-90117839D01*
X102797828Y-90117834D01*
X103002181Y-89999850D01*
X103083723Y-89937279D01*
X103083723Y-89937276D01*
X102953492Y-89807045D01*
X102868960Y-89722513D01*
X113095000Y-89722513D01*
X113095000Y-89997500D01*
X113845000Y-89997500D01*
X113845000Y-89022500D01*
X114345000Y-89022500D01*
X114345000Y-91472499D01*
X114394972Y-91472499D01*
X114394986Y-91472498D01*
X114497697Y-91462005D01*
X114664119Y-91406858D01*
X114664124Y-91406856D01*
X114813345Y-91314815D01*
X114937318Y-91190842D01*
X114939165Y-91187848D01*
X114940969Y-91186224D01*
X114941798Y-91185177D01*
X114941976Y-91185318D01*
X114991110Y-91141121D01*
X115060073Y-91129896D01*
X115124156Y-91157736D01*
X115150243Y-91187841D01*
X115152288Y-91191156D01*
X115152289Y-91191157D01*
X115208181Y-91247049D01*
X115241666Y-91308372D01*
X115244500Y-91334730D01*
X115244500Y-92199477D01*
X115224815Y-92266516D01*
X115172011Y-92312271D01*
X115102853Y-92322215D01*
X115039297Y-92293190D01*
X115032819Y-92287158D01*
X114950845Y-92205184D01*
X114801624Y-92113143D01*
X114801619Y-92113141D01*
X114635197Y-92057994D01*
X114635190Y-92057993D01*
X114532486Y-92047500D01*
X114470000Y-92047500D01*
X114470000Y-94447499D01*
X114532472Y-94447499D01*
X114532486Y-94447498D01*
X114635197Y-94437005D01*
X114801619Y-94381858D01*
X114801624Y-94381856D01*
X114950842Y-94289817D01*
X115044464Y-94196195D01*
X115105787Y-94162710D01*
X115175479Y-94167694D01*
X115219827Y-94196195D01*
X115313844Y-94290212D01*
X115463166Y-94382314D01*
X115629703Y-94437499D01*
X115732491Y-94448000D01*
X116357508Y-94447999D01*
X116357516Y-94447998D01*
X116357519Y-94447998D01*
X116413802Y-94442248D01*
X116460297Y-94437499D01*
X116626834Y-94382314D01*
X116776156Y-94290212D01*
X116900212Y-94166156D01*
X116992314Y-94016834D01*
X117047499Y-93850297D01*
X117058000Y-93747509D01*
X117057999Y-92747492D01*
X117047499Y-92644703D01*
X116992314Y-92478166D01*
X116900212Y-92328844D01*
X116781819Y-92210451D01*
X116748334Y-92149128D01*
X116745500Y-92122770D01*
X116745500Y-91334730D01*
X116765185Y-91267691D01*
X116781819Y-91247049D01*
X116807779Y-91221089D01*
X116837712Y-91191156D01*
X116920519Y-91056902D01*
X116972467Y-91010179D01*
X117026058Y-90998000D01*
X119582769Y-90998000D01*
X119649808Y-91017685D01*
X119670450Y-91034318D01*
X119776344Y-91140212D01*
X119925666Y-91232314D01*
X120092203Y-91287499D01*
X120194991Y-91298000D01*
X120482769Y-91297999D01*
X120549808Y-91317683D01*
X120570450Y-91334318D01*
X120616580Y-91380448D01*
X120616584Y-91380451D01*
X120739498Y-91462580D01*
X120739511Y-91462587D01*
X120876082Y-91519156D01*
X120876087Y-91519158D01*
X120876091Y-91519158D01*
X120876092Y-91519159D01*
X121021079Y-91548000D01*
X121021082Y-91548000D01*
X123300172Y-91548000D01*
X123308857Y-91550550D01*
X123317819Y-91549262D01*
X123334767Y-91552924D01*
X123479926Y-91595097D01*
X123479929Y-91595097D01*
X123479931Y-91595098D01*
X123516806Y-91598000D01*
X124683000Y-91598000D01*
X124750039Y-91617685D01*
X124795794Y-91670489D01*
X124807000Y-91722000D01*
X124807000Y-91773000D01*
X124787315Y-91840039D01*
X124734511Y-91885794D01*
X124683000Y-91897000D01*
X123516798Y-91897000D01*
X123479932Y-91899901D01*
X123479926Y-91899902D01*
X123334767Y-91942076D01*
X123300172Y-91947000D01*
X120821076Y-91947000D01*
X120792242Y-91952734D01*
X120792243Y-91952735D01*
X120676094Y-91975839D01*
X120676086Y-91975841D01*
X120647793Y-91987561D01*
X120600341Y-91997000D01*
X120194998Y-91997000D01*
X120194980Y-91997001D01*
X120092203Y-92007500D01*
X120092200Y-92007501D01*
X119925668Y-92062685D01*
X119925663Y-92062687D01*
X119776342Y-92154789D01*
X119652289Y-92278842D01*
X119560187Y-92428163D01*
X119560185Y-92428168D01*
X119543617Y-92478168D01*
X119505001Y-92594703D01*
X119505001Y-92594704D01*
X119505000Y-92594704D01*
X119494500Y-92697483D01*
X119494500Y-93397501D01*
X119494501Y-93397519D01*
X119505000Y-93500296D01*
X119505001Y-93500299D01*
X119560185Y-93666831D01*
X119560186Y-93666834D01*
X119652288Y-93816156D01*
X119776344Y-93940212D01*
X119925666Y-94032314D01*
X120092203Y-94087499D01*
X120194991Y-94098000D01*
X120895008Y-94097999D01*
X120895016Y-94097998D01*
X120895019Y-94097998D01*
X120951302Y-94092248D01*
X120997797Y-94087499D01*
X121164334Y-94032314D01*
X121313656Y-93940212D01*
X121437712Y-93816156D01*
X121529814Y-93666834D01*
X121574164Y-93532994D01*
X121613936Y-93475551D01*
X121678451Y-93448728D01*
X121691869Y-93448000D01*
X123300172Y-93448000D01*
X123334767Y-93452924D01*
X123442331Y-93484174D01*
X123501216Y-93521780D01*
X123510838Y-93534359D01*
X123523289Y-93552993D01*
X123587049Y-93648418D01*
X123587052Y-93648421D01*
X125358181Y-95419549D01*
X125391666Y-95480872D01*
X125394500Y-95507230D01*
X125394500Y-96160270D01*
X125374815Y-96227309D01*
X125358181Y-96247951D01*
X125302289Y-96303842D01*
X125210187Y-96453163D01*
X125210185Y-96453168D01*
X125182349Y-96537170D01*
X125155001Y-96619703D01*
X125155001Y-96619704D01*
X125155000Y-96619704D01*
X125144500Y-96722483D01*
X125144500Y-96781716D01*
X125124815Y-96848755D01*
X125108180Y-96869397D01*
X121862220Y-100115359D01*
X121862218Y-100115361D01*
X121792538Y-100185040D01*
X121722859Y-100254719D01*
X121613371Y-100418579D01*
X121613364Y-100418592D01*
X121537950Y-100600660D01*
X121537947Y-100600670D01*
X121499500Y-100793956D01*
X121499500Y-100793959D01*
X121499500Y-104098541D01*
X121499500Y-104098543D01*
X121499499Y-104098543D01*
X121537947Y-104291829D01*
X121537950Y-104291839D01*
X121613364Y-104473907D01*
X121613371Y-104473920D01*
X121722860Y-104637781D01*
X121722863Y-104637785D01*
X121862214Y-104777136D01*
X121862218Y-104777139D01*
X122026079Y-104886628D01*
X122026092Y-104886635D01*
X122144026Y-104935484D01*
X122208165Y-104962051D01*
X122208169Y-104962051D01*
X122208170Y-104962052D01*
X122401456Y-105000500D01*
X122401459Y-105000500D01*
X122598543Y-105000500D01*
X122728582Y-104974632D01*
X122791835Y-104962051D01*
X122973914Y-104886632D01*
X123137782Y-104777139D01*
X123277139Y-104637782D01*
X123386632Y-104473914D01*
X123462051Y-104291835D01*
X123500500Y-104098541D01*
X123500500Y-101358282D01*
X123520185Y-101291243D01*
X123536819Y-101270601D01*
X124206760Y-100600660D01*
X125032959Y-99774460D01*
X125094280Y-99740977D01*
X125163972Y-99745961D01*
X125219905Y-99787833D01*
X125244322Y-99853297D01*
X125229470Y-99921570D01*
X125226178Y-99927238D01*
X125210189Y-99953161D01*
X125210185Y-99953168D01*
X125210115Y-99953380D01*
X125155001Y-100119703D01*
X125155001Y-100119704D01*
X125155000Y-100119704D01*
X125144500Y-100222483D01*
X125144500Y-101272501D01*
X125144501Y-101272519D01*
X125155000Y-101375296D01*
X125155001Y-101375299D01*
X125166425Y-101409773D01*
X125210186Y-101541834D01*
X125302288Y-101691156D01*
X125426344Y-101815212D01*
X125575666Y-101907314D01*
X125742203Y-101962499D01*
X125844991Y-101973000D01*
X126220269Y-101972999D01*
X126287308Y-101992683D01*
X126307950Y-102009318D01*
X127908181Y-103609548D01*
X127941666Y-103670871D01*
X127944500Y-103697229D01*
X127944500Y-103951681D01*
X127954563Y-104050183D01*
X128007450Y-104209784D01*
X128007455Y-104209795D01*
X128095716Y-104352887D01*
X128095719Y-104352891D01*
X128214608Y-104471780D01*
X128214612Y-104471783D01*
X128357704Y-104560044D01*
X128357707Y-104560045D01*
X128357713Y-104560049D01*
X128517315Y-104612936D01*
X128615826Y-104623000D01*
X128615831Y-104623000D01*
X129474169Y-104623000D01*
X129474174Y-104623000D01*
X129572685Y-104612936D01*
X129732287Y-104560049D01*
X129875391Y-104471781D01*
X129994281Y-104352891D01*
X130082549Y-104209787D01*
X130135436Y-104050185D01*
X130145500Y-103951674D01*
X130145500Y-103418326D01*
X130135436Y-103319815D01*
X130082549Y-103160213D01*
X130082545Y-103160207D01*
X130082544Y-103160204D01*
X129994283Y-103017112D01*
X129994280Y-103017108D01*
X129875391Y-102898219D01*
X129875387Y-102898216D01*
X129732295Y-102809955D01*
X129732289Y-102809952D01*
X129732287Y-102809951D01*
X129572685Y-102757064D01*
X129572683Y-102757063D01*
X129474181Y-102747000D01*
X129474174Y-102747000D01*
X129219729Y-102747000D01*
X129152690Y-102727315D01*
X129132048Y-102710681D01*
X128541535Y-102120167D01*
X128508050Y-102058844D01*
X128513034Y-101989152D01*
X128554906Y-101933219D01*
X128590214Y-101914779D01*
X128614122Y-101906856D01*
X128614124Y-101906856D01*
X128763345Y-101814815D01*
X128887315Y-101690845D01*
X128979356Y-101541624D01*
X128979358Y-101541619D01*
X129034505Y-101375197D01*
X129034506Y-101375190D01*
X129044999Y-101272486D01*
X129045000Y-101272473D01*
X129045000Y-100997500D01*
X128169000Y-100997500D01*
X128101961Y-100977815D01*
X128056206Y-100925011D01*
X128045000Y-100873500D01*
X128045000Y-100747500D01*
X127919000Y-100747500D01*
X127851961Y-100727815D01*
X127806206Y-100675011D01*
X127795000Y-100623500D01*
X127795000Y-100497500D01*
X128295000Y-100497500D01*
X129044999Y-100497500D01*
X129044999Y-100222528D01*
X129044998Y-100222513D01*
X129034505Y-100119802D01*
X128979358Y-99953380D01*
X128979356Y-99953375D01*
X128887315Y-99804154D01*
X128763345Y-99680184D01*
X128614124Y-99588143D01*
X128614119Y-99588141D01*
X128447697Y-99532994D01*
X128447690Y-99532993D01*
X128344986Y-99522500D01*
X128295000Y-99522500D01*
X128295000Y-100497500D01*
X127795000Y-100497500D01*
X127795000Y-99522500D01*
X127794999Y-99522499D01*
X127745029Y-99522500D01*
X127745011Y-99522501D01*
X127642302Y-99532994D01*
X127475880Y-99588141D01*
X127475875Y-99588143D01*
X127326654Y-99680184D01*
X127202683Y-99804155D01*
X127202679Y-99804160D01*
X127200826Y-99807165D01*
X127199018Y-99808790D01*
X127198202Y-99809823D01*
X127198025Y-99809683D01*
X127148874Y-99853885D01*
X127079911Y-99865101D01*
X127015831Y-99837252D01*
X126989753Y-99807153D01*
X126989737Y-99807128D01*
X126987712Y-99803844D01*
X126931819Y-99747951D01*
X126898334Y-99686628D01*
X126895500Y-99660270D01*
X126895500Y-98334730D01*
X126915185Y-98267691D01*
X126931819Y-98247049D01*
X126987712Y-98191156D01*
X126989752Y-98187847D01*
X126991745Y-98186055D01*
X126992193Y-98185489D01*
X126992289Y-98185565D01*
X127041694Y-98141123D01*
X127110656Y-98129895D01*
X127174740Y-98157734D01*
X127200829Y-98187839D01*
X127202681Y-98190841D01*
X127202683Y-98190844D01*
X127326654Y-98314815D01*
X127475875Y-98406856D01*
X127475880Y-98406858D01*
X127642302Y-98462005D01*
X127642309Y-98462006D01*
X127745019Y-98472499D01*
X128295000Y-98472499D01*
X128344972Y-98472499D01*
X128344986Y-98472498D01*
X128447697Y-98462005D01*
X128614119Y-98406858D01*
X128614124Y-98406856D01*
X128763345Y-98314815D01*
X128887315Y-98190845D01*
X128979356Y-98041624D01*
X128979358Y-98041619D01*
X129034505Y-97875197D01*
X129034506Y-97875190D01*
X129044999Y-97772486D01*
X129045000Y-97772473D01*
X129045000Y-97497500D01*
X128295000Y-97497500D01*
X128295000Y-98472499D01*
X127745019Y-98472499D01*
X127794999Y-98472498D01*
X127795000Y-98472498D01*
X127795000Y-96997500D01*
X128295000Y-96997500D01*
X129044999Y-96997500D01*
X129044999Y-96722528D01*
X129044998Y-96722513D01*
X129034505Y-96619802D01*
X128979358Y-96453380D01*
X128979356Y-96453375D01*
X128887315Y-96304154D01*
X128763345Y-96180184D01*
X128614124Y-96088143D01*
X128614119Y-96088141D01*
X128447697Y-96032994D01*
X128447690Y-96032993D01*
X128344986Y-96022500D01*
X128295000Y-96022500D01*
X128295000Y-96997500D01*
X127795000Y-96997500D01*
X127795000Y-96022500D01*
X127794999Y-96022499D01*
X127745029Y-96022500D01*
X127745011Y-96022501D01*
X127642302Y-96032994D01*
X127475880Y-96088141D01*
X127475875Y-96088143D01*
X127326654Y-96180184D01*
X127202683Y-96304155D01*
X127202679Y-96304160D01*
X127200826Y-96307165D01*
X127199018Y-96308790D01*
X127198202Y-96309823D01*
X127198025Y-96309683D01*
X127148874Y-96353885D01*
X127079911Y-96365101D01*
X127015831Y-96337252D01*
X126989753Y-96307153D01*
X126989737Y-96307128D01*
X126987712Y-96303844D01*
X126931819Y-96247951D01*
X126898334Y-96186628D01*
X126895500Y-96160270D01*
X126895500Y-95071079D01*
X126866659Y-94926092D01*
X126866658Y-94926091D01*
X126866658Y-94926087D01*
X126810084Y-94789505D01*
X126777186Y-94740270D01*
X126777185Y-94740268D01*
X126727956Y-94666589D01*
X126727952Y-94666584D01*
X125356656Y-93295288D01*
X125323171Y-93233965D01*
X125328155Y-93164273D01*
X125337606Y-93144485D01*
X125359244Y-93107898D01*
X125405098Y-92950069D01*
X125408000Y-92913194D01*
X125408000Y-92672000D01*
X125427685Y-92604961D01*
X125480489Y-92559206D01*
X125532000Y-92548000D01*
X126698186Y-92548000D01*
X126698194Y-92548000D01*
X126735069Y-92545098D01*
X126735071Y-92545097D01*
X126735073Y-92545097D01*
X126776691Y-92533005D01*
X126892898Y-92499244D01*
X127034365Y-92415581D01*
X127150581Y-92299365D01*
X127234244Y-92157898D01*
X127280098Y-92000069D01*
X127283000Y-91963194D01*
X127283000Y-91622230D01*
X127302685Y-91555191D01*
X127319319Y-91534549D01*
X128082948Y-90770920D01*
X128082952Y-90770916D01*
X128156728Y-90660500D01*
X128156730Y-90660498D01*
X128165081Y-90647999D01*
X128165083Y-90647996D01*
X128165084Y-90647995D01*
X128206435Y-90548165D01*
X128221659Y-90511412D01*
X128246386Y-90387104D01*
X128246387Y-90387100D01*
X128247932Y-90379326D01*
X128250500Y-90366418D01*
X128250500Y-85926082D01*
X128250500Y-85926079D01*
X128221659Y-85781092D01*
X128221658Y-85781091D01*
X128221658Y-85781087D01*
X128209853Y-85752588D01*
X128165086Y-85644509D01*
X128165085Y-85644507D01*
X128163348Y-85641908D01*
X128132186Y-85595270D01*
X128095142Y-85539828D01*
X128082956Y-85521589D01*
X128082952Y-85521584D01*
X126431818Y-83870450D01*
X126398333Y-83809127D01*
X126395499Y-83782769D01*
X126395499Y-82149629D01*
X126395498Y-82149623D01*
X126395497Y-82149616D01*
X126389091Y-82090017D01*
X126386481Y-82083020D01*
X126338797Y-81955171D01*
X126338793Y-81955164D01*
X126252547Y-81839955D01*
X126252544Y-81839952D01*
X126137335Y-81753706D01*
X126137328Y-81753702D01*
X126002482Y-81703408D01*
X126002483Y-81703408D01*
X125942883Y-81697001D01*
X125942881Y-81697000D01*
X125942873Y-81697000D01*
X125942864Y-81697000D01*
X123547129Y-81697000D01*
X123547123Y-81697001D01*
X123487516Y-81703408D01*
X123352671Y-81753702D01*
X123352664Y-81753706D01*
X123237455Y-81839952D01*
X123237452Y-81839955D01*
X123151206Y-81955164D01*
X123151202Y-81955171D01*
X123100908Y-82090017D01*
X123094501Y-82149616D01*
X123094501Y-82149623D01*
X123094500Y-82149635D01*
X123094500Y-85345370D01*
X123094501Y-85345376D01*
X123100908Y-85404983D01*
X123151202Y-85539828D01*
X123151206Y-85539835D01*
X123237452Y-85655044D01*
X123237455Y-85655047D01*
X123352664Y-85741293D01*
X123352671Y-85741297D01*
X123487517Y-85791591D01*
X123487516Y-85791591D01*
X123494444Y-85792335D01*
X123547127Y-85798000D01*
X125942872Y-85797999D01*
X126002483Y-85791591D01*
X126093693Y-85757571D01*
X126163382Y-85752588D01*
X126224702Y-85786070D01*
X126224705Y-85786073D01*
X126713181Y-86274549D01*
X126746666Y-86335872D01*
X126749500Y-86362230D01*
X126749500Y-89930270D01*
X126729815Y-89997309D01*
X126713181Y-90017951D01*
X125820451Y-90910681D01*
X125759128Y-90944166D01*
X125732770Y-90947000D01*
X125532000Y-90947000D01*
X125464961Y-90927315D01*
X125419206Y-90874511D01*
X125408000Y-90823000D01*
X125408000Y-90581813D01*
X125407999Y-90581798D01*
X125405352Y-90548166D01*
X125405098Y-90544931D01*
X125388741Y-90488632D01*
X125359245Y-90387104D01*
X125359243Y-90387100D01*
X125275582Y-90245637D01*
X125275581Y-90245635D01*
X125275579Y-90245633D01*
X125275576Y-90245629D01*
X125159370Y-90129423D01*
X125159362Y-90129417D01*
X125081181Y-90083181D01*
X125017898Y-90045756D01*
X125017897Y-90045755D01*
X125017896Y-90045755D01*
X125017893Y-90045754D01*
X124860073Y-89999902D01*
X124860067Y-89999901D01*
X124823201Y-89997000D01*
X124823194Y-89997000D01*
X123516806Y-89997000D01*
X123516798Y-89997000D01*
X123479932Y-89999901D01*
X123479926Y-89999902D01*
X123334767Y-90042076D01*
X123300172Y-90047000D01*
X121719499Y-90047000D01*
X121652460Y-90027315D01*
X121606705Y-89974511D01*
X121595499Y-89923000D01*
X121595499Y-89897498D01*
X121595498Y-89897481D01*
X121584999Y-89794703D01*
X121584998Y-89794700D01*
X121529814Y-89628166D01*
X121437712Y-89478844D01*
X121313656Y-89354788D01*
X121200853Y-89285211D01*
X121164336Y-89262687D01*
X121164331Y-89262685D01*
X121162862Y-89262198D01*
X120997797Y-89207501D01*
X120997795Y-89207500D01*
X120895010Y-89197000D01*
X120194998Y-89197000D01*
X120194980Y-89197001D01*
X120092203Y-89207500D01*
X120092200Y-89207501D01*
X119925668Y-89262685D01*
X119925663Y-89262687D01*
X119776345Y-89354787D01*
X119670450Y-89460682D01*
X119609127Y-89494166D01*
X119582769Y-89497000D01*
X117026058Y-89497000D01*
X116959019Y-89477315D01*
X116920519Y-89438097D01*
X116837712Y-89303844D01*
X116713656Y-89179788D01*
X116564334Y-89087686D01*
X116397797Y-89032501D01*
X116397795Y-89032500D01*
X116295010Y-89022000D01*
X115694998Y-89022000D01*
X115694980Y-89022001D01*
X115592203Y-89032500D01*
X115592200Y-89032501D01*
X115425668Y-89087685D01*
X115425663Y-89087687D01*
X115276342Y-89179789D01*
X115152288Y-89303843D01*
X115152283Y-89303849D01*
X115150241Y-89307161D01*
X115148247Y-89308953D01*
X115147807Y-89309511D01*
X115147711Y-89309435D01*
X115098291Y-89353883D01*
X115029328Y-89365102D01*
X114965247Y-89337255D01*
X114939168Y-89307156D01*
X114937319Y-89304159D01*
X114937316Y-89304155D01*
X114813345Y-89180184D01*
X114664124Y-89088143D01*
X114664119Y-89088141D01*
X114497697Y-89032994D01*
X114497690Y-89032993D01*
X114394986Y-89022500D01*
X114345000Y-89022500D01*
X113845000Y-89022500D01*
X113844999Y-89022499D01*
X113795029Y-89022500D01*
X113795011Y-89022501D01*
X113692302Y-89032994D01*
X113525880Y-89088141D01*
X113525875Y-89088143D01*
X113376654Y-89180184D01*
X113252684Y-89304154D01*
X113160643Y-89453375D01*
X113160641Y-89453380D01*
X113105494Y-89619802D01*
X113105493Y-89619809D01*
X113095000Y-89722513D01*
X102868960Y-89722513D01*
X102247488Y-89101041D01*
X102307890Y-89076022D01*
X102414351Y-89004888D01*
X102504888Y-88914351D01*
X102576022Y-88807890D01*
X102601041Y-88747487D01*
X103437276Y-89583723D01*
X103437279Y-89583723D01*
X103499850Y-89502181D01*
X103617834Y-89297828D01*
X103617839Y-89297819D01*
X103708129Y-89079837D01*
X103769200Y-88851914D01*
X103799999Y-88617985D01*
X103800000Y-88617971D01*
X103800000Y-88382028D01*
X103799999Y-88382014D01*
X103769200Y-88148085D01*
X103708129Y-87920162D01*
X103617839Y-87702180D01*
X103617834Y-87702171D01*
X103499855Y-87497828D01*
X103499854Y-87497827D01*
X103437277Y-87416275D01*
X102601041Y-88252511D01*
X102576022Y-88192110D01*
X102504888Y-88085649D01*
X102414351Y-87995112D01*
X102307890Y-87923978D01*
X102247488Y-87898958D01*
X103083723Y-87062721D01*
X103002172Y-87000145D01*
X103002171Y-87000144D01*
X102797828Y-86882165D01*
X102797819Y-86882160D01*
X102579836Y-86791870D01*
X102579838Y-86791870D01*
X102351914Y-86730799D01*
X102117985Y-86700000D01*
X101882014Y-86700000D01*
X101648085Y-86730799D01*
X101420162Y-86791870D01*
X101202180Y-86882160D01*
X101202171Y-86882165D01*
X100997828Y-87000144D01*
X100997818Y-87000150D01*
X100916275Y-87062720D01*
X100916275Y-87062721D01*
X101752512Y-87898958D01*
X101692110Y-87923978D01*
X101585649Y-87995112D01*
X101495112Y-88085649D01*
X101423978Y-88192110D01*
X101398958Y-88252511D01*
X100562721Y-87416275D01*
X100562720Y-87416275D01*
X100500150Y-87497818D01*
X100500144Y-87497828D01*
X100382165Y-87702171D01*
X100382160Y-87702180D01*
X100291870Y-87920162D01*
X100230799Y-88148085D01*
X100200000Y-88382014D01*
X93310891Y-88382014D01*
X93310891Y-87301713D01*
X93310936Y-87298355D01*
X93315488Y-87130318D01*
X93348757Y-85902206D01*
X93348894Y-85898864D01*
X93355009Y-85786073D01*
X93424505Y-84504289D01*
X93424725Y-84501034D01*
X93538079Y-83108952D01*
X93538396Y-83105628D01*
X93538801Y-83101908D01*
X93623840Y-82319983D01*
X100199500Y-82319983D01*
X100199500Y-84520001D01*
X100199501Y-84520018D01*
X100210000Y-84622796D01*
X100210001Y-84622799D01*
X100262917Y-84782487D01*
X100265186Y-84789334D01*
X100357288Y-84938656D01*
X100481344Y-85062712D01*
X100630666Y-85154814D01*
X100797203Y-85209999D01*
X100899991Y-85220500D01*
X103100008Y-85220499D01*
X103202797Y-85209999D01*
X103369334Y-85154814D01*
X103518656Y-85062712D01*
X103642712Y-84938656D01*
X103734814Y-84789334D01*
X103789999Y-84622797D01*
X103799286Y-84531897D01*
X103825683Y-84467205D01*
X103882864Y-84427054D01*
X103922644Y-84420500D01*
X115570501Y-84420500D01*
X115637540Y-84440185D01*
X115683295Y-84492989D01*
X115694501Y-84544500D01*
X115694501Y-85345376D01*
X115700908Y-85404983D01*
X115751202Y-85539828D01*
X115751206Y-85539835D01*
X115837452Y-85655044D01*
X115837455Y-85655047D01*
X115952664Y-85741293D01*
X115952671Y-85741297D01*
X116087517Y-85791591D01*
X116087516Y-85791591D01*
X116094444Y-85792335D01*
X116147127Y-85798000D01*
X118542872Y-85797999D01*
X118602483Y-85791591D01*
X118737331Y-85741296D01*
X118852546Y-85655046D01*
X118938796Y-85539831D01*
X118989091Y-85404983D01*
X118995500Y-85345373D01*
X118995499Y-82149628D01*
X118989091Y-82090017D01*
X118986481Y-82083020D01*
X118938797Y-81955171D01*
X118938793Y-81955164D01*
X118852547Y-81839955D01*
X118852544Y-81839952D01*
X118737335Y-81753706D01*
X118737328Y-81753702D01*
X118602482Y-81703408D01*
X118602483Y-81703408D01*
X118542883Y-81697001D01*
X118542881Y-81697000D01*
X118542873Y-81697000D01*
X118542864Y-81697000D01*
X116147129Y-81697000D01*
X116147123Y-81697001D01*
X116087516Y-81703408D01*
X115952671Y-81753702D01*
X115952664Y-81753706D01*
X115837455Y-81839952D01*
X115837452Y-81839955D01*
X115751206Y-81955164D01*
X115751202Y-81955171D01*
X115700908Y-82090017D01*
X115694501Y-82149616D01*
X115694501Y-82149623D01*
X115694500Y-82149635D01*
X115694500Y-82295500D01*
X115674815Y-82362539D01*
X115622011Y-82408294D01*
X115570500Y-82419500D01*
X103922643Y-82419500D01*
X103855604Y-82399815D01*
X103809849Y-82347011D01*
X103799285Y-82308102D01*
X103792582Y-82242490D01*
X103789999Y-82217203D01*
X103734814Y-82050666D01*
X103642712Y-81901344D01*
X103518656Y-81777288D01*
X103415869Y-81713889D01*
X103369336Y-81685187D01*
X103369331Y-81685185D01*
X103367862Y-81684698D01*
X103202797Y-81630001D01*
X103202795Y-81630000D01*
X103100010Y-81619500D01*
X100899998Y-81619500D01*
X100899981Y-81619501D01*
X100797203Y-81630000D01*
X100797200Y-81630001D01*
X100630668Y-81685185D01*
X100630663Y-81685187D01*
X100481342Y-81777289D01*
X100357289Y-81901342D01*
X100265187Y-82050663D01*
X100265185Y-82050668D01*
X100252146Y-82090017D01*
X100210001Y-82217203D01*
X100210001Y-82217204D01*
X100210000Y-82217204D01*
X100199500Y-82319983D01*
X93623840Y-82319983D01*
X93689399Y-81717176D01*
X93689796Y-81713934D01*
X93878352Y-80330005D01*
X93878830Y-80326816D01*
X94104812Y-78948387D01*
X94105362Y-78945299D01*
X94368571Y-77573585D01*
X94369221Y-77570424D01*
X94669472Y-76206378D01*
X94670232Y-76203134D01*
X94838880Y-75524986D01*
X123550001Y-75524986D01*
X123560494Y-75627697D01*
X123615641Y-75794119D01*
X123615643Y-75794124D01*
X123707684Y-75943345D01*
X123831654Y-76067315D01*
X123980875Y-76159356D01*
X123980880Y-76159358D01*
X124147302Y-76214505D01*
X124147309Y-76214506D01*
X124250019Y-76224999D01*
X124299999Y-76224998D01*
X124300000Y-76224998D01*
X124300000Y-75250000D01*
X123550001Y-75250000D01*
X123550001Y-75524986D01*
X94838880Y-75524986D01*
X95007305Y-74847731D01*
X95008138Y-74844569D01*
X95110745Y-74475013D01*
X123550000Y-74475013D01*
X123550000Y-74750000D01*
X124300000Y-74750000D01*
X124300000Y-73775000D01*
X124800000Y-73775000D01*
X124800000Y-76224999D01*
X124849972Y-76224999D01*
X124849986Y-76224998D01*
X124952697Y-76214505D01*
X125119119Y-76159358D01*
X125119124Y-76159356D01*
X125268345Y-76067315D01*
X125392318Y-75943342D01*
X125394165Y-75940348D01*
X125395969Y-75938724D01*
X125396798Y-75937677D01*
X125396976Y-75937818D01*
X125446110Y-75893621D01*
X125515073Y-75882396D01*
X125579156Y-75910236D01*
X125605243Y-75940341D01*
X125607288Y-75943656D01*
X125731344Y-76067712D01*
X125880666Y-76159814D01*
X126047203Y-76214999D01*
X126149991Y-76225500D01*
X126750008Y-76225499D01*
X126750016Y-76225498D01*
X126750019Y-76225498D01*
X126806302Y-76219748D01*
X126852797Y-76214999D01*
X127019334Y-76159814D01*
X127168656Y-76067712D01*
X127292712Y-75943656D01*
X127375519Y-75809402D01*
X127427467Y-75762679D01*
X127481058Y-75750500D01*
X130678043Y-75750500D01*
X130745082Y-75770185D01*
X130790837Y-75822989D01*
X130800781Y-75892147D01*
X130792604Y-75921953D01*
X130788909Y-75930872D01*
X130788907Y-75930880D01*
X130749500Y-76128992D01*
X130749500Y-76331007D01*
X130788907Y-76529119D01*
X130788910Y-76529131D01*
X130822547Y-76610338D01*
X130830016Y-76679807D01*
X130810405Y-76724864D01*
X130810895Y-76725132D01*
X130807910Y-76730596D01*
X130807260Y-76732092D01*
X130806646Y-76732911D01*
X130806645Y-76732913D01*
X130756403Y-76867620D01*
X130756401Y-76867627D01*
X130750000Y-76927155D01*
X130750000Y-77250000D01*
X131634134Y-77250000D01*
X131658326Y-77252383D01*
X131661123Y-77252939D01*
X131673995Y-77255499D01*
X131673996Y-77255500D01*
X131673997Y-77255500D01*
X131714170Y-77255500D01*
X131699925Y-77269745D01*
X131650556Y-77355255D01*
X131625000Y-77450630D01*
X131625000Y-77549370D01*
X131650556Y-77644745D01*
X131699925Y-77730255D01*
X131719670Y-77750000D01*
X130750000Y-77750000D01*
X130750000Y-78072844D01*
X130756401Y-78132372D01*
X130756403Y-78132379D01*
X130806645Y-78267086D01*
X130806649Y-78267093D01*
X130892809Y-78382187D01*
X130892812Y-78382190D01*
X131007906Y-78468350D01*
X131007913Y-78468354D01*
X131142620Y-78518596D01*
X131142627Y-78518598D01*
X131202155Y-78524999D01*
X131202172Y-78525000D01*
X131750000Y-78525000D01*
X131750000Y-77780330D01*
X131769745Y-77800075D01*
X131855255Y-77849444D01*
X131950630Y-77875000D01*
X132049370Y-77875000D01*
X132144745Y-77849444D01*
X132230255Y-77800075D01*
X132250000Y-77780330D01*
X132250000Y-78525000D01*
X132797828Y-78525000D01*
X132797844Y-78524999D01*
X132857372Y-78518598D01*
X132857379Y-78518596D01*
X132992086Y-78468354D01*
X132992093Y-78468350D01*
X133107187Y-78382190D01*
X133107190Y-78382187D01*
X133193350Y-78267093D01*
X133193354Y-78267086D01*
X133243596Y-78132379D01*
X133243598Y-78132372D01*
X133249999Y-78072844D01*
X133250000Y-78072827D01*
X133250000Y-77750000D01*
X132280330Y-77750000D01*
X132300075Y-77730255D01*
X132349444Y-77644745D01*
X132375000Y-77549370D01*
X132375000Y-77450630D01*
X132349444Y-77355255D01*
X132300075Y-77269745D01*
X132285830Y-77255500D01*
X132326004Y-77255500D01*
X132326004Y-77255499D01*
X132339473Y-77252820D01*
X132341674Y-77252383D01*
X132365866Y-77250000D01*
X133250000Y-77250000D01*
X133250000Y-77104500D01*
X133269685Y-77037461D01*
X133322489Y-76991706D01*
X133374000Y-76980500D01*
X134660134Y-76980500D01*
X134725231Y-76998961D01*
X134730666Y-77002314D01*
X134897203Y-77057499D01*
X134999991Y-77068000D01*
X136000008Y-77067999D01*
X136000016Y-77067998D01*
X136000019Y-77067998D01*
X136056302Y-77062248D01*
X136102797Y-77057499D01*
X136269334Y-77002314D01*
X136418656Y-76910212D01*
X136487049Y-76841819D01*
X136548372Y-76808334D01*
X136574730Y-76805500D01*
X138078920Y-76805500D01*
X138176462Y-76786096D01*
X138223913Y-76776658D01*
X138360495Y-76720084D01*
X138425803Y-76676447D01*
X138483416Y-76637952D01*
X139314259Y-75807107D01*
X139375582Y-75773623D01*
X139445273Y-75778607D01*
X139501207Y-75820478D01*
X139524413Y-75875391D01*
X139536446Y-75951368D01*
X139609433Y-76175996D01*
X139697020Y-76347893D01*
X139716657Y-76386433D01*
X139855483Y-76577510D01*
X140022490Y-76744517D01*
X140057127Y-76769683D01*
X140099792Y-76825013D01*
X140105771Y-76894626D01*
X140073165Y-76956421D01*
X140057130Y-76970315D01*
X140043112Y-76980500D01*
X140022488Y-76995484D01*
X139855485Y-77162487D01*
X139855485Y-77162488D01*
X139855483Y-77162490D01*
X139795862Y-77244550D01*
X139716657Y-77353566D01*
X139609433Y-77564003D01*
X139536446Y-77788631D01*
X139499500Y-78021902D01*
X139499500Y-78258097D01*
X139536446Y-78491368D01*
X139609433Y-78715996D01*
X139716657Y-78926433D01*
X139855483Y-79117510D01*
X140022490Y-79284517D01*
X140057127Y-79309683D01*
X140099792Y-79365013D01*
X140105771Y-79434626D01*
X140073165Y-79496421D01*
X140057130Y-79510315D01*
X140039365Y-79523222D01*
X140022488Y-79535484D01*
X139855485Y-79702487D01*
X139855485Y-79702488D01*
X139855483Y-79702490D01*
X139795862Y-79784550D01*
X139716657Y-79893566D01*
X139609433Y-80104003D01*
X139536446Y-80328631D01*
X139499500Y-80561902D01*
X139499500Y-80798097D01*
X139536446Y-81031368D01*
X139609433Y-81255996D01*
X139675168Y-81385007D01*
X139716657Y-81466433D01*
X139855483Y-81657510D01*
X140022490Y-81824517D01*
X140057127Y-81849683D01*
X140099792Y-81905013D01*
X140105771Y-81974626D01*
X140073165Y-82036421D01*
X140057130Y-82050315D01*
X140056645Y-82050668D01*
X140022488Y-82075484D01*
X139855485Y-82242487D01*
X139855485Y-82242488D01*
X139855483Y-82242490D01*
X139816969Y-82295500D01*
X139716657Y-82433566D01*
X139609433Y-82644003D01*
X139536446Y-82868631D01*
X139499500Y-83101902D01*
X139499500Y-83338097D01*
X139536446Y-83571368D01*
X139609433Y-83795996D01*
X139647370Y-83870450D01*
X139716657Y-84006433D01*
X139855483Y-84197510D01*
X140022490Y-84364517D01*
X140057127Y-84389683D01*
X140099792Y-84445013D01*
X140105771Y-84514626D01*
X140073165Y-84576421D01*
X140057130Y-84590315D01*
X140039365Y-84603222D01*
X140022488Y-84615484D01*
X139855485Y-84782487D01*
X139855485Y-84782488D01*
X139855483Y-84782490D01*
X139795862Y-84864550D01*
X139716657Y-84973566D01*
X139609433Y-85184003D01*
X139536446Y-85408631D01*
X139499500Y-85641902D01*
X139499500Y-85878097D01*
X139536447Y-86111368D01*
X139536446Y-86111368D01*
X139609433Y-86335996D01*
X139716657Y-86546433D01*
X139855483Y-86737510D01*
X140022490Y-86904517D01*
X140057127Y-86929683D01*
X140099792Y-86985013D01*
X140105771Y-87054626D01*
X140073165Y-87116421D01*
X140057130Y-87130315D01*
X140039365Y-87143222D01*
X140022488Y-87155484D01*
X139855485Y-87322487D01*
X139855485Y-87322488D01*
X139855483Y-87322490D01*
X139795862Y-87404550D01*
X139716657Y-87513566D01*
X139609433Y-87724003D01*
X139536446Y-87948631D01*
X139499500Y-88181902D01*
X139499500Y-88418097D01*
X139536446Y-88651368D01*
X139609433Y-88875996D01*
X139684082Y-89022501D01*
X139716657Y-89086433D01*
X139855483Y-89277510D01*
X140022490Y-89444517D01*
X140057127Y-89469683D01*
X140099792Y-89525013D01*
X140105771Y-89594626D01*
X140073165Y-89656421D01*
X140057130Y-89670315D01*
X140039365Y-89683222D01*
X140022488Y-89695484D01*
X139855485Y-89862487D01*
X139855485Y-89862488D01*
X139855483Y-89862490D01*
X139830048Y-89897498D01*
X139716657Y-90053566D01*
X139609433Y-90264003D01*
X139536446Y-90488631D01*
X139499500Y-90721902D01*
X139499500Y-90958097D01*
X139536446Y-91191368D01*
X139609433Y-91415996D01*
X139700691Y-91595098D01*
X139716657Y-91626433D01*
X139855483Y-91817510D01*
X140022490Y-91984517D01*
X140057127Y-92009683D01*
X140099792Y-92065013D01*
X140105771Y-92134626D01*
X140073165Y-92196421D01*
X140057130Y-92210315D01*
X140039365Y-92223222D01*
X140022488Y-92235484D01*
X139855485Y-92402487D01*
X139855485Y-92402488D01*
X139855483Y-92402490D01*
X139836827Y-92428168D01*
X139716657Y-92593566D01*
X139609433Y-92804003D01*
X139536446Y-93028631D01*
X139499500Y-93261902D01*
X139499500Y-93498097D01*
X139536446Y-93731368D01*
X139609433Y-93955996D01*
X139714760Y-94162710D01*
X139716657Y-94166433D01*
X139855483Y-94357510D01*
X140022490Y-94524517D01*
X140057127Y-94549683D01*
X140099792Y-94605013D01*
X140105771Y-94674626D01*
X140073165Y-94736421D01*
X140057130Y-94750315D01*
X140039365Y-94763222D01*
X140022488Y-94775484D01*
X139855485Y-94942487D01*
X139855485Y-94942488D01*
X139855483Y-94942490D01*
X139795862Y-95024550D01*
X139716657Y-95133566D01*
X139609433Y-95344003D01*
X139536446Y-95568631D01*
X139499500Y-95801902D01*
X139499500Y-96038097D01*
X139536446Y-96271368D01*
X139609433Y-96495996D01*
X139672466Y-96619704D01*
X139716657Y-96706433D01*
X139855483Y-96897510D01*
X140022490Y-97064517D01*
X140057127Y-97089683D01*
X140099792Y-97145013D01*
X140105771Y-97214626D01*
X140073165Y-97276421D01*
X140057130Y-97290315D01*
X140039365Y-97303222D01*
X140022488Y-97315484D01*
X139855485Y-97482487D01*
X139855485Y-97482488D01*
X139855483Y-97482490D01*
X139844578Y-97497500D01*
X139716657Y-97673566D01*
X139609433Y-97884003D01*
X139536446Y-98108631D01*
X139499500Y-98341902D01*
X139499500Y-98578097D01*
X139536446Y-98811368D01*
X139609433Y-99035996D01*
X139716657Y-99246433D01*
X139855483Y-99437510D01*
X140022490Y-99604517D01*
X140057127Y-99629683D01*
X140099792Y-99685013D01*
X140105771Y-99754626D01*
X140073165Y-99816421D01*
X140057130Y-99830315D01*
X140047583Y-99837252D01*
X140022488Y-99855484D01*
X139855485Y-100022487D01*
X139855485Y-100022488D01*
X139855483Y-100022490D01*
X139795862Y-100104550D01*
X139716657Y-100213566D01*
X139609433Y-100424003D01*
X139536446Y-100648631D01*
X139499500Y-100881902D01*
X139499500Y-101118097D01*
X139536446Y-101351368D01*
X139609433Y-101575996D01*
X139668111Y-101691157D01*
X139716657Y-101786433D01*
X139855483Y-101977510D01*
X140022490Y-102144517D01*
X140057127Y-102169683D01*
X140099792Y-102225013D01*
X140105771Y-102294626D01*
X140073165Y-102356421D01*
X140057130Y-102370315D01*
X140039365Y-102383222D01*
X140022488Y-102395484D01*
X139855485Y-102562487D01*
X139855485Y-102562488D01*
X139855483Y-102562490D01*
X139795862Y-102644550D01*
X139716657Y-102753566D01*
X139609433Y-102964003D01*
X139536446Y-103188631D01*
X139499500Y-103421902D01*
X139499500Y-103658097D01*
X139536446Y-103891368D01*
X139609433Y-104115996D01*
X139699025Y-104291829D01*
X139716657Y-104326433D01*
X139855483Y-104517510D01*
X140022490Y-104684517D01*
X140057127Y-104709683D01*
X140099792Y-104765013D01*
X140105771Y-104834626D01*
X140073165Y-104896421D01*
X140057130Y-104910315D01*
X140039365Y-104923222D01*
X140022488Y-104935484D01*
X139855485Y-105102487D01*
X139855485Y-105102488D01*
X139855483Y-105102490D01*
X139826699Y-105142108D01*
X139716657Y-105293566D01*
X139609433Y-105504003D01*
X139536446Y-105728631D01*
X139499500Y-105961902D01*
X139499500Y-106198097D01*
X139536446Y-106431368D01*
X139609433Y-106655996D01*
X139716657Y-106866433D01*
X139855483Y-107057510D01*
X140022490Y-107224517D01*
X140057127Y-107249683D01*
X140099792Y-107305013D01*
X140105771Y-107374626D01*
X140073165Y-107436421D01*
X140057130Y-107450315D01*
X140039365Y-107463222D01*
X140022488Y-107475484D01*
X139855485Y-107642487D01*
X139855485Y-107642488D01*
X139855483Y-107642490D01*
X139828384Y-107679789D01*
X139716657Y-107833566D01*
X139609433Y-108044003D01*
X139536446Y-108268631D01*
X139499500Y-108501902D01*
X139499500Y-108738097D01*
X139536446Y-108971368D01*
X139609433Y-109195996D01*
X139700741Y-109375197D01*
X139716657Y-109406433D01*
X139855483Y-109597510D01*
X140022490Y-109764517D01*
X140053415Y-109786985D01*
X140096080Y-109842316D01*
X140102059Y-109911929D01*
X140069453Y-109973724D01*
X140053416Y-109987620D01*
X140018810Y-110012762D01*
X139851805Y-110179767D01*
X139851805Y-110179768D01*
X139851803Y-110179770D01*
X139849827Y-110182490D01*
X139712977Y-110370846D01*
X139605753Y-110581283D01*
X139532766Y-110805911D01*
X139495820Y-111039182D01*
X139495820Y-111275377D01*
X139532766Y-111508648D01*
X139605753Y-111733276D01*
X139712977Y-111943713D01*
X139851803Y-112134790D01*
X140018810Y-112301797D01*
X140053447Y-112326963D01*
X140096112Y-112382293D01*
X140102091Y-112451906D01*
X140069485Y-112513701D01*
X140053450Y-112527595D01*
X140035685Y-112540502D01*
X140018808Y-112552764D01*
X139851805Y-112719767D01*
X139851805Y-112719768D01*
X139851803Y-112719770D01*
X139792182Y-112801830D01*
X139712977Y-112910846D01*
X139605753Y-113121283D01*
X139586638Y-113180113D01*
X139577809Y-113207289D01*
X139575687Y-113213819D01*
X139536249Y-113271494D01*
X139471890Y-113298692D01*
X139457756Y-113299500D01*
X139087230Y-113299500D01*
X139020191Y-113279815D01*
X138999549Y-113263181D01*
X138943657Y-113207289D01*
X138943656Y-113207288D01*
X138850888Y-113150069D01*
X138794336Y-113115187D01*
X138794331Y-113115185D01*
X138792862Y-113114698D01*
X138627797Y-113060001D01*
X138627795Y-113060000D01*
X138525010Y-113049500D01*
X137474998Y-113049500D01*
X137474980Y-113049501D01*
X137372203Y-113060000D01*
X137372200Y-113060001D01*
X137205668Y-113115185D01*
X137205663Y-113115187D01*
X137056342Y-113207289D01*
X137000451Y-113263181D01*
X136939128Y-113296666D01*
X136912770Y-113299500D01*
X133709729Y-113299500D01*
X133642690Y-113279815D01*
X133622048Y-113263181D01*
X129194048Y-108835180D01*
X129160563Y-108773857D01*
X129165547Y-108704165D01*
X129194048Y-108659818D01*
X129627949Y-108225918D01*
X129627950Y-108225917D01*
X129627950Y-108225916D01*
X129627952Y-108225915D01*
X129668956Y-108164548D01*
X129710084Y-108102995D01*
X129742042Y-108025842D01*
X129766659Y-107966412D01*
X129795500Y-107821417D01*
X129795500Y-107673582D01*
X129795500Y-106715265D01*
X129815185Y-106648226D01*
X129854401Y-106609727D01*
X129875391Y-106596781D01*
X129994281Y-106477891D01*
X130082549Y-106334787D01*
X130135436Y-106175185D01*
X130145500Y-106076674D01*
X130145500Y-105543326D01*
X130135436Y-105444815D01*
X130082549Y-105285213D01*
X130082545Y-105285207D01*
X130082544Y-105285204D01*
X129994283Y-105142112D01*
X129994280Y-105142108D01*
X129875391Y-105023219D01*
X129875387Y-105023216D01*
X129732295Y-104934955D01*
X129732289Y-104934952D01*
X129732287Y-104934951D01*
X129572685Y-104882064D01*
X129572683Y-104882063D01*
X129474181Y-104872000D01*
X129474174Y-104872000D01*
X128615826Y-104872000D01*
X128615818Y-104872000D01*
X128517316Y-104882063D01*
X128517315Y-104882064D01*
X128503521Y-104886635D01*
X128357715Y-104934950D01*
X128357704Y-104934955D01*
X128214612Y-105023216D01*
X128214608Y-105023219D01*
X128095719Y-105142108D01*
X128095716Y-105142112D01*
X128007455Y-105285204D01*
X128007450Y-105285215D01*
X127980773Y-105365719D01*
X127954564Y-105444815D01*
X127954564Y-105444816D01*
X127954563Y-105444816D01*
X127944500Y-105543318D01*
X127944500Y-106076681D01*
X127954563Y-106175183D01*
X128007450Y-106334784D01*
X128007455Y-106334795D01*
X128095716Y-106477887D01*
X128095719Y-106477891D01*
X128214609Y-106596781D01*
X128235597Y-106609727D01*
X128282321Y-106661674D01*
X128294500Y-106715265D01*
X128294500Y-107385270D01*
X128274815Y-107452309D01*
X128258182Y-107472949D01*
X128245447Y-107485685D01*
X128184122Y-107519167D01*
X128157769Y-107522000D01*
X127744998Y-107522000D01*
X127744980Y-107522001D01*
X127642203Y-107532500D01*
X127642200Y-107532501D01*
X127475668Y-107587685D01*
X127475663Y-107587687D01*
X127326342Y-107679789D01*
X127202288Y-107803843D01*
X127202283Y-107803849D01*
X127200241Y-107807161D01*
X127198247Y-107808953D01*
X127197807Y-107809511D01*
X127197711Y-107809435D01*
X127148291Y-107853883D01*
X127079328Y-107865102D01*
X127015247Y-107837255D01*
X126989168Y-107807156D01*
X126987319Y-107804159D01*
X126987316Y-107804155D01*
X126863345Y-107680184D01*
X126714124Y-107588143D01*
X126714119Y-107588141D01*
X126547697Y-107532994D01*
X126547690Y-107532993D01*
X126444986Y-107522500D01*
X126395000Y-107522500D01*
X126395000Y-109972499D01*
X126444972Y-109972499D01*
X126444986Y-109972498D01*
X126547697Y-109962005D01*
X126714119Y-109906858D01*
X126714124Y-109906856D01*
X126863345Y-109814815D01*
X126987318Y-109690842D01*
X126989165Y-109687848D01*
X126990969Y-109686224D01*
X126991798Y-109685177D01*
X126991976Y-109685318D01*
X127041110Y-109641121D01*
X127110073Y-109629896D01*
X127174156Y-109657736D01*
X127200243Y-109687841D01*
X127202288Y-109691156D01*
X127326344Y-109815212D01*
X127475666Y-109907314D01*
X127642203Y-109962499D01*
X127744991Y-109973000D01*
X128157769Y-109972999D01*
X128224808Y-109992683D01*
X128245450Y-110009318D01*
X132764548Y-114528415D01*
X132764549Y-114528416D01*
X132869084Y-114632951D01*
X132869085Y-114632952D01*
X132991998Y-114715080D01*
X132992011Y-114715087D01*
X133128582Y-114771656D01*
X133128587Y-114771658D01*
X133128591Y-114771658D01*
X133128592Y-114771659D01*
X133273579Y-114800500D01*
X133273582Y-114800500D01*
X136912770Y-114800500D01*
X136979809Y-114820185D01*
X137000451Y-114836819D01*
X137056344Y-114892712D01*
X137059628Y-114894737D01*
X137059653Y-114894753D01*
X137061445Y-114896746D01*
X137062011Y-114897193D01*
X137061934Y-114897289D01*
X137106379Y-114946699D01*
X137117603Y-115015661D01*
X137089761Y-115079744D01*
X137059665Y-115105826D01*
X137056660Y-115107679D01*
X137056655Y-115107683D01*
X136932684Y-115231654D01*
X136840643Y-115380875D01*
X136840641Y-115380880D01*
X136785494Y-115547302D01*
X136785493Y-115547309D01*
X136775000Y-115650013D01*
X136775000Y-115700000D01*
X139224999Y-115700000D01*
X139224999Y-115650028D01*
X139224998Y-115650013D01*
X139214505Y-115547302D01*
X139159358Y-115380880D01*
X139159356Y-115380875D01*
X139067315Y-115231654D01*
X138943344Y-115107683D01*
X138943341Y-115107681D01*
X138940339Y-115105829D01*
X138938713Y-115104021D01*
X138937677Y-115103202D01*
X138937817Y-115103024D01*
X138893617Y-115053880D01*
X138882397Y-114984917D01*
X138910243Y-114920836D01*
X138940344Y-114894754D01*
X138943656Y-114892712D01*
X138999549Y-114836819D01*
X139060872Y-114803334D01*
X139087230Y-114800500D01*
X139926151Y-114800500D01*
X139993190Y-114820185D01*
X140013832Y-114836819D01*
X140018810Y-114841797D01*
X140053873Y-114867272D01*
X140096537Y-114922599D01*
X140102516Y-114992213D01*
X140069911Y-115054008D01*
X140053874Y-115067904D01*
X140019139Y-115093141D01*
X140019133Y-115093146D01*
X139852186Y-115260093D01*
X139713405Y-115451108D01*
X139606217Y-115661477D01*
X139533254Y-115886032D01*
X139517218Y-115987280D01*
X140563308Y-115987280D01*
X140530395Y-116044287D01*
X140496320Y-116171454D01*
X140496320Y-116303106D01*
X140530395Y-116430273D01*
X140563308Y-116487280D01*
X139517218Y-116487280D01*
X139533254Y-116588527D01*
X139606217Y-116813082D01*
X139713405Y-117023451D01*
X139852186Y-117214466D01*
X140019133Y-117381413D01*
X140210148Y-117520194D01*
X140420515Y-117627382D01*
X140645064Y-117700343D01*
X140645070Y-117700345D01*
X140746320Y-117716381D01*
X140746320Y-116670292D01*
X140803327Y-116703205D01*
X140930494Y-116737280D01*
X141062146Y-116737280D01*
X141189313Y-116703205D01*
X141246320Y-116670292D01*
X141246320Y-117716380D01*
X141347569Y-117700345D01*
X141347575Y-117700343D01*
X141572124Y-117627382D01*
X141782491Y-117520194D01*
X141973506Y-117381413D01*
X142140453Y-117214466D01*
X142279234Y-117023451D01*
X142386422Y-116813082D01*
X142459385Y-116588527D01*
X142475422Y-116487280D01*
X141429332Y-116487280D01*
X141462245Y-116430273D01*
X141496320Y-116303106D01*
X141496320Y-116171454D01*
X141462245Y-116044287D01*
X141429332Y-115987280D01*
X142475422Y-115987280D01*
X142459385Y-115886032D01*
X142386422Y-115661477D01*
X142279234Y-115451108D01*
X142140453Y-115260093D01*
X141973503Y-115093143D01*
X141938766Y-115067905D01*
X141896101Y-115012575D01*
X141890123Y-114942961D01*
X141922730Y-114881167D01*
X141938759Y-114867277D01*
X141973830Y-114841797D01*
X142140837Y-114674790D01*
X142279663Y-114483713D01*
X142386888Y-114273272D01*
X142459873Y-114048648D01*
X142464016Y-114022488D01*
X142484440Y-113893539D01*
X142496820Y-113815377D01*
X142496820Y-113579182D01*
X142459873Y-113345911D01*
X142416953Y-113213819D01*
X142386888Y-113121288D01*
X142386886Y-113121285D01*
X142386886Y-113121283D01*
X142330322Y-113010271D01*
X142279663Y-112910847D01*
X142140837Y-112719770D01*
X141973830Y-112552763D01*
X141939192Y-112527597D01*
X141896527Y-112472269D01*
X141890548Y-112402655D01*
X141923153Y-112340860D01*
X141939193Y-112326962D01*
X141973830Y-112301797D01*
X142140837Y-112134790D01*
X142279663Y-111943713D01*
X142386888Y-111733272D01*
X142459873Y-111508648D01*
X142496820Y-111275377D01*
X142496820Y-111039182D01*
X142459873Y-110805911D01*
X142426009Y-110701692D01*
X142386888Y-110581288D01*
X142386886Y-110581285D01*
X142386886Y-110581283D01*
X142330322Y-110470271D01*
X142279663Y-110370847D01*
X142140837Y-110179770D01*
X141973830Y-110012763D01*
X141969088Y-110009318D01*
X141942903Y-109990293D01*
X141900238Y-109934963D01*
X141894260Y-109865349D01*
X141926867Y-109803555D01*
X141942896Y-109789664D01*
X141977510Y-109764517D01*
X142144517Y-109597510D01*
X142283343Y-109406433D01*
X142390568Y-109195992D01*
X142463553Y-108971368D01*
X142485123Y-108835180D01*
X142500500Y-108738097D01*
X142500500Y-108501902D01*
X142463553Y-108268631D01*
X142390566Y-108044003D01*
X142299411Y-107865102D01*
X142283343Y-107833567D01*
X142144517Y-107642490D01*
X141977510Y-107475483D01*
X141942872Y-107450317D01*
X141900207Y-107394989D01*
X141894228Y-107325375D01*
X141926833Y-107263580D01*
X141942873Y-107249682D01*
X141977510Y-107224517D01*
X142144517Y-107057510D01*
X142283343Y-106866433D01*
X142390568Y-106655992D01*
X142463553Y-106431368D01*
X142478850Y-106334787D01*
X142500500Y-106198097D01*
X142500500Y-105961902D01*
X142463553Y-105728631D01*
X142403343Y-105543326D01*
X142390568Y-105504008D01*
X142390566Y-105504005D01*
X142390566Y-105504003D01*
X142283342Y-105293566D01*
X142277267Y-105285204D01*
X142144517Y-105102490D01*
X141977510Y-104935483D01*
X141976776Y-104934950D01*
X141942873Y-104910318D01*
X141900207Y-104854989D01*
X141894228Y-104785375D01*
X141926833Y-104723580D01*
X141942873Y-104709682D01*
X141977510Y-104684517D01*
X142144517Y-104517510D01*
X142283343Y-104326433D01*
X142390568Y-104115992D01*
X142463553Y-103891368D01*
X142471267Y-103842664D01*
X142500500Y-103658097D01*
X142500500Y-103421902D01*
X142463553Y-103188631D01*
X142429689Y-103084412D01*
X142390568Y-102964008D01*
X142390566Y-102964005D01*
X142390566Y-102964003D01*
X142312072Y-102809951D01*
X142283343Y-102753567D01*
X142144517Y-102562490D01*
X141977510Y-102395483D01*
X141942872Y-102370317D01*
X141900207Y-102314989D01*
X141894228Y-102245375D01*
X141926833Y-102183580D01*
X141942873Y-102169682D01*
X141977510Y-102144517D01*
X142144517Y-101977510D01*
X142283343Y-101786433D01*
X142390568Y-101575992D01*
X142463553Y-101351368D01*
X142473076Y-101291243D01*
X142500500Y-101118097D01*
X142500500Y-100881902D01*
X142463553Y-100648631D01*
X142390566Y-100424003D01*
X142304310Y-100254718D01*
X142283343Y-100213567D01*
X142144517Y-100022490D01*
X141977510Y-99855483D01*
X141942872Y-99830317D01*
X141900207Y-99774989D01*
X141894228Y-99705375D01*
X141926833Y-99643580D01*
X141942873Y-99629682D01*
X141977510Y-99604517D01*
X142144517Y-99437510D01*
X142283343Y-99246433D01*
X142390568Y-99035992D01*
X142463553Y-98811368D01*
X142492134Y-98630916D01*
X142500500Y-98578097D01*
X142500500Y-98341902D01*
X142463553Y-98108631D01*
X142390566Y-97884003D01*
X142283342Y-97673566D01*
X142144517Y-97482490D01*
X141977510Y-97315483D01*
X141942872Y-97290317D01*
X141900207Y-97234989D01*
X141894228Y-97165375D01*
X141926833Y-97103580D01*
X141942873Y-97089682D01*
X141977510Y-97064517D01*
X142144517Y-96897510D01*
X142283343Y-96706433D01*
X142390568Y-96495992D01*
X142463553Y-96271368D01*
X142473014Y-96211632D01*
X142500500Y-96038097D01*
X142500500Y-95801902D01*
X142463553Y-95568631D01*
X142390566Y-95344003D01*
X142283342Y-95133566D01*
X142144517Y-94942490D01*
X141977510Y-94775483D01*
X141942872Y-94750317D01*
X141900207Y-94694989D01*
X141894228Y-94625375D01*
X141926833Y-94563580D01*
X141942873Y-94549682D01*
X141977510Y-94524517D01*
X142144517Y-94357510D01*
X142283343Y-94166433D01*
X142390568Y-93955992D01*
X142463553Y-93731368D01*
X142473775Y-93666831D01*
X142500500Y-93498097D01*
X142500500Y-93261902D01*
X142463553Y-93028631D01*
X142419929Y-92894371D01*
X142390568Y-92804008D01*
X142390566Y-92804005D01*
X142390566Y-92804003D01*
X142334002Y-92692991D01*
X142283343Y-92593567D01*
X142144517Y-92402490D01*
X141977510Y-92235483D01*
X141942872Y-92210317D01*
X141900207Y-92154989D01*
X141894228Y-92085375D01*
X141926833Y-92023580D01*
X141942873Y-92009682D01*
X141945875Y-92007501D01*
X141977510Y-91984517D01*
X142144517Y-91817510D01*
X142283343Y-91626433D01*
X142390568Y-91415992D01*
X142463553Y-91191368D01*
X142487271Y-91041619D01*
X142500500Y-90958097D01*
X142500500Y-90721902D01*
X142463553Y-90488631D01*
X142423843Y-90366418D01*
X142390568Y-90264008D01*
X142390566Y-90264005D01*
X142390566Y-90264003D01*
X142327528Y-90140285D01*
X142283343Y-90053567D01*
X142144517Y-89862490D01*
X141977510Y-89695483D01*
X141942872Y-89670317D01*
X141900207Y-89614989D01*
X141894228Y-89545375D01*
X141926833Y-89483580D01*
X141942873Y-89469682D01*
X141977510Y-89444517D01*
X142144517Y-89277510D01*
X142283343Y-89086433D01*
X142390568Y-88875992D01*
X142463553Y-88651368D01*
X142477445Y-88563656D01*
X142500500Y-88418097D01*
X142500500Y-88181902D01*
X142463553Y-87948631D01*
X142390566Y-87724003D01*
X142283342Y-87513566D01*
X142271907Y-87497827D01*
X142144517Y-87322490D01*
X141977510Y-87155483D01*
X141942872Y-87130317D01*
X141900207Y-87074989D01*
X141894228Y-87005375D01*
X141926833Y-86943580D01*
X141942873Y-86929682D01*
X141977510Y-86904517D01*
X142144517Y-86737510D01*
X142283343Y-86546433D01*
X142390568Y-86335992D01*
X142463553Y-86111368D01*
X142468054Y-86082949D01*
X142500500Y-85878097D01*
X142500500Y-85641902D01*
X142463553Y-85408631D01*
X142402425Y-85220500D01*
X142390568Y-85184008D01*
X142390566Y-85184005D01*
X142390566Y-85184003D01*
X142283342Y-84973566D01*
X142257979Y-84938657D01*
X142144517Y-84782490D01*
X141977510Y-84615483D01*
X141942872Y-84590317D01*
X141900207Y-84534989D01*
X141894228Y-84465375D01*
X141926833Y-84403580D01*
X141942873Y-84389682D01*
X141977510Y-84364517D01*
X142144517Y-84197510D01*
X142283343Y-84006433D01*
X142390568Y-83795992D01*
X142463553Y-83571368D01*
X142480357Y-83465273D01*
X142500500Y-83338097D01*
X142500500Y-83101902D01*
X142463553Y-82868631D01*
X142390566Y-82644003D01*
X142283342Y-82433566D01*
X142144517Y-82242490D01*
X141977510Y-82075483D01*
X141942872Y-82050317D01*
X141900207Y-81994989D01*
X141894228Y-81925375D01*
X141926833Y-81863580D01*
X141942873Y-81849682D01*
X141977510Y-81824517D01*
X142144517Y-81657510D01*
X142283343Y-81466433D01*
X142390568Y-81255992D01*
X142463553Y-81031368D01*
X142474453Y-80962550D01*
X142500500Y-80798097D01*
X142500500Y-80561902D01*
X142463553Y-80328631D01*
X142414975Y-80179124D01*
X142390568Y-80104008D01*
X142390566Y-80104005D01*
X142390566Y-80104003D01*
X142283342Y-79893566D01*
X142144517Y-79702490D01*
X141977510Y-79535483D01*
X141942872Y-79510317D01*
X141900207Y-79454989D01*
X141894228Y-79385375D01*
X141926833Y-79323580D01*
X141942873Y-79309682D01*
X141977510Y-79284517D01*
X142144517Y-79117510D01*
X142283343Y-78926433D01*
X142390568Y-78715992D01*
X142463553Y-78491368D01*
X142480845Y-78382190D01*
X142500500Y-78258097D01*
X142500500Y-78021902D01*
X142463553Y-77788631D01*
X142393701Y-77573650D01*
X142390568Y-77564008D01*
X142390566Y-77564005D01*
X142390566Y-77564003D01*
X142283342Y-77353566D01*
X142144517Y-77162490D01*
X141977510Y-76995483D01*
X141942872Y-76970317D01*
X141900207Y-76914989D01*
X141894228Y-76845375D01*
X141926833Y-76783580D01*
X141942873Y-76769682D01*
X141977510Y-76744517D01*
X142144517Y-76577510D01*
X142283343Y-76386433D01*
X142390568Y-76175992D01*
X142463553Y-75951368D01*
X142474477Y-75882396D01*
X142500500Y-75718097D01*
X142500500Y-75481902D01*
X142463553Y-75248631D01*
X142390566Y-75024003D01*
X142334002Y-74912991D01*
X142283343Y-74813567D01*
X142144517Y-74622490D01*
X141977510Y-74455483D01*
X141942872Y-74430317D01*
X141900207Y-74374989D01*
X141894228Y-74305375D01*
X141926833Y-74243580D01*
X141942873Y-74229682D01*
X141977510Y-74204517D01*
X142144517Y-74037510D01*
X142283343Y-73846433D01*
X142390568Y-73635992D01*
X142463553Y-73411368D01*
X142469315Y-73374986D01*
X142500500Y-73178097D01*
X142500500Y-72941902D01*
X142463553Y-72708631D01*
X142390566Y-72484003D01*
X142283342Y-72273566D01*
X142282350Y-72272200D01*
X142144517Y-72082490D01*
X141977510Y-71915483D01*
X141942872Y-71890317D01*
X141900207Y-71834989D01*
X141894228Y-71765375D01*
X141926833Y-71703580D01*
X141942873Y-71689682D01*
X141977510Y-71664517D01*
X142144517Y-71497510D01*
X142283343Y-71306433D01*
X142390568Y-71095992D01*
X142463553Y-70871368D01*
X142488758Y-70712229D01*
X142500500Y-70638097D01*
X142500500Y-70401902D01*
X142463553Y-70168631D01*
X142406976Y-69994508D01*
X142390568Y-69944008D01*
X142390566Y-69944005D01*
X142390566Y-69944003D01*
X142317193Y-69800001D01*
X142283343Y-69733567D01*
X142144517Y-69542490D01*
X141977510Y-69375483D01*
X141942872Y-69350317D01*
X141900207Y-69294989D01*
X141894228Y-69225375D01*
X141926833Y-69163580D01*
X141942873Y-69149682D01*
X141977510Y-69124517D01*
X142144517Y-68957510D01*
X142283343Y-68766433D01*
X142390568Y-68555992D01*
X142463553Y-68331368D01*
X142500500Y-68098097D01*
X142500500Y-67861902D01*
X142463553Y-67628631D01*
X142390566Y-67404003D01*
X142283342Y-67193566D01*
X142144517Y-67002490D01*
X141977510Y-66835483D01*
X141942872Y-66810317D01*
X141900207Y-66754989D01*
X141894228Y-66685375D01*
X141926833Y-66623580D01*
X141942873Y-66609682D01*
X141977510Y-66584517D01*
X142144517Y-66417510D01*
X142283343Y-66226433D01*
X142390568Y-66015992D01*
X142463553Y-65791368D01*
X142465248Y-65780666D01*
X142500500Y-65558097D01*
X142500500Y-65321902D01*
X142463553Y-65088631D01*
X142390566Y-64864003D01*
X142283342Y-64653566D01*
X142283340Y-64653563D01*
X142193449Y-64529839D01*
X142169970Y-64464035D01*
X142185795Y-64395981D01*
X142234744Y-64348410D01*
X142234546Y-64348047D01*
X142235851Y-64347334D01*
X142235901Y-64347286D01*
X142236111Y-64347192D01*
X142242326Y-64343797D01*
X142242331Y-64343796D01*
X142357546Y-64257546D01*
X142443796Y-64142331D01*
X142494091Y-64007483D01*
X142500500Y-63947873D01*
X142500499Y-61852135D01*
X164899500Y-61852135D01*
X164899500Y-63947870D01*
X164899501Y-63947876D01*
X164905908Y-64007483D01*
X164956202Y-64142328D01*
X164956206Y-64142335D01*
X165042452Y-64257544D01*
X165042455Y-64257547D01*
X165157664Y-64343793D01*
X165165454Y-64348047D01*
X165163646Y-64351357D01*
X165205351Y-64382449D01*
X165229897Y-64447865D01*
X165215180Y-64516167D01*
X165206549Y-64529840D01*
X165116659Y-64653563D01*
X165009433Y-64864003D01*
X164936446Y-65088631D01*
X164899500Y-65321902D01*
X164899500Y-65558097D01*
X164936446Y-65791368D01*
X165009433Y-66015996D01*
X165041951Y-66079815D01*
X165116657Y-66226433D01*
X165255483Y-66417510D01*
X165422490Y-66584517D01*
X165457127Y-66609683D01*
X165499792Y-66665013D01*
X165505771Y-66734626D01*
X165473165Y-66796421D01*
X165457130Y-66810315D01*
X165439365Y-66823222D01*
X165422488Y-66835484D01*
X165255485Y-67002487D01*
X165255485Y-67002488D01*
X165255483Y-67002490D01*
X165195862Y-67084550D01*
X165116657Y-67193566D01*
X165009433Y-67404003D01*
X164936446Y-67628631D01*
X164899500Y-67861902D01*
X164899500Y-68098097D01*
X164936446Y-68331368D01*
X165009433Y-68555996D01*
X165116657Y-68766433D01*
X165255483Y-68957510D01*
X165422490Y-69124517D01*
X165457127Y-69149683D01*
X165499792Y-69205013D01*
X165505771Y-69274626D01*
X165473165Y-69336421D01*
X165457130Y-69350315D01*
X165439365Y-69363222D01*
X165422488Y-69375484D01*
X165255485Y-69542487D01*
X165255485Y-69542488D01*
X165255483Y-69542490D01*
X165195862Y-69624550D01*
X165116657Y-69733566D01*
X165009433Y-69944003D01*
X164936446Y-70168631D01*
X164899500Y-70401902D01*
X164899500Y-70638097D01*
X164936446Y-70871368D01*
X165009433Y-71095996D01*
X165097754Y-71269334D01*
X165116657Y-71306433D01*
X165255483Y-71497510D01*
X165422490Y-71664517D01*
X165457127Y-71689683D01*
X165499792Y-71745013D01*
X165505771Y-71814626D01*
X165473165Y-71876421D01*
X165457130Y-71890315D01*
X165440675Y-71902271D01*
X165422488Y-71915484D01*
X165255485Y-72082487D01*
X165255485Y-72082488D01*
X165255483Y-72082490D01*
X165201105Y-72157335D01*
X165116657Y-72273566D01*
X165009433Y-72484003D01*
X164936446Y-72708631D01*
X164899500Y-72941902D01*
X164899500Y-73178097D01*
X164936446Y-73411368D01*
X165009433Y-73635996D01*
X165113706Y-73840641D01*
X165116657Y-73846433D01*
X165255483Y-74037510D01*
X165422490Y-74204517D01*
X165457127Y-74229683D01*
X165499792Y-74285013D01*
X165505771Y-74354626D01*
X165473165Y-74416421D01*
X165457130Y-74430315D01*
X165445602Y-74438691D01*
X165422488Y-74455484D01*
X165255485Y-74622487D01*
X165255485Y-74622488D01*
X165255483Y-74622490D01*
X165195862Y-74704550D01*
X165116657Y-74813566D01*
X165009433Y-75024003D01*
X164936446Y-75248631D01*
X164899500Y-75481902D01*
X164899500Y-75718097D01*
X164936446Y-75951368D01*
X165009433Y-76175996D01*
X165097020Y-76347893D01*
X165116657Y-76386433D01*
X165255483Y-76577510D01*
X165422490Y-76744517D01*
X165457127Y-76769683D01*
X165499792Y-76825013D01*
X165505771Y-76894626D01*
X165473165Y-76956421D01*
X165457130Y-76970315D01*
X165443112Y-76980500D01*
X165422488Y-76995484D01*
X165255485Y-77162487D01*
X165255485Y-77162488D01*
X165255483Y-77162490D01*
X165195862Y-77244550D01*
X165116657Y-77353566D01*
X165009433Y-77564003D01*
X164936446Y-77788631D01*
X164899500Y-78021902D01*
X164899500Y-78258097D01*
X164936446Y-78491368D01*
X165009433Y-78715996D01*
X165116657Y-78926433D01*
X165255483Y-79117510D01*
X165422490Y-79284517D01*
X165457127Y-79309683D01*
X165499792Y-79365013D01*
X165505771Y-79434626D01*
X165473165Y-79496421D01*
X165457130Y-79510315D01*
X165439365Y-79523222D01*
X165422488Y-79535484D01*
X165255485Y-79702487D01*
X165255485Y-79702488D01*
X165255483Y-79702490D01*
X165195862Y-79784550D01*
X165116657Y-79893566D01*
X165009433Y-80104003D01*
X164936446Y-80328631D01*
X164899500Y-80561902D01*
X164899500Y-80798097D01*
X164936446Y-81031368D01*
X165009433Y-81255996D01*
X165075168Y-81385007D01*
X165116657Y-81466433D01*
X165255483Y-81657510D01*
X165422490Y-81824517D01*
X165457127Y-81849683D01*
X165499792Y-81905013D01*
X165505771Y-81974626D01*
X165473165Y-82036421D01*
X165457130Y-82050315D01*
X165456645Y-82050668D01*
X165422488Y-82075484D01*
X165255485Y-82242487D01*
X165255485Y-82242488D01*
X165255483Y-82242490D01*
X165216969Y-82295500D01*
X165116657Y-82433566D01*
X165009433Y-82644003D01*
X164936446Y-82868631D01*
X164899500Y-83101902D01*
X164899500Y-83338097D01*
X164936446Y-83571368D01*
X165009433Y-83795996D01*
X165047370Y-83870450D01*
X165116657Y-84006433D01*
X165255483Y-84197510D01*
X165422490Y-84364517D01*
X165457127Y-84389683D01*
X165499792Y-84445013D01*
X165505771Y-84514626D01*
X165473165Y-84576421D01*
X165457130Y-84590315D01*
X165439365Y-84603222D01*
X165422488Y-84615484D01*
X165255485Y-84782487D01*
X165255485Y-84782488D01*
X165255483Y-84782490D01*
X165195862Y-84864550D01*
X165116657Y-84973566D01*
X165009433Y-85184003D01*
X164936446Y-85408631D01*
X164899500Y-85641902D01*
X164899500Y-85878097D01*
X164936447Y-86111368D01*
X164936446Y-86111368D01*
X165009433Y-86335996D01*
X165116657Y-86546433D01*
X165255483Y-86737510D01*
X165422490Y-86904517D01*
X165457127Y-86929683D01*
X165499792Y-86985013D01*
X165505771Y-87054626D01*
X165473165Y-87116421D01*
X165457130Y-87130315D01*
X165439365Y-87143222D01*
X165422488Y-87155484D01*
X165255485Y-87322487D01*
X165255485Y-87322488D01*
X165255483Y-87322490D01*
X165195862Y-87404550D01*
X165116657Y-87513566D01*
X165009433Y-87724003D01*
X164936446Y-87948631D01*
X164899500Y-88181902D01*
X164899500Y-88418097D01*
X164936446Y-88651368D01*
X165009433Y-88875996D01*
X165084082Y-89022501D01*
X165116657Y-89086433D01*
X165255483Y-89277510D01*
X165422490Y-89444517D01*
X165457127Y-89469683D01*
X165499792Y-89525013D01*
X165505771Y-89594626D01*
X165473165Y-89656421D01*
X165457130Y-89670315D01*
X165439365Y-89683222D01*
X165422488Y-89695484D01*
X165255485Y-89862487D01*
X165255485Y-89862488D01*
X165255483Y-89862490D01*
X165230048Y-89897498D01*
X165116657Y-90053566D01*
X165009433Y-90264003D01*
X164936446Y-90488631D01*
X164899500Y-90721902D01*
X164899500Y-90958097D01*
X164936446Y-91191368D01*
X165009433Y-91415996D01*
X165100691Y-91595098D01*
X165116657Y-91626433D01*
X165255483Y-91817510D01*
X165422490Y-91984517D01*
X165457127Y-92009683D01*
X165499792Y-92065013D01*
X165505771Y-92134626D01*
X165473165Y-92196421D01*
X165457130Y-92210315D01*
X165439365Y-92223222D01*
X165422488Y-92235484D01*
X165255485Y-92402487D01*
X165255485Y-92402488D01*
X165255483Y-92402490D01*
X165236827Y-92428168D01*
X165116657Y-92593566D01*
X165009433Y-92804003D01*
X164936446Y-93028631D01*
X164899500Y-93261902D01*
X164899500Y-93498097D01*
X164936446Y-93731368D01*
X165009433Y-93955996D01*
X165114760Y-94162710D01*
X165116657Y-94166433D01*
X165255483Y-94357510D01*
X165422490Y-94524517D01*
X165457127Y-94549683D01*
X165499792Y-94605013D01*
X165505771Y-94674626D01*
X165473165Y-94736421D01*
X165457130Y-94750315D01*
X165439365Y-94763222D01*
X165422488Y-94775484D01*
X165255485Y-94942487D01*
X165255485Y-94942488D01*
X165255483Y-94942490D01*
X165195862Y-95024550D01*
X165116657Y-95133566D01*
X165009433Y-95344003D01*
X164936446Y-95568631D01*
X164899500Y-95801902D01*
X164899500Y-96038097D01*
X164936446Y-96271368D01*
X165009433Y-96495996D01*
X165072466Y-96619704D01*
X165116657Y-96706433D01*
X165255483Y-96897510D01*
X165422490Y-97064517D01*
X165457127Y-97089683D01*
X165499792Y-97145013D01*
X165505771Y-97214626D01*
X165473165Y-97276421D01*
X165457130Y-97290315D01*
X165439365Y-97303222D01*
X165422488Y-97315484D01*
X165255485Y-97482487D01*
X165255485Y-97482488D01*
X165255483Y-97482490D01*
X165244578Y-97497500D01*
X165116657Y-97673566D01*
X165009433Y-97884003D01*
X164936446Y-98108631D01*
X164899500Y-98341902D01*
X164899500Y-98578097D01*
X164936446Y-98811368D01*
X165009433Y-99035996D01*
X165116657Y-99246433D01*
X165255483Y-99437510D01*
X165422490Y-99604517D01*
X165457127Y-99629683D01*
X165499792Y-99685013D01*
X165505771Y-99754626D01*
X165473165Y-99816421D01*
X165457130Y-99830315D01*
X165447583Y-99837252D01*
X165422488Y-99855484D01*
X165255485Y-100022487D01*
X165255485Y-100022488D01*
X165255483Y-100022490D01*
X165195862Y-100104550D01*
X165116657Y-100213566D01*
X165009433Y-100424003D01*
X164936446Y-100648631D01*
X164899500Y-100881902D01*
X164899500Y-101118097D01*
X164936446Y-101351368D01*
X165009433Y-101575996D01*
X165068111Y-101691157D01*
X165116657Y-101786433D01*
X165255483Y-101977510D01*
X165422490Y-102144517D01*
X165457127Y-102169683D01*
X165499792Y-102225013D01*
X165505771Y-102294626D01*
X165473165Y-102356421D01*
X165457130Y-102370315D01*
X165439365Y-102383222D01*
X165422488Y-102395484D01*
X165255485Y-102562487D01*
X165255485Y-102562488D01*
X165255483Y-102562490D01*
X165195862Y-102644550D01*
X165116657Y-102753566D01*
X165009433Y-102964003D01*
X164936446Y-103188631D01*
X164899500Y-103421902D01*
X164899500Y-103658097D01*
X164936446Y-103891368D01*
X165009433Y-104115996D01*
X165099025Y-104291829D01*
X165116657Y-104326433D01*
X165255483Y-104517510D01*
X165422490Y-104684517D01*
X165457127Y-104709683D01*
X165499792Y-104765013D01*
X165505771Y-104834626D01*
X165473165Y-104896421D01*
X165457130Y-104910315D01*
X165439365Y-104923222D01*
X165422488Y-104935484D01*
X165255485Y-105102487D01*
X165255485Y-105102488D01*
X165255483Y-105102490D01*
X165226699Y-105142108D01*
X165116657Y-105293566D01*
X165009433Y-105504003D01*
X164936446Y-105728631D01*
X164899500Y-105961902D01*
X164899500Y-106198097D01*
X164936446Y-106431368D01*
X165009433Y-106655996D01*
X165116657Y-106866433D01*
X165255483Y-107057510D01*
X165422490Y-107224517D01*
X165457127Y-107249683D01*
X165499792Y-107305013D01*
X165505771Y-107374626D01*
X165473165Y-107436421D01*
X165457130Y-107450315D01*
X165439365Y-107463222D01*
X165422488Y-107475484D01*
X165255485Y-107642487D01*
X165255485Y-107642488D01*
X165255483Y-107642490D01*
X165228384Y-107679789D01*
X165116657Y-107833566D01*
X165009433Y-108044003D01*
X164936446Y-108268631D01*
X164899500Y-108501902D01*
X164899500Y-108738097D01*
X164936446Y-108971368D01*
X165009433Y-109195996D01*
X165100741Y-109375197D01*
X165116657Y-109406433D01*
X165255483Y-109597510D01*
X165422490Y-109764517D01*
X165457127Y-109789683D01*
X165499792Y-109845013D01*
X165505771Y-109914626D01*
X165473165Y-109976421D01*
X165457130Y-109990315D01*
X165439365Y-110003222D01*
X165422488Y-110015484D01*
X165255485Y-110182487D01*
X165255485Y-110182488D01*
X165255483Y-110182490D01*
X165195862Y-110264550D01*
X165116657Y-110373566D01*
X165009433Y-110584003D01*
X164936446Y-110808631D01*
X164899500Y-111041902D01*
X164899500Y-111278097D01*
X164936446Y-111511368D01*
X165009433Y-111735996D01*
X165115271Y-111943713D01*
X165116657Y-111946433D01*
X165255483Y-112137510D01*
X165422490Y-112304517D01*
X165457553Y-112329992D01*
X165500217Y-112385319D01*
X165506196Y-112454933D01*
X165473591Y-112516728D01*
X165457554Y-112530624D01*
X165422819Y-112555861D01*
X165422813Y-112555866D01*
X165255866Y-112722813D01*
X165117085Y-112913828D01*
X165009897Y-113124197D01*
X164936934Y-113348752D01*
X164920898Y-113450000D01*
X165966988Y-113450000D01*
X165934075Y-113507007D01*
X165900000Y-113634174D01*
X165900000Y-113765826D01*
X165934075Y-113892993D01*
X165966988Y-113950000D01*
X164920898Y-113950000D01*
X164936934Y-114051247D01*
X165009897Y-114275802D01*
X165117085Y-114486171D01*
X165255866Y-114677186D01*
X165422813Y-114844133D01*
X165422819Y-114844138D01*
X165457977Y-114869682D01*
X165500643Y-114925012D01*
X165506622Y-114994625D01*
X165474016Y-115056420D01*
X165457977Y-115070318D01*
X165422819Y-115095861D01*
X165422813Y-115095866D01*
X165255866Y-115262813D01*
X165117085Y-115453828D01*
X165009897Y-115664197D01*
X164936934Y-115888752D01*
X164920898Y-115990000D01*
X165966988Y-115990000D01*
X165934075Y-116047007D01*
X165900000Y-116174174D01*
X165900000Y-116305826D01*
X165934075Y-116432993D01*
X165966988Y-116490000D01*
X164920898Y-116490000D01*
X164936934Y-116591247D01*
X165009897Y-116815802D01*
X165117085Y-117026171D01*
X165255866Y-117217186D01*
X165422813Y-117384133D01*
X165613828Y-117522914D01*
X165824195Y-117630102D01*
X166048744Y-117703063D01*
X166048750Y-117703065D01*
X166150000Y-117719101D01*
X166150000Y-116673012D01*
X166207007Y-116705925D01*
X166334174Y-116740000D01*
X166465826Y-116740000D01*
X166592993Y-116705925D01*
X166650000Y-116673012D01*
X166650000Y-117719100D01*
X166751249Y-117703065D01*
X166751255Y-117703063D01*
X166975804Y-117630102D01*
X167186171Y-117522914D01*
X167377186Y-117384133D01*
X167544133Y-117217186D01*
X167682914Y-117026171D01*
X167790102Y-116815802D01*
X167863065Y-116591247D01*
X167879102Y-116490000D01*
X166833012Y-116490000D01*
X166865925Y-116432993D01*
X166900000Y-116305826D01*
X166900000Y-116174174D01*
X166865925Y-116047007D01*
X166833012Y-115990000D01*
X167879102Y-115990000D01*
X167863065Y-115888752D01*
X167790102Y-115664197D01*
X167682914Y-115453828D01*
X167544133Y-115262813D01*
X167377180Y-115095860D01*
X167342024Y-115070319D01*
X167328415Y-115052671D01*
X167311399Y-115038278D01*
X167307493Y-115025539D01*
X167299358Y-115014990D01*
X167297450Y-114992785D01*
X167290917Y-114971478D01*
X167294517Y-114958651D01*
X167293377Y-114945377D01*
X167303777Y-114925664D01*
X167309801Y-114904208D01*
X167321989Y-114891148D01*
X167325982Y-114883581D01*
X167327739Y-114881902D01*
X181999500Y-114881902D01*
X181999500Y-115118097D01*
X182036446Y-115351368D01*
X182109433Y-115575996D01*
X182172617Y-115700000D01*
X182216657Y-115786433D01*
X182355483Y-115977510D01*
X182522490Y-116144517D01*
X182713567Y-116283343D01*
X182812991Y-116334002D01*
X182924003Y-116390566D01*
X182924005Y-116390566D01*
X182924008Y-116390568D01*
X182987547Y-116411213D01*
X183148631Y-116463553D01*
X183381903Y-116500500D01*
X183381908Y-116500500D01*
X183618097Y-116500500D01*
X183851368Y-116463553D01*
X184075992Y-116390568D01*
X184286433Y-116283343D01*
X184477510Y-116144517D01*
X184644517Y-115977510D01*
X184783343Y-115786433D01*
X184890568Y-115575992D01*
X184963553Y-115351368D01*
X184977579Y-115262813D01*
X185000500Y-115118097D01*
X185000500Y-114881902D01*
X184963553Y-114648631D01*
X184890566Y-114424003D01*
X184783342Y-114213566D01*
X184773486Y-114200000D01*
X184644517Y-114022490D01*
X184477510Y-113855483D01*
X184286433Y-113716657D01*
X184075996Y-113609433D01*
X183851368Y-113536446D01*
X183618097Y-113499500D01*
X183618092Y-113499500D01*
X183381908Y-113499500D01*
X183381903Y-113499500D01*
X183148631Y-113536446D01*
X182924003Y-113609433D01*
X182713566Y-113716657D01*
X182645892Y-113765826D01*
X182522490Y-113855483D01*
X182522488Y-113855485D01*
X182522487Y-113855485D01*
X182355485Y-114022487D01*
X182355485Y-114022488D01*
X182355483Y-114022490D01*
X182334590Y-114051247D01*
X182216657Y-114213566D01*
X182109433Y-114424003D01*
X182036446Y-114648631D01*
X181999500Y-114881902D01*
X167327739Y-114881902D01*
X167332594Y-114877261D01*
X167434583Y-114786736D01*
X167544133Y-114677186D01*
X167682914Y-114486171D01*
X167790102Y-114275802D01*
X167863065Y-114051247D01*
X167879102Y-113950000D01*
X166833012Y-113950000D01*
X166865925Y-113892993D01*
X166900000Y-113765826D01*
X166900000Y-113634174D01*
X166865925Y-113507007D01*
X166833012Y-113450000D01*
X167879102Y-113450000D01*
X167863065Y-113348752D01*
X167790102Y-113124197D01*
X167682914Y-112913828D01*
X167544133Y-112722813D01*
X167377183Y-112555863D01*
X167342446Y-112530625D01*
X167299781Y-112475295D01*
X167293803Y-112405681D01*
X167326410Y-112343887D01*
X167342439Y-112329997D01*
X167377510Y-112304517D01*
X167544517Y-112137510D01*
X167683343Y-111946433D01*
X167790568Y-111735992D01*
X167863553Y-111511368D01*
X167863984Y-111508648D01*
X167900500Y-111278097D01*
X167900500Y-111041902D01*
X167863553Y-110808631D01*
X167790566Y-110584003D01*
X167683342Y-110373566D01*
X167659297Y-110340471D01*
X167544517Y-110182490D01*
X167377510Y-110015483D01*
X167342872Y-109990317D01*
X167300207Y-109934989D01*
X167294228Y-109865375D01*
X167326833Y-109803580D01*
X167342873Y-109789682D01*
X167377510Y-109764517D01*
X167544517Y-109597510D01*
X167683343Y-109406433D01*
X167790568Y-109195992D01*
X167863553Y-108971368D01*
X167885123Y-108835180D01*
X167900500Y-108738097D01*
X167900500Y-108501902D01*
X167863553Y-108268631D01*
X167790566Y-108044003D01*
X167699411Y-107865102D01*
X167683343Y-107833567D01*
X167544517Y-107642490D01*
X167377510Y-107475483D01*
X167342872Y-107450317D01*
X167300207Y-107394989D01*
X167294228Y-107325375D01*
X167326833Y-107263580D01*
X167342873Y-107249682D01*
X167377510Y-107224517D01*
X167544517Y-107057510D01*
X167683343Y-106866433D01*
X167790568Y-106655992D01*
X167863553Y-106431368D01*
X167878850Y-106334787D01*
X167900500Y-106198097D01*
X167900500Y-105961902D01*
X167863553Y-105728631D01*
X167803343Y-105543326D01*
X167790568Y-105504008D01*
X167790566Y-105504005D01*
X167790566Y-105504003D01*
X167683342Y-105293566D01*
X167677267Y-105285204D01*
X167544517Y-105102490D01*
X167377510Y-104935483D01*
X167376776Y-104934950D01*
X167342873Y-104910318D01*
X167300207Y-104854989D01*
X167294228Y-104785375D01*
X167326833Y-104723580D01*
X167342873Y-104709682D01*
X167377510Y-104684517D01*
X167544517Y-104517510D01*
X167683343Y-104326433D01*
X167790568Y-104115992D01*
X167863553Y-103891368D01*
X167871267Y-103842664D01*
X167900500Y-103658097D01*
X167900500Y-103421902D01*
X167863553Y-103188631D01*
X167829689Y-103084412D01*
X167790568Y-102964008D01*
X167790566Y-102964005D01*
X167790566Y-102964003D01*
X167712072Y-102809951D01*
X167683343Y-102753567D01*
X167544517Y-102562490D01*
X167377510Y-102395483D01*
X167342872Y-102370317D01*
X167300207Y-102314989D01*
X167294228Y-102245375D01*
X167326833Y-102183580D01*
X167342873Y-102169682D01*
X167377510Y-102144517D01*
X167544517Y-101977510D01*
X167683343Y-101786433D01*
X167790568Y-101575992D01*
X167863553Y-101351368D01*
X167873076Y-101291243D01*
X167900500Y-101118097D01*
X167900500Y-100881902D01*
X167863553Y-100648631D01*
X167790566Y-100424003D01*
X167704310Y-100254718D01*
X167683343Y-100213567D01*
X167544517Y-100022490D01*
X167377510Y-99855483D01*
X167342872Y-99830317D01*
X167300207Y-99774989D01*
X167294228Y-99705375D01*
X167326833Y-99643580D01*
X167342873Y-99629682D01*
X167377510Y-99604517D01*
X167544517Y-99437510D01*
X167683343Y-99246433D01*
X167790568Y-99035992D01*
X167863553Y-98811368D01*
X167892134Y-98630916D01*
X167900500Y-98578097D01*
X167900500Y-98341902D01*
X167863553Y-98108631D01*
X167790566Y-97884003D01*
X167683342Y-97673566D01*
X167544517Y-97482490D01*
X167377510Y-97315483D01*
X167342872Y-97290317D01*
X167300207Y-97234989D01*
X167294228Y-97165375D01*
X167326833Y-97103580D01*
X167342873Y-97089682D01*
X167377510Y-97064517D01*
X167544517Y-96897510D01*
X167683343Y-96706433D01*
X167790568Y-96495992D01*
X167863553Y-96271368D01*
X167873014Y-96211632D01*
X167900500Y-96038097D01*
X167900500Y-95801902D01*
X167863553Y-95568631D01*
X167790566Y-95344003D01*
X167683342Y-95133566D01*
X167544517Y-94942490D01*
X167377510Y-94775483D01*
X167342872Y-94750317D01*
X167300207Y-94694989D01*
X167294228Y-94625375D01*
X167326833Y-94563580D01*
X167342873Y-94549682D01*
X167377510Y-94524517D01*
X167544517Y-94357510D01*
X167683343Y-94166433D01*
X167790568Y-93955992D01*
X167863553Y-93731368D01*
X167873775Y-93666831D01*
X167900500Y-93498097D01*
X167900500Y-93261902D01*
X167863553Y-93028631D01*
X167819929Y-92894371D01*
X167790568Y-92804008D01*
X167790566Y-92804005D01*
X167790566Y-92804003D01*
X167734002Y-92692991D01*
X167683343Y-92593567D01*
X167544517Y-92402490D01*
X167377510Y-92235483D01*
X167342872Y-92210317D01*
X167300207Y-92154989D01*
X167294228Y-92085375D01*
X167326833Y-92023580D01*
X167342873Y-92009682D01*
X167345875Y-92007501D01*
X167377510Y-91984517D01*
X167544517Y-91817510D01*
X167683343Y-91626433D01*
X167790568Y-91415992D01*
X167863553Y-91191368D01*
X167887271Y-91041619D01*
X167900500Y-90958097D01*
X167900500Y-90721902D01*
X167863553Y-90488631D01*
X167823843Y-90366418D01*
X167790568Y-90264008D01*
X167790566Y-90264005D01*
X167790566Y-90264003D01*
X167727528Y-90140285D01*
X167683343Y-90053567D01*
X167544517Y-89862490D01*
X167377510Y-89695483D01*
X167342872Y-89670317D01*
X167300207Y-89614989D01*
X167294228Y-89545375D01*
X167326833Y-89483580D01*
X167342873Y-89469682D01*
X167377510Y-89444517D01*
X167544517Y-89277510D01*
X167683343Y-89086433D01*
X167790568Y-88875992D01*
X167863553Y-88651368D01*
X167877445Y-88563656D01*
X167900500Y-88418097D01*
X167900500Y-88181902D01*
X167863553Y-87948631D01*
X167790566Y-87724003D01*
X167683342Y-87513566D01*
X167671907Y-87497827D01*
X167544517Y-87322490D01*
X167377510Y-87155483D01*
X167342872Y-87130317D01*
X167300207Y-87074989D01*
X167294228Y-87005375D01*
X167326833Y-86943580D01*
X167342873Y-86929682D01*
X167377510Y-86904517D01*
X167544517Y-86737510D01*
X167683343Y-86546433D01*
X167790568Y-86335992D01*
X167863553Y-86111368D01*
X167868054Y-86082949D01*
X167900500Y-85878097D01*
X167900500Y-85641902D01*
X167863553Y-85408631D01*
X167802425Y-85220500D01*
X167790568Y-85184008D01*
X167790566Y-85184005D01*
X167790566Y-85184003D01*
X167683342Y-84973566D01*
X167657979Y-84938657D01*
X167544517Y-84782490D01*
X167377510Y-84615483D01*
X167342872Y-84590317D01*
X167300207Y-84534989D01*
X167294228Y-84465375D01*
X167326833Y-84403580D01*
X167342873Y-84389682D01*
X167377510Y-84364517D01*
X167544517Y-84197510D01*
X167683343Y-84006433D01*
X167790568Y-83795992D01*
X167863553Y-83571368D01*
X167880357Y-83465273D01*
X167900500Y-83338097D01*
X167900500Y-83101902D01*
X167863553Y-82868631D01*
X167790566Y-82644003D01*
X167683342Y-82433566D01*
X167544517Y-82242490D01*
X167377510Y-82075483D01*
X167342872Y-82050317D01*
X167300207Y-81994989D01*
X167294228Y-81925375D01*
X167326833Y-81863580D01*
X167342873Y-81849682D01*
X167377510Y-81824517D01*
X167544517Y-81657510D01*
X167683343Y-81466433D01*
X167790568Y-81255992D01*
X167863553Y-81031368D01*
X167874453Y-80962550D01*
X167900500Y-80798097D01*
X167900500Y-80561902D01*
X167863553Y-80328631D01*
X167814975Y-80179124D01*
X167790568Y-80104008D01*
X167790566Y-80104005D01*
X167790566Y-80104003D01*
X167683342Y-79893566D01*
X167544517Y-79702490D01*
X167377510Y-79535483D01*
X167342872Y-79510317D01*
X167300207Y-79454989D01*
X167294228Y-79385375D01*
X167326833Y-79323580D01*
X167342873Y-79309682D01*
X167377510Y-79284517D01*
X167544517Y-79117510D01*
X167683343Y-78926433D01*
X167790568Y-78715992D01*
X167863553Y-78491368D01*
X167880845Y-78382190D01*
X167900500Y-78258097D01*
X167900500Y-78021902D01*
X167863553Y-77788631D01*
X167793701Y-77573650D01*
X167790568Y-77564008D01*
X167790566Y-77564005D01*
X167790566Y-77564003D01*
X167683342Y-77353566D01*
X167544517Y-77162490D01*
X167377510Y-76995483D01*
X167342872Y-76970317D01*
X167300207Y-76914989D01*
X167294228Y-76845375D01*
X167326833Y-76783580D01*
X167342873Y-76769682D01*
X167377510Y-76744517D01*
X167544517Y-76577510D01*
X167683343Y-76386433D01*
X167790568Y-76175992D01*
X167797990Y-76153149D01*
X170250000Y-76153149D01*
X170252899Y-76189989D01*
X170252900Y-76189995D01*
X170298716Y-76347693D01*
X170298717Y-76347696D01*
X170382314Y-76489052D01*
X170382321Y-76489061D01*
X170498438Y-76605178D01*
X170498447Y-76605185D01*
X170639801Y-76688781D01*
X170797514Y-76734600D01*
X170797511Y-76734600D01*
X170799998Y-76734795D01*
X170800000Y-76734795D01*
X170800000Y-75750000D01*
X170250000Y-75750000D01*
X170250000Y-76153149D01*
X167797990Y-76153149D01*
X167863553Y-75951368D01*
X167874477Y-75882396D01*
X167900500Y-75718097D01*
X167900500Y-75481902D01*
X167863553Y-75248631D01*
X167790566Y-75024003D01*
X167734002Y-74912991D01*
X167700302Y-74846850D01*
X170250000Y-74846850D01*
X170250000Y-75250000D01*
X170800000Y-75250000D01*
X171300000Y-75250000D01*
X171850000Y-75250000D01*
X171850000Y-74846865D01*
X171849999Y-74846850D01*
X171847100Y-74810010D01*
X171847099Y-74810004D01*
X171801283Y-74652306D01*
X171801282Y-74652303D01*
X171717685Y-74510947D01*
X171717678Y-74510938D01*
X171601561Y-74394821D01*
X171601552Y-74394814D01*
X171463705Y-74313292D01*
X171300000Y-74266330D01*
X171300000Y-75250000D01*
X170800000Y-75250000D01*
X170800000Y-74309723D01*
X170692553Y-74295891D01*
X170639806Y-74311215D01*
X170639803Y-74311217D01*
X170498447Y-74394814D01*
X170498438Y-74394821D01*
X170382321Y-74510938D01*
X170382314Y-74510947D01*
X170298717Y-74652303D01*
X170298716Y-74652306D01*
X170252900Y-74810004D01*
X170252899Y-74810010D01*
X170250000Y-74846850D01*
X167700302Y-74846850D01*
X167683343Y-74813567D01*
X167544517Y-74622490D01*
X167377510Y-74455483D01*
X167342872Y-74430317D01*
X167300207Y-74374989D01*
X167294228Y-74305375D01*
X167326833Y-74243580D01*
X167342873Y-74229682D01*
X167377510Y-74204517D01*
X167544517Y-74037510D01*
X167683343Y-73846433D01*
X167790568Y-73635992D01*
X167863553Y-73411368D01*
X167869315Y-73374986D01*
X170162501Y-73374986D01*
X170172994Y-73477697D01*
X170228141Y-73644119D01*
X170228143Y-73644124D01*
X170320184Y-73793345D01*
X170444154Y-73917315D01*
X170593375Y-74009356D01*
X170593380Y-74009358D01*
X170710438Y-74048147D01*
X170919013Y-74074998D01*
X170925000Y-74074998D01*
X170925000Y-73125000D01*
X170162501Y-73125000D01*
X170162501Y-73374986D01*
X167869315Y-73374986D01*
X167900500Y-73178097D01*
X167900500Y-72941902D01*
X167863553Y-72708631D01*
X167790566Y-72484003D01*
X167683342Y-72273566D01*
X167682350Y-72272200D01*
X167544517Y-72082490D01*
X167377510Y-71915483D01*
X167342872Y-71890317D01*
X167300207Y-71834989D01*
X167294228Y-71765375D01*
X167326833Y-71703580D01*
X167342873Y-71689682D01*
X167377510Y-71664517D01*
X167544517Y-71497510D01*
X167672313Y-71321613D01*
X167727643Y-71278949D01*
X167772631Y-71270500D01*
X170071698Y-71270500D01*
X170138737Y-71290185D01*
X170177235Y-71329401D01*
X170232288Y-71418656D01*
X170356344Y-71542712D01*
X170464204Y-71609240D01*
X170510928Y-71661186D01*
X170522151Y-71730149D01*
X170494308Y-71794231D01*
X170464206Y-71820315D01*
X170444159Y-71832680D01*
X170444155Y-71832683D01*
X170320184Y-71956654D01*
X170228143Y-72105875D01*
X170228141Y-72105880D01*
X170172994Y-72272302D01*
X170172993Y-72272309D01*
X170162500Y-72375013D01*
X170162500Y-72625000D01*
X171051000Y-72625000D01*
X171118039Y-72644685D01*
X171163794Y-72697489D01*
X171175000Y-72749000D01*
X171175000Y-72875000D01*
X171301000Y-72875000D01*
X171368039Y-72894685D01*
X171413794Y-72947489D01*
X171425000Y-72999000D01*
X171425000Y-74044185D01*
X171520613Y-74071613D01*
X171590196Y-74064505D01*
X171756619Y-74009358D01*
X171756624Y-74009356D01*
X171905842Y-73917317D01*
X171999464Y-73823695D01*
X172060787Y-73790210D01*
X172130479Y-73795194D01*
X172174827Y-73823695D01*
X172213181Y-73862049D01*
X172246666Y-73923372D01*
X172249500Y-73949730D01*
X172249500Y-74531530D01*
X172232232Y-74594650D01*
X172198257Y-74652099D01*
X172198254Y-74652106D01*
X172152402Y-74809926D01*
X172152401Y-74809932D01*
X172149500Y-74846798D01*
X172149500Y-76013000D01*
X172129815Y-76080039D01*
X172077011Y-76125794D01*
X172025500Y-76137000D01*
X171974000Y-76137000D01*
X171906961Y-76117315D01*
X171861206Y-76064511D01*
X171850000Y-76013000D01*
X171850000Y-75750000D01*
X171300000Y-75750000D01*
X171300000Y-76405684D01*
X171282733Y-76468804D01*
X171248254Y-76527105D01*
X171248254Y-76527106D01*
X171202402Y-76684926D01*
X171202401Y-76684932D01*
X171199500Y-76721798D01*
X171199500Y-78028201D01*
X171202401Y-78065067D01*
X171202402Y-78065073D01*
X171244576Y-78210233D01*
X171249500Y-78244828D01*
X171249500Y-82733918D01*
X171249500Y-82733920D01*
X171249499Y-82733920D01*
X171278340Y-82878907D01*
X171278343Y-82878917D01*
X171334914Y-83015492D01*
X171367812Y-83064727D01*
X171367813Y-83064730D01*
X171417046Y-83138414D01*
X171417052Y-83138421D01*
X177415817Y-89137185D01*
X177449302Y-89198508D01*
X177446068Y-89263180D01*
X177438910Y-89285210D01*
X177438910Y-89285211D01*
X177410052Y-89467415D01*
X177399500Y-89534038D01*
X177399500Y-89785962D01*
X177429363Y-89974511D01*
X177438910Y-90034785D01*
X177516760Y-90274383D01*
X177563655Y-90366418D01*
X177625926Y-90488632D01*
X177631132Y-90498848D01*
X177779201Y-90702649D01*
X177779205Y-90702654D01*
X177957345Y-90880794D01*
X177957350Y-90880798D01*
X178048470Y-90947000D01*
X178161155Y-91028870D01*
X178304184Y-91101747D01*
X178385616Y-91143239D01*
X178385618Y-91143239D01*
X178385621Y-91143241D01*
X178625215Y-91221090D01*
X178874038Y-91260500D01*
X178874039Y-91260500D01*
X179125961Y-91260500D01*
X179125962Y-91260500D01*
X179374785Y-91221090D01*
X179614379Y-91143241D01*
X179838845Y-91028870D01*
X180042656Y-90880793D01*
X180220793Y-90702656D01*
X180368870Y-90498845D01*
X180483241Y-90274379D01*
X180561090Y-90034785D01*
X180600500Y-89785962D01*
X180600500Y-89534038D01*
X180600500Y-89529166D01*
X180602028Y-89529166D01*
X180614979Y-89467415D01*
X180636567Y-89438351D01*
X181993102Y-88081819D01*
X182054425Y-88048334D01*
X182080783Y-88045500D01*
X186249857Y-88045500D01*
X186316896Y-88065185D01*
X186362651Y-88117989D01*
X186373215Y-88156898D01*
X186382501Y-88247797D01*
X186382501Y-88247799D01*
X186403246Y-88310402D01*
X186437686Y-88414334D01*
X186529788Y-88563656D01*
X186653844Y-88687712D01*
X186803166Y-88779814D01*
X186969703Y-88834999D01*
X187072491Y-88845500D01*
X189272508Y-88845499D01*
X189375297Y-88834999D01*
X189541834Y-88779814D01*
X189691156Y-88687712D01*
X189815212Y-88563656D01*
X189907314Y-88414334D01*
X189962499Y-88247797D01*
X189973000Y-88145009D01*
X189972999Y-85944992D01*
X189962499Y-85842203D01*
X189907314Y-85675666D01*
X189815212Y-85526344D01*
X189691156Y-85402288D01*
X189541834Y-85310186D01*
X189375297Y-85255001D01*
X189375295Y-85255000D01*
X189272510Y-85244500D01*
X187072498Y-85244500D01*
X187072481Y-85244501D01*
X186969703Y-85255000D01*
X186969700Y-85255001D01*
X186803168Y-85310185D01*
X186803163Y-85310187D01*
X186653842Y-85402289D01*
X186529789Y-85526342D01*
X186437687Y-85675663D01*
X186437685Y-85675668D01*
X186410545Y-85757572D01*
X186397149Y-85798000D01*
X186382501Y-85842204D01*
X186382500Y-85842205D01*
X186373214Y-85933103D01*
X186346817Y-85997795D01*
X186289636Y-86037946D01*
X186249856Y-86044500D01*
X181516456Y-86044500D01*
X181323171Y-86082947D01*
X181323163Y-86082949D01*
X181254555Y-86111368D01*
X181141089Y-86158366D01*
X181141080Y-86158371D01*
X181028023Y-86233914D01*
X180977217Y-86267860D01*
X180977214Y-86267863D01*
X179221651Y-88023427D01*
X179160328Y-88056912D01*
X179130834Y-88058919D01*
X179130834Y-88059500D01*
X179125962Y-88059500D01*
X178874038Y-88059500D01*
X178838145Y-88065185D01*
X178625211Y-88098910D01*
X178625210Y-88098910D01*
X178603180Y-88106068D01*
X178533339Y-88108061D01*
X178477185Y-88075817D01*
X172786819Y-82385451D01*
X172753334Y-82324128D01*
X172750500Y-82297770D01*
X172750500Y-78599982D01*
X177399500Y-78599982D01*
X177399500Y-80400017D01*
X177410000Y-80502796D01*
X177410001Y-80502798D01*
X177465186Y-80669335D01*
X177557288Y-80818656D01*
X177681344Y-80942712D01*
X177830665Y-81034814D01*
X177997202Y-81089999D01*
X178099990Y-81100500D01*
X178099995Y-81100500D01*
X179900005Y-81100500D01*
X179900010Y-81100500D01*
X180002798Y-81089999D01*
X180169335Y-81034814D01*
X180318656Y-80942712D01*
X180442712Y-80818656D01*
X180534814Y-80669335D01*
X180562596Y-80585494D01*
X180602368Y-80528051D01*
X180666883Y-80501228D01*
X180680301Y-80500500D01*
X185241718Y-80500500D01*
X185308757Y-80520185D01*
X185329399Y-80536819D01*
X186359888Y-81567309D01*
X186393373Y-81628632D01*
X186395146Y-81671175D01*
X186372001Y-81846978D01*
X186372000Y-81846995D01*
X186372000Y-82083004D01*
X186372001Y-82083020D01*
X186401633Y-82308102D01*
X186402807Y-82317014D01*
X186430268Y-82419500D01*
X186463894Y-82544993D01*
X186554214Y-82763045D01*
X186554219Y-82763056D01*
X186615174Y-82868631D01*
X186672227Y-82967450D01*
X186672229Y-82967453D01*
X186672230Y-82967454D01*
X186815906Y-83154697D01*
X186815912Y-83154704D01*
X186982795Y-83321587D01*
X186982801Y-83321592D01*
X187170050Y-83465273D01*
X187301418Y-83541118D01*
X187374443Y-83583280D01*
X187374448Y-83583282D01*
X187374451Y-83583284D01*
X187592507Y-83673606D01*
X187820486Y-83734693D01*
X188054489Y-83765500D01*
X188054496Y-83765500D01*
X188290504Y-83765500D01*
X188290511Y-83765500D01*
X188524514Y-83734693D01*
X188752493Y-83673606D01*
X188970549Y-83583284D01*
X189174950Y-83465273D01*
X189362199Y-83321592D01*
X189529092Y-83154699D01*
X189672773Y-82967450D01*
X189790784Y-82763049D01*
X189881106Y-82544993D01*
X189942193Y-82317014D01*
X189973000Y-82083011D01*
X189973000Y-81846989D01*
X189942193Y-81612986D01*
X189881106Y-81385007D01*
X189790784Y-81166951D01*
X189790782Y-81166948D01*
X189790780Y-81166943D01*
X189746355Y-81089998D01*
X189672773Y-80962550D01*
X189562360Y-80818657D01*
X189529093Y-80775302D01*
X189529087Y-80775295D01*
X189362204Y-80608412D01*
X189362197Y-80608406D01*
X189174954Y-80464730D01*
X189174953Y-80464729D01*
X189174950Y-80464727D01*
X189062857Y-80400010D01*
X188970556Y-80346719D01*
X188970545Y-80346714D01*
X188752493Y-80256394D01*
X188524510Y-80195306D01*
X188290520Y-80164501D01*
X188290517Y-80164500D01*
X188290511Y-80164500D01*
X188054489Y-80164500D01*
X188054483Y-80164500D01*
X188054478Y-80164501D01*
X187878675Y-80187646D01*
X187809640Y-80176880D01*
X187774809Y-80152388D01*
X186491709Y-78869289D01*
X186491706Y-78869285D01*
X186491706Y-78869286D01*
X186484639Y-78862219D01*
X186484639Y-78862218D01*
X186345282Y-78722861D01*
X186345281Y-78722860D01*
X186345280Y-78722859D01*
X186181420Y-78613371D01*
X186181411Y-78613366D01*
X186108815Y-78583296D01*
X186052665Y-78560038D01*
X185999336Y-78537949D01*
X185999332Y-78537948D01*
X185999328Y-78537946D01*
X185902688Y-78518724D01*
X185806044Y-78499500D01*
X185806041Y-78499500D01*
X180680301Y-78499500D01*
X180613262Y-78479815D01*
X180567507Y-78427011D01*
X180562598Y-78414512D01*
X180534814Y-78330665D01*
X180442712Y-78181344D01*
X180318656Y-78057288D01*
X180169335Y-77965186D01*
X180002798Y-77910001D01*
X180002796Y-77910000D01*
X179900017Y-77899500D01*
X179900010Y-77899500D01*
X178099990Y-77899500D01*
X178099982Y-77899500D01*
X177997203Y-77910000D01*
X177997202Y-77910001D01*
X177914669Y-77937349D01*
X177830667Y-77965185D01*
X177830662Y-77965187D01*
X177681342Y-78057289D01*
X177557289Y-78181342D01*
X177465187Y-78330662D01*
X177465186Y-78330665D01*
X177410001Y-78497202D01*
X177410001Y-78497203D01*
X177410000Y-78497203D01*
X177399500Y-78599982D01*
X172750500Y-78599982D01*
X172750500Y-78244828D01*
X172755424Y-78210233D01*
X172797597Y-78065073D01*
X172797598Y-78065067D01*
X172800499Y-78028201D01*
X172800500Y-78028194D01*
X172800500Y-76862000D01*
X172820185Y-76794961D01*
X172872989Y-76749206D01*
X172924500Y-76738000D01*
X173165686Y-76738000D01*
X173165694Y-76738000D01*
X173202569Y-76735098D01*
X173202571Y-76735097D01*
X173202573Y-76735097D01*
X173248347Y-76721798D01*
X173360398Y-76689244D01*
X173501865Y-76605581D01*
X173618081Y-76489365D01*
X173701744Y-76347898D01*
X173747598Y-76190069D01*
X173750500Y-76153194D01*
X173750500Y-74846806D01*
X173750500Y-73949730D01*
X173770185Y-73882691D01*
X173786819Y-73862049D01*
X173808683Y-73840185D01*
X173855212Y-73793656D01*
X173947314Y-73644334D01*
X174002499Y-73477797D01*
X174013000Y-73375009D01*
X174012999Y-72374992D01*
X174002499Y-72272203D01*
X173947314Y-72105666D01*
X173855212Y-71956344D01*
X173731156Y-71832288D01*
X173731155Y-71832287D01*
X173721902Y-71826580D01*
X173675178Y-71774632D01*
X173663000Y-71721042D01*
X173663000Y-71574730D01*
X173682685Y-71507691D01*
X173699319Y-71487049D01*
X173767712Y-71418656D01*
X173859814Y-71269334D01*
X173914999Y-71102797D01*
X173925500Y-71000009D01*
X173925499Y-69999992D01*
X173924938Y-69994505D01*
X173914999Y-69897203D01*
X173914998Y-69897200D01*
X173882795Y-69800018D01*
X173859814Y-69730666D01*
X173767712Y-69581344D01*
X173643656Y-69457288D01*
X173550888Y-69400069D01*
X173494336Y-69365187D01*
X173494331Y-69365185D01*
X173449465Y-69350318D01*
X173327797Y-69310001D01*
X173327795Y-69310000D01*
X173225010Y-69299500D01*
X172599998Y-69299500D01*
X172599980Y-69299501D01*
X172497203Y-69310000D01*
X172497200Y-69310001D01*
X172330668Y-69365185D01*
X172330663Y-69365187D01*
X172181342Y-69457289D01*
X172087681Y-69550951D01*
X172026358Y-69584436D01*
X171956666Y-69579452D01*
X171912319Y-69550951D01*
X171818657Y-69457289D01*
X171818656Y-69457288D01*
X171725888Y-69400069D01*
X171669336Y-69365187D01*
X171669331Y-69365185D01*
X171624465Y-69350318D01*
X171502797Y-69310001D01*
X171502795Y-69310000D01*
X171400010Y-69299500D01*
X170774998Y-69299500D01*
X170774980Y-69299501D01*
X170672203Y-69310000D01*
X170672200Y-69310001D01*
X170505668Y-69365185D01*
X170505663Y-69365187D01*
X170356342Y-69457289D01*
X170232289Y-69581342D01*
X170232288Y-69581344D01*
X170165805Y-69689132D01*
X170152565Y-69710597D01*
X170100617Y-69757321D01*
X170047026Y-69769500D01*
X167772631Y-69769500D01*
X167705592Y-69749815D01*
X167672313Y-69718386D01*
X167666654Y-69710597D01*
X167544517Y-69542490D01*
X167377510Y-69375483D01*
X167342872Y-69350317D01*
X167300207Y-69294989D01*
X167294228Y-69225375D01*
X167326833Y-69163580D01*
X167342873Y-69149682D01*
X167377510Y-69124517D01*
X167544517Y-68957510D01*
X167683343Y-68766433D01*
X167790568Y-68555992D01*
X167863553Y-68331368D01*
X167900500Y-68098097D01*
X167900500Y-67861902D01*
X167863553Y-67628631D01*
X167790566Y-67404003D01*
X167683342Y-67193566D01*
X167544517Y-67002490D01*
X167377510Y-66835483D01*
X167342872Y-66810317D01*
X167300207Y-66754989D01*
X167294228Y-66685375D01*
X167326833Y-66623580D01*
X167342873Y-66609682D01*
X167377510Y-66584517D01*
X167544517Y-66417510D01*
X167683343Y-66226433D01*
X167790568Y-66015992D01*
X167863553Y-65791368D01*
X167865248Y-65780666D01*
X167900500Y-65558097D01*
X167900500Y-65321902D01*
X167863553Y-65088631D01*
X167790566Y-64864003D01*
X167683342Y-64653566D01*
X167683340Y-64653563D01*
X167593449Y-64529839D01*
X167569970Y-64464035D01*
X167585795Y-64395981D01*
X167634744Y-64348410D01*
X167634546Y-64348047D01*
X167635851Y-64347334D01*
X167635901Y-64347286D01*
X167636111Y-64347192D01*
X167642326Y-64343797D01*
X167642331Y-64343796D01*
X167757546Y-64257546D01*
X167843796Y-64142331D01*
X167894091Y-64007483D01*
X167900500Y-63947873D01*
X167900499Y-61852128D01*
X167894091Y-61792517D01*
X167843796Y-61657669D01*
X167843795Y-61657668D01*
X167843793Y-61657664D01*
X167757547Y-61542455D01*
X167757544Y-61542452D01*
X167642335Y-61456206D01*
X167642328Y-61456202D01*
X167507482Y-61405908D01*
X167507483Y-61405908D01*
X167447883Y-61399501D01*
X167447881Y-61399500D01*
X167447873Y-61399500D01*
X167447864Y-61399500D01*
X165352129Y-61399500D01*
X165352123Y-61399501D01*
X165292516Y-61405908D01*
X165157671Y-61456202D01*
X165157664Y-61456206D01*
X165042455Y-61542452D01*
X165042452Y-61542455D01*
X164956206Y-61657664D01*
X164956202Y-61657671D01*
X164905908Y-61792517D01*
X164899501Y-61852116D01*
X164899501Y-61852123D01*
X164899500Y-61852135D01*
X142500499Y-61852135D01*
X142500499Y-61852128D01*
X142494091Y-61792517D01*
X142443796Y-61657669D01*
X142443795Y-61657668D01*
X142443793Y-61657664D01*
X142357547Y-61542455D01*
X142357544Y-61542452D01*
X142242335Y-61456206D01*
X142242328Y-61456202D01*
X142107482Y-61405908D01*
X142107483Y-61405908D01*
X142047883Y-61399501D01*
X142047881Y-61399500D01*
X142047873Y-61399500D01*
X142047864Y-61399500D01*
X139952129Y-61399500D01*
X139952123Y-61399501D01*
X139892516Y-61405908D01*
X139757671Y-61456202D01*
X139757664Y-61456206D01*
X139642455Y-61542452D01*
X139642452Y-61542455D01*
X139556206Y-61657664D01*
X139556202Y-61657671D01*
X139505908Y-61792517D01*
X139499501Y-61852116D01*
X139499501Y-61852123D01*
X139499500Y-61852135D01*
X139499500Y-63947870D01*
X139499501Y-63947876D01*
X139505908Y-64007483D01*
X139556202Y-64142328D01*
X139556206Y-64142335D01*
X139642452Y-64257544D01*
X139642455Y-64257547D01*
X139757664Y-64343793D01*
X139765454Y-64348047D01*
X139763646Y-64351357D01*
X139805351Y-64382449D01*
X139829897Y-64447865D01*
X139815180Y-64516167D01*
X139806549Y-64529840D01*
X139716659Y-64653563D01*
X139609433Y-64864003D01*
X139536446Y-65088631D01*
X139499500Y-65321902D01*
X139499500Y-65558097D01*
X139533511Y-65772833D01*
X139524556Y-65842126D01*
X139498719Y-65879912D01*
X139315451Y-66063181D01*
X139254128Y-66096666D01*
X139227770Y-66099500D01*
X130542535Y-66099500D01*
X130475496Y-66079815D01*
X130429741Y-66027011D01*
X130419177Y-65988102D01*
X130418663Y-65983071D01*
X130414999Y-65947203D01*
X130359814Y-65780666D01*
X130267712Y-65631344D01*
X130143656Y-65507288D01*
X129994334Y-65415186D01*
X129827797Y-65360001D01*
X129827795Y-65360000D01*
X129725010Y-65349500D01*
X127624998Y-65349500D01*
X127624981Y-65349501D01*
X127522203Y-65360000D01*
X127522200Y-65360001D01*
X127355668Y-65415185D01*
X127355663Y-65415187D01*
X127206342Y-65507289D01*
X127082289Y-65631342D01*
X126990187Y-65780663D01*
X126990185Y-65780668D01*
X126973930Y-65829723D01*
X126935001Y-65947203D01*
X126935001Y-65947204D01*
X126935000Y-65947204D01*
X126924500Y-66049983D01*
X126924500Y-67650001D01*
X126924501Y-67650018D01*
X126935000Y-67752796D01*
X126935001Y-67752799D01*
X126990185Y-67919331D01*
X126990187Y-67919336D01*
X126997177Y-67930668D01*
X127082288Y-68068656D01*
X127206344Y-68192712D01*
X127355666Y-68284814D01*
X127522203Y-68339999D01*
X127624991Y-68350500D01*
X129725008Y-68350499D01*
X129827797Y-68339999D01*
X129994334Y-68284814D01*
X130143656Y-68192712D01*
X130267712Y-68068656D01*
X130359814Y-67919334D01*
X130414999Y-67752797D01*
X130419177Y-67711896D01*
X130445573Y-67647207D01*
X130502753Y-67607055D01*
X130542535Y-67600500D01*
X133388771Y-67600500D01*
X133455810Y-67620185D01*
X133501565Y-67672989D01*
X133511509Y-67742147D01*
X133482484Y-67805703D01*
X133476452Y-67812181D01*
X131417049Y-69871582D01*
X131417043Y-69871589D01*
X131396191Y-69902797D01*
X131396192Y-69902798D01*
X131334914Y-69994508D01*
X131278343Y-70131082D01*
X131278340Y-70131092D01*
X131249500Y-70276079D01*
X131249500Y-74011489D01*
X131229815Y-74078528D01*
X131194391Y-74114591D01*
X131121282Y-74163441D01*
X131121278Y-74163444D01*
X131071544Y-74213180D01*
X131010221Y-74246666D01*
X130983862Y-74249500D01*
X127481058Y-74249500D01*
X127414019Y-74229815D01*
X127375519Y-74190597D01*
X127358770Y-74163442D01*
X127292712Y-74056344D01*
X127168656Y-73932288D01*
X127019334Y-73840186D01*
X126852797Y-73785001D01*
X126852795Y-73785000D01*
X126750010Y-73774500D01*
X126149998Y-73774500D01*
X126149980Y-73774501D01*
X126047203Y-73785000D01*
X126047200Y-73785001D01*
X125880668Y-73840185D01*
X125880663Y-73840187D01*
X125731342Y-73932289D01*
X125607288Y-74056343D01*
X125607283Y-74056349D01*
X125605241Y-74059661D01*
X125603247Y-74061453D01*
X125602807Y-74062011D01*
X125602711Y-74061935D01*
X125553291Y-74106383D01*
X125484328Y-74117602D01*
X125420247Y-74089755D01*
X125394168Y-74059656D01*
X125392319Y-74056659D01*
X125392316Y-74056655D01*
X125268345Y-73932684D01*
X125119124Y-73840643D01*
X125119119Y-73840641D01*
X124952697Y-73785494D01*
X124952690Y-73785493D01*
X124849986Y-73775000D01*
X124800000Y-73775000D01*
X124300000Y-73775000D01*
X124299999Y-73774999D01*
X124250029Y-73775000D01*
X124250011Y-73775001D01*
X124147302Y-73785494D01*
X123980880Y-73840641D01*
X123980875Y-73840643D01*
X123831654Y-73932684D01*
X123707684Y-74056654D01*
X123615643Y-74205875D01*
X123615641Y-74205880D01*
X123560494Y-74372302D01*
X123560493Y-74372309D01*
X123550000Y-74475013D01*
X95110745Y-74475013D01*
X95381786Y-73498810D01*
X95382714Y-73495636D01*
X95388192Y-73477797D01*
X95792663Y-72160503D01*
X95793684Y-72157335D01*
X95811022Y-72105880D01*
X95863549Y-71949986D01*
X126925001Y-71949986D01*
X126935494Y-72052697D01*
X126990641Y-72219119D01*
X126990643Y-72219124D01*
X127082684Y-72368345D01*
X127206654Y-72492315D01*
X127355875Y-72584356D01*
X127355880Y-72584358D01*
X127522302Y-72639505D01*
X127522309Y-72639506D01*
X127625019Y-72649999D01*
X128424999Y-72649999D01*
X128925000Y-72649999D01*
X129724972Y-72649999D01*
X129724986Y-72649998D01*
X129827697Y-72639505D01*
X129994119Y-72584358D01*
X129994124Y-72584356D01*
X130143345Y-72492315D01*
X130267315Y-72368345D01*
X130359356Y-72219124D01*
X130359358Y-72219119D01*
X130414505Y-72052697D01*
X130414506Y-72052690D01*
X130424999Y-71949986D01*
X130425000Y-71949973D01*
X130425000Y-71400000D01*
X128925000Y-71400000D01*
X128925000Y-72649999D01*
X128424999Y-72649999D01*
X128425000Y-72649998D01*
X128425000Y-71400000D01*
X126925001Y-71400000D01*
X126925001Y-71949986D01*
X95863549Y-71949986D01*
X96239621Y-70833837D01*
X96240732Y-70830684D01*
X96354804Y-70520184D01*
X96417322Y-70350013D01*
X126925000Y-70350013D01*
X126925000Y-70900000D01*
X128425000Y-70900000D01*
X128925000Y-70900000D01*
X130424999Y-70900000D01*
X130424999Y-70350028D01*
X130424998Y-70350013D01*
X130414505Y-70247302D01*
X130359358Y-70080880D01*
X130359356Y-70080875D01*
X130267315Y-69931654D01*
X130143345Y-69807684D01*
X129994124Y-69715643D01*
X129994119Y-69715641D01*
X129827697Y-69660494D01*
X129827690Y-69660493D01*
X129724986Y-69650000D01*
X128925000Y-69650000D01*
X128925000Y-70900000D01*
X128425000Y-70900000D01*
X128425000Y-69650000D01*
X127625028Y-69650000D01*
X127625012Y-69650001D01*
X127522302Y-69660494D01*
X127355880Y-69715641D01*
X127355875Y-69715643D01*
X127206654Y-69807684D01*
X127082684Y-69931654D01*
X126990643Y-70080875D01*
X126990641Y-70080880D01*
X126935494Y-70247302D01*
X126935493Y-70247309D01*
X126925000Y-70350013D01*
X96417322Y-70350013D01*
X96722369Y-69519684D01*
X96723544Y-69516616D01*
X97240508Y-68219135D01*
X97241748Y-68216141D01*
X97793687Y-66933064D01*
X97795008Y-66930104D01*
X98381452Y-65662529D01*
X98382890Y-65659528D01*
X98396869Y-65631342D01*
X99003461Y-64408261D01*
X99004930Y-64405397D01*
X99659147Y-63171414D01*
X99660723Y-63168534D01*
X100348152Y-61952654D01*
X100349778Y-61949867D01*
X100691511Y-61381902D01*
X104999500Y-61381902D01*
X104999500Y-61618097D01*
X105036446Y-61851368D01*
X105109433Y-62075996D01*
X105144347Y-62144517D01*
X105216657Y-62286433D01*
X105355483Y-62477510D01*
X105522490Y-62644517D01*
X105713567Y-62783343D01*
X105812991Y-62834002D01*
X105924003Y-62890566D01*
X105924005Y-62890566D01*
X105924008Y-62890568D01*
X106044412Y-62929689D01*
X106148631Y-62963553D01*
X106381903Y-63000500D01*
X106381908Y-63000500D01*
X106618097Y-63000500D01*
X106851368Y-62963553D01*
X107075992Y-62890568D01*
X107286433Y-62783343D01*
X107477510Y-62644517D01*
X107644517Y-62477510D01*
X107783343Y-62286433D01*
X107890568Y-62075992D01*
X107963553Y-61851368D01*
X107973838Y-61786433D01*
X108000500Y-61618097D01*
X108000500Y-61381902D01*
X107963553Y-61148631D01*
X107890566Y-60924003D01*
X107869114Y-60881902D01*
X181999500Y-60881902D01*
X181999500Y-61118097D01*
X182036446Y-61351368D01*
X182109433Y-61575996D01*
X182216657Y-61786433D01*
X182355483Y-61977510D01*
X182522490Y-62144517D01*
X182713567Y-62283343D01*
X182812991Y-62334002D01*
X182924003Y-62390566D01*
X182924005Y-62390566D01*
X182924008Y-62390568D01*
X183044412Y-62429689D01*
X183148631Y-62463553D01*
X183381903Y-62500500D01*
X183381908Y-62500500D01*
X183618097Y-62500500D01*
X183851368Y-62463553D01*
X184075992Y-62390568D01*
X184286433Y-62283343D01*
X184477510Y-62144517D01*
X184644517Y-61977510D01*
X184783343Y-61786433D01*
X184890568Y-61575992D01*
X184963553Y-61351368D01*
X184969613Y-61313107D01*
X185000500Y-61118097D01*
X185000500Y-60881902D01*
X184963553Y-60648631D01*
X184890566Y-60424003D01*
X184783342Y-60213566D01*
X184644517Y-60022490D01*
X184477510Y-59855483D01*
X184286433Y-59716657D01*
X184075996Y-59609433D01*
X183851368Y-59536446D01*
X183618097Y-59499500D01*
X183618092Y-59499500D01*
X183381908Y-59499500D01*
X183381903Y-59499500D01*
X183148631Y-59536446D01*
X182924003Y-59609433D01*
X182713566Y-59716657D01*
X182604550Y-59795862D01*
X182522490Y-59855483D01*
X182522488Y-59855485D01*
X182522487Y-59855485D01*
X182355485Y-60022487D01*
X182355485Y-60022488D01*
X182355483Y-60022490D01*
X182345343Y-60036447D01*
X182216657Y-60213566D01*
X182109433Y-60424003D01*
X182036446Y-60648631D01*
X181999500Y-60881902D01*
X107869114Y-60881902D01*
X107802770Y-60751695D01*
X107783343Y-60713567D01*
X107644517Y-60522490D01*
X107477510Y-60355483D01*
X107286433Y-60216657D01*
X107280367Y-60213566D01*
X107075996Y-60109433D01*
X106851368Y-60036446D01*
X106618097Y-59999500D01*
X106618092Y-59999500D01*
X106381908Y-59999500D01*
X106381903Y-59999500D01*
X106148631Y-60036446D01*
X105924003Y-60109433D01*
X105713566Y-60216657D01*
X105604550Y-60295862D01*
X105522490Y-60355483D01*
X105522488Y-60355485D01*
X105522487Y-60355485D01*
X105355485Y-60522487D01*
X105355485Y-60522488D01*
X105355483Y-60522490D01*
X105295862Y-60604550D01*
X105216657Y-60713566D01*
X105109433Y-60924003D01*
X105036446Y-61148631D01*
X104999500Y-61381902D01*
X100691511Y-61381902D01*
X101069841Y-60753113D01*
X101071605Y-60750271D01*
X101095066Y-60713567D01*
X101823784Y-59573496D01*
X101825616Y-59570716D01*
X102609369Y-58414768D01*
X102611291Y-58412014D01*
X103229284Y-57551657D01*
X103284380Y-57508694D01*
X103329993Y-57500000D01*
X186670007Y-57500000D01*
X186737046Y-57519685D01*
G37*
%TD.AperFunction*%
%TD*%
M02*
