M48
; DRILL file KiCad 10.0.5-10.0.5~ubuntu26.04.1 date 2026-08-26T20:30:17
; FORMAT={-:-/ absolute / metric / decimal}
; #@! TF.CreationDate,2026-08-26T20:30:17+03:00
; #@! TF.GenerationSoftware,Kicad,Pcbnew,10.0.5-10.0.5~ubuntu26.04.1
; #@! TF.FileFunction,Plated,1,2,PTH
FMAT,2
METRIC
; #@! TA.AperFunction,Plated,PTH,ViaDrill
T1C0.300
; #@! TA.AperFunction,Plated,PTH,ComponentDrill
T2C0.750
; #@! TA.AperFunction,Plated,PTH,ComponentDrill
T3C1.000
; #@! TA.AperFunction,Plated,PTH,ComponentDrill
T4C1.100
; #@! TA.AperFunction,Plated,PTH,ComponentDrill
T5C1.300
%
G90
G05
T1
X122.5Y-104.0
T2
X132.0Y-74.96
X132.0Y-76.23
X132.0Y-77.5
T3
X140.996Y-111.157
X140.996Y-113.697
X140.996Y-116.237
X141.0Y-62.9
X141.0Y-65.44
X141.0Y-67.98
X141.0Y-70.52
X141.0Y-73.06
X141.0Y-75.6
X141.0Y-78.14
X141.0Y-80.68
X141.0Y-83.22
X141.0Y-85.76
X141.0Y-88.3
X141.0Y-90.84
X141.0Y-93.38
X141.0Y-95.92
X141.0Y-98.46
X141.0Y-101.0
X141.0Y-103.54
X141.0Y-106.08
X141.0Y-108.62
X166.4Y-62.9
X166.4Y-65.44
X166.4Y-67.98
X166.4Y-70.52
X166.4Y-73.06
X166.4Y-75.6
X166.4Y-78.14
X166.4Y-80.68
X166.4Y-83.22
X166.4Y-85.76
X166.4Y-88.3
X166.4Y-90.84
X166.4Y-93.38
X166.4Y-95.92
X166.4Y-98.46
X166.4Y-101.0
X166.4Y-103.54
X166.4Y-106.08
X166.4Y-108.62
X166.4Y-111.16
X166.4Y-113.7
X166.4Y-116.24
T4
X179.0Y-79.5
X179.0Y-89.66
T5
X102.0Y-83.42
X102.0Y-88.5
X188.172Y-81.965
X188.172Y-87.045
M30
