%TF.GenerationSoftware,KiCad,Pcbnew,10.0.5-10.0.5~ubuntu26.04.1*%
%TF.CreationDate,2026-08-26T20:29:56+03:00*%
%TF.ProjectId,M5.2_KiCad_esp32_motor,4d352e32-5f4b-4694-9361-645f65737033,rev?*%
%TF.SameCoordinates,Original*%
%TF.FileFunction,Soldermask,Bot*%
%TF.FilePolarity,Negative*%
%FSLAX46Y46*%
G04 Gerber Fmt 4.6, Leading zero omitted, Abs format (unit mm)*
G04 Created by KiCad (PCBNEW 10.0.5-10.0.5~ubuntu26.04.1) date 2026-08-26 20:29:56*
%MOMM*%
%LPD*%
G01*
G04 APERTURE LIST*
G04 Aperture macros list*
%AMRoundRect*
0 Rectangle with rounded corners*
0 $1 Rounding radius*
0 $2 $3 $4 $5 $6 $7 $8 $9 X,Y pos of 4 corners*
0 Add a 4 corners polygon primitive as box body*
4,1,4,$2,$3,$4,$5,$6,$7,$8,$9,$2,$3,0*
0 Add four circle primitives for the rounded corners*
1,1,$1+$1,$2,$3*
1,1,$1+$1,$4,$5*
1,1,$1+$1,$6,$7*
1,1,$1+$1,$8,$9*
0 Add four rect primitives between the rounded corners*
20,1,$1+$1,$2,$3,$4,$5,0*
20,1,$1+$1,$4,$5,$6,$7,0*
20,1,$1+$1,$6,$7,$8,$9,0*
20,1,$1+$1,$8,$9,$2,$3,0*%
G04 Aperture macros list end*
%ADD10C,2.500000*%
%ADD11R,1.500000X1.050000*%
%ADD12O,1.500000X1.050000*%
%ADD13RoundRect,0.250000X1.050000X-1.050000X1.050000X1.050000X-1.050000X1.050000X-1.050000X-1.050000X0*%
%ADD14C,2.600000*%
%ADD15R,2.000000X2.000000*%
%ADD16O,2.000000X2.000000*%
%ADD17RoundRect,0.250000X-1.050000X1.050000X-1.050000X-1.050000X1.050000X-1.050000X1.050000X1.050000X0*%
%ADD18RoundRect,0.249999X-0.850001X0.850001X-0.850001X-0.850001X0.850001X-0.850001X0.850001X0.850001X0*%
%ADD19C,2.200000*%
G04 APERTURE END LIST*
D10*
%TO.C,REF\u002A\u002A*%
X106500000Y-61500000D03*
%TD*%
%TO.C,REF\u002A\u002A*%
X106500000Y-115000000D03*
%TD*%
%TO.C,REF\u002A\u002A*%
X183500000Y-115000000D03*
%TD*%
%TO.C,REF\u002A\u002A*%
X183500000Y-61000000D03*
%TD*%
D11*
%TO.C,U1*%
X132000000Y-77500000D03*
D12*
X132000000Y-76230000D03*
X132000000Y-74960000D03*
%TD*%
D13*
%TO.C,J2*%
X188172500Y-87045000D03*
D14*
X188172500Y-81965000D03*
%TD*%
D15*
%TO.C,U2*%
X141000000Y-62900000D03*
D16*
X141000000Y-65440000D03*
X141000000Y-67980000D03*
X141000000Y-70520000D03*
X141000000Y-73060000D03*
X141000000Y-75600000D03*
X141000000Y-78140000D03*
X141000000Y-80680000D03*
X141000000Y-83220000D03*
X141000000Y-85760000D03*
X141000000Y-88300000D03*
X141000000Y-90840000D03*
X141000000Y-93380000D03*
X141000000Y-95920000D03*
X141000000Y-98460000D03*
X141000000Y-101000000D03*
X141000000Y-103540000D03*
X141000000Y-106080000D03*
X141000000Y-108620000D03*
X140996320Y-111157280D03*
X140996320Y-113697280D03*
X140996320Y-116237280D03*
X166400000Y-116240000D03*
X166400000Y-113700000D03*
X166400000Y-111160000D03*
X166400000Y-108620000D03*
X166400000Y-106080000D03*
X166400000Y-103540000D03*
X166400000Y-101000000D03*
X166400000Y-98460000D03*
X166400000Y-95920000D03*
X166400000Y-93380000D03*
X166400000Y-90840000D03*
X166400000Y-88300000D03*
X166400000Y-85760000D03*
X166400000Y-83220000D03*
X166400000Y-80680000D03*
X166400000Y-78140000D03*
X166400000Y-75600000D03*
X166400000Y-73060000D03*
X166400000Y-70520000D03*
X166400000Y-67980000D03*
X166400000Y-65440000D03*
D15*
X166400000Y-62900000D03*
%TD*%
D17*
%TO.C,J1*%
X102000000Y-83420000D03*
D14*
X102000000Y-88500000D03*
%TD*%
D18*
%TO.C,D2*%
X179000000Y-79500000D03*
D19*
X179000000Y-89660000D03*
%TD*%
M02*
