%TF.GenerationSoftware,KiCad,Pcbnew,10.0.5-10.0.5~ubuntu26.04.1*%
%TF.CreationDate,2026-08-26T20:29:55+03:00*%
%TF.ProjectId,M5.2_KiCad_esp32_motor,4d352e32-5f4b-4694-9361-645f65737033,rev?*%
%TF.SameCoordinates,Original*%
%TF.FileFunction,Legend,Top*%
%TF.FilePolarity,Positive*%
%FSLAX46Y46*%
G04 Gerber Fmt 4.6, Leading zero omitted, Abs format (unit mm)*
G04 Created by KiCad (PCBNEW 10.0.5-10.0.5~ubuntu26.04.1) date 2026-08-26 20:29:55*
%MOMM*%
%LPD*%
G01*
G04 APERTURE LIST*
%ADD10C,0.100000*%
%ADD11C,0.300000*%
%ADD12C,0.150000*%
%ADD13C,0.120000*%
G04 APERTURE END LIST*
D10*
X193806384Y-81991466D02*
X194568289Y-81991466D01*
X194187336Y-82372419D02*
X194187336Y-81610514D01*
X193806384Y-86976466D02*
X194568289Y-86976466D01*
D11*
X185173558Y-76239638D02*
X185173558Y-74239638D01*
X185173558Y-74239638D02*
X185840225Y-75668209D01*
X185840225Y-75668209D02*
X186506891Y-74239638D01*
X186506891Y-74239638D02*
X186506891Y-76239638D01*
X187744986Y-76239638D02*
X187554510Y-76144400D01*
X187554510Y-76144400D02*
X187459272Y-76049161D01*
X187459272Y-76049161D02*
X187364034Y-75858685D01*
X187364034Y-75858685D02*
X187364034Y-75287257D01*
X187364034Y-75287257D02*
X187459272Y-75096780D01*
X187459272Y-75096780D02*
X187554510Y-75001542D01*
X187554510Y-75001542D02*
X187744986Y-74906304D01*
X187744986Y-74906304D02*
X188030701Y-74906304D01*
X188030701Y-74906304D02*
X188221177Y-75001542D01*
X188221177Y-75001542D02*
X188316415Y-75096780D01*
X188316415Y-75096780D02*
X188411653Y-75287257D01*
X188411653Y-75287257D02*
X188411653Y-75858685D01*
X188411653Y-75858685D02*
X188316415Y-76049161D01*
X188316415Y-76049161D02*
X188221177Y-76144400D01*
X188221177Y-76144400D02*
X188030701Y-76239638D01*
X188030701Y-76239638D02*
X187744986Y-76239638D01*
X188983082Y-74906304D02*
X189744986Y-74906304D01*
X189268796Y-74239638D02*
X189268796Y-75953923D01*
X189268796Y-75953923D02*
X189364034Y-76144400D01*
X189364034Y-76144400D02*
X189554510Y-76239638D01*
X189554510Y-76239638D02*
X189744986Y-76239638D01*
X190697367Y-76239638D02*
X190506891Y-76144400D01*
X190506891Y-76144400D02*
X190411653Y-76049161D01*
X190411653Y-76049161D02*
X190316415Y-75858685D01*
X190316415Y-75858685D02*
X190316415Y-75287257D01*
X190316415Y-75287257D02*
X190411653Y-75096780D01*
X190411653Y-75096780D02*
X190506891Y-75001542D01*
X190506891Y-75001542D02*
X190697367Y-74906304D01*
X190697367Y-74906304D02*
X190983082Y-74906304D01*
X190983082Y-74906304D02*
X191173558Y-75001542D01*
X191173558Y-75001542D02*
X191268796Y-75096780D01*
X191268796Y-75096780D02*
X191364034Y-75287257D01*
X191364034Y-75287257D02*
X191364034Y-75858685D01*
X191364034Y-75858685D02*
X191268796Y-76049161D01*
X191268796Y-76049161D02*
X191173558Y-76144400D01*
X191173558Y-76144400D02*
X190983082Y-76239638D01*
X190983082Y-76239638D02*
X190697367Y-76239638D01*
X192221177Y-76239638D02*
X192221177Y-74906304D01*
X192221177Y-75287257D02*
X192316415Y-75096780D01*
X192316415Y-75096780D02*
X192411653Y-75001542D01*
X192411653Y-75001542D02*
X192602129Y-74906304D01*
X192602129Y-74906304D02*
X192792606Y-74906304D01*
D12*
X137604819Y-75309166D02*
X137128628Y-75642499D01*
X137604819Y-75880594D02*
X136604819Y-75880594D01*
X136604819Y-75880594D02*
X136604819Y-75499642D01*
X136604819Y-75499642D02*
X136652438Y-75404404D01*
X136652438Y-75404404D02*
X136700057Y-75356785D01*
X136700057Y-75356785D02*
X136795295Y-75309166D01*
X136795295Y-75309166D02*
X136938152Y-75309166D01*
X136938152Y-75309166D02*
X137033390Y-75356785D01*
X137033390Y-75356785D02*
X137081009Y-75404404D01*
X137081009Y-75404404D02*
X137128628Y-75499642D01*
X137128628Y-75499642D02*
X137128628Y-75880594D01*
X136700057Y-74928213D02*
X136652438Y-74880594D01*
X136652438Y-74880594D02*
X136604819Y-74785356D01*
X136604819Y-74785356D02*
X136604819Y-74547261D01*
X136604819Y-74547261D02*
X136652438Y-74452023D01*
X136652438Y-74452023D02*
X136700057Y-74404404D01*
X136700057Y-74404404D02*
X136795295Y-74356785D01*
X136795295Y-74356785D02*
X136890533Y-74356785D01*
X136890533Y-74356785D02*
X137033390Y-74404404D01*
X137033390Y-74404404D02*
X137604819Y-74975832D01*
X137604819Y-74975832D02*
X137604819Y-74356785D01*
X127894819Y-76991904D02*
X128704342Y-76991904D01*
X128704342Y-76991904D02*
X128799580Y-76944285D01*
X128799580Y-76944285D02*
X128847200Y-76896666D01*
X128847200Y-76896666D02*
X128894819Y-76801428D01*
X128894819Y-76801428D02*
X128894819Y-76610952D01*
X128894819Y-76610952D02*
X128847200Y-76515714D01*
X128847200Y-76515714D02*
X128799580Y-76468095D01*
X128799580Y-76468095D02*
X128704342Y-76420476D01*
X128704342Y-76420476D02*
X127894819Y-76420476D01*
X128894819Y-75420476D02*
X128894819Y-75991904D01*
X128894819Y-75706190D02*
X127894819Y-75706190D01*
X127894819Y-75706190D02*
X128037676Y-75801428D01*
X128037676Y-75801428D02*
X128132914Y-75896666D01*
X128132914Y-75896666D02*
X128180533Y-75991904D01*
X125333333Y-73859580D02*
X125285714Y-73907200D01*
X125285714Y-73907200D02*
X125142857Y-73954819D01*
X125142857Y-73954819D02*
X125047619Y-73954819D01*
X125047619Y-73954819D02*
X124904762Y-73907200D01*
X124904762Y-73907200D02*
X124809524Y-73811961D01*
X124809524Y-73811961D02*
X124761905Y-73716723D01*
X124761905Y-73716723D02*
X124714286Y-73526247D01*
X124714286Y-73526247D02*
X124714286Y-73383390D01*
X124714286Y-73383390D02*
X124761905Y-73192914D01*
X124761905Y-73192914D02*
X124809524Y-73097676D01*
X124809524Y-73097676D02*
X124904762Y-73002438D01*
X124904762Y-73002438D02*
X125047619Y-72954819D01*
X125047619Y-72954819D02*
X125142857Y-72954819D01*
X125142857Y-72954819D02*
X125285714Y-73002438D01*
X125285714Y-73002438D02*
X125333333Y-73050057D01*
X126238095Y-72954819D02*
X125761905Y-72954819D01*
X125761905Y-72954819D02*
X125714286Y-73431009D01*
X125714286Y-73431009D02*
X125761905Y-73383390D01*
X125761905Y-73383390D02*
X125857143Y-73335771D01*
X125857143Y-73335771D02*
X126095238Y-73335771D01*
X126095238Y-73335771D02*
X126190476Y-73383390D01*
X126190476Y-73383390D02*
X126238095Y-73431009D01*
X126238095Y-73431009D02*
X126285714Y-73526247D01*
X126285714Y-73526247D02*
X126285714Y-73764342D01*
X126285714Y-73764342D02*
X126238095Y-73859580D01*
X126238095Y-73859580D02*
X126190476Y-73907200D01*
X126190476Y-73907200D02*
X126095238Y-73954819D01*
X126095238Y-73954819D02*
X125857143Y-73954819D01*
X125857143Y-73954819D02*
X125761905Y-73907200D01*
X125761905Y-73907200D02*
X125714286Y-73859580D01*
X181307319Y-84838333D02*
X182021604Y-84838333D01*
X182021604Y-84838333D02*
X182164461Y-84885952D01*
X182164461Y-84885952D02*
X182259700Y-84981190D01*
X182259700Y-84981190D02*
X182307319Y-85124047D01*
X182307319Y-85124047D02*
X182307319Y-85219285D01*
X181402557Y-84409761D02*
X181354938Y-84362142D01*
X181354938Y-84362142D02*
X181307319Y-84266904D01*
X181307319Y-84266904D02*
X181307319Y-84028809D01*
X181307319Y-84028809D02*
X181354938Y-83933571D01*
X181354938Y-83933571D02*
X181402557Y-83885952D01*
X181402557Y-83885952D02*
X181497795Y-83838333D01*
X181497795Y-83838333D02*
X181593033Y-83838333D01*
X181593033Y-83838333D02*
X181735890Y-83885952D01*
X181735890Y-83885952D02*
X182307319Y-84457380D01*
X182307319Y-84457380D02*
X182307319Y-83838333D01*
X132404761Y-64954819D02*
X132071428Y-64478628D01*
X131833333Y-64954819D02*
X131833333Y-63954819D01*
X131833333Y-63954819D02*
X132214285Y-63954819D01*
X132214285Y-63954819D02*
X132309523Y-64002438D01*
X132309523Y-64002438D02*
X132357142Y-64050057D01*
X132357142Y-64050057D02*
X132404761Y-64145295D01*
X132404761Y-64145295D02*
X132404761Y-64288152D01*
X132404761Y-64288152D02*
X132357142Y-64383390D01*
X132357142Y-64383390D02*
X132309523Y-64431009D01*
X132309523Y-64431009D02*
X132214285Y-64478628D01*
X132214285Y-64478628D02*
X131833333Y-64478628D01*
X132690476Y-63954819D02*
X133023809Y-64954819D01*
X133023809Y-64954819D02*
X133357142Y-63954819D01*
X134214285Y-64954819D02*
X133642857Y-64954819D01*
X133928571Y-64954819D02*
X133928571Y-63954819D01*
X133928571Y-63954819D02*
X133833333Y-64097676D01*
X133833333Y-64097676D02*
X133738095Y-64192914D01*
X133738095Y-64192914D02*
X133642857Y-64240533D01*
X153388095Y-59694819D02*
X153388095Y-60504342D01*
X153388095Y-60504342D02*
X153435714Y-60599580D01*
X153435714Y-60599580D02*
X153483333Y-60647200D01*
X153483333Y-60647200D02*
X153578571Y-60694819D01*
X153578571Y-60694819D02*
X153769047Y-60694819D01*
X153769047Y-60694819D02*
X153864285Y-60647200D01*
X153864285Y-60647200D02*
X153911904Y-60599580D01*
X153911904Y-60599580D02*
X153959523Y-60504342D01*
X153959523Y-60504342D02*
X153959523Y-59694819D01*
X154388095Y-59790057D02*
X154435714Y-59742438D01*
X154435714Y-59742438D02*
X154530952Y-59694819D01*
X154530952Y-59694819D02*
X154769047Y-59694819D01*
X154769047Y-59694819D02*
X154864285Y-59742438D01*
X154864285Y-59742438D02*
X154911904Y-59790057D01*
X154911904Y-59790057D02*
X154959523Y-59885295D01*
X154959523Y-59885295D02*
X154959523Y-59980533D01*
X154959523Y-59980533D02*
X154911904Y-60123390D01*
X154911904Y-60123390D02*
X154340476Y-60694819D01*
X154340476Y-60694819D02*
X154959523Y-60694819D01*
X152978628Y-95721428D02*
X153454819Y-95721428D01*
X152454819Y-96054761D02*
X152978628Y-95721428D01*
X152978628Y-95721428D02*
X152454819Y-95388095D01*
X153454819Y-95054761D02*
X152454819Y-95054761D01*
X152454819Y-95054761D02*
X152454819Y-94816666D01*
X152454819Y-94816666D02*
X152502438Y-94673809D01*
X152502438Y-94673809D02*
X152597676Y-94578571D01*
X152597676Y-94578571D02*
X152692914Y-94530952D01*
X152692914Y-94530952D02*
X152883390Y-94483333D01*
X152883390Y-94483333D02*
X153026247Y-94483333D01*
X153026247Y-94483333D02*
X153216723Y-94530952D01*
X153216723Y-94530952D02*
X153311961Y-94578571D01*
X153311961Y-94578571D02*
X153407200Y-94673809D01*
X153407200Y-94673809D02*
X153454819Y-94816666D01*
X153454819Y-94816666D02*
X153454819Y-95054761D01*
X153073866Y-94054761D02*
X153073866Y-93292857D01*
X152931009Y-92816666D02*
X152931009Y-92483333D01*
X153454819Y-92340476D02*
X153454819Y-92816666D01*
X153454819Y-92816666D02*
X152454819Y-92816666D01*
X152454819Y-92816666D02*
X152454819Y-92340476D01*
X153407200Y-91959523D02*
X153454819Y-91816666D01*
X153454819Y-91816666D02*
X153454819Y-91578571D01*
X153454819Y-91578571D02*
X153407200Y-91483333D01*
X153407200Y-91483333D02*
X153359580Y-91435714D01*
X153359580Y-91435714D02*
X153264342Y-91388095D01*
X153264342Y-91388095D02*
X153169104Y-91388095D01*
X153169104Y-91388095D02*
X153073866Y-91435714D01*
X153073866Y-91435714D02*
X153026247Y-91483333D01*
X153026247Y-91483333D02*
X152978628Y-91578571D01*
X152978628Y-91578571D02*
X152931009Y-91769047D01*
X152931009Y-91769047D02*
X152883390Y-91864285D01*
X152883390Y-91864285D02*
X152835771Y-91911904D01*
X152835771Y-91911904D02*
X152740533Y-91959523D01*
X152740533Y-91959523D02*
X152645295Y-91959523D01*
X152645295Y-91959523D02*
X152550057Y-91911904D01*
X152550057Y-91911904D02*
X152502438Y-91864285D01*
X152502438Y-91864285D02*
X152454819Y-91769047D01*
X152454819Y-91769047D02*
X152454819Y-91530952D01*
X152454819Y-91530952D02*
X152502438Y-91388095D01*
X153454819Y-90959523D02*
X152454819Y-90959523D01*
X152454819Y-90959523D02*
X152454819Y-90578571D01*
X152454819Y-90578571D02*
X152502438Y-90483333D01*
X152502438Y-90483333D02*
X152550057Y-90435714D01*
X152550057Y-90435714D02*
X152645295Y-90388095D01*
X152645295Y-90388095D02*
X152788152Y-90388095D01*
X152788152Y-90388095D02*
X152883390Y-90435714D01*
X152883390Y-90435714D02*
X152931009Y-90483333D01*
X152931009Y-90483333D02*
X152978628Y-90578571D01*
X152978628Y-90578571D02*
X152978628Y-90959523D01*
X152454819Y-90054761D02*
X152454819Y-89435714D01*
X152454819Y-89435714D02*
X152835771Y-89769047D01*
X152835771Y-89769047D02*
X152835771Y-89626190D01*
X152835771Y-89626190D02*
X152883390Y-89530952D01*
X152883390Y-89530952D02*
X152931009Y-89483333D01*
X152931009Y-89483333D02*
X153026247Y-89435714D01*
X153026247Y-89435714D02*
X153264342Y-89435714D01*
X153264342Y-89435714D02*
X153359580Y-89483333D01*
X153359580Y-89483333D02*
X153407200Y-89530952D01*
X153407200Y-89530952D02*
X153454819Y-89626190D01*
X153454819Y-89626190D02*
X153454819Y-89911904D01*
X153454819Y-89911904D02*
X153407200Y-90007142D01*
X153407200Y-90007142D02*
X153359580Y-90054761D01*
X152550057Y-89054761D02*
X152502438Y-89007142D01*
X152502438Y-89007142D02*
X152454819Y-88911904D01*
X152454819Y-88911904D02*
X152454819Y-88673809D01*
X152454819Y-88673809D02*
X152502438Y-88578571D01*
X152502438Y-88578571D02*
X152550057Y-88530952D01*
X152550057Y-88530952D02*
X152645295Y-88483333D01*
X152645295Y-88483333D02*
X152740533Y-88483333D01*
X152740533Y-88483333D02*
X152883390Y-88530952D01*
X152883390Y-88530952D02*
X153454819Y-89102380D01*
X153454819Y-89102380D02*
X153454819Y-88483333D01*
X153073866Y-88054761D02*
X153073866Y-87292857D01*
X153407200Y-86864285D02*
X153454819Y-86721428D01*
X153454819Y-86721428D02*
X153454819Y-86483333D01*
X153454819Y-86483333D02*
X153407200Y-86388095D01*
X153407200Y-86388095D02*
X153359580Y-86340476D01*
X153359580Y-86340476D02*
X153264342Y-86292857D01*
X153264342Y-86292857D02*
X153169104Y-86292857D01*
X153169104Y-86292857D02*
X153073866Y-86340476D01*
X153073866Y-86340476D02*
X153026247Y-86388095D01*
X153026247Y-86388095D02*
X152978628Y-86483333D01*
X152978628Y-86483333D02*
X152931009Y-86673809D01*
X152931009Y-86673809D02*
X152883390Y-86769047D01*
X152883390Y-86769047D02*
X152835771Y-86816666D01*
X152835771Y-86816666D02*
X152740533Y-86864285D01*
X152740533Y-86864285D02*
X152645295Y-86864285D01*
X152645295Y-86864285D02*
X152550057Y-86816666D01*
X152550057Y-86816666D02*
X152502438Y-86769047D01*
X152502438Y-86769047D02*
X152454819Y-86673809D01*
X152454819Y-86673809D02*
X152454819Y-86435714D01*
X152454819Y-86435714D02*
X152502438Y-86292857D01*
X152454819Y-85959523D02*
X152454819Y-85340476D01*
X152454819Y-85340476D02*
X152835771Y-85673809D01*
X152835771Y-85673809D02*
X152835771Y-85530952D01*
X152835771Y-85530952D02*
X152883390Y-85435714D01*
X152883390Y-85435714D02*
X152931009Y-85388095D01*
X152931009Y-85388095D02*
X153026247Y-85340476D01*
X153026247Y-85340476D02*
X153264342Y-85340476D01*
X153264342Y-85340476D02*
X153359580Y-85388095D01*
X153359580Y-85388095D02*
X153407200Y-85435714D01*
X153407200Y-85435714D02*
X153454819Y-85530952D01*
X153454819Y-85530952D02*
X153454819Y-85816666D01*
X153454819Y-85816666D02*
X153407200Y-85911904D01*
X153407200Y-85911904D02*
X153359580Y-85959523D01*
X142511541Y-62354819D02*
X143130588Y-62354819D01*
X143130588Y-62354819D02*
X142797255Y-62735771D01*
X142797255Y-62735771D02*
X142940112Y-62735771D01*
X142940112Y-62735771D02*
X143035350Y-62783390D01*
X143035350Y-62783390D02*
X143082969Y-62831009D01*
X143082969Y-62831009D02*
X143130588Y-62926247D01*
X143130588Y-62926247D02*
X143130588Y-63164342D01*
X143130588Y-63164342D02*
X143082969Y-63259580D01*
X143082969Y-63259580D02*
X143035350Y-63307200D01*
X143035350Y-63307200D02*
X142940112Y-63354819D01*
X142940112Y-63354819D02*
X142654398Y-63354819D01*
X142654398Y-63354819D02*
X142559160Y-63307200D01*
X142559160Y-63307200D02*
X142511541Y-63259580D01*
X143416303Y-62354819D02*
X143749636Y-63354819D01*
X143749636Y-63354819D02*
X144082969Y-62354819D01*
X144321065Y-62354819D02*
X144940112Y-62354819D01*
X144940112Y-62354819D02*
X144606779Y-62735771D01*
X144606779Y-62735771D02*
X144749636Y-62735771D01*
X144749636Y-62735771D02*
X144844874Y-62783390D01*
X144844874Y-62783390D02*
X144892493Y-62831009D01*
X144892493Y-62831009D02*
X144940112Y-62926247D01*
X144940112Y-62926247D02*
X144940112Y-63164342D01*
X144940112Y-63164342D02*
X144892493Y-63259580D01*
X144892493Y-63259580D02*
X144844874Y-63307200D01*
X144844874Y-63307200D02*
X144749636Y-63354819D01*
X144749636Y-63354819D02*
X144463922Y-63354819D01*
X144463922Y-63354819D02*
X144368684Y-63307200D01*
X144368684Y-63307200D02*
X144321065Y-63259580D01*
X142511541Y-64894819D02*
X143130588Y-64894819D01*
X143130588Y-64894819D02*
X142797255Y-65275771D01*
X142797255Y-65275771D02*
X142940112Y-65275771D01*
X142940112Y-65275771D02*
X143035350Y-65323390D01*
X143035350Y-65323390D02*
X143082969Y-65371009D01*
X143082969Y-65371009D02*
X143130588Y-65466247D01*
X143130588Y-65466247D02*
X143130588Y-65704342D01*
X143130588Y-65704342D02*
X143082969Y-65799580D01*
X143082969Y-65799580D02*
X143035350Y-65847200D01*
X143035350Y-65847200D02*
X142940112Y-65894819D01*
X142940112Y-65894819D02*
X142654398Y-65894819D01*
X142654398Y-65894819D02*
X142559160Y-65847200D01*
X142559160Y-65847200D02*
X142511541Y-65799580D01*
X143416303Y-64894819D02*
X143749636Y-65894819D01*
X143749636Y-65894819D02*
X144082969Y-64894819D01*
X144321065Y-64894819D02*
X144940112Y-64894819D01*
X144940112Y-64894819D02*
X144606779Y-65275771D01*
X144606779Y-65275771D02*
X144749636Y-65275771D01*
X144749636Y-65275771D02*
X144844874Y-65323390D01*
X144844874Y-65323390D02*
X144892493Y-65371009D01*
X144892493Y-65371009D02*
X144940112Y-65466247D01*
X144940112Y-65466247D02*
X144940112Y-65704342D01*
X144940112Y-65704342D02*
X144892493Y-65799580D01*
X144892493Y-65799580D02*
X144844874Y-65847200D01*
X144844874Y-65847200D02*
X144749636Y-65894819D01*
X144749636Y-65894819D02*
X144463922Y-65894819D01*
X144463922Y-65894819D02*
X144368684Y-65847200D01*
X144368684Y-65847200D02*
X144321065Y-65799580D01*
X143130588Y-70022438D02*
X143035350Y-69974819D01*
X143035350Y-69974819D02*
X142892493Y-69974819D01*
X142892493Y-69974819D02*
X142749636Y-70022438D01*
X142749636Y-70022438D02*
X142654398Y-70117676D01*
X142654398Y-70117676D02*
X142606779Y-70212914D01*
X142606779Y-70212914D02*
X142559160Y-70403390D01*
X142559160Y-70403390D02*
X142559160Y-70546247D01*
X142559160Y-70546247D02*
X142606779Y-70736723D01*
X142606779Y-70736723D02*
X142654398Y-70831961D01*
X142654398Y-70831961D02*
X142749636Y-70927200D01*
X142749636Y-70927200D02*
X142892493Y-70974819D01*
X142892493Y-70974819D02*
X142987731Y-70974819D01*
X142987731Y-70974819D02*
X143130588Y-70927200D01*
X143130588Y-70927200D02*
X143178207Y-70879580D01*
X143178207Y-70879580D02*
X143178207Y-70546247D01*
X143178207Y-70546247D02*
X142987731Y-70546247D01*
X143606779Y-70974819D02*
X143606779Y-69974819D01*
X143606779Y-69974819D02*
X143987731Y-69974819D01*
X143987731Y-69974819D02*
X144082969Y-70022438D01*
X144082969Y-70022438D02*
X144130588Y-70070057D01*
X144130588Y-70070057D02*
X144178207Y-70165295D01*
X144178207Y-70165295D02*
X144178207Y-70308152D01*
X144178207Y-70308152D02*
X144130588Y-70403390D01*
X144130588Y-70403390D02*
X144082969Y-70451009D01*
X144082969Y-70451009D02*
X143987731Y-70498628D01*
X143987731Y-70498628D02*
X143606779Y-70498628D01*
X144606779Y-70974819D02*
X144606779Y-69974819D01*
X145273445Y-69974819D02*
X145463921Y-69974819D01*
X145463921Y-69974819D02*
X145559159Y-70022438D01*
X145559159Y-70022438D02*
X145654397Y-70117676D01*
X145654397Y-70117676D02*
X145702016Y-70308152D01*
X145702016Y-70308152D02*
X145702016Y-70641485D01*
X145702016Y-70641485D02*
X145654397Y-70831961D01*
X145654397Y-70831961D02*
X145559159Y-70927200D01*
X145559159Y-70927200D02*
X145463921Y-70974819D01*
X145463921Y-70974819D02*
X145273445Y-70974819D01*
X145273445Y-70974819D02*
X145178207Y-70927200D01*
X145178207Y-70927200D02*
X145082969Y-70831961D01*
X145082969Y-70831961D02*
X145035350Y-70641485D01*
X145035350Y-70641485D02*
X145035350Y-70308152D01*
X145035350Y-70308152D02*
X145082969Y-70117676D01*
X145082969Y-70117676D02*
X145178207Y-70022438D01*
X145178207Y-70022438D02*
X145273445Y-69974819D01*
X146559159Y-70308152D02*
X146559159Y-70974819D01*
X146321064Y-69927200D02*
X146082969Y-70641485D01*
X146082969Y-70641485D02*
X146702016Y-70641485D01*
X143130588Y-72562438D02*
X143035350Y-72514819D01*
X143035350Y-72514819D02*
X142892493Y-72514819D01*
X142892493Y-72514819D02*
X142749636Y-72562438D01*
X142749636Y-72562438D02*
X142654398Y-72657676D01*
X142654398Y-72657676D02*
X142606779Y-72752914D01*
X142606779Y-72752914D02*
X142559160Y-72943390D01*
X142559160Y-72943390D02*
X142559160Y-73086247D01*
X142559160Y-73086247D02*
X142606779Y-73276723D01*
X142606779Y-73276723D02*
X142654398Y-73371961D01*
X142654398Y-73371961D02*
X142749636Y-73467200D01*
X142749636Y-73467200D02*
X142892493Y-73514819D01*
X142892493Y-73514819D02*
X142987731Y-73514819D01*
X142987731Y-73514819D02*
X143130588Y-73467200D01*
X143130588Y-73467200D02*
X143178207Y-73419580D01*
X143178207Y-73419580D02*
X143178207Y-73086247D01*
X143178207Y-73086247D02*
X142987731Y-73086247D01*
X143606779Y-73514819D02*
X143606779Y-72514819D01*
X143606779Y-72514819D02*
X143987731Y-72514819D01*
X143987731Y-72514819D02*
X144082969Y-72562438D01*
X144082969Y-72562438D02*
X144130588Y-72610057D01*
X144130588Y-72610057D02*
X144178207Y-72705295D01*
X144178207Y-72705295D02*
X144178207Y-72848152D01*
X144178207Y-72848152D02*
X144130588Y-72943390D01*
X144130588Y-72943390D02*
X144082969Y-72991009D01*
X144082969Y-72991009D02*
X143987731Y-73038628D01*
X143987731Y-73038628D02*
X143606779Y-73038628D01*
X144606779Y-73514819D02*
X144606779Y-72514819D01*
X145273445Y-72514819D02*
X145463921Y-72514819D01*
X145463921Y-72514819D02*
X145559159Y-72562438D01*
X145559159Y-72562438D02*
X145654397Y-72657676D01*
X145654397Y-72657676D02*
X145702016Y-72848152D01*
X145702016Y-72848152D02*
X145702016Y-73181485D01*
X145702016Y-73181485D02*
X145654397Y-73371961D01*
X145654397Y-73371961D02*
X145559159Y-73467200D01*
X145559159Y-73467200D02*
X145463921Y-73514819D01*
X145463921Y-73514819D02*
X145273445Y-73514819D01*
X145273445Y-73514819D02*
X145178207Y-73467200D01*
X145178207Y-73467200D02*
X145082969Y-73371961D01*
X145082969Y-73371961D02*
X145035350Y-73181485D01*
X145035350Y-73181485D02*
X145035350Y-72848152D01*
X145035350Y-72848152D02*
X145082969Y-72657676D01*
X145082969Y-72657676D02*
X145178207Y-72562438D01*
X145178207Y-72562438D02*
X145273445Y-72514819D01*
X146606778Y-72514819D02*
X146130588Y-72514819D01*
X146130588Y-72514819D02*
X146082969Y-72991009D01*
X146082969Y-72991009D02*
X146130588Y-72943390D01*
X146130588Y-72943390D02*
X146225826Y-72895771D01*
X146225826Y-72895771D02*
X146463921Y-72895771D01*
X146463921Y-72895771D02*
X146559159Y-72943390D01*
X146559159Y-72943390D02*
X146606778Y-72991009D01*
X146606778Y-72991009D02*
X146654397Y-73086247D01*
X146654397Y-73086247D02*
X146654397Y-73324342D01*
X146654397Y-73324342D02*
X146606778Y-73419580D01*
X146606778Y-73419580D02*
X146559159Y-73467200D01*
X146559159Y-73467200D02*
X146463921Y-73514819D01*
X146463921Y-73514819D02*
X146225826Y-73514819D01*
X146225826Y-73514819D02*
X146130588Y-73467200D01*
X146130588Y-73467200D02*
X146082969Y-73419580D01*
X143130588Y-75102438D02*
X143035350Y-75054819D01*
X143035350Y-75054819D02*
X142892493Y-75054819D01*
X142892493Y-75054819D02*
X142749636Y-75102438D01*
X142749636Y-75102438D02*
X142654398Y-75197676D01*
X142654398Y-75197676D02*
X142606779Y-75292914D01*
X142606779Y-75292914D02*
X142559160Y-75483390D01*
X142559160Y-75483390D02*
X142559160Y-75626247D01*
X142559160Y-75626247D02*
X142606779Y-75816723D01*
X142606779Y-75816723D02*
X142654398Y-75911961D01*
X142654398Y-75911961D02*
X142749636Y-76007200D01*
X142749636Y-76007200D02*
X142892493Y-76054819D01*
X142892493Y-76054819D02*
X142987731Y-76054819D01*
X142987731Y-76054819D02*
X143130588Y-76007200D01*
X143130588Y-76007200D02*
X143178207Y-75959580D01*
X143178207Y-75959580D02*
X143178207Y-75626247D01*
X143178207Y-75626247D02*
X142987731Y-75626247D01*
X143606779Y-76054819D02*
X143606779Y-75054819D01*
X143606779Y-75054819D02*
X143987731Y-75054819D01*
X143987731Y-75054819D02*
X144082969Y-75102438D01*
X144082969Y-75102438D02*
X144130588Y-75150057D01*
X144130588Y-75150057D02*
X144178207Y-75245295D01*
X144178207Y-75245295D02*
X144178207Y-75388152D01*
X144178207Y-75388152D02*
X144130588Y-75483390D01*
X144130588Y-75483390D02*
X144082969Y-75531009D01*
X144082969Y-75531009D02*
X143987731Y-75578628D01*
X143987731Y-75578628D02*
X143606779Y-75578628D01*
X144606779Y-76054819D02*
X144606779Y-75054819D01*
X145273445Y-75054819D02*
X145463921Y-75054819D01*
X145463921Y-75054819D02*
X145559159Y-75102438D01*
X145559159Y-75102438D02*
X145654397Y-75197676D01*
X145654397Y-75197676D02*
X145702016Y-75388152D01*
X145702016Y-75388152D02*
X145702016Y-75721485D01*
X145702016Y-75721485D02*
X145654397Y-75911961D01*
X145654397Y-75911961D02*
X145559159Y-76007200D01*
X145559159Y-76007200D02*
X145463921Y-76054819D01*
X145463921Y-76054819D02*
X145273445Y-76054819D01*
X145273445Y-76054819D02*
X145178207Y-76007200D01*
X145178207Y-76007200D02*
X145082969Y-75911961D01*
X145082969Y-75911961D02*
X145035350Y-75721485D01*
X145035350Y-75721485D02*
X145035350Y-75388152D01*
X145035350Y-75388152D02*
X145082969Y-75197676D01*
X145082969Y-75197676D02*
X145178207Y-75102438D01*
X145178207Y-75102438D02*
X145273445Y-75054819D01*
X146559159Y-75054819D02*
X146368683Y-75054819D01*
X146368683Y-75054819D02*
X146273445Y-75102438D01*
X146273445Y-75102438D02*
X146225826Y-75150057D01*
X146225826Y-75150057D02*
X146130588Y-75292914D01*
X146130588Y-75292914D02*
X146082969Y-75483390D01*
X146082969Y-75483390D02*
X146082969Y-75864342D01*
X146082969Y-75864342D02*
X146130588Y-75959580D01*
X146130588Y-75959580D02*
X146178207Y-76007200D01*
X146178207Y-76007200D02*
X146273445Y-76054819D01*
X146273445Y-76054819D02*
X146463921Y-76054819D01*
X146463921Y-76054819D02*
X146559159Y-76007200D01*
X146559159Y-76007200D02*
X146606778Y-75959580D01*
X146606778Y-75959580D02*
X146654397Y-75864342D01*
X146654397Y-75864342D02*
X146654397Y-75626247D01*
X146654397Y-75626247D02*
X146606778Y-75531009D01*
X146606778Y-75531009D02*
X146559159Y-75483390D01*
X146559159Y-75483390D02*
X146463921Y-75435771D01*
X146463921Y-75435771D02*
X146273445Y-75435771D01*
X146273445Y-75435771D02*
X146178207Y-75483390D01*
X146178207Y-75483390D02*
X146130588Y-75531009D01*
X146130588Y-75531009D02*
X146082969Y-75626247D01*
X143130588Y-77642438D02*
X143035350Y-77594819D01*
X143035350Y-77594819D02*
X142892493Y-77594819D01*
X142892493Y-77594819D02*
X142749636Y-77642438D01*
X142749636Y-77642438D02*
X142654398Y-77737676D01*
X142654398Y-77737676D02*
X142606779Y-77832914D01*
X142606779Y-77832914D02*
X142559160Y-78023390D01*
X142559160Y-78023390D02*
X142559160Y-78166247D01*
X142559160Y-78166247D02*
X142606779Y-78356723D01*
X142606779Y-78356723D02*
X142654398Y-78451961D01*
X142654398Y-78451961D02*
X142749636Y-78547200D01*
X142749636Y-78547200D02*
X142892493Y-78594819D01*
X142892493Y-78594819D02*
X142987731Y-78594819D01*
X142987731Y-78594819D02*
X143130588Y-78547200D01*
X143130588Y-78547200D02*
X143178207Y-78499580D01*
X143178207Y-78499580D02*
X143178207Y-78166247D01*
X143178207Y-78166247D02*
X142987731Y-78166247D01*
X143606779Y-78594819D02*
X143606779Y-77594819D01*
X143606779Y-77594819D02*
X143987731Y-77594819D01*
X143987731Y-77594819D02*
X144082969Y-77642438D01*
X144082969Y-77642438D02*
X144130588Y-77690057D01*
X144130588Y-77690057D02*
X144178207Y-77785295D01*
X144178207Y-77785295D02*
X144178207Y-77928152D01*
X144178207Y-77928152D02*
X144130588Y-78023390D01*
X144130588Y-78023390D02*
X144082969Y-78071009D01*
X144082969Y-78071009D02*
X143987731Y-78118628D01*
X143987731Y-78118628D02*
X143606779Y-78118628D01*
X144606779Y-78594819D02*
X144606779Y-77594819D01*
X145273445Y-77594819D02*
X145463921Y-77594819D01*
X145463921Y-77594819D02*
X145559159Y-77642438D01*
X145559159Y-77642438D02*
X145654397Y-77737676D01*
X145654397Y-77737676D02*
X145702016Y-77928152D01*
X145702016Y-77928152D02*
X145702016Y-78261485D01*
X145702016Y-78261485D02*
X145654397Y-78451961D01*
X145654397Y-78451961D02*
X145559159Y-78547200D01*
X145559159Y-78547200D02*
X145463921Y-78594819D01*
X145463921Y-78594819D02*
X145273445Y-78594819D01*
X145273445Y-78594819D02*
X145178207Y-78547200D01*
X145178207Y-78547200D02*
X145082969Y-78451961D01*
X145082969Y-78451961D02*
X145035350Y-78261485D01*
X145035350Y-78261485D02*
X145035350Y-77928152D01*
X145035350Y-77928152D02*
X145082969Y-77737676D01*
X145082969Y-77737676D02*
X145178207Y-77642438D01*
X145178207Y-77642438D02*
X145273445Y-77594819D01*
X146035350Y-77594819D02*
X146702016Y-77594819D01*
X146702016Y-77594819D02*
X146273445Y-78594819D01*
X143130588Y-80182438D02*
X143035350Y-80134819D01*
X143035350Y-80134819D02*
X142892493Y-80134819D01*
X142892493Y-80134819D02*
X142749636Y-80182438D01*
X142749636Y-80182438D02*
X142654398Y-80277676D01*
X142654398Y-80277676D02*
X142606779Y-80372914D01*
X142606779Y-80372914D02*
X142559160Y-80563390D01*
X142559160Y-80563390D02*
X142559160Y-80706247D01*
X142559160Y-80706247D02*
X142606779Y-80896723D01*
X142606779Y-80896723D02*
X142654398Y-80991961D01*
X142654398Y-80991961D02*
X142749636Y-81087200D01*
X142749636Y-81087200D02*
X142892493Y-81134819D01*
X142892493Y-81134819D02*
X142987731Y-81134819D01*
X142987731Y-81134819D02*
X143130588Y-81087200D01*
X143130588Y-81087200D02*
X143178207Y-81039580D01*
X143178207Y-81039580D02*
X143178207Y-80706247D01*
X143178207Y-80706247D02*
X142987731Y-80706247D01*
X143606779Y-81134819D02*
X143606779Y-80134819D01*
X143606779Y-80134819D02*
X143987731Y-80134819D01*
X143987731Y-80134819D02*
X144082969Y-80182438D01*
X144082969Y-80182438D02*
X144130588Y-80230057D01*
X144130588Y-80230057D02*
X144178207Y-80325295D01*
X144178207Y-80325295D02*
X144178207Y-80468152D01*
X144178207Y-80468152D02*
X144130588Y-80563390D01*
X144130588Y-80563390D02*
X144082969Y-80611009D01*
X144082969Y-80611009D02*
X143987731Y-80658628D01*
X143987731Y-80658628D02*
X143606779Y-80658628D01*
X144606779Y-81134819D02*
X144606779Y-80134819D01*
X145273445Y-80134819D02*
X145463921Y-80134819D01*
X145463921Y-80134819D02*
X145559159Y-80182438D01*
X145559159Y-80182438D02*
X145654397Y-80277676D01*
X145654397Y-80277676D02*
X145702016Y-80468152D01*
X145702016Y-80468152D02*
X145702016Y-80801485D01*
X145702016Y-80801485D02*
X145654397Y-80991961D01*
X145654397Y-80991961D02*
X145559159Y-81087200D01*
X145559159Y-81087200D02*
X145463921Y-81134819D01*
X145463921Y-81134819D02*
X145273445Y-81134819D01*
X145273445Y-81134819D02*
X145178207Y-81087200D01*
X145178207Y-81087200D02*
X145082969Y-80991961D01*
X145082969Y-80991961D02*
X145035350Y-80801485D01*
X145035350Y-80801485D02*
X145035350Y-80468152D01*
X145035350Y-80468152D02*
X145082969Y-80277676D01*
X145082969Y-80277676D02*
X145178207Y-80182438D01*
X145178207Y-80182438D02*
X145273445Y-80134819D01*
X146654397Y-81134819D02*
X146082969Y-81134819D01*
X146368683Y-81134819D02*
X146368683Y-80134819D01*
X146368683Y-80134819D02*
X146273445Y-80277676D01*
X146273445Y-80277676D02*
X146178207Y-80372914D01*
X146178207Y-80372914D02*
X146082969Y-80420533D01*
X147559159Y-80134819D02*
X147082969Y-80134819D01*
X147082969Y-80134819D02*
X147035350Y-80611009D01*
X147035350Y-80611009D02*
X147082969Y-80563390D01*
X147082969Y-80563390D02*
X147178207Y-80515771D01*
X147178207Y-80515771D02*
X147416302Y-80515771D01*
X147416302Y-80515771D02*
X147511540Y-80563390D01*
X147511540Y-80563390D02*
X147559159Y-80611009D01*
X147559159Y-80611009D02*
X147606778Y-80706247D01*
X147606778Y-80706247D02*
X147606778Y-80944342D01*
X147606778Y-80944342D02*
X147559159Y-81039580D01*
X147559159Y-81039580D02*
X147511540Y-81087200D01*
X147511540Y-81087200D02*
X147416302Y-81134819D01*
X147416302Y-81134819D02*
X147178207Y-81134819D01*
X147178207Y-81134819D02*
X147082969Y-81087200D01*
X147082969Y-81087200D02*
X147035350Y-81039580D01*
X143130588Y-82722438D02*
X143035350Y-82674819D01*
X143035350Y-82674819D02*
X142892493Y-82674819D01*
X142892493Y-82674819D02*
X142749636Y-82722438D01*
X142749636Y-82722438D02*
X142654398Y-82817676D01*
X142654398Y-82817676D02*
X142606779Y-82912914D01*
X142606779Y-82912914D02*
X142559160Y-83103390D01*
X142559160Y-83103390D02*
X142559160Y-83246247D01*
X142559160Y-83246247D02*
X142606779Y-83436723D01*
X142606779Y-83436723D02*
X142654398Y-83531961D01*
X142654398Y-83531961D02*
X142749636Y-83627200D01*
X142749636Y-83627200D02*
X142892493Y-83674819D01*
X142892493Y-83674819D02*
X142987731Y-83674819D01*
X142987731Y-83674819D02*
X143130588Y-83627200D01*
X143130588Y-83627200D02*
X143178207Y-83579580D01*
X143178207Y-83579580D02*
X143178207Y-83246247D01*
X143178207Y-83246247D02*
X142987731Y-83246247D01*
X143606779Y-83674819D02*
X143606779Y-82674819D01*
X143606779Y-82674819D02*
X143987731Y-82674819D01*
X143987731Y-82674819D02*
X144082969Y-82722438D01*
X144082969Y-82722438D02*
X144130588Y-82770057D01*
X144130588Y-82770057D02*
X144178207Y-82865295D01*
X144178207Y-82865295D02*
X144178207Y-83008152D01*
X144178207Y-83008152D02*
X144130588Y-83103390D01*
X144130588Y-83103390D02*
X144082969Y-83151009D01*
X144082969Y-83151009D02*
X143987731Y-83198628D01*
X143987731Y-83198628D02*
X143606779Y-83198628D01*
X144606779Y-83674819D02*
X144606779Y-82674819D01*
X145273445Y-82674819D02*
X145463921Y-82674819D01*
X145463921Y-82674819D02*
X145559159Y-82722438D01*
X145559159Y-82722438D02*
X145654397Y-82817676D01*
X145654397Y-82817676D02*
X145702016Y-83008152D01*
X145702016Y-83008152D02*
X145702016Y-83341485D01*
X145702016Y-83341485D02*
X145654397Y-83531961D01*
X145654397Y-83531961D02*
X145559159Y-83627200D01*
X145559159Y-83627200D02*
X145463921Y-83674819D01*
X145463921Y-83674819D02*
X145273445Y-83674819D01*
X145273445Y-83674819D02*
X145178207Y-83627200D01*
X145178207Y-83627200D02*
X145082969Y-83531961D01*
X145082969Y-83531961D02*
X145035350Y-83341485D01*
X145035350Y-83341485D02*
X145035350Y-83008152D01*
X145035350Y-83008152D02*
X145082969Y-82817676D01*
X145082969Y-82817676D02*
X145178207Y-82722438D01*
X145178207Y-82722438D02*
X145273445Y-82674819D01*
X146654397Y-83674819D02*
X146082969Y-83674819D01*
X146368683Y-83674819D02*
X146368683Y-82674819D01*
X146368683Y-82674819D02*
X146273445Y-82817676D01*
X146273445Y-82817676D02*
X146178207Y-82912914D01*
X146178207Y-82912914D02*
X146082969Y-82960533D01*
X147511540Y-82674819D02*
X147321064Y-82674819D01*
X147321064Y-82674819D02*
X147225826Y-82722438D01*
X147225826Y-82722438D02*
X147178207Y-82770057D01*
X147178207Y-82770057D02*
X147082969Y-82912914D01*
X147082969Y-82912914D02*
X147035350Y-83103390D01*
X147035350Y-83103390D02*
X147035350Y-83484342D01*
X147035350Y-83484342D02*
X147082969Y-83579580D01*
X147082969Y-83579580D02*
X147130588Y-83627200D01*
X147130588Y-83627200D02*
X147225826Y-83674819D01*
X147225826Y-83674819D02*
X147416302Y-83674819D01*
X147416302Y-83674819D02*
X147511540Y-83627200D01*
X147511540Y-83627200D02*
X147559159Y-83579580D01*
X147559159Y-83579580D02*
X147606778Y-83484342D01*
X147606778Y-83484342D02*
X147606778Y-83246247D01*
X147606778Y-83246247D02*
X147559159Y-83151009D01*
X147559159Y-83151009D02*
X147511540Y-83103390D01*
X147511540Y-83103390D02*
X147416302Y-83055771D01*
X147416302Y-83055771D02*
X147225826Y-83055771D01*
X147225826Y-83055771D02*
X147130588Y-83103390D01*
X147130588Y-83103390D02*
X147082969Y-83151009D01*
X147082969Y-83151009D02*
X147035350Y-83246247D01*
X143130588Y-85262438D02*
X143035350Y-85214819D01*
X143035350Y-85214819D02*
X142892493Y-85214819D01*
X142892493Y-85214819D02*
X142749636Y-85262438D01*
X142749636Y-85262438D02*
X142654398Y-85357676D01*
X142654398Y-85357676D02*
X142606779Y-85452914D01*
X142606779Y-85452914D02*
X142559160Y-85643390D01*
X142559160Y-85643390D02*
X142559160Y-85786247D01*
X142559160Y-85786247D02*
X142606779Y-85976723D01*
X142606779Y-85976723D02*
X142654398Y-86071961D01*
X142654398Y-86071961D02*
X142749636Y-86167200D01*
X142749636Y-86167200D02*
X142892493Y-86214819D01*
X142892493Y-86214819D02*
X142987731Y-86214819D01*
X142987731Y-86214819D02*
X143130588Y-86167200D01*
X143130588Y-86167200D02*
X143178207Y-86119580D01*
X143178207Y-86119580D02*
X143178207Y-85786247D01*
X143178207Y-85786247D02*
X142987731Y-85786247D01*
X143606779Y-86214819D02*
X143606779Y-85214819D01*
X143606779Y-85214819D02*
X143987731Y-85214819D01*
X143987731Y-85214819D02*
X144082969Y-85262438D01*
X144082969Y-85262438D02*
X144130588Y-85310057D01*
X144130588Y-85310057D02*
X144178207Y-85405295D01*
X144178207Y-85405295D02*
X144178207Y-85548152D01*
X144178207Y-85548152D02*
X144130588Y-85643390D01*
X144130588Y-85643390D02*
X144082969Y-85691009D01*
X144082969Y-85691009D02*
X143987731Y-85738628D01*
X143987731Y-85738628D02*
X143606779Y-85738628D01*
X144606779Y-86214819D02*
X144606779Y-85214819D01*
X145273445Y-85214819D02*
X145463921Y-85214819D01*
X145463921Y-85214819D02*
X145559159Y-85262438D01*
X145559159Y-85262438D02*
X145654397Y-85357676D01*
X145654397Y-85357676D02*
X145702016Y-85548152D01*
X145702016Y-85548152D02*
X145702016Y-85881485D01*
X145702016Y-85881485D02*
X145654397Y-86071961D01*
X145654397Y-86071961D02*
X145559159Y-86167200D01*
X145559159Y-86167200D02*
X145463921Y-86214819D01*
X145463921Y-86214819D02*
X145273445Y-86214819D01*
X145273445Y-86214819D02*
X145178207Y-86167200D01*
X145178207Y-86167200D02*
X145082969Y-86071961D01*
X145082969Y-86071961D02*
X145035350Y-85881485D01*
X145035350Y-85881485D02*
X145035350Y-85548152D01*
X145035350Y-85548152D02*
X145082969Y-85357676D01*
X145082969Y-85357676D02*
X145178207Y-85262438D01*
X145178207Y-85262438D02*
X145273445Y-85214819D01*
X146654397Y-86214819D02*
X146082969Y-86214819D01*
X146368683Y-86214819D02*
X146368683Y-85214819D01*
X146368683Y-85214819D02*
X146273445Y-85357676D01*
X146273445Y-85357676D02*
X146178207Y-85452914D01*
X146178207Y-85452914D02*
X146082969Y-85500533D01*
X146987731Y-85214819D02*
X147654397Y-85214819D01*
X147654397Y-85214819D02*
X147225826Y-86214819D01*
X143130588Y-87802438D02*
X143035350Y-87754819D01*
X143035350Y-87754819D02*
X142892493Y-87754819D01*
X142892493Y-87754819D02*
X142749636Y-87802438D01*
X142749636Y-87802438D02*
X142654398Y-87897676D01*
X142654398Y-87897676D02*
X142606779Y-87992914D01*
X142606779Y-87992914D02*
X142559160Y-88183390D01*
X142559160Y-88183390D02*
X142559160Y-88326247D01*
X142559160Y-88326247D02*
X142606779Y-88516723D01*
X142606779Y-88516723D02*
X142654398Y-88611961D01*
X142654398Y-88611961D02*
X142749636Y-88707200D01*
X142749636Y-88707200D02*
X142892493Y-88754819D01*
X142892493Y-88754819D02*
X142987731Y-88754819D01*
X142987731Y-88754819D02*
X143130588Y-88707200D01*
X143130588Y-88707200D02*
X143178207Y-88659580D01*
X143178207Y-88659580D02*
X143178207Y-88326247D01*
X143178207Y-88326247D02*
X142987731Y-88326247D01*
X143606779Y-88754819D02*
X143606779Y-87754819D01*
X143606779Y-87754819D02*
X143987731Y-87754819D01*
X143987731Y-87754819D02*
X144082969Y-87802438D01*
X144082969Y-87802438D02*
X144130588Y-87850057D01*
X144130588Y-87850057D02*
X144178207Y-87945295D01*
X144178207Y-87945295D02*
X144178207Y-88088152D01*
X144178207Y-88088152D02*
X144130588Y-88183390D01*
X144130588Y-88183390D02*
X144082969Y-88231009D01*
X144082969Y-88231009D02*
X143987731Y-88278628D01*
X143987731Y-88278628D02*
X143606779Y-88278628D01*
X144606779Y-88754819D02*
X144606779Y-87754819D01*
X145273445Y-87754819D02*
X145463921Y-87754819D01*
X145463921Y-87754819D02*
X145559159Y-87802438D01*
X145559159Y-87802438D02*
X145654397Y-87897676D01*
X145654397Y-87897676D02*
X145702016Y-88088152D01*
X145702016Y-88088152D02*
X145702016Y-88421485D01*
X145702016Y-88421485D02*
X145654397Y-88611961D01*
X145654397Y-88611961D02*
X145559159Y-88707200D01*
X145559159Y-88707200D02*
X145463921Y-88754819D01*
X145463921Y-88754819D02*
X145273445Y-88754819D01*
X145273445Y-88754819D02*
X145178207Y-88707200D01*
X145178207Y-88707200D02*
X145082969Y-88611961D01*
X145082969Y-88611961D02*
X145035350Y-88421485D01*
X145035350Y-88421485D02*
X145035350Y-88088152D01*
X145035350Y-88088152D02*
X145082969Y-87897676D01*
X145082969Y-87897676D02*
X145178207Y-87802438D01*
X145178207Y-87802438D02*
X145273445Y-87754819D01*
X146654397Y-88754819D02*
X146082969Y-88754819D01*
X146368683Y-88754819D02*
X146368683Y-87754819D01*
X146368683Y-87754819D02*
X146273445Y-87897676D01*
X146273445Y-87897676D02*
X146178207Y-87992914D01*
X146178207Y-87992914D02*
X146082969Y-88040533D01*
X147225826Y-88183390D02*
X147130588Y-88135771D01*
X147130588Y-88135771D02*
X147082969Y-88088152D01*
X147082969Y-88088152D02*
X147035350Y-87992914D01*
X147035350Y-87992914D02*
X147035350Y-87945295D01*
X147035350Y-87945295D02*
X147082969Y-87850057D01*
X147082969Y-87850057D02*
X147130588Y-87802438D01*
X147130588Y-87802438D02*
X147225826Y-87754819D01*
X147225826Y-87754819D02*
X147416302Y-87754819D01*
X147416302Y-87754819D02*
X147511540Y-87802438D01*
X147511540Y-87802438D02*
X147559159Y-87850057D01*
X147559159Y-87850057D02*
X147606778Y-87945295D01*
X147606778Y-87945295D02*
X147606778Y-87992914D01*
X147606778Y-87992914D02*
X147559159Y-88088152D01*
X147559159Y-88088152D02*
X147511540Y-88135771D01*
X147511540Y-88135771D02*
X147416302Y-88183390D01*
X147416302Y-88183390D02*
X147225826Y-88183390D01*
X147225826Y-88183390D02*
X147130588Y-88231009D01*
X147130588Y-88231009D02*
X147082969Y-88278628D01*
X147082969Y-88278628D02*
X147035350Y-88373866D01*
X147035350Y-88373866D02*
X147035350Y-88564342D01*
X147035350Y-88564342D02*
X147082969Y-88659580D01*
X147082969Y-88659580D02*
X147130588Y-88707200D01*
X147130588Y-88707200D02*
X147225826Y-88754819D01*
X147225826Y-88754819D02*
X147416302Y-88754819D01*
X147416302Y-88754819D02*
X147511540Y-88707200D01*
X147511540Y-88707200D02*
X147559159Y-88659580D01*
X147559159Y-88659580D02*
X147606778Y-88564342D01*
X147606778Y-88564342D02*
X147606778Y-88373866D01*
X147606778Y-88373866D02*
X147559159Y-88278628D01*
X147559159Y-88278628D02*
X147511540Y-88231009D01*
X147511540Y-88231009D02*
X147416302Y-88183390D01*
X143130588Y-90342438D02*
X143035350Y-90294819D01*
X143035350Y-90294819D02*
X142892493Y-90294819D01*
X142892493Y-90294819D02*
X142749636Y-90342438D01*
X142749636Y-90342438D02*
X142654398Y-90437676D01*
X142654398Y-90437676D02*
X142606779Y-90532914D01*
X142606779Y-90532914D02*
X142559160Y-90723390D01*
X142559160Y-90723390D02*
X142559160Y-90866247D01*
X142559160Y-90866247D02*
X142606779Y-91056723D01*
X142606779Y-91056723D02*
X142654398Y-91151961D01*
X142654398Y-91151961D02*
X142749636Y-91247200D01*
X142749636Y-91247200D02*
X142892493Y-91294819D01*
X142892493Y-91294819D02*
X142987731Y-91294819D01*
X142987731Y-91294819D02*
X143130588Y-91247200D01*
X143130588Y-91247200D02*
X143178207Y-91199580D01*
X143178207Y-91199580D02*
X143178207Y-90866247D01*
X143178207Y-90866247D02*
X142987731Y-90866247D01*
X143606779Y-91294819D02*
X143606779Y-90294819D01*
X143606779Y-90294819D02*
X143987731Y-90294819D01*
X143987731Y-90294819D02*
X144082969Y-90342438D01*
X144082969Y-90342438D02*
X144130588Y-90390057D01*
X144130588Y-90390057D02*
X144178207Y-90485295D01*
X144178207Y-90485295D02*
X144178207Y-90628152D01*
X144178207Y-90628152D02*
X144130588Y-90723390D01*
X144130588Y-90723390D02*
X144082969Y-90771009D01*
X144082969Y-90771009D02*
X143987731Y-90818628D01*
X143987731Y-90818628D02*
X143606779Y-90818628D01*
X144606779Y-91294819D02*
X144606779Y-90294819D01*
X145273445Y-90294819D02*
X145463921Y-90294819D01*
X145463921Y-90294819D02*
X145559159Y-90342438D01*
X145559159Y-90342438D02*
X145654397Y-90437676D01*
X145654397Y-90437676D02*
X145702016Y-90628152D01*
X145702016Y-90628152D02*
X145702016Y-90961485D01*
X145702016Y-90961485D02*
X145654397Y-91151961D01*
X145654397Y-91151961D02*
X145559159Y-91247200D01*
X145559159Y-91247200D02*
X145463921Y-91294819D01*
X145463921Y-91294819D02*
X145273445Y-91294819D01*
X145273445Y-91294819D02*
X145178207Y-91247200D01*
X145178207Y-91247200D02*
X145082969Y-91151961D01*
X145082969Y-91151961D02*
X145035350Y-90961485D01*
X145035350Y-90961485D02*
X145035350Y-90628152D01*
X145035350Y-90628152D02*
X145082969Y-90437676D01*
X145082969Y-90437676D02*
X145178207Y-90342438D01*
X145178207Y-90342438D02*
X145273445Y-90294819D01*
X146273445Y-90723390D02*
X146178207Y-90675771D01*
X146178207Y-90675771D02*
X146130588Y-90628152D01*
X146130588Y-90628152D02*
X146082969Y-90532914D01*
X146082969Y-90532914D02*
X146082969Y-90485295D01*
X146082969Y-90485295D02*
X146130588Y-90390057D01*
X146130588Y-90390057D02*
X146178207Y-90342438D01*
X146178207Y-90342438D02*
X146273445Y-90294819D01*
X146273445Y-90294819D02*
X146463921Y-90294819D01*
X146463921Y-90294819D02*
X146559159Y-90342438D01*
X146559159Y-90342438D02*
X146606778Y-90390057D01*
X146606778Y-90390057D02*
X146654397Y-90485295D01*
X146654397Y-90485295D02*
X146654397Y-90532914D01*
X146654397Y-90532914D02*
X146606778Y-90628152D01*
X146606778Y-90628152D02*
X146559159Y-90675771D01*
X146559159Y-90675771D02*
X146463921Y-90723390D01*
X146463921Y-90723390D02*
X146273445Y-90723390D01*
X146273445Y-90723390D02*
X146178207Y-90771009D01*
X146178207Y-90771009D02*
X146130588Y-90818628D01*
X146130588Y-90818628D02*
X146082969Y-90913866D01*
X146082969Y-90913866D02*
X146082969Y-91104342D01*
X146082969Y-91104342D02*
X146130588Y-91199580D01*
X146130588Y-91199580D02*
X146178207Y-91247200D01*
X146178207Y-91247200D02*
X146273445Y-91294819D01*
X146273445Y-91294819D02*
X146463921Y-91294819D01*
X146463921Y-91294819D02*
X146559159Y-91247200D01*
X146559159Y-91247200D02*
X146606778Y-91199580D01*
X146606778Y-91199580D02*
X146654397Y-91104342D01*
X146654397Y-91104342D02*
X146654397Y-90913866D01*
X146654397Y-90913866D02*
X146606778Y-90818628D01*
X146606778Y-90818628D02*
X146559159Y-90771009D01*
X146559159Y-90771009D02*
X146463921Y-90723390D01*
X143130588Y-92882438D02*
X143035350Y-92834819D01*
X143035350Y-92834819D02*
X142892493Y-92834819D01*
X142892493Y-92834819D02*
X142749636Y-92882438D01*
X142749636Y-92882438D02*
X142654398Y-92977676D01*
X142654398Y-92977676D02*
X142606779Y-93072914D01*
X142606779Y-93072914D02*
X142559160Y-93263390D01*
X142559160Y-93263390D02*
X142559160Y-93406247D01*
X142559160Y-93406247D02*
X142606779Y-93596723D01*
X142606779Y-93596723D02*
X142654398Y-93691961D01*
X142654398Y-93691961D02*
X142749636Y-93787200D01*
X142749636Y-93787200D02*
X142892493Y-93834819D01*
X142892493Y-93834819D02*
X142987731Y-93834819D01*
X142987731Y-93834819D02*
X143130588Y-93787200D01*
X143130588Y-93787200D02*
X143178207Y-93739580D01*
X143178207Y-93739580D02*
X143178207Y-93406247D01*
X143178207Y-93406247D02*
X142987731Y-93406247D01*
X143606779Y-93834819D02*
X143606779Y-92834819D01*
X143606779Y-92834819D02*
X143987731Y-92834819D01*
X143987731Y-92834819D02*
X144082969Y-92882438D01*
X144082969Y-92882438D02*
X144130588Y-92930057D01*
X144130588Y-92930057D02*
X144178207Y-93025295D01*
X144178207Y-93025295D02*
X144178207Y-93168152D01*
X144178207Y-93168152D02*
X144130588Y-93263390D01*
X144130588Y-93263390D02*
X144082969Y-93311009D01*
X144082969Y-93311009D02*
X143987731Y-93358628D01*
X143987731Y-93358628D02*
X143606779Y-93358628D01*
X144606779Y-93834819D02*
X144606779Y-92834819D01*
X145273445Y-92834819D02*
X145463921Y-92834819D01*
X145463921Y-92834819D02*
X145559159Y-92882438D01*
X145559159Y-92882438D02*
X145654397Y-92977676D01*
X145654397Y-92977676D02*
X145702016Y-93168152D01*
X145702016Y-93168152D02*
X145702016Y-93501485D01*
X145702016Y-93501485D02*
X145654397Y-93691961D01*
X145654397Y-93691961D02*
X145559159Y-93787200D01*
X145559159Y-93787200D02*
X145463921Y-93834819D01*
X145463921Y-93834819D02*
X145273445Y-93834819D01*
X145273445Y-93834819D02*
X145178207Y-93787200D01*
X145178207Y-93787200D02*
X145082969Y-93691961D01*
X145082969Y-93691961D02*
X145035350Y-93501485D01*
X145035350Y-93501485D02*
X145035350Y-93168152D01*
X145035350Y-93168152D02*
X145082969Y-92977676D01*
X145082969Y-92977676D02*
X145178207Y-92882438D01*
X145178207Y-92882438D02*
X145273445Y-92834819D01*
X146035350Y-92834819D02*
X146654397Y-92834819D01*
X146654397Y-92834819D02*
X146321064Y-93215771D01*
X146321064Y-93215771D02*
X146463921Y-93215771D01*
X146463921Y-93215771D02*
X146559159Y-93263390D01*
X146559159Y-93263390D02*
X146606778Y-93311009D01*
X146606778Y-93311009D02*
X146654397Y-93406247D01*
X146654397Y-93406247D02*
X146654397Y-93644342D01*
X146654397Y-93644342D02*
X146606778Y-93739580D01*
X146606778Y-93739580D02*
X146559159Y-93787200D01*
X146559159Y-93787200D02*
X146463921Y-93834819D01*
X146463921Y-93834819D02*
X146178207Y-93834819D01*
X146178207Y-93834819D02*
X146082969Y-93787200D01*
X146082969Y-93787200D02*
X146035350Y-93739580D01*
X143130588Y-95422438D02*
X143035350Y-95374819D01*
X143035350Y-95374819D02*
X142892493Y-95374819D01*
X142892493Y-95374819D02*
X142749636Y-95422438D01*
X142749636Y-95422438D02*
X142654398Y-95517676D01*
X142654398Y-95517676D02*
X142606779Y-95612914D01*
X142606779Y-95612914D02*
X142559160Y-95803390D01*
X142559160Y-95803390D02*
X142559160Y-95946247D01*
X142559160Y-95946247D02*
X142606779Y-96136723D01*
X142606779Y-96136723D02*
X142654398Y-96231961D01*
X142654398Y-96231961D02*
X142749636Y-96327200D01*
X142749636Y-96327200D02*
X142892493Y-96374819D01*
X142892493Y-96374819D02*
X142987731Y-96374819D01*
X142987731Y-96374819D02*
X143130588Y-96327200D01*
X143130588Y-96327200D02*
X143178207Y-96279580D01*
X143178207Y-96279580D02*
X143178207Y-95946247D01*
X143178207Y-95946247D02*
X142987731Y-95946247D01*
X143606779Y-96374819D02*
X143606779Y-95374819D01*
X143606779Y-95374819D02*
X143987731Y-95374819D01*
X143987731Y-95374819D02*
X144082969Y-95422438D01*
X144082969Y-95422438D02*
X144130588Y-95470057D01*
X144130588Y-95470057D02*
X144178207Y-95565295D01*
X144178207Y-95565295D02*
X144178207Y-95708152D01*
X144178207Y-95708152D02*
X144130588Y-95803390D01*
X144130588Y-95803390D02*
X144082969Y-95851009D01*
X144082969Y-95851009D02*
X143987731Y-95898628D01*
X143987731Y-95898628D02*
X143606779Y-95898628D01*
X144606779Y-96374819D02*
X144606779Y-95374819D01*
X145273445Y-95374819D02*
X145463921Y-95374819D01*
X145463921Y-95374819D02*
X145559159Y-95422438D01*
X145559159Y-95422438D02*
X145654397Y-95517676D01*
X145654397Y-95517676D02*
X145702016Y-95708152D01*
X145702016Y-95708152D02*
X145702016Y-96041485D01*
X145702016Y-96041485D02*
X145654397Y-96231961D01*
X145654397Y-96231961D02*
X145559159Y-96327200D01*
X145559159Y-96327200D02*
X145463921Y-96374819D01*
X145463921Y-96374819D02*
X145273445Y-96374819D01*
X145273445Y-96374819D02*
X145178207Y-96327200D01*
X145178207Y-96327200D02*
X145082969Y-96231961D01*
X145082969Y-96231961D02*
X145035350Y-96041485D01*
X145035350Y-96041485D02*
X145035350Y-95708152D01*
X145035350Y-95708152D02*
X145082969Y-95517676D01*
X145082969Y-95517676D02*
X145178207Y-95422438D01*
X145178207Y-95422438D02*
X145273445Y-95374819D01*
X146559159Y-95708152D02*
X146559159Y-96374819D01*
X146321064Y-95327200D02*
X146082969Y-96041485D01*
X146082969Y-96041485D02*
X146702016Y-96041485D01*
X147511540Y-95374819D02*
X147321064Y-95374819D01*
X147321064Y-95374819D02*
X147225826Y-95422438D01*
X147225826Y-95422438D02*
X147178207Y-95470057D01*
X147178207Y-95470057D02*
X147082969Y-95612914D01*
X147082969Y-95612914D02*
X147035350Y-95803390D01*
X147035350Y-95803390D02*
X147035350Y-96184342D01*
X147035350Y-96184342D02*
X147082969Y-96279580D01*
X147082969Y-96279580D02*
X147130588Y-96327200D01*
X147130588Y-96327200D02*
X147225826Y-96374819D01*
X147225826Y-96374819D02*
X147416302Y-96374819D01*
X147416302Y-96374819D02*
X147511540Y-96327200D01*
X147511540Y-96327200D02*
X147559159Y-96279580D01*
X147559159Y-96279580D02*
X147606778Y-96184342D01*
X147606778Y-96184342D02*
X147606778Y-95946247D01*
X147606778Y-95946247D02*
X147559159Y-95851009D01*
X147559159Y-95851009D02*
X147511540Y-95803390D01*
X147511540Y-95803390D02*
X147416302Y-95755771D01*
X147416302Y-95755771D02*
X147225826Y-95755771D01*
X147225826Y-95755771D02*
X147130588Y-95803390D01*
X147130588Y-95803390D02*
X147082969Y-95851009D01*
X147082969Y-95851009D02*
X147035350Y-95946247D01*
X143130588Y-97962438D02*
X143035350Y-97914819D01*
X143035350Y-97914819D02*
X142892493Y-97914819D01*
X142892493Y-97914819D02*
X142749636Y-97962438D01*
X142749636Y-97962438D02*
X142654398Y-98057676D01*
X142654398Y-98057676D02*
X142606779Y-98152914D01*
X142606779Y-98152914D02*
X142559160Y-98343390D01*
X142559160Y-98343390D02*
X142559160Y-98486247D01*
X142559160Y-98486247D02*
X142606779Y-98676723D01*
X142606779Y-98676723D02*
X142654398Y-98771961D01*
X142654398Y-98771961D02*
X142749636Y-98867200D01*
X142749636Y-98867200D02*
X142892493Y-98914819D01*
X142892493Y-98914819D02*
X142987731Y-98914819D01*
X142987731Y-98914819D02*
X143130588Y-98867200D01*
X143130588Y-98867200D02*
X143178207Y-98819580D01*
X143178207Y-98819580D02*
X143178207Y-98486247D01*
X143178207Y-98486247D02*
X142987731Y-98486247D01*
X143606779Y-98914819D02*
X143606779Y-97914819D01*
X143606779Y-97914819D02*
X143987731Y-97914819D01*
X143987731Y-97914819D02*
X144082969Y-97962438D01*
X144082969Y-97962438D02*
X144130588Y-98010057D01*
X144130588Y-98010057D02*
X144178207Y-98105295D01*
X144178207Y-98105295D02*
X144178207Y-98248152D01*
X144178207Y-98248152D02*
X144130588Y-98343390D01*
X144130588Y-98343390D02*
X144082969Y-98391009D01*
X144082969Y-98391009D02*
X143987731Y-98438628D01*
X143987731Y-98438628D02*
X143606779Y-98438628D01*
X144606779Y-98914819D02*
X144606779Y-97914819D01*
X145273445Y-97914819D02*
X145463921Y-97914819D01*
X145463921Y-97914819D02*
X145559159Y-97962438D01*
X145559159Y-97962438D02*
X145654397Y-98057676D01*
X145654397Y-98057676D02*
X145702016Y-98248152D01*
X145702016Y-98248152D02*
X145702016Y-98581485D01*
X145702016Y-98581485D02*
X145654397Y-98771961D01*
X145654397Y-98771961D02*
X145559159Y-98867200D01*
X145559159Y-98867200D02*
X145463921Y-98914819D01*
X145463921Y-98914819D02*
X145273445Y-98914819D01*
X145273445Y-98914819D02*
X145178207Y-98867200D01*
X145178207Y-98867200D02*
X145082969Y-98771961D01*
X145082969Y-98771961D02*
X145035350Y-98581485D01*
X145035350Y-98581485D02*
X145035350Y-98248152D01*
X145035350Y-98248152D02*
X145082969Y-98057676D01*
X145082969Y-98057676D02*
X145178207Y-97962438D01*
X145178207Y-97962438D02*
X145273445Y-97914819D01*
X146178207Y-98914819D02*
X146368683Y-98914819D01*
X146368683Y-98914819D02*
X146463921Y-98867200D01*
X146463921Y-98867200D02*
X146511540Y-98819580D01*
X146511540Y-98819580D02*
X146606778Y-98676723D01*
X146606778Y-98676723D02*
X146654397Y-98486247D01*
X146654397Y-98486247D02*
X146654397Y-98105295D01*
X146654397Y-98105295D02*
X146606778Y-98010057D01*
X146606778Y-98010057D02*
X146559159Y-97962438D01*
X146559159Y-97962438D02*
X146463921Y-97914819D01*
X146463921Y-97914819D02*
X146273445Y-97914819D01*
X146273445Y-97914819D02*
X146178207Y-97962438D01*
X146178207Y-97962438D02*
X146130588Y-98010057D01*
X146130588Y-98010057D02*
X146082969Y-98105295D01*
X146082969Y-98105295D02*
X146082969Y-98343390D01*
X146082969Y-98343390D02*
X146130588Y-98438628D01*
X146130588Y-98438628D02*
X146178207Y-98486247D01*
X146178207Y-98486247D02*
X146273445Y-98533866D01*
X146273445Y-98533866D02*
X146463921Y-98533866D01*
X146463921Y-98533866D02*
X146559159Y-98486247D01*
X146559159Y-98486247D02*
X146606778Y-98438628D01*
X146606778Y-98438628D02*
X146654397Y-98343390D01*
X143130588Y-100502438D02*
X143035350Y-100454819D01*
X143035350Y-100454819D02*
X142892493Y-100454819D01*
X142892493Y-100454819D02*
X142749636Y-100502438D01*
X142749636Y-100502438D02*
X142654398Y-100597676D01*
X142654398Y-100597676D02*
X142606779Y-100692914D01*
X142606779Y-100692914D02*
X142559160Y-100883390D01*
X142559160Y-100883390D02*
X142559160Y-101026247D01*
X142559160Y-101026247D02*
X142606779Y-101216723D01*
X142606779Y-101216723D02*
X142654398Y-101311961D01*
X142654398Y-101311961D02*
X142749636Y-101407200D01*
X142749636Y-101407200D02*
X142892493Y-101454819D01*
X142892493Y-101454819D02*
X142987731Y-101454819D01*
X142987731Y-101454819D02*
X143130588Y-101407200D01*
X143130588Y-101407200D02*
X143178207Y-101359580D01*
X143178207Y-101359580D02*
X143178207Y-101026247D01*
X143178207Y-101026247D02*
X142987731Y-101026247D01*
X143606779Y-101454819D02*
X143606779Y-100454819D01*
X143606779Y-100454819D02*
X143987731Y-100454819D01*
X143987731Y-100454819D02*
X144082969Y-100502438D01*
X144082969Y-100502438D02*
X144130588Y-100550057D01*
X144130588Y-100550057D02*
X144178207Y-100645295D01*
X144178207Y-100645295D02*
X144178207Y-100788152D01*
X144178207Y-100788152D02*
X144130588Y-100883390D01*
X144130588Y-100883390D02*
X144082969Y-100931009D01*
X144082969Y-100931009D02*
X143987731Y-100978628D01*
X143987731Y-100978628D02*
X143606779Y-100978628D01*
X144606779Y-101454819D02*
X144606779Y-100454819D01*
X145273445Y-100454819D02*
X145463921Y-100454819D01*
X145463921Y-100454819D02*
X145559159Y-100502438D01*
X145559159Y-100502438D02*
X145654397Y-100597676D01*
X145654397Y-100597676D02*
X145702016Y-100788152D01*
X145702016Y-100788152D02*
X145702016Y-101121485D01*
X145702016Y-101121485D02*
X145654397Y-101311961D01*
X145654397Y-101311961D02*
X145559159Y-101407200D01*
X145559159Y-101407200D02*
X145463921Y-101454819D01*
X145463921Y-101454819D02*
X145273445Y-101454819D01*
X145273445Y-101454819D02*
X145178207Y-101407200D01*
X145178207Y-101407200D02*
X145082969Y-101311961D01*
X145082969Y-101311961D02*
X145035350Y-101121485D01*
X145035350Y-101121485D02*
X145035350Y-100788152D01*
X145035350Y-100788152D02*
X145082969Y-100597676D01*
X145082969Y-100597676D02*
X145178207Y-100502438D01*
X145178207Y-100502438D02*
X145273445Y-100454819D01*
X146654397Y-101454819D02*
X146082969Y-101454819D01*
X146368683Y-101454819D02*
X146368683Y-100454819D01*
X146368683Y-100454819D02*
X146273445Y-100597676D01*
X146273445Y-100597676D02*
X146178207Y-100692914D01*
X146178207Y-100692914D02*
X146082969Y-100740533D01*
X147273445Y-100454819D02*
X147368683Y-100454819D01*
X147368683Y-100454819D02*
X147463921Y-100502438D01*
X147463921Y-100502438D02*
X147511540Y-100550057D01*
X147511540Y-100550057D02*
X147559159Y-100645295D01*
X147559159Y-100645295D02*
X147606778Y-100835771D01*
X147606778Y-100835771D02*
X147606778Y-101073866D01*
X147606778Y-101073866D02*
X147559159Y-101264342D01*
X147559159Y-101264342D02*
X147511540Y-101359580D01*
X147511540Y-101359580D02*
X147463921Y-101407200D01*
X147463921Y-101407200D02*
X147368683Y-101454819D01*
X147368683Y-101454819D02*
X147273445Y-101454819D01*
X147273445Y-101454819D02*
X147178207Y-101407200D01*
X147178207Y-101407200D02*
X147130588Y-101359580D01*
X147130588Y-101359580D02*
X147082969Y-101264342D01*
X147082969Y-101264342D02*
X147035350Y-101073866D01*
X147035350Y-101073866D02*
X147035350Y-100835771D01*
X147035350Y-100835771D02*
X147082969Y-100645295D01*
X147082969Y-100645295D02*
X147130588Y-100550057D01*
X147130588Y-100550057D02*
X147178207Y-100502438D01*
X147178207Y-100502438D02*
X147273445Y-100454819D01*
X143130588Y-103042438D02*
X143035350Y-102994819D01*
X143035350Y-102994819D02*
X142892493Y-102994819D01*
X142892493Y-102994819D02*
X142749636Y-103042438D01*
X142749636Y-103042438D02*
X142654398Y-103137676D01*
X142654398Y-103137676D02*
X142606779Y-103232914D01*
X142606779Y-103232914D02*
X142559160Y-103423390D01*
X142559160Y-103423390D02*
X142559160Y-103566247D01*
X142559160Y-103566247D02*
X142606779Y-103756723D01*
X142606779Y-103756723D02*
X142654398Y-103851961D01*
X142654398Y-103851961D02*
X142749636Y-103947200D01*
X142749636Y-103947200D02*
X142892493Y-103994819D01*
X142892493Y-103994819D02*
X142987731Y-103994819D01*
X142987731Y-103994819D02*
X143130588Y-103947200D01*
X143130588Y-103947200D02*
X143178207Y-103899580D01*
X143178207Y-103899580D02*
X143178207Y-103566247D01*
X143178207Y-103566247D02*
X142987731Y-103566247D01*
X143606779Y-103994819D02*
X143606779Y-102994819D01*
X143606779Y-102994819D02*
X143987731Y-102994819D01*
X143987731Y-102994819D02*
X144082969Y-103042438D01*
X144082969Y-103042438D02*
X144130588Y-103090057D01*
X144130588Y-103090057D02*
X144178207Y-103185295D01*
X144178207Y-103185295D02*
X144178207Y-103328152D01*
X144178207Y-103328152D02*
X144130588Y-103423390D01*
X144130588Y-103423390D02*
X144082969Y-103471009D01*
X144082969Y-103471009D02*
X143987731Y-103518628D01*
X143987731Y-103518628D02*
X143606779Y-103518628D01*
X144606779Y-103994819D02*
X144606779Y-102994819D01*
X145273445Y-102994819D02*
X145463921Y-102994819D01*
X145463921Y-102994819D02*
X145559159Y-103042438D01*
X145559159Y-103042438D02*
X145654397Y-103137676D01*
X145654397Y-103137676D02*
X145702016Y-103328152D01*
X145702016Y-103328152D02*
X145702016Y-103661485D01*
X145702016Y-103661485D02*
X145654397Y-103851961D01*
X145654397Y-103851961D02*
X145559159Y-103947200D01*
X145559159Y-103947200D02*
X145463921Y-103994819D01*
X145463921Y-103994819D02*
X145273445Y-103994819D01*
X145273445Y-103994819D02*
X145178207Y-103947200D01*
X145178207Y-103947200D02*
X145082969Y-103851961D01*
X145082969Y-103851961D02*
X145035350Y-103661485D01*
X145035350Y-103661485D02*
X145035350Y-103328152D01*
X145035350Y-103328152D02*
X145082969Y-103137676D01*
X145082969Y-103137676D02*
X145178207Y-103042438D01*
X145178207Y-103042438D02*
X145273445Y-102994819D01*
X146654397Y-103994819D02*
X146082969Y-103994819D01*
X146368683Y-103994819D02*
X146368683Y-102994819D01*
X146368683Y-102994819D02*
X146273445Y-103137676D01*
X146273445Y-103137676D02*
X146178207Y-103232914D01*
X146178207Y-103232914D02*
X146082969Y-103280533D01*
X147606778Y-103994819D02*
X147035350Y-103994819D01*
X147321064Y-103994819D02*
X147321064Y-102994819D01*
X147321064Y-102994819D02*
X147225826Y-103137676D01*
X147225826Y-103137676D02*
X147130588Y-103232914D01*
X147130588Y-103232914D02*
X147035350Y-103280533D01*
X143130588Y-105582438D02*
X143035350Y-105534819D01*
X143035350Y-105534819D02*
X142892493Y-105534819D01*
X142892493Y-105534819D02*
X142749636Y-105582438D01*
X142749636Y-105582438D02*
X142654398Y-105677676D01*
X142654398Y-105677676D02*
X142606779Y-105772914D01*
X142606779Y-105772914D02*
X142559160Y-105963390D01*
X142559160Y-105963390D02*
X142559160Y-106106247D01*
X142559160Y-106106247D02*
X142606779Y-106296723D01*
X142606779Y-106296723D02*
X142654398Y-106391961D01*
X142654398Y-106391961D02*
X142749636Y-106487200D01*
X142749636Y-106487200D02*
X142892493Y-106534819D01*
X142892493Y-106534819D02*
X142987731Y-106534819D01*
X142987731Y-106534819D02*
X143130588Y-106487200D01*
X143130588Y-106487200D02*
X143178207Y-106439580D01*
X143178207Y-106439580D02*
X143178207Y-106106247D01*
X143178207Y-106106247D02*
X142987731Y-106106247D01*
X143606779Y-106534819D02*
X143606779Y-105534819D01*
X143606779Y-105534819D02*
X143987731Y-105534819D01*
X143987731Y-105534819D02*
X144082969Y-105582438D01*
X144082969Y-105582438D02*
X144130588Y-105630057D01*
X144130588Y-105630057D02*
X144178207Y-105725295D01*
X144178207Y-105725295D02*
X144178207Y-105868152D01*
X144178207Y-105868152D02*
X144130588Y-105963390D01*
X144130588Y-105963390D02*
X144082969Y-106011009D01*
X144082969Y-106011009D02*
X143987731Y-106058628D01*
X143987731Y-106058628D02*
X143606779Y-106058628D01*
X144606779Y-106534819D02*
X144606779Y-105534819D01*
X145273445Y-105534819D02*
X145463921Y-105534819D01*
X145463921Y-105534819D02*
X145559159Y-105582438D01*
X145559159Y-105582438D02*
X145654397Y-105677676D01*
X145654397Y-105677676D02*
X145702016Y-105868152D01*
X145702016Y-105868152D02*
X145702016Y-106201485D01*
X145702016Y-106201485D02*
X145654397Y-106391961D01*
X145654397Y-106391961D02*
X145559159Y-106487200D01*
X145559159Y-106487200D02*
X145463921Y-106534819D01*
X145463921Y-106534819D02*
X145273445Y-106534819D01*
X145273445Y-106534819D02*
X145178207Y-106487200D01*
X145178207Y-106487200D02*
X145082969Y-106391961D01*
X145082969Y-106391961D02*
X145035350Y-106201485D01*
X145035350Y-106201485D02*
X145035350Y-105868152D01*
X145035350Y-105868152D02*
X145082969Y-105677676D01*
X145082969Y-105677676D02*
X145178207Y-105582438D01*
X145178207Y-105582438D02*
X145273445Y-105534819D01*
X146654397Y-106534819D02*
X146082969Y-106534819D01*
X146368683Y-106534819D02*
X146368683Y-105534819D01*
X146368683Y-105534819D02*
X146273445Y-105677676D01*
X146273445Y-105677676D02*
X146178207Y-105772914D01*
X146178207Y-105772914D02*
X146082969Y-105820533D01*
X147035350Y-105630057D02*
X147082969Y-105582438D01*
X147082969Y-105582438D02*
X147178207Y-105534819D01*
X147178207Y-105534819D02*
X147416302Y-105534819D01*
X147416302Y-105534819D02*
X147511540Y-105582438D01*
X147511540Y-105582438D02*
X147559159Y-105630057D01*
X147559159Y-105630057D02*
X147606778Y-105725295D01*
X147606778Y-105725295D02*
X147606778Y-105820533D01*
X147606778Y-105820533D02*
X147559159Y-105963390D01*
X147559159Y-105963390D02*
X146987731Y-106534819D01*
X146987731Y-106534819D02*
X147606778Y-106534819D01*
X143130588Y-108122438D02*
X143035350Y-108074819D01*
X143035350Y-108074819D02*
X142892493Y-108074819D01*
X142892493Y-108074819D02*
X142749636Y-108122438D01*
X142749636Y-108122438D02*
X142654398Y-108217676D01*
X142654398Y-108217676D02*
X142606779Y-108312914D01*
X142606779Y-108312914D02*
X142559160Y-108503390D01*
X142559160Y-108503390D02*
X142559160Y-108646247D01*
X142559160Y-108646247D02*
X142606779Y-108836723D01*
X142606779Y-108836723D02*
X142654398Y-108931961D01*
X142654398Y-108931961D02*
X142749636Y-109027200D01*
X142749636Y-109027200D02*
X142892493Y-109074819D01*
X142892493Y-109074819D02*
X142987731Y-109074819D01*
X142987731Y-109074819D02*
X143130588Y-109027200D01*
X143130588Y-109027200D02*
X143178207Y-108979580D01*
X143178207Y-108979580D02*
X143178207Y-108646247D01*
X143178207Y-108646247D02*
X142987731Y-108646247D01*
X143606779Y-109074819D02*
X143606779Y-108074819D01*
X143606779Y-108074819D02*
X143987731Y-108074819D01*
X143987731Y-108074819D02*
X144082969Y-108122438D01*
X144082969Y-108122438D02*
X144130588Y-108170057D01*
X144130588Y-108170057D02*
X144178207Y-108265295D01*
X144178207Y-108265295D02*
X144178207Y-108408152D01*
X144178207Y-108408152D02*
X144130588Y-108503390D01*
X144130588Y-108503390D02*
X144082969Y-108551009D01*
X144082969Y-108551009D02*
X143987731Y-108598628D01*
X143987731Y-108598628D02*
X143606779Y-108598628D01*
X144606779Y-109074819D02*
X144606779Y-108074819D01*
X145273445Y-108074819D02*
X145463921Y-108074819D01*
X145463921Y-108074819D02*
X145559159Y-108122438D01*
X145559159Y-108122438D02*
X145654397Y-108217676D01*
X145654397Y-108217676D02*
X145702016Y-108408152D01*
X145702016Y-108408152D02*
X145702016Y-108741485D01*
X145702016Y-108741485D02*
X145654397Y-108931961D01*
X145654397Y-108931961D02*
X145559159Y-109027200D01*
X145559159Y-109027200D02*
X145463921Y-109074819D01*
X145463921Y-109074819D02*
X145273445Y-109074819D01*
X145273445Y-109074819D02*
X145178207Y-109027200D01*
X145178207Y-109027200D02*
X145082969Y-108931961D01*
X145082969Y-108931961D02*
X145035350Y-108741485D01*
X145035350Y-108741485D02*
X145035350Y-108408152D01*
X145035350Y-108408152D02*
X145082969Y-108217676D01*
X145082969Y-108217676D02*
X145178207Y-108122438D01*
X145178207Y-108122438D02*
X145273445Y-108074819D01*
X146654397Y-109074819D02*
X146082969Y-109074819D01*
X146368683Y-109074819D02*
X146368683Y-108074819D01*
X146368683Y-108074819D02*
X146273445Y-108217676D01*
X146273445Y-108217676D02*
X146178207Y-108312914D01*
X146178207Y-108312914D02*
X146082969Y-108360533D01*
X146987731Y-108074819D02*
X147606778Y-108074819D01*
X147606778Y-108074819D02*
X147273445Y-108455771D01*
X147273445Y-108455771D02*
X147416302Y-108455771D01*
X147416302Y-108455771D02*
X147511540Y-108503390D01*
X147511540Y-108503390D02*
X147559159Y-108551009D01*
X147559159Y-108551009D02*
X147606778Y-108646247D01*
X147606778Y-108646247D02*
X147606778Y-108884342D01*
X147606778Y-108884342D02*
X147559159Y-108979580D01*
X147559159Y-108979580D02*
X147511540Y-109027200D01*
X147511540Y-109027200D02*
X147416302Y-109074819D01*
X147416302Y-109074819D02*
X147130588Y-109074819D01*
X147130588Y-109074819D02*
X147035350Y-109027200D01*
X147035350Y-109027200D02*
X146987731Y-108979580D01*
X143130588Y-110662438D02*
X143035350Y-110614819D01*
X143035350Y-110614819D02*
X142892493Y-110614819D01*
X142892493Y-110614819D02*
X142749636Y-110662438D01*
X142749636Y-110662438D02*
X142654398Y-110757676D01*
X142654398Y-110757676D02*
X142606779Y-110852914D01*
X142606779Y-110852914D02*
X142559160Y-111043390D01*
X142559160Y-111043390D02*
X142559160Y-111186247D01*
X142559160Y-111186247D02*
X142606779Y-111376723D01*
X142606779Y-111376723D02*
X142654398Y-111471961D01*
X142654398Y-111471961D02*
X142749636Y-111567200D01*
X142749636Y-111567200D02*
X142892493Y-111614819D01*
X142892493Y-111614819D02*
X142987731Y-111614819D01*
X142987731Y-111614819D02*
X143130588Y-111567200D01*
X143130588Y-111567200D02*
X143178207Y-111519580D01*
X143178207Y-111519580D02*
X143178207Y-111186247D01*
X143178207Y-111186247D02*
X142987731Y-111186247D01*
X143606779Y-111614819D02*
X143606779Y-110614819D01*
X143606779Y-110614819D02*
X143987731Y-110614819D01*
X143987731Y-110614819D02*
X144082969Y-110662438D01*
X144082969Y-110662438D02*
X144130588Y-110710057D01*
X144130588Y-110710057D02*
X144178207Y-110805295D01*
X144178207Y-110805295D02*
X144178207Y-110948152D01*
X144178207Y-110948152D02*
X144130588Y-111043390D01*
X144130588Y-111043390D02*
X144082969Y-111091009D01*
X144082969Y-111091009D02*
X143987731Y-111138628D01*
X143987731Y-111138628D02*
X143606779Y-111138628D01*
X144606779Y-111614819D02*
X144606779Y-110614819D01*
X145273445Y-110614819D02*
X145463921Y-110614819D01*
X145463921Y-110614819D02*
X145559159Y-110662438D01*
X145559159Y-110662438D02*
X145654397Y-110757676D01*
X145654397Y-110757676D02*
X145702016Y-110948152D01*
X145702016Y-110948152D02*
X145702016Y-111281485D01*
X145702016Y-111281485D02*
X145654397Y-111471961D01*
X145654397Y-111471961D02*
X145559159Y-111567200D01*
X145559159Y-111567200D02*
X145463921Y-111614819D01*
X145463921Y-111614819D02*
X145273445Y-111614819D01*
X145273445Y-111614819D02*
X145178207Y-111567200D01*
X145178207Y-111567200D02*
X145082969Y-111471961D01*
X145082969Y-111471961D02*
X145035350Y-111281485D01*
X145035350Y-111281485D02*
X145035350Y-110948152D01*
X145035350Y-110948152D02*
X145082969Y-110757676D01*
X145082969Y-110757676D02*
X145178207Y-110662438D01*
X145178207Y-110662438D02*
X145273445Y-110614819D01*
X146654397Y-111614819D02*
X146082969Y-111614819D01*
X146368683Y-111614819D02*
X146368683Y-110614819D01*
X146368683Y-110614819D02*
X146273445Y-110757676D01*
X146273445Y-110757676D02*
X146178207Y-110852914D01*
X146178207Y-110852914D02*
X146082969Y-110900533D01*
X147511540Y-110948152D02*
X147511540Y-111614819D01*
X147273445Y-110567200D02*
X147035350Y-111281485D01*
X147035350Y-111281485D02*
X147654397Y-111281485D01*
X143333289Y-113152099D02*
X142857099Y-113152099D01*
X142857099Y-113152099D02*
X142809480Y-113628289D01*
X142809480Y-113628289D02*
X142857099Y-113580670D01*
X142857099Y-113580670D02*
X142952337Y-113533051D01*
X142952337Y-113533051D02*
X143190432Y-113533051D01*
X143190432Y-113533051D02*
X143285670Y-113580670D01*
X143285670Y-113580670D02*
X143333289Y-113628289D01*
X143333289Y-113628289D02*
X143380908Y-113723527D01*
X143380908Y-113723527D02*
X143380908Y-113961622D01*
X143380908Y-113961622D02*
X143333289Y-114056860D01*
X143333289Y-114056860D02*
X143285670Y-114104480D01*
X143285670Y-114104480D02*
X143190432Y-114152099D01*
X143190432Y-114152099D02*
X142952337Y-114152099D01*
X142952337Y-114152099D02*
X142857099Y-114104480D01*
X142857099Y-114104480D02*
X142809480Y-114056860D01*
X143666623Y-113152099D02*
X143999956Y-114152099D01*
X143999956Y-114152099D02*
X144333289Y-113152099D01*
X143380908Y-115739718D02*
X143285670Y-115692099D01*
X143285670Y-115692099D02*
X143142813Y-115692099D01*
X143142813Y-115692099D02*
X142999956Y-115739718D01*
X142999956Y-115739718D02*
X142904718Y-115834956D01*
X142904718Y-115834956D02*
X142857099Y-115930194D01*
X142857099Y-115930194D02*
X142809480Y-116120670D01*
X142809480Y-116120670D02*
X142809480Y-116263527D01*
X142809480Y-116263527D02*
X142857099Y-116454003D01*
X142857099Y-116454003D02*
X142904718Y-116549241D01*
X142904718Y-116549241D02*
X142999956Y-116644480D01*
X142999956Y-116644480D02*
X143142813Y-116692099D01*
X143142813Y-116692099D02*
X143238051Y-116692099D01*
X143238051Y-116692099D02*
X143380908Y-116644480D01*
X143380908Y-116644480D02*
X143428527Y-116596860D01*
X143428527Y-116596860D02*
X143428527Y-116263527D01*
X143428527Y-116263527D02*
X143238051Y-116263527D01*
X143857099Y-116692099D02*
X143857099Y-115692099D01*
X143857099Y-115692099D02*
X144428527Y-116692099D01*
X144428527Y-116692099D02*
X144428527Y-115692099D01*
X144904718Y-116692099D02*
X144904718Y-115692099D01*
X144904718Y-115692099D02*
X145142813Y-115692099D01*
X145142813Y-115692099D02*
X145285670Y-115739718D01*
X145285670Y-115739718D02*
X145380908Y-115834956D01*
X145380908Y-115834956D02*
X145428527Y-115930194D01*
X145428527Y-115930194D02*
X145476146Y-116120670D01*
X145476146Y-116120670D02*
X145476146Y-116263527D01*
X145476146Y-116263527D02*
X145428527Y-116454003D01*
X145428527Y-116454003D02*
X145380908Y-116549241D01*
X145380908Y-116549241D02*
X145285670Y-116644480D01*
X145285670Y-116644480D02*
X145142813Y-116692099D01*
X145142813Y-116692099D02*
X144904718Y-116692099D01*
X143246553Y-68504819D02*
X142913220Y-68028628D01*
X142675125Y-68504819D02*
X142675125Y-67504819D01*
X142675125Y-67504819D02*
X143056077Y-67504819D01*
X143056077Y-67504819D02*
X143151315Y-67552438D01*
X143151315Y-67552438D02*
X143198934Y-67600057D01*
X143198934Y-67600057D02*
X143246553Y-67695295D01*
X143246553Y-67695295D02*
X143246553Y-67838152D01*
X143246553Y-67838152D02*
X143198934Y-67933390D01*
X143198934Y-67933390D02*
X143151315Y-67981009D01*
X143151315Y-67981009D02*
X143056077Y-68028628D01*
X143056077Y-68028628D02*
X142675125Y-68028628D01*
X143627506Y-68457200D02*
X143770363Y-68504819D01*
X143770363Y-68504819D02*
X144008458Y-68504819D01*
X144008458Y-68504819D02*
X144103696Y-68457200D01*
X144103696Y-68457200D02*
X144151315Y-68409580D01*
X144151315Y-68409580D02*
X144198934Y-68314342D01*
X144198934Y-68314342D02*
X144198934Y-68219104D01*
X144198934Y-68219104D02*
X144151315Y-68123866D01*
X144151315Y-68123866D02*
X144103696Y-68076247D01*
X144103696Y-68076247D02*
X144008458Y-68028628D01*
X144008458Y-68028628D02*
X143817982Y-67981009D01*
X143817982Y-67981009D02*
X143722744Y-67933390D01*
X143722744Y-67933390D02*
X143675125Y-67885771D01*
X143675125Y-67885771D02*
X143627506Y-67790533D01*
X143627506Y-67790533D02*
X143627506Y-67695295D01*
X143627506Y-67695295D02*
X143675125Y-67600057D01*
X143675125Y-67600057D02*
X143722744Y-67552438D01*
X143722744Y-67552438D02*
X143817982Y-67504819D01*
X143817982Y-67504819D02*
X144056077Y-67504819D01*
X144056077Y-67504819D02*
X144198934Y-67552438D01*
X144484649Y-67504819D02*
X145056077Y-67504819D01*
X144770363Y-68504819D02*
X144770363Y-67504819D01*
X162745601Y-62402438D02*
X162650363Y-62354819D01*
X162650363Y-62354819D02*
X162507506Y-62354819D01*
X162507506Y-62354819D02*
X162364649Y-62402438D01*
X162364649Y-62402438D02*
X162269411Y-62497676D01*
X162269411Y-62497676D02*
X162221792Y-62592914D01*
X162221792Y-62592914D02*
X162174173Y-62783390D01*
X162174173Y-62783390D02*
X162174173Y-62926247D01*
X162174173Y-62926247D02*
X162221792Y-63116723D01*
X162221792Y-63116723D02*
X162269411Y-63211961D01*
X162269411Y-63211961D02*
X162364649Y-63307200D01*
X162364649Y-63307200D02*
X162507506Y-63354819D01*
X162507506Y-63354819D02*
X162602744Y-63354819D01*
X162602744Y-63354819D02*
X162745601Y-63307200D01*
X162745601Y-63307200D02*
X162793220Y-63259580D01*
X162793220Y-63259580D02*
X162793220Y-62926247D01*
X162793220Y-62926247D02*
X162602744Y-62926247D01*
X163221792Y-63354819D02*
X163221792Y-62354819D01*
X163221792Y-62354819D02*
X163793220Y-63354819D01*
X163793220Y-63354819D02*
X163793220Y-62354819D01*
X164269411Y-63354819D02*
X164269411Y-62354819D01*
X164269411Y-62354819D02*
X164507506Y-62354819D01*
X164507506Y-62354819D02*
X164650363Y-62402438D01*
X164650363Y-62402438D02*
X164745601Y-62497676D01*
X164745601Y-62497676D02*
X164793220Y-62592914D01*
X164793220Y-62592914D02*
X164840839Y-62783390D01*
X164840839Y-62783390D02*
X164840839Y-62926247D01*
X164840839Y-62926247D02*
X164793220Y-63116723D01*
X164793220Y-63116723D02*
X164745601Y-63211961D01*
X164745601Y-63211961D02*
X164650363Y-63307200D01*
X164650363Y-63307200D02*
X164507506Y-63354819D01*
X164507506Y-63354819D02*
X164269411Y-63354819D01*
X154602744Y-64942438D02*
X154507506Y-64894819D01*
X154507506Y-64894819D02*
X154364649Y-64894819D01*
X154364649Y-64894819D02*
X154221792Y-64942438D01*
X154221792Y-64942438D02*
X154126554Y-65037676D01*
X154126554Y-65037676D02*
X154078935Y-65132914D01*
X154078935Y-65132914D02*
X154031316Y-65323390D01*
X154031316Y-65323390D02*
X154031316Y-65466247D01*
X154031316Y-65466247D02*
X154078935Y-65656723D01*
X154078935Y-65656723D02*
X154126554Y-65751961D01*
X154126554Y-65751961D02*
X154221792Y-65847200D01*
X154221792Y-65847200D02*
X154364649Y-65894819D01*
X154364649Y-65894819D02*
X154459887Y-65894819D01*
X154459887Y-65894819D02*
X154602744Y-65847200D01*
X154602744Y-65847200D02*
X154650363Y-65799580D01*
X154650363Y-65799580D02*
X154650363Y-65466247D01*
X154650363Y-65466247D02*
X154459887Y-65466247D01*
X155078935Y-65894819D02*
X155078935Y-64894819D01*
X155078935Y-64894819D02*
X155459887Y-64894819D01*
X155459887Y-64894819D02*
X155555125Y-64942438D01*
X155555125Y-64942438D02*
X155602744Y-64990057D01*
X155602744Y-64990057D02*
X155650363Y-65085295D01*
X155650363Y-65085295D02*
X155650363Y-65228152D01*
X155650363Y-65228152D02*
X155602744Y-65323390D01*
X155602744Y-65323390D02*
X155555125Y-65371009D01*
X155555125Y-65371009D02*
X155459887Y-65418628D01*
X155459887Y-65418628D02*
X155078935Y-65418628D01*
X156078935Y-65894819D02*
X156078935Y-64894819D01*
X156745601Y-64894819D02*
X156936077Y-64894819D01*
X156936077Y-64894819D02*
X157031315Y-64942438D01*
X157031315Y-64942438D02*
X157126553Y-65037676D01*
X157126553Y-65037676D02*
X157174172Y-65228152D01*
X157174172Y-65228152D02*
X157174172Y-65561485D01*
X157174172Y-65561485D02*
X157126553Y-65751961D01*
X157126553Y-65751961D02*
X157031315Y-65847200D01*
X157031315Y-65847200D02*
X156936077Y-65894819D01*
X156936077Y-65894819D02*
X156745601Y-65894819D01*
X156745601Y-65894819D02*
X156650363Y-65847200D01*
X156650363Y-65847200D02*
X156555125Y-65751961D01*
X156555125Y-65751961D02*
X156507506Y-65561485D01*
X156507506Y-65561485D02*
X156507506Y-65228152D01*
X156507506Y-65228152D02*
X156555125Y-65037676D01*
X156555125Y-65037676D02*
X156650363Y-64942438D01*
X156650363Y-64942438D02*
X156745601Y-64894819D01*
X158031315Y-65228152D02*
X158031315Y-65894819D01*
X157793220Y-64847200D02*
X157555125Y-65561485D01*
X157555125Y-65561485D02*
X158174172Y-65561485D01*
X158459887Y-64894819D02*
X159078934Y-64894819D01*
X159078934Y-64894819D02*
X158745601Y-65275771D01*
X158745601Y-65275771D02*
X158888458Y-65275771D01*
X158888458Y-65275771D02*
X158983696Y-65323390D01*
X158983696Y-65323390D02*
X159031315Y-65371009D01*
X159031315Y-65371009D02*
X159078934Y-65466247D01*
X159078934Y-65466247D02*
X159078934Y-65704342D01*
X159078934Y-65704342D02*
X159031315Y-65799580D01*
X159031315Y-65799580D02*
X158983696Y-65847200D01*
X158983696Y-65847200D02*
X158888458Y-65894819D01*
X158888458Y-65894819D02*
X158602744Y-65894819D01*
X158602744Y-65894819D02*
X158507506Y-65847200D01*
X158507506Y-65847200D02*
X158459887Y-65799580D01*
X160221791Y-64847200D02*
X159364649Y-66132914D01*
X160555125Y-64894819D02*
X160555125Y-65704342D01*
X160555125Y-65704342D02*
X160602744Y-65799580D01*
X160602744Y-65799580D02*
X160650363Y-65847200D01*
X160650363Y-65847200D02*
X160745601Y-65894819D01*
X160745601Y-65894819D02*
X160936077Y-65894819D01*
X160936077Y-65894819D02*
X161031315Y-65847200D01*
X161031315Y-65847200D02*
X161078934Y-65799580D01*
X161078934Y-65799580D02*
X161126553Y-65704342D01*
X161126553Y-65704342D02*
X161126553Y-64894819D01*
X161793220Y-64894819D02*
X161888458Y-64894819D01*
X161888458Y-64894819D02*
X161983696Y-64942438D01*
X161983696Y-64942438D02*
X162031315Y-64990057D01*
X162031315Y-64990057D02*
X162078934Y-65085295D01*
X162078934Y-65085295D02*
X162126553Y-65275771D01*
X162126553Y-65275771D02*
X162126553Y-65513866D01*
X162126553Y-65513866D02*
X162078934Y-65704342D01*
X162078934Y-65704342D02*
X162031315Y-65799580D01*
X162031315Y-65799580D02*
X161983696Y-65847200D01*
X161983696Y-65847200D02*
X161888458Y-65894819D01*
X161888458Y-65894819D02*
X161793220Y-65894819D01*
X161793220Y-65894819D02*
X161697982Y-65847200D01*
X161697982Y-65847200D02*
X161650363Y-65799580D01*
X161650363Y-65799580D02*
X161602744Y-65704342D01*
X161602744Y-65704342D02*
X161555125Y-65513866D01*
X161555125Y-65513866D02*
X161555125Y-65275771D01*
X161555125Y-65275771D02*
X161602744Y-65085295D01*
X161602744Y-65085295D02*
X161650363Y-64990057D01*
X161650363Y-64990057D02*
X161697982Y-64942438D01*
X161697982Y-64942438D02*
X161793220Y-64894819D01*
X162412268Y-64894819D02*
X162983696Y-64894819D01*
X162697982Y-65894819D02*
X162697982Y-64894819D01*
X163221792Y-64894819D02*
X163888458Y-65894819D01*
X163888458Y-64894819D02*
X163221792Y-65894819D01*
X164269411Y-65894819D02*
X164269411Y-64894819D01*
X164269411Y-64894819D02*
X164507506Y-64894819D01*
X164507506Y-64894819D02*
X164650363Y-64942438D01*
X164650363Y-64942438D02*
X164745601Y-65037676D01*
X164745601Y-65037676D02*
X164793220Y-65132914D01*
X164793220Y-65132914D02*
X164840839Y-65323390D01*
X164840839Y-65323390D02*
X164840839Y-65466247D01*
X164840839Y-65466247D02*
X164793220Y-65656723D01*
X164793220Y-65656723D02*
X164745601Y-65751961D01*
X164745601Y-65751961D02*
X164650363Y-65847200D01*
X164650363Y-65847200D02*
X164507506Y-65894819D01*
X164507506Y-65894819D02*
X164269411Y-65894819D01*
X154364649Y-67482438D02*
X154269411Y-67434819D01*
X154269411Y-67434819D02*
X154126554Y-67434819D01*
X154126554Y-67434819D02*
X153983697Y-67482438D01*
X153983697Y-67482438D02*
X153888459Y-67577676D01*
X153888459Y-67577676D02*
X153840840Y-67672914D01*
X153840840Y-67672914D02*
X153793221Y-67863390D01*
X153793221Y-67863390D02*
X153793221Y-68006247D01*
X153793221Y-68006247D02*
X153840840Y-68196723D01*
X153840840Y-68196723D02*
X153888459Y-68291961D01*
X153888459Y-68291961D02*
X153983697Y-68387200D01*
X153983697Y-68387200D02*
X154126554Y-68434819D01*
X154126554Y-68434819D02*
X154221792Y-68434819D01*
X154221792Y-68434819D02*
X154364649Y-68387200D01*
X154364649Y-68387200D02*
X154412268Y-68339580D01*
X154412268Y-68339580D02*
X154412268Y-68006247D01*
X154412268Y-68006247D02*
X154221792Y-68006247D01*
X154840840Y-68434819D02*
X154840840Y-67434819D01*
X154840840Y-67434819D02*
X155221792Y-67434819D01*
X155221792Y-67434819D02*
X155317030Y-67482438D01*
X155317030Y-67482438D02*
X155364649Y-67530057D01*
X155364649Y-67530057D02*
X155412268Y-67625295D01*
X155412268Y-67625295D02*
X155412268Y-67768152D01*
X155412268Y-67768152D02*
X155364649Y-67863390D01*
X155364649Y-67863390D02*
X155317030Y-67911009D01*
X155317030Y-67911009D02*
X155221792Y-67958628D01*
X155221792Y-67958628D02*
X154840840Y-67958628D01*
X155840840Y-68434819D02*
X155840840Y-67434819D01*
X156507506Y-67434819D02*
X156697982Y-67434819D01*
X156697982Y-67434819D02*
X156793220Y-67482438D01*
X156793220Y-67482438D02*
X156888458Y-67577676D01*
X156888458Y-67577676D02*
X156936077Y-67768152D01*
X156936077Y-67768152D02*
X156936077Y-68101485D01*
X156936077Y-68101485D02*
X156888458Y-68291961D01*
X156888458Y-68291961D02*
X156793220Y-68387200D01*
X156793220Y-68387200D02*
X156697982Y-68434819D01*
X156697982Y-68434819D02*
X156507506Y-68434819D01*
X156507506Y-68434819D02*
X156412268Y-68387200D01*
X156412268Y-68387200D02*
X156317030Y-68291961D01*
X156317030Y-68291961D02*
X156269411Y-68101485D01*
X156269411Y-68101485D02*
X156269411Y-67768152D01*
X156269411Y-67768152D02*
X156317030Y-67577676D01*
X156317030Y-67577676D02*
X156412268Y-67482438D01*
X156412268Y-67482438D02*
X156507506Y-67434819D01*
X157793220Y-67768152D02*
X157793220Y-68434819D01*
X157555125Y-67387200D02*
X157317030Y-68101485D01*
X157317030Y-68101485D02*
X157936077Y-68101485D01*
X158745601Y-67768152D02*
X158745601Y-68434819D01*
X158507506Y-67387200D02*
X158269411Y-68101485D01*
X158269411Y-68101485D02*
X158888458Y-68101485D01*
X159983696Y-67387200D02*
X159126554Y-68672914D01*
X160317030Y-67434819D02*
X160317030Y-68244342D01*
X160317030Y-68244342D02*
X160364649Y-68339580D01*
X160364649Y-68339580D02*
X160412268Y-68387200D01*
X160412268Y-68387200D02*
X160507506Y-68434819D01*
X160507506Y-68434819D02*
X160697982Y-68434819D01*
X160697982Y-68434819D02*
X160793220Y-68387200D01*
X160793220Y-68387200D02*
X160840839Y-68339580D01*
X160840839Y-68339580D02*
X160888458Y-68244342D01*
X160888458Y-68244342D02*
X160888458Y-67434819D01*
X161555125Y-67434819D02*
X161650363Y-67434819D01*
X161650363Y-67434819D02*
X161745601Y-67482438D01*
X161745601Y-67482438D02*
X161793220Y-67530057D01*
X161793220Y-67530057D02*
X161840839Y-67625295D01*
X161840839Y-67625295D02*
X161888458Y-67815771D01*
X161888458Y-67815771D02*
X161888458Y-68053866D01*
X161888458Y-68053866D02*
X161840839Y-68244342D01*
X161840839Y-68244342D02*
X161793220Y-68339580D01*
X161793220Y-68339580D02*
X161745601Y-68387200D01*
X161745601Y-68387200D02*
X161650363Y-68434819D01*
X161650363Y-68434819D02*
X161555125Y-68434819D01*
X161555125Y-68434819D02*
X161459887Y-68387200D01*
X161459887Y-68387200D02*
X161412268Y-68339580D01*
X161412268Y-68339580D02*
X161364649Y-68244342D01*
X161364649Y-68244342D02*
X161317030Y-68053866D01*
X161317030Y-68053866D02*
X161317030Y-67815771D01*
X161317030Y-67815771D02*
X161364649Y-67625295D01*
X161364649Y-67625295D02*
X161412268Y-67530057D01*
X161412268Y-67530057D02*
X161459887Y-67482438D01*
X161459887Y-67482438D02*
X161555125Y-67434819D01*
X162888458Y-68434819D02*
X162555125Y-67958628D01*
X162317030Y-68434819D02*
X162317030Y-67434819D01*
X162317030Y-67434819D02*
X162697982Y-67434819D01*
X162697982Y-67434819D02*
X162793220Y-67482438D01*
X162793220Y-67482438D02*
X162840839Y-67530057D01*
X162840839Y-67530057D02*
X162888458Y-67625295D01*
X162888458Y-67625295D02*
X162888458Y-67768152D01*
X162888458Y-67768152D02*
X162840839Y-67863390D01*
X162840839Y-67863390D02*
X162793220Y-67911009D01*
X162793220Y-67911009D02*
X162697982Y-67958628D01*
X162697982Y-67958628D02*
X162317030Y-67958628D01*
X163221792Y-67434819D02*
X163888458Y-68434819D01*
X163888458Y-67434819D02*
X163221792Y-68434819D01*
X164269411Y-68434819D02*
X164269411Y-67434819D01*
X164269411Y-67434819D02*
X164507506Y-67434819D01*
X164507506Y-67434819D02*
X164650363Y-67482438D01*
X164650363Y-67482438D02*
X164745601Y-67577676D01*
X164745601Y-67577676D02*
X164793220Y-67672914D01*
X164793220Y-67672914D02*
X164840839Y-67863390D01*
X164840839Y-67863390D02*
X164840839Y-68006247D01*
X164840839Y-68006247D02*
X164793220Y-68196723D01*
X164793220Y-68196723D02*
X164745601Y-68291961D01*
X164745601Y-68291961D02*
X164650363Y-68387200D01*
X164650363Y-68387200D02*
X164507506Y-68434819D01*
X164507506Y-68434819D02*
X164269411Y-68434819D01*
X161317030Y-70022438D02*
X161221792Y-69974819D01*
X161221792Y-69974819D02*
X161078935Y-69974819D01*
X161078935Y-69974819D02*
X160936078Y-70022438D01*
X160936078Y-70022438D02*
X160840840Y-70117676D01*
X160840840Y-70117676D02*
X160793221Y-70212914D01*
X160793221Y-70212914D02*
X160745602Y-70403390D01*
X160745602Y-70403390D02*
X160745602Y-70546247D01*
X160745602Y-70546247D02*
X160793221Y-70736723D01*
X160793221Y-70736723D02*
X160840840Y-70831961D01*
X160840840Y-70831961D02*
X160936078Y-70927200D01*
X160936078Y-70927200D02*
X161078935Y-70974819D01*
X161078935Y-70974819D02*
X161174173Y-70974819D01*
X161174173Y-70974819D02*
X161317030Y-70927200D01*
X161317030Y-70927200D02*
X161364649Y-70879580D01*
X161364649Y-70879580D02*
X161364649Y-70546247D01*
X161364649Y-70546247D02*
X161174173Y-70546247D01*
X161793221Y-70974819D02*
X161793221Y-69974819D01*
X161793221Y-69974819D02*
X162174173Y-69974819D01*
X162174173Y-69974819D02*
X162269411Y-70022438D01*
X162269411Y-70022438D02*
X162317030Y-70070057D01*
X162317030Y-70070057D02*
X162364649Y-70165295D01*
X162364649Y-70165295D02*
X162364649Y-70308152D01*
X162364649Y-70308152D02*
X162317030Y-70403390D01*
X162317030Y-70403390D02*
X162269411Y-70451009D01*
X162269411Y-70451009D02*
X162174173Y-70498628D01*
X162174173Y-70498628D02*
X161793221Y-70498628D01*
X162793221Y-70974819D02*
X162793221Y-69974819D01*
X163459887Y-69974819D02*
X163650363Y-69974819D01*
X163650363Y-69974819D02*
X163745601Y-70022438D01*
X163745601Y-70022438D02*
X163840839Y-70117676D01*
X163840839Y-70117676D02*
X163888458Y-70308152D01*
X163888458Y-70308152D02*
X163888458Y-70641485D01*
X163888458Y-70641485D02*
X163840839Y-70831961D01*
X163840839Y-70831961D02*
X163745601Y-70927200D01*
X163745601Y-70927200D02*
X163650363Y-70974819D01*
X163650363Y-70974819D02*
X163459887Y-70974819D01*
X163459887Y-70974819D02*
X163364649Y-70927200D01*
X163364649Y-70927200D02*
X163269411Y-70831961D01*
X163269411Y-70831961D02*
X163221792Y-70641485D01*
X163221792Y-70641485D02*
X163221792Y-70308152D01*
X163221792Y-70308152D02*
X163269411Y-70117676D01*
X163269411Y-70117676D02*
X163364649Y-70022438D01*
X163364649Y-70022438D02*
X163459887Y-69974819D01*
X164840839Y-70974819D02*
X164269411Y-70974819D01*
X164555125Y-70974819D02*
X164555125Y-69974819D01*
X164555125Y-69974819D02*
X164459887Y-70117676D01*
X164459887Y-70117676D02*
X164364649Y-70212914D01*
X164364649Y-70212914D02*
X164269411Y-70260533D01*
X161317030Y-72562438D02*
X161221792Y-72514819D01*
X161221792Y-72514819D02*
X161078935Y-72514819D01*
X161078935Y-72514819D02*
X160936078Y-72562438D01*
X160936078Y-72562438D02*
X160840840Y-72657676D01*
X160840840Y-72657676D02*
X160793221Y-72752914D01*
X160793221Y-72752914D02*
X160745602Y-72943390D01*
X160745602Y-72943390D02*
X160745602Y-73086247D01*
X160745602Y-73086247D02*
X160793221Y-73276723D01*
X160793221Y-73276723D02*
X160840840Y-73371961D01*
X160840840Y-73371961D02*
X160936078Y-73467200D01*
X160936078Y-73467200D02*
X161078935Y-73514819D01*
X161078935Y-73514819D02*
X161174173Y-73514819D01*
X161174173Y-73514819D02*
X161317030Y-73467200D01*
X161317030Y-73467200D02*
X161364649Y-73419580D01*
X161364649Y-73419580D02*
X161364649Y-73086247D01*
X161364649Y-73086247D02*
X161174173Y-73086247D01*
X161793221Y-73514819D02*
X161793221Y-72514819D01*
X161793221Y-72514819D02*
X162174173Y-72514819D01*
X162174173Y-72514819D02*
X162269411Y-72562438D01*
X162269411Y-72562438D02*
X162317030Y-72610057D01*
X162317030Y-72610057D02*
X162364649Y-72705295D01*
X162364649Y-72705295D02*
X162364649Y-72848152D01*
X162364649Y-72848152D02*
X162317030Y-72943390D01*
X162317030Y-72943390D02*
X162269411Y-72991009D01*
X162269411Y-72991009D02*
X162174173Y-73038628D01*
X162174173Y-73038628D02*
X161793221Y-73038628D01*
X162793221Y-73514819D02*
X162793221Y-72514819D01*
X163459887Y-72514819D02*
X163650363Y-72514819D01*
X163650363Y-72514819D02*
X163745601Y-72562438D01*
X163745601Y-72562438D02*
X163840839Y-72657676D01*
X163840839Y-72657676D02*
X163888458Y-72848152D01*
X163888458Y-72848152D02*
X163888458Y-73181485D01*
X163888458Y-73181485D02*
X163840839Y-73371961D01*
X163840839Y-73371961D02*
X163745601Y-73467200D01*
X163745601Y-73467200D02*
X163650363Y-73514819D01*
X163650363Y-73514819D02*
X163459887Y-73514819D01*
X163459887Y-73514819D02*
X163364649Y-73467200D01*
X163364649Y-73467200D02*
X163269411Y-73371961D01*
X163269411Y-73371961D02*
X163221792Y-73181485D01*
X163221792Y-73181485D02*
X163221792Y-72848152D01*
X163221792Y-72848152D02*
X163269411Y-72657676D01*
X163269411Y-72657676D02*
X163364649Y-72562438D01*
X163364649Y-72562438D02*
X163459887Y-72514819D01*
X164269411Y-72610057D02*
X164317030Y-72562438D01*
X164317030Y-72562438D02*
X164412268Y-72514819D01*
X164412268Y-72514819D02*
X164650363Y-72514819D01*
X164650363Y-72514819D02*
X164745601Y-72562438D01*
X164745601Y-72562438D02*
X164793220Y-72610057D01*
X164793220Y-72610057D02*
X164840839Y-72705295D01*
X164840839Y-72705295D02*
X164840839Y-72800533D01*
X164840839Y-72800533D02*
X164793220Y-72943390D01*
X164793220Y-72943390D02*
X164221792Y-73514819D01*
X164221792Y-73514819D02*
X164840839Y-73514819D01*
X155317030Y-75102438D02*
X155221792Y-75054819D01*
X155221792Y-75054819D02*
X155078935Y-75054819D01*
X155078935Y-75054819D02*
X154936078Y-75102438D01*
X154936078Y-75102438D02*
X154840840Y-75197676D01*
X154840840Y-75197676D02*
X154793221Y-75292914D01*
X154793221Y-75292914D02*
X154745602Y-75483390D01*
X154745602Y-75483390D02*
X154745602Y-75626247D01*
X154745602Y-75626247D02*
X154793221Y-75816723D01*
X154793221Y-75816723D02*
X154840840Y-75911961D01*
X154840840Y-75911961D02*
X154936078Y-76007200D01*
X154936078Y-76007200D02*
X155078935Y-76054819D01*
X155078935Y-76054819D02*
X155174173Y-76054819D01*
X155174173Y-76054819D02*
X155317030Y-76007200D01*
X155317030Y-76007200D02*
X155364649Y-75959580D01*
X155364649Y-75959580D02*
X155364649Y-75626247D01*
X155364649Y-75626247D02*
X155174173Y-75626247D01*
X155793221Y-76054819D02*
X155793221Y-75054819D01*
X155793221Y-75054819D02*
X156174173Y-75054819D01*
X156174173Y-75054819D02*
X156269411Y-75102438D01*
X156269411Y-75102438D02*
X156317030Y-75150057D01*
X156317030Y-75150057D02*
X156364649Y-75245295D01*
X156364649Y-75245295D02*
X156364649Y-75388152D01*
X156364649Y-75388152D02*
X156317030Y-75483390D01*
X156317030Y-75483390D02*
X156269411Y-75531009D01*
X156269411Y-75531009D02*
X156174173Y-75578628D01*
X156174173Y-75578628D02*
X155793221Y-75578628D01*
X156793221Y-76054819D02*
X156793221Y-75054819D01*
X157459887Y-75054819D02*
X157650363Y-75054819D01*
X157650363Y-75054819D02*
X157745601Y-75102438D01*
X157745601Y-75102438D02*
X157840839Y-75197676D01*
X157840839Y-75197676D02*
X157888458Y-75388152D01*
X157888458Y-75388152D02*
X157888458Y-75721485D01*
X157888458Y-75721485D02*
X157840839Y-75911961D01*
X157840839Y-75911961D02*
X157745601Y-76007200D01*
X157745601Y-76007200D02*
X157650363Y-76054819D01*
X157650363Y-76054819D02*
X157459887Y-76054819D01*
X157459887Y-76054819D02*
X157364649Y-76007200D01*
X157364649Y-76007200D02*
X157269411Y-75911961D01*
X157269411Y-75911961D02*
X157221792Y-75721485D01*
X157221792Y-75721485D02*
X157221792Y-75388152D01*
X157221792Y-75388152D02*
X157269411Y-75197676D01*
X157269411Y-75197676D02*
X157364649Y-75102438D01*
X157364649Y-75102438D02*
X157459887Y-75054819D01*
X158745601Y-75388152D02*
X158745601Y-76054819D01*
X158507506Y-75007200D02*
X158269411Y-75721485D01*
X158269411Y-75721485D02*
X158888458Y-75721485D01*
X159221792Y-75150057D02*
X159269411Y-75102438D01*
X159269411Y-75102438D02*
X159364649Y-75054819D01*
X159364649Y-75054819D02*
X159602744Y-75054819D01*
X159602744Y-75054819D02*
X159697982Y-75102438D01*
X159697982Y-75102438D02*
X159745601Y-75150057D01*
X159745601Y-75150057D02*
X159793220Y-75245295D01*
X159793220Y-75245295D02*
X159793220Y-75340533D01*
X159793220Y-75340533D02*
X159745601Y-75483390D01*
X159745601Y-75483390D02*
X159174173Y-76054819D01*
X159174173Y-76054819D02*
X159793220Y-76054819D01*
X160936077Y-75007200D02*
X160078935Y-76292914D01*
X161269411Y-76054819D02*
X161269411Y-75054819D01*
X161269411Y-75054819D02*
X161602744Y-75769104D01*
X161602744Y-75769104D02*
X161936077Y-75054819D01*
X161936077Y-75054819D02*
X161936077Y-76054819D01*
X162269411Y-75054819D02*
X162840839Y-75054819D01*
X162555125Y-76054819D02*
X162555125Y-75054819D01*
X163174173Y-76054819D02*
X163174173Y-75054819D01*
X163174173Y-75054819D02*
X163507506Y-75769104D01*
X163507506Y-75769104D02*
X163840839Y-75054819D01*
X163840839Y-75054819D02*
X163840839Y-76054819D01*
X164269411Y-76007200D02*
X164412268Y-76054819D01*
X164412268Y-76054819D02*
X164650363Y-76054819D01*
X164650363Y-76054819D02*
X164745601Y-76007200D01*
X164745601Y-76007200D02*
X164793220Y-75959580D01*
X164793220Y-75959580D02*
X164840839Y-75864342D01*
X164840839Y-75864342D02*
X164840839Y-75769104D01*
X164840839Y-75769104D02*
X164793220Y-75673866D01*
X164793220Y-75673866D02*
X164745601Y-75626247D01*
X164745601Y-75626247D02*
X164650363Y-75578628D01*
X164650363Y-75578628D02*
X164459887Y-75531009D01*
X164459887Y-75531009D02*
X164364649Y-75483390D01*
X164364649Y-75483390D02*
X164317030Y-75435771D01*
X164317030Y-75435771D02*
X164269411Y-75340533D01*
X164269411Y-75340533D02*
X164269411Y-75245295D01*
X164269411Y-75245295D02*
X164317030Y-75150057D01*
X164317030Y-75150057D02*
X164364649Y-75102438D01*
X164364649Y-75102438D02*
X164459887Y-75054819D01*
X164459887Y-75054819D02*
X164697982Y-75054819D01*
X164697982Y-75054819D02*
X164840839Y-75102438D01*
X155936078Y-77642438D02*
X155840840Y-77594819D01*
X155840840Y-77594819D02*
X155697983Y-77594819D01*
X155697983Y-77594819D02*
X155555126Y-77642438D01*
X155555126Y-77642438D02*
X155459888Y-77737676D01*
X155459888Y-77737676D02*
X155412269Y-77832914D01*
X155412269Y-77832914D02*
X155364650Y-78023390D01*
X155364650Y-78023390D02*
X155364650Y-78166247D01*
X155364650Y-78166247D02*
X155412269Y-78356723D01*
X155412269Y-78356723D02*
X155459888Y-78451961D01*
X155459888Y-78451961D02*
X155555126Y-78547200D01*
X155555126Y-78547200D02*
X155697983Y-78594819D01*
X155697983Y-78594819D02*
X155793221Y-78594819D01*
X155793221Y-78594819D02*
X155936078Y-78547200D01*
X155936078Y-78547200D02*
X155983697Y-78499580D01*
X155983697Y-78499580D02*
X155983697Y-78166247D01*
X155983697Y-78166247D02*
X155793221Y-78166247D01*
X156412269Y-78594819D02*
X156412269Y-77594819D01*
X156412269Y-77594819D02*
X156793221Y-77594819D01*
X156793221Y-77594819D02*
X156888459Y-77642438D01*
X156888459Y-77642438D02*
X156936078Y-77690057D01*
X156936078Y-77690057D02*
X156983697Y-77785295D01*
X156983697Y-77785295D02*
X156983697Y-77928152D01*
X156983697Y-77928152D02*
X156936078Y-78023390D01*
X156936078Y-78023390D02*
X156888459Y-78071009D01*
X156888459Y-78071009D02*
X156793221Y-78118628D01*
X156793221Y-78118628D02*
X156412269Y-78118628D01*
X157412269Y-78594819D02*
X157412269Y-77594819D01*
X158078935Y-77594819D02*
X158269411Y-77594819D01*
X158269411Y-77594819D02*
X158364649Y-77642438D01*
X158364649Y-77642438D02*
X158459887Y-77737676D01*
X158459887Y-77737676D02*
X158507506Y-77928152D01*
X158507506Y-77928152D02*
X158507506Y-78261485D01*
X158507506Y-78261485D02*
X158459887Y-78451961D01*
X158459887Y-78451961D02*
X158364649Y-78547200D01*
X158364649Y-78547200D02*
X158269411Y-78594819D01*
X158269411Y-78594819D02*
X158078935Y-78594819D01*
X158078935Y-78594819D02*
X157983697Y-78547200D01*
X157983697Y-78547200D02*
X157888459Y-78451961D01*
X157888459Y-78451961D02*
X157840840Y-78261485D01*
X157840840Y-78261485D02*
X157840840Y-77928152D01*
X157840840Y-77928152D02*
X157888459Y-77737676D01*
X157888459Y-77737676D02*
X157983697Y-77642438D01*
X157983697Y-77642438D02*
X158078935Y-77594819D01*
X159364649Y-77928152D02*
X159364649Y-78594819D01*
X159126554Y-77547200D02*
X158888459Y-78261485D01*
X158888459Y-78261485D02*
X159507506Y-78261485D01*
X160412268Y-78594819D02*
X159840840Y-78594819D01*
X160126554Y-78594819D02*
X160126554Y-77594819D01*
X160126554Y-77594819D02*
X160031316Y-77737676D01*
X160031316Y-77737676D02*
X159936078Y-77832914D01*
X159936078Y-77832914D02*
X159840840Y-77880533D01*
X161555125Y-77547200D02*
X160697983Y-78832914D01*
X161888459Y-78594819D02*
X161888459Y-77594819D01*
X161888459Y-77594819D02*
X162221792Y-78309104D01*
X162221792Y-78309104D02*
X162555125Y-77594819D01*
X162555125Y-77594819D02*
X162555125Y-78594819D01*
X162888459Y-77594819D02*
X163459887Y-77594819D01*
X163174173Y-78594819D02*
X163174173Y-77594819D01*
X163793221Y-78594819D02*
X163793221Y-77594819D01*
X163793221Y-77594819D02*
X164031316Y-77594819D01*
X164031316Y-77594819D02*
X164174173Y-77642438D01*
X164174173Y-77642438D02*
X164269411Y-77737676D01*
X164269411Y-77737676D02*
X164317030Y-77832914D01*
X164317030Y-77832914D02*
X164364649Y-78023390D01*
X164364649Y-78023390D02*
X164364649Y-78166247D01*
X164364649Y-78166247D02*
X164317030Y-78356723D01*
X164317030Y-78356723D02*
X164269411Y-78451961D01*
X164269411Y-78451961D02*
X164174173Y-78547200D01*
X164174173Y-78547200D02*
X164031316Y-78594819D01*
X164031316Y-78594819D02*
X163793221Y-78594819D01*
X164793221Y-78594819D02*
X164793221Y-77594819D01*
X155364649Y-80182438D02*
X155269411Y-80134819D01*
X155269411Y-80134819D02*
X155126554Y-80134819D01*
X155126554Y-80134819D02*
X154983697Y-80182438D01*
X154983697Y-80182438D02*
X154888459Y-80277676D01*
X154888459Y-80277676D02*
X154840840Y-80372914D01*
X154840840Y-80372914D02*
X154793221Y-80563390D01*
X154793221Y-80563390D02*
X154793221Y-80706247D01*
X154793221Y-80706247D02*
X154840840Y-80896723D01*
X154840840Y-80896723D02*
X154888459Y-80991961D01*
X154888459Y-80991961D02*
X154983697Y-81087200D01*
X154983697Y-81087200D02*
X155126554Y-81134819D01*
X155126554Y-81134819D02*
X155221792Y-81134819D01*
X155221792Y-81134819D02*
X155364649Y-81087200D01*
X155364649Y-81087200D02*
X155412268Y-81039580D01*
X155412268Y-81039580D02*
X155412268Y-80706247D01*
X155412268Y-80706247D02*
X155221792Y-80706247D01*
X155840840Y-81134819D02*
X155840840Y-80134819D01*
X155840840Y-80134819D02*
X156221792Y-80134819D01*
X156221792Y-80134819D02*
X156317030Y-80182438D01*
X156317030Y-80182438D02*
X156364649Y-80230057D01*
X156364649Y-80230057D02*
X156412268Y-80325295D01*
X156412268Y-80325295D02*
X156412268Y-80468152D01*
X156412268Y-80468152D02*
X156364649Y-80563390D01*
X156364649Y-80563390D02*
X156317030Y-80611009D01*
X156317030Y-80611009D02*
X156221792Y-80658628D01*
X156221792Y-80658628D02*
X155840840Y-80658628D01*
X156840840Y-81134819D02*
X156840840Y-80134819D01*
X157507506Y-80134819D02*
X157697982Y-80134819D01*
X157697982Y-80134819D02*
X157793220Y-80182438D01*
X157793220Y-80182438D02*
X157888458Y-80277676D01*
X157888458Y-80277676D02*
X157936077Y-80468152D01*
X157936077Y-80468152D02*
X157936077Y-80801485D01*
X157936077Y-80801485D02*
X157888458Y-80991961D01*
X157888458Y-80991961D02*
X157793220Y-81087200D01*
X157793220Y-81087200D02*
X157697982Y-81134819D01*
X157697982Y-81134819D02*
X157507506Y-81134819D01*
X157507506Y-81134819D02*
X157412268Y-81087200D01*
X157412268Y-81087200D02*
X157317030Y-80991961D01*
X157317030Y-80991961D02*
X157269411Y-80801485D01*
X157269411Y-80801485D02*
X157269411Y-80468152D01*
X157269411Y-80468152D02*
X157317030Y-80277676D01*
X157317030Y-80277676D02*
X157412268Y-80182438D01*
X157412268Y-80182438D02*
X157507506Y-80134819D01*
X158793220Y-80468152D02*
X158793220Y-81134819D01*
X158555125Y-80087200D02*
X158317030Y-80801485D01*
X158317030Y-80801485D02*
X158936077Y-80801485D01*
X159507506Y-80134819D02*
X159602744Y-80134819D01*
X159602744Y-80134819D02*
X159697982Y-80182438D01*
X159697982Y-80182438D02*
X159745601Y-80230057D01*
X159745601Y-80230057D02*
X159793220Y-80325295D01*
X159793220Y-80325295D02*
X159840839Y-80515771D01*
X159840839Y-80515771D02*
X159840839Y-80753866D01*
X159840839Y-80753866D02*
X159793220Y-80944342D01*
X159793220Y-80944342D02*
X159745601Y-81039580D01*
X159745601Y-81039580D02*
X159697982Y-81087200D01*
X159697982Y-81087200D02*
X159602744Y-81134819D01*
X159602744Y-81134819D02*
X159507506Y-81134819D01*
X159507506Y-81134819D02*
X159412268Y-81087200D01*
X159412268Y-81087200D02*
X159364649Y-81039580D01*
X159364649Y-81039580D02*
X159317030Y-80944342D01*
X159317030Y-80944342D02*
X159269411Y-80753866D01*
X159269411Y-80753866D02*
X159269411Y-80515771D01*
X159269411Y-80515771D02*
X159317030Y-80325295D01*
X159317030Y-80325295D02*
X159364649Y-80230057D01*
X159364649Y-80230057D02*
X159412268Y-80182438D01*
X159412268Y-80182438D02*
X159507506Y-80134819D01*
X160983696Y-80087200D02*
X160126554Y-81372914D01*
X161317030Y-81134819D02*
X161317030Y-80134819D01*
X161317030Y-80134819D02*
X161650363Y-80849104D01*
X161650363Y-80849104D02*
X161983696Y-80134819D01*
X161983696Y-80134819D02*
X161983696Y-81134819D01*
X162317030Y-80134819D02*
X162888458Y-80134819D01*
X162602744Y-81134819D02*
X162602744Y-80134819D01*
X163221792Y-81134819D02*
X163221792Y-80134819D01*
X163221792Y-80134819D02*
X163459887Y-80134819D01*
X163459887Y-80134819D02*
X163602744Y-80182438D01*
X163602744Y-80182438D02*
X163697982Y-80277676D01*
X163697982Y-80277676D02*
X163745601Y-80372914D01*
X163745601Y-80372914D02*
X163793220Y-80563390D01*
X163793220Y-80563390D02*
X163793220Y-80706247D01*
X163793220Y-80706247D02*
X163745601Y-80896723D01*
X163745601Y-80896723D02*
X163697982Y-80991961D01*
X163697982Y-80991961D02*
X163602744Y-81087200D01*
X163602744Y-81087200D02*
X163459887Y-81134819D01*
X163459887Y-81134819D02*
X163221792Y-81134819D01*
X164412268Y-80134819D02*
X164602744Y-80134819D01*
X164602744Y-80134819D02*
X164697982Y-80182438D01*
X164697982Y-80182438D02*
X164793220Y-80277676D01*
X164793220Y-80277676D02*
X164840839Y-80468152D01*
X164840839Y-80468152D02*
X164840839Y-80801485D01*
X164840839Y-80801485D02*
X164793220Y-80991961D01*
X164793220Y-80991961D02*
X164697982Y-81087200D01*
X164697982Y-81087200D02*
X164602744Y-81134819D01*
X164602744Y-81134819D02*
X164412268Y-81134819D01*
X164412268Y-81134819D02*
X164317030Y-81087200D01*
X164317030Y-81087200D02*
X164221792Y-80991961D01*
X164221792Y-80991961D02*
X164174173Y-80801485D01*
X164174173Y-80801485D02*
X164174173Y-80468152D01*
X164174173Y-80468152D02*
X164221792Y-80277676D01*
X164221792Y-80277676D02*
X164317030Y-80182438D01*
X164317030Y-80182438D02*
X164412268Y-80134819D01*
X155412268Y-82722438D02*
X155317030Y-82674819D01*
X155317030Y-82674819D02*
X155174173Y-82674819D01*
X155174173Y-82674819D02*
X155031316Y-82722438D01*
X155031316Y-82722438D02*
X154936078Y-82817676D01*
X154936078Y-82817676D02*
X154888459Y-82912914D01*
X154888459Y-82912914D02*
X154840840Y-83103390D01*
X154840840Y-83103390D02*
X154840840Y-83246247D01*
X154840840Y-83246247D02*
X154888459Y-83436723D01*
X154888459Y-83436723D02*
X154936078Y-83531961D01*
X154936078Y-83531961D02*
X155031316Y-83627200D01*
X155031316Y-83627200D02*
X155174173Y-83674819D01*
X155174173Y-83674819D02*
X155269411Y-83674819D01*
X155269411Y-83674819D02*
X155412268Y-83627200D01*
X155412268Y-83627200D02*
X155459887Y-83579580D01*
X155459887Y-83579580D02*
X155459887Y-83246247D01*
X155459887Y-83246247D02*
X155269411Y-83246247D01*
X155888459Y-83674819D02*
X155888459Y-82674819D01*
X155888459Y-82674819D02*
X156269411Y-82674819D01*
X156269411Y-82674819D02*
X156364649Y-82722438D01*
X156364649Y-82722438D02*
X156412268Y-82770057D01*
X156412268Y-82770057D02*
X156459887Y-82865295D01*
X156459887Y-82865295D02*
X156459887Y-83008152D01*
X156459887Y-83008152D02*
X156412268Y-83103390D01*
X156412268Y-83103390D02*
X156364649Y-83151009D01*
X156364649Y-83151009D02*
X156269411Y-83198628D01*
X156269411Y-83198628D02*
X155888459Y-83198628D01*
X156888459Y-83674819D02*
X156888459Y-82674819D01*
X157555125Y-82674819D02*
X157745601Y-82674819D01*
X157745601Y-82674819D02*
X157840839Y-82722438D01*
X157840839Y-82722438D02*
X157936077Y-82817676D01*
X157936077Y-82817676D02*
X157983696Y-83008152D01*
X157983696Y-83008152D02*
X157983696Y-83341485D01*
X157983696Y-83341485D02*
X157936077Y-83531961D01*
X157936077Y-83531961D02*
X157840839Y-83627200D01*
X157840839Y-83627200D02*
X157745601Y-83674819D01*
X157745601Y-83674819D02*
X157555125Y-83674819D01*
X157555125Y-83674819D02*
X157459887Y-83627200D01*
X157459887Y-83627200D02*
X157364649Y-83531961D01*
X157364649Y-83531961D02*
X157317030Y-83341485D01*
X157317030Y-83341485D02*
X157317030Y-83008152D01*
X157317030Y-83008152D02*
X157364649Y-82817676D01*
X157364649Y-82817676D02*
X157459887Y-82722438D01*
X157459887Y-82722438D02*
X157555125Y-82674819D01*
X158317030Y-82674819D02*
X158936077Y-82674819D01*
X158936077Y-82674819D02*
X158602744Y-83055771D01*
X158602744Y-83055771D02*
X158745601Y-83055771D01*
X158745601Y-83055771D02*
X158840839Y-83103390D01*
X158840839Y-83103390D02*
X158888458Y-83151009D01*
X158888458Y-83151009D02*
X158936077Y-83246247D01*
X158936077Y-83246247D02*
X158936077Y-83484342D01*
X158936077Y-83484342D02*
X158888458Y-83579580D01*
X158888458Y-83579580D02*
X158840839Y-83627200D01*
X158840839Y-83627200D02*
X158745601Y-83674819D01*
X158745601Y-83674819D02*
X158459887Y-83674819D01*
X158459887Y-83674819D02*
X158364649Y-83627200D01*
X158364649Y-83627200D02*
X158317030Y-83579580D01*
X159412268Y-83674819D02*
X159602744Y-83674819D01*
X159602744Y-83674819D02*
X159697982Y-83627200D01*
X159697982Y-83627200D02*
X159745601Y-83579580D01*
X159745601Y-83579580D02*
X159840839Y-83436723D01*
X159840839Y-83436723D02*
X159888458Y-83246247D01*
X159888458Y-83246247D02*
X159888458Y-82865295D01*
X159888458Y-82865295D02*
X159840839Y-82770057D01*
X159840839Y-82770057D02*
X159793220Y-82722438D01*
X159793220Y-82722438D02*
X159697982Y-82674819D01*
X159697982Y-82674819D02*
X159507506Y-82674819D01*
X159507506Y-82674819D02*
X159412268Y-82722438D01*
X159412268Y-82722438D02*
X159364649Y-82770057D01*
X159364649Y-82770057D02*
X159317030Y-82865295D01*
X159317030Y-82865295D02*
X159317030Y-83103390D01*
X159317030Y-83103390D02*
X159364649Y-83198628D01*
X159364649Y-83198628D02*
X159412268Y-83246247D01*
X159412268Y-83246247D02*
X159507506Y-83293866D01*
X159507506Y-83293866D02*
X159697982Y-83293866D01*
X159697982Y-83293866D02*
X159793220Y-83246247D01*
X159793220Y-83246247D02*
X159840839Y-83198628D01*
X159840839Y-83198628D02*
X159888458Y-83103390D01*
X161031315Y-82627200D02*
X160174173Y-83912914D01*
X161364649Y-83674819D02*
X161364649Y-82674819D01*
X161364649Y-82674819D02*
X161697982Y-83389104D01*
X161697982Y-83389104D02*
X162031315Y-82674819D01*
X162031315Y-82674819D02*
X162031315Y-83674819D01*
X162364649Y-82674819D02*
X162936077Y-82674819D01*
X162650363Y-83674819D02*
X162650363Y-82674819D01*
X163840839Y-83579580D02*
X163793220Y-83627200D01*
X163793220Y-83627200D02*
X163650363Y-83674819D01*
X163650363Y-83674819D02*
X163555125Y-83674819D01*
X163555125Y-83674819D02*
X163412268Y-83627200D01*
X163412268Y-83627200D02*
X163317030Y-83531961D01*
X163317030Y-83531961D02*
X163269411Y-83436723D01*
X163269411Y-83436723D02*
X163221792Y-83246247D01*
X163221792Y-83246247D02*
X163221792Y-83103390D01*
X163221792Y-83103390D02*
X163269411Y-82912914D01*
X163269411Y-82912914D02*
X163317030Y-82817676D01*
X163317030Y-82817676D02*
X163412268Y-82722438D01*
X163412268Y-82722438D02*
X163555125Y-82674819D01*
X163555125Y-82674819D02*
X163650363Y-82674819D01*
X163650363Y-82674819D02*
X163793220Y-82722438D01*
X163793220Y-82722438D02*
X163840839Y-82770057D01*
X164269411Y-83674819D02*
X164269411Y-82674819D01*
X164840839Y-83674819D02*
X164412268Y-83103390D01*
X164840839Y-82674819D02*
X164269411Y-83246247D01*
X160364649Y-85262438D02*
X160269411Y-85214819D01*
X160269411Y-85214819D02*
X160126554Y-85214819D01*
X160126554Y-85214819D02*
X159983697Y-85262438D01*
X159983697Y-85262438D02*
X159888459Y-85357676D01*
X159888459Y-85357676D02*
X159840840Y-85452914D01*
X159840840Y-85452914D02*
X159793221Y-85643390D01*
X159793221Y-85643390D02*
X159793221Y-85786247D01*
X159793221Y-85786247D02*
X159840840Y-85976723D01*
X159840840Y-85976723D02*
X159888459Y-86071961D01*
X159888459Y-86071961D02*
X159983697Y-86167200D01*
X159983697Y-86167200D02*
X160126554Y-86214819D01*
X160126554Y-86214819D02*
X160221792Y-86214819D01*
X160221792Y-86214819D02*
X160364649Y-86167200D01*
X160364649Y-86167200D02*
X160412268Y-86119580D01*
X160412268Y-86119580D02*
X160412268Y-85786247D01*
X160412268Y-85786247D02*
X160221792Y-85786247D01*
X160840840Y-86214819D02*
X160840840Y-85214819D01*
X160840840Y-85214819D02*
X161221792Y-85214819D01*
X161221792Y-85214819D02*
X161317030Y-85262438D01*
X161317030Y-85262438D02*
X161364649Y-85310057D01*
X161364649Y-85310057D02*
X161412268Y-85405295D01*
X161412268Y-85405295D02*
X161412268Y-85548152D01*
X161412268Y-85548152D02*
X161364649Y-85643390D01*
X161364649Y-85643390D02*
X161317030Y-85691009D01*
X161317030Y-85691009D02*
X161221792Y-85738628D01*
X161221792Y-85738628D02*
X160840840Y-85738628D01*
X161840840Y-86214819D02*
X161840840Y-85214819D01*
X162507506Y-85214819D02*
X162697982Y-85214819D01*
X162697982Y-85214819D02*
X162793220Y-85262438D01*
X162793220Y-85262438D02*
X162888458Y-85357676D01*
X162888458Y-85357676D02*
X162936077Y-85548152D01*
X162936077Y-85548152D02*
X162936077Y-85881485D01*
X162936077Y-85881485D02*
X162888458Y-86071961D01*
X162888458Y-86071961D02*
X162793220Y-86167200D01*
X162793220Y-86167200D02*
X162697982Y-86214819D01*
X162697982Y-86214819D02*
X162507506Y-86214819D01*
X162507506Y-86214819D02*
X162412268Y-86167200D01*
X162412268Y-86167200D02*
X162317030Y-86071961D01*
X162317030Y-86071961D02*
X162269411Y-85881485D01*
X162269411Y-85881485D02*
X162269411Y-85548152D01*
X162269411Y-85548152D02*
X162317030Y-85357676D01*
X162317030Y-85357676D02*
X162412268Y-85262438D01*
X162412268Y-85262438D02*
X162507506Y-85214819D01*
X163269411Y-85214819D02*
X163888458Y-85214819D01*
X163888458Y-85214819D02*
X163555125Y-85595771D01*
X163555125Y-85595771D02*
X163697982Y-85595771D01*
X163697982Y-85595771D02*
X163793220Y-85643390D01*
X163793220Y-85643390D02*
X163840839Y-85691009D01*
X163840839Y-85691009D02*
X163888458Y-85786247D01*
X163888458Y-85786247D02*
X163888458Y-86024342D01*
X163888458Y-86024342D02*
X163840839Y-86119580D01*
X163840839Y-86119580D02*
X163793220Y-86167200D01*
X163793220Y-86167200D02*
X163697982Y-86214819D01*
X163697982Y-86214819D02*
X163412268Y-86214819D01*
X163412268Y-86214819D02*
X163317030Y-86167200D01*
X163317030Y-86167200D02*
X163269411Y-86119580D01*
X164459887Y-85643390D02*
X164364649Y-85595771D01*
X164364649Y-85595771D02*
X164317030Y-85548152D01*
X164317030Y-85548152D02*
X164269411Y-85452914D01*
X164269411Y-85452914D02*
X164269411Y-85405295D01*
X164269411Y-85405295D02*
X164317030Y-85310057D01*
X164317030Y-85310057D02*
X164364649Y-85262438D01*
X164364649Y-85262438D02*
X164459887Y-85214819D01*
X164459887Y-85214819D02*
X164650363Y-85214819D01*
X164650363Y-85214819D02*
X164745601Y-85262438D01*
X164745601Y-85262438D02*
X164793220Y-85310057D01*
X164793220Y-85310057D02*
X164840839Y-85405295D01*
X164840839Y-85405295D02*
X164840839Y-85452914D01*
X164840839Y-85452914D02*
X164793220Y-85548152D01*
X164793220Y-85548152D02*
X164745601Y-85595771D01*
X164745601Y-85595771D02*
X164650363Y-85643390D01*
X164650363Y-85643390D02*
X164459887Y-85643390D01*
X164459887Y-85643390D02*
X164364649Y-85691009D01*
X164364649Y-85691009D02*
X164317030Y-85738628D01*
X164317030Y-85738628D02*
X164269411Y-85833866D01*
X164269411Y-85833866D02*
X164269411Y-86024342D01*
X164269411Y-86024342D02*
X164317030Y-86119580D01*
X164317030Y-86119580D02*
X164364649Y-86167200D01*
X164364649Y-86167200D02*
X164459887Y-86214819D01*
X164459887Y-86214819D02*
X164650363Y-86214819D01*
X164650363Y-86214819D02*
X164745601Y-86167200D01*
X164745601Y-86167200D02*
X164793220Y-86119580D01*
X164793220Y-86119580D02*
X164840839Y-86024342D01*
X164840839Y-86024342D02*
X164840839Y-85833866D01*
X164840839Y-85833866D02*
X164793220Y-85738628D01*
X164793220Y-85738628D02*
X164745601Y-85691009D01*
X164745601Y-85691009D02*
X164650363Y-85643390D01*
X160364649Y-87802438D02*
X160269411Y-87754819D01*
X160269411Y-87754819D02*
X160126554Y-87754819D01*
X160126554Y-87754819D02*
X159983697Y-87802438D01*
X159983697Y-87802438D02*
X159888459Y-87897676D01*
X159888459Y-87897676D02*
X159840840Y-87992914D01*
X159840840Y-87992914D02*
X159793221Y-88183390D01*
X159793221Y-88183390D02*
X159793221Y-88326247D01*
X159793221Y-88326247D02*
X159840840Y-88516723D01*
X159840840Y-88516723D02*
X159888459Y-88611961D01*
X159888459Y-88611961D02*
X159983697Y-88707200D01*
X159983697Y-88707200D02*
X160126554Y-88754819D01*
X160126554Y-88754819D02*
X160221792Y-88754819D01*
X160221792Y-88754819D02*
X160364649Y-88707200D01*
X160364649Y-88707200D02*
X160412268Y-88659580D01*
X160412268Y-88659580D02*
X160412268Y-88326247D01*
X160412268Y-88326247D02*
X160221792Y-88326247D01*
X160840840Y-88754819D02*
X160840840Y-87754819D01*
X160840840Y-87754819D02*
X161221792Y-87754819D01*
X161221792Y-87754819D02*
X161317030Y-87802438D01*
X161317030Y-87802438D02*
X161364649Y-87850057D01*
X161364649Y-87850057D02*
X161412268Y-87945295D01*
X161412268Y-87945295D02*
X161412268Y-88088152D01*
X161412268Y-88088152D02*
X161364649Y-88183390D01*
X161364649Y-88183390D02*
X161317030Y-88231009D01*
X161317030Y-88231009D02*
X161221792Y-88278628D01*
X161221792Y-88278628D02*
X160840840Y-88278628D01*
X161840840Y-88754819D02*
X161840840Y-87754819D01*
X162507506Y-87754819D02*
X162697982Y-87754819D01*
X162697982Y-87754819D02*
X162793220Y-87802438D01*
X162793220Y-87802438D02*
X162888458Y-87897676D01*
X162888458Y-87897676D02*
X162936077Y-88088152D01*
X162936077Y-88088152D02*
X162936077Y-88421485D01*
X162936077Y-88421485D02*
X162888458Y-88611961D01*
X162888458Y-88611961D02*
X162793220Y-88707200D01*
X162793220Y-88707200D02*
X162697982Y-88754819D01*
X162697982Y-88754819D02*
X162507506Y-88754819D01*
X162507506Y-88754819D02*
X162412268Y-88707200D01*
X162412268Y-88707200D02*
X162317030Y-88611961D01*
X162317030Y-88611961D02*
X162269411Y-88421485D01*
X162269411Y-88421485D02*
X162269411Y-88088152D01*
X162269411Y-88088152D02*
X162317030Y-87897676D01*
X162317030Y-87897676D02*
X162412268Y-87802438D01*
X162412268Y-87802438D02*
X162507506Y-87754819D01*
X163269411Y-87754819D02*
X163888458Y-87754819D01*
X163888458Y-87754819D02*
X163555125Y-88135771D01*
X163555125Y-88135771D02*
X163697982Y-88135771D01*
X163697982Y-88135771D02*
X163793220Y-88183390D01*
X163793220Y-88183390D02*
X163840839Y-88231009D01*
X163840839Y-88231009D02*
X163888458Y-88326247D01*
X163888458Y-88326247D02*
X163888458Y-88564342D01*
X163888458Y-88564342D02*
X163840839Y-88659580D01*
X163840839Y-88659580D02*
X163793220Y-88707200D01*
X163793220Y-88707200D02*
X163697982Y-88754819D01*
X163697982Y-88754819D02*
X163412268Y-88754819D01*
X163412268Y-88754819D02*
X163317030Y-88707200D01*
X163317030Y-88707200D02*
X163269411Y-88659580D01*
X164221792Y-87754819D02*
X164888458Y-87754819D01*
X164888458Y-87754819D02*
X164459887Y-88754819D01*
X160364649Y-90342438D02*
X160269411Y-90294819D01*
X160269411Y-90294819D02*
X160126554Y-90294819D01*
X160126554Y-90294819D02*
X159983697Y-90342438D01*
X159983697Y-90342438D02*
X159888459Y-90437676D01*
X159888459Y-90437676D02*
X159840840Y-90532914D01*
X159840840Y-90532914D02*
X159793221Y-90723390D01*
X159793221Y-90723390D02*
X159793221Y-90866247D01*
X159793221Y-90866247D02*
X159840840Y-91056723D01*
X159840840Y-91056723D02*
X159888459Y-91151961D01*
X159888459Y-91151961D02*
X159983697Y-91247200D01*
X159983697Y-91247200D02*
X160126554Y-91294819D01*
X160126554Y-91294819D02*
X160221792Y-91294819D01*
X160221792Y-91294819D02*
X160364649Y-91247200D01*
X160364649Y-91247200D02*
X160412268Y-91199580D01*
X160412268Y-91199580D02*
X160412268Y-90866247D01*
X160412268Y-90866247D02*
X160221792Y-90866247D01*
X160840840Y-91294819D02*
X160840840Y-90294819D01*
X160840840Y-90294819D02*
X161221792Y-90294819D01*
X161221792Y-90294819D02*
X161317030Y-90342438D01*
X161317030Y-90342438D02*
X161364649Y-90390057D01*
X161364649Y-90390057D02*
X161412268Y-90485295D01*
X161412268Y-90485295D02*
X161412268Y-90628152D01*
X161412268Y-90628152D02*
X161364649Y-90723390D01*
X161364649Y-90723390D02*
X161317030Y-90771009D01*
X161317030Y-90771009D02*
X161221792Y-90818628D01*
X161221792Y-90818628D02*
X160840840Y-90818628D01*
X161840840Y-91294819D02*
X161840840Y-90294819D01*
X162507506Y-90294819D02*
X162697982Y-90294819D01*
X162697982Y-90294819D02*
X162793220Y-90342438D01*
X162793220Y-90342438D02*
X162888458Y-90437676D01*
X162888458Y-90437676D02*
X162936077Y-90628152D01*
X162936077Y-90628152D02*
X162936077Y-90961485D01*
X162936077Y-90961485D02*
X162888458Y-91151961D01*
X162888458Y-91151961D02*
X162793220Y-91247200D01*
X162793220Y-91247200D02*
X162697982Y-91294819D01*
X162697982Y-91294819D02*
X162507506Y-91294819D01*
X162507506Y-91294819D02*
X162412268Y-91247200D01*
X162412268Y-91247200D02*
X162317030Y-91151961D01*
X162317030Y-91151961D02*
X162269411Y-90961485D01*
X162269411Y-90961485D02*
X162269411Y-90628152D01*
X162269411Y-90628152D02*
X162317030Y-90437676D01*
X162317030Y-90437676D02*
X162412268Y-90342438D01*
X162412268Y-90342438D02*
X162507506Y-90294819D01*
X163269411Y-90294819D02*
X163888458Y-90294819D01*
X163888458Y-90294819D02*
X163555125Y-90675771D01*
X163555125Y-90675771D02*
X163697982Y-90675771D01*
X163697982Y-90675771D02*
X163793220Y-90723390D01*
X163793220Y-90723390D02*
X163840839Y-90771009D01*
X163840839Y-90771009D02*
X163888458Y-90866247D01*
X163888458Y-90866247D02*
X163888458Y-91104342D01*
X163888458Y-91104342D02*
X163840839Y-91199580D01*
X163840839Y-91199580D02*
X163793220Y-91247200D01*
X163793220Y-91247200D02*
X163697982Y-91294819D01*
X163697982Y-91294819D02*
X163412268Y-91294819D01*
X163412268Y-91294819D02*
X163317030Y-91247200D01*
X163317030Y-91247200D02*
X163269411Y-91199580D01*
X164745601Y-90294819D02*
X164555125Y-90294819D01*
X164555125Y-90294819D02*
X164459887Y-90342438D01*
X164459887Y-90342438D02*
X164412268Y-90390057D01*
X164412268Y-90390057D02*
X164317030Y-90532914D01*
X164317030Y-90532914D02*
X164269411Y-90723390D01*
X164269411Y-90723390D02*
X164269411Y-91104342D01*
X164269411Y-91104342D02*
X164317030Y-91199580D01*
X164317030Y-91199580D02*
X164364649Y-91247200D01*
X164364649Y-91247200D02*
X164459887Y-91294819D01*
X164459887Y-91294819D02*
X164650363Y-91294819D01*
X164650363Y-91294819D02*
X164745601Y-91247200D01*
X164745601Y-91247200D02*
X164793220Y-91199580D01*
X164793220Y-91199580D02*
X164840839Y-91104342D01*
X164840839Y-91104342D02*
X164840839Y-90866247D01*
X164840839Y-90866247D02*
X164793220Y-90771009D01*
X164793220Y-90771009D02*
X164745601Y-90723390D01*
X164745601Y-90723390D02*
X164650363Y-90675771D01*
X164650363Y-90675771D02*
X164459887Y-90675771D01*
X164459887Y-90675771D02*
X164364649Y-90723390D01*
X164364649Y-90723390D02*
X164317030Y-90771009D01*
X164317030Y-90771009D02*
X164269411Y-90866247D01*
X160364649Y-92882438D02*
X160269411Y-92834819D01*
X160269411Y-92834819D02*
X160126554Y-92834819D01*
X160126554Y-92834819D02*
X159983697Y-92882438D01*
X159983697Y-92882438D02*
X159888459Y-92977676D01*
X159888459Y-92977676D02*
X159840840Y-93072914D01*
X159840840Y-93072914D02*
X159793221Y-93263390D01*
X159793221Y-93263390D02*
X159793221Y-93406247D01*
X159793221Y-93406247D02*
X159840840Y-93596723D01*
X159840840Y-93596723D02*
X159888459Y-93691961D01*
X159888459Y-93691961D02*
X159983697Y-93787200D01*
X159983697Y-93787200D02*
X160126554Y-93834819D01*
X160126554Y-93834819D02*
X160221792Y-93834819D01*
X160221792Y-93834819D02*
X160364649Y-93787200D01*
X160364649Y-93787200D02*
X160412268Y-93739580D01*
X160412268Y-93739580D02*
X160412268Y-93406247D01*
X160412268Y-93406247D02*
X160221792Y-93406247D01*
X160840840Y-93834819D02*
X160840840Y-92834819D01*
X160840840Y-92834819D02*
X161221792Y-92834819D01*
X161221792Y-92834819D02*
X161317030Y-92882438D01*
X161317030Y-92882438D02*
X161364649Y-92930057D01*
X161364649Y-92930057D02*
X161412268Y-93025295D01*
X161412268Y-93025295D02*
X161412268Y-93168152D01*
X161412268Y-93168152D02*
X161364649Y-93263390D01*
X161364649Y-93263390D02*
X161317030Y-93311009D01*
X161317030Y-93311009D02*
X161221792Y-93358628D01*
X161221792Y-93358628D02*
X160840840Y-93358628D01*
X161840840Y-93834819D02*
X161840840Y-92834819D01*
X162507506Y-92834819D02*
X162697982Y-92834819D01*
X162697982Y-92834819D02*
X162793220Y-92882438D01*
X162793220Y-92882438D02*
X162888458Y-92977676D01*
X162888458Y-92977676D02*
X162936077Y-93168152D01*
X162936077Y-93168152D02*
X162936077Y-93501485D01*
X162936077Y-93501485D02*
X162888458Y-93691961D01*
X162888458Y-93691961D02*
X162793220Y-93787200D01*
X162793220Y-93787200D02*
X162697982Y-93834819D01*
X162697982Y-93834819D02*
X162507506Y-93834819D01*
X162507506Y-93834819D02*
X162412268Y-93787200D01*
X162412268Y-93787200D02*
X162317030Y-93691961D01*
X162317030Y-93691961D02*
X162269411Y-93501485D01*
X162269411Y-93501485D02*
X162269411Y-93168152D01*
X162269411Y-93168152D02*
X162317030Y-92977676D01*
X162317030Y-92977676D02*
X162412268Y-92882438D01*
X162412268Y-92882438D02*
X162507506Y-92834819D01*
X163269411Y-92834819D02*
X163888458Y-92834819D01*
X163888458Y-92834819D02*
X163555125Y-93215771D01*
X163555125Y-93215771D02*
X163697982Y-93215771D01*
X163697982Y-93215771D02*
X163793220Y-93263390D01*
X163793220Y-93263390D02*
X163840839Y-93311009D01*
X163840839Y-93311009D02*
X163888458Y-93406247D01*
X163888458Y-93406247D02*
X163888458Y-93644342D01*
X163888458Y-93644342D02*
X163840839Y-93739580D01*
X163840839Y-93739580D02*
X163793220Y-93787200D01*
X163793220Y-93787200D02*
X163697982Y-93834819D01*
X163697982Y-93834819D02*
X163412268Y-93834819D01*
X163412268Y-93834819D02*
X163317030Y-93787200D01*
X163317030Y-93787200D02*
X163269411Y-93739580D01*
X164793220Y-92834819D02*
X164317030Y-92834819D01*
X164317030Y-92834819D02*
X164269411Y-93311009D01*
X164269411Y-93311009D02*
X164317030Y-93263390D01*
X164317030Y-93263390D02*
X164412268Y-93215771D01*
X164412268Y-93215771D02*
X164650363Y-93215771D01*
X164650363Y-93215771D02*
X164745601Y-93263390D01*
X164745601Y-93263390D02*
X164793220Y-93311009D01*
X164793220Y-93311009D02*
X164840839Y-93406247D01*
X164840839Y-93406247D02*
X164840839Y-93644342D01*
X164840839Y-93644342D02*
X164793220Y-93739580D01*
X164793220Y-93739580D02*
X164745601Y-93787200D01*
X164745601Y-93787200D02*
X164650363Y-93834819D01*
X164650363Y-93834819D02*
X164412268Y-93834819D01*
X164412268Y-93834819D02*
X164317030Y-93787200D01*
X164317030Y-93787200D02*
X164269411Y-93739580D01*
X161317030Y-95422438D02*
X161221792Y-95374819D01*
X161221792Y-95374819D02*
X161078935Y-95374819D01*
X161078935Y-95374819D02*
X160936078Y-95422438D01*
X160936078Y-95422438D02*
X160840840Y-95517676D01*
X160840840Y-95517676D02*
X160793221Y-95612914D01*
X160793221Y-95612914D02*
X160745602Y-95803390D01*
X160745602Y-95803390D02*
X160745602Y-95946247D01*
X160745602Y-95946247D02*
X160793221Y-96136723D01*
X160793221Y-96136723D02*
X160840840Y-96231961D01*
X160840840Y-96231961D02*
X160936078Y-96327200D01*
X160936078Y-96327200D02*
X161078935Y-96374819D01*
X161078935Y-96374819D02*
X161174173Y-96374819D01*
X161174173Y-96374819D02*
X161317030Y-96327200D01*
X161317030Y-96327200D02*
X161364649Y-96279580D01*
X161364649Y-96279580D02*
X161364649Y-95946247D01*
X161364649Y-95946247D02*
X161174173Y-95946247D01*
X161793221Y-96374819D02*
X161793221Y-95374819D01*
X161793221Y-95374819D02*
X162174173Y-95374819D01*
X162174173Y-95374819D02*
X162269411Y-95422438D01*
X162269411Y-95422438D02*
X162317030Y-95470057D01*
X162317030Y-95470057D02*
X162364649Y-95565295D01*
X162364649Y-95565295D02*
X162364649Y-95708152D01*
X162364649Y-95708152D02*
X162317030Y-95803390D01*
X162317030Y-95803390D02*
X162269411Y-95851009D01*
X162269411Y-95851009D02*
X162174173Y-95898628D01*
X162174173Y-95898628D02*
X161793221Y-95898628D01*
X162793221Y-96374819D02*
X162793221Y-95374819D01*
X163459887Y-95374819D02*
X163650363Y-95374819D01*
X163650363Y-95374819D02*
X163745601Y-95422438D01*
X163745601Y-95422438D02*
X163840839Y-95517676D01*
X163840839Y-95517676D02*
X163888458Y-95708152D01*
X163888458Y-95708152D02*
X163888458Y-96041485D01*
X163888458Y-96041485D02*
X163840839Y-96231961D01*
X163840839Y-96231961D02*
X163745601Y-96327200D01*
X163745601Y-96327200D02*
X163650363Y-96374819D01*
X163650363Y-96374819D02*
X163459887Y-96374819D01*
X163459887Y-96374819D02*
X163364649Y-96327200D01*
X163364649Y-96327200D02*
X163269411Y-96231961D01*
X163269411Y-96231961D02*
X163221792Y-96041485D01*
X163221792Y-96041485D02*
X163221792Y-95708152D01*
X163221792Y-95708152D02*
X163269411Y-95517676D01*
X163269411Y-95517676D02*
X163364649Y-95422438D01*
X163364649Y-95422438D02*
X163459887Y-95374819D01*
X164507506Y-95374819D02*
X164602744Y-95374819D01*
X164602744Y-95374819D02*
X164697982Y-95422438D01*
X164697982Y-95422438D02*
X164745601Y-95470057D01*
X164745601Y-95470057D02*
X164793220Y-95565295D01*
X164793220Y-95565295D02*
X164840839Y-95755771D01*
X164840839Y-95755771D02*
X164840839Y-95993866D01*
X164840839Y-95993866D02*
X164793220Y-96184342D01*
X164793220Y-96184342D02*
X164745601Y-96279580D01*
X164745601Y-96279580D02*
X164697982Y-96327200D01*
X164697982Y-96327200D02*
X164602744Y-96374819D01*
X164602744Y-96374819D02*
X164507506Y-96374819D01*
X164507506Y-96374819D02*
X164412268Y-96327200D01*
X164412268Y-96327200D02*
X164364649Y-96279580D01*
X164364649Y-96279580D02*
X164317030Y-96184342D01*
X164317030Y-96184342D02*
X164269411Y-95993866D01*
X164269411Y-95993866D02*
X164269411Y-95755771D01*
X164269411Y-95755771D02*
X164317030Y-95565295D01*
X164317030Y-95565295D02*
X164364649Y-95470057D01*
X164364649Y-95470057D02*
X164412268Y-95422438D01*
X164412268Y-95422438D02*
X164507506Y-95374819D01*
X160364649Y-97962438D02*
X160269411Y-97914819D01*
X160269411Y-97914819D02*
X160126554Y-97914819D01*
X160126554Y-97914819D02*
X159983697Y-97962438D01*
X159983697Y-97962438D02*
X159888459Y-98057676D01*
X159888459Y-98057676D02*
X159840840Y-98152914D01*
X159840840Y-98152914D02*
X159793221Y-98343390D01*
X159793221Y-98343390D02*
X159793221Y-98486247D01*
X159793221Y-98486247D02*
X159840840Y-98676723D01*
X159840840Y-98676723D02*
X159888459Y-98771961D01*
X159888459Y-98771961D02*
X159983697Y-98867200D01*
X159983697Y-98867200D02*
X160126554Y-98914819D01*
X160126554Y-98914819D02*
X160221792Y-98914819D01*
X160221792Y-98914819D02*
X160364649Y-98867200D01*
X160364649Y-98867200D02*
X160412268Y-98819580D01*
X160412268Y-98819580D02*
X160412268Y-98486247D01*
X160412268Y-98486247D02*
X160221792Y-98486247D01*
X160840840Y-98914819D02*
X160840840Y-97914819D01*
X160840840Y-97914819D02*
X161221792Y-97914819D01*
X161221792Y-97914819D02*
X161317030Y-97962438D01*
X161317030Y-97962438D02*
X161364649Y-98010057D01*
X161364649Y-98010057D02*
X161412268Y-98105295D01*
X161412268Y-98105295D02*
X161412268Y-98248152D01*
X161412268Y-98248152D02*
X161364649Y-98343390D01*
X161364649Y-98343390D02*
X161317030Y-98391009D01*
X161317030Y-98391009D02*
X161221792Y-98438628D01*
X161221792Y-98438628D02*
X160840840Y-98438628D01*
X161840840Y-98914819D02*
X161840840Y-97914819D01*
X162507506Y-97914819D02*
X162697982Y-97914819D01*
X162697982Y-97914819D02*
X162793220Y-97962438D01*
X162793220Y-97962438D02*
X162888458Y-98057676D01*
X162888458Y-98057676D02*
X162936077Y-98248152D01*
X162936077Y-98248152D02*
X162936077Y-98581485D01*
X162936077Y-98581485D02*
X162888458Y-98771961D01*
X162888458Y-98771961D02*
X162793220Y-98867200D01*
X162793220Y-98867200D02*
X162697982Y-98914819D01*
X162697982Y-98914819D02*
X162507506Y-98914819D01*
X162507506Y-98914819D02*
X162412268Y-98867200D01*
X162412268Y-98867200D02*
X162317030Y-98771961D01*
X162317030Y-98771961D02*
X162269411Y-98581485D01*
X162269411Y-98581485D02*
X162269411Y-98248152D01*
X162269411Y-98248152D02*
X162317030Y-98057676D01*
X162317030Y-98057676D02*
X162412268Y-97962438D01*
X162412268Y-97962438D02*
X162507506Y-97914819D01*
X163793220Y-98248152D02*
X163793220Y-98914819D01*
X163555125Y-97867200D02*
X163317030Y-98581485D01*
X163317030Y-98581485D02*
X163936077Y-98581485D01*
X164793220Y-97914819D02*
X164317030Y-97914819D01*
X164317030Y-97914819D02*
X164269411Y-98391009D01*
X164269411Y-98391009D02*
X164317030Y-98343390D01*
X164317030Y-98343390D02*
X164412268Y-98295771D01*
X164412268Y-98295771D02*
X164650363Y-98295771D01*
X164650363Y-98295771D02*
X164745601Y-98343390D01*
X164745601Y-98343390D02*
X164793220Y-98391009D01*
X164793220Y-98391009D02*
X164840839Y-98486247D01*
X164840839Y-98486247D02*
X164840839Y-98724342D01*
X164840839Y-98724342D02*
X164793220Y-98819580D01*
X164793220Y-98819580D02*
X164745601Y-98867200D01*
X164745601Y-98867200D02*
X164650363Y-98914819D01*
X164650363Y-98914819D02*
X164412268Y-98914819D01*
X164412268Y-98914819D02*
X164317030Y-98867200D01*
X164317030Y-98867200D02*
X164269411Y-98819580D01*
X160364649Y-100502438D02*
X160269411Y-100454819D01*
X160269411Y-100454819D02*
X160126554Y-100454819D01*
X160126554Y-100454819D02*
X159983697Y-100502438D01*
X159983697Y-100502438D02*
X159888459Y-100597676D01*
X159888459Y-100597676D02*
X159840840Y-100692914D01*
X159840840Y-100692914D02*
X159793221Y-100883390D01*
X159793221Y-100883390D02*
X159793221Y-101026247D01*
X159793221Y-101026247D02*
X159840840Y-101216723D01*
X159840840Y-101216723D02*
X159888459Y-101311961D01*
X159888459Y-101311961D02*
X159983697Y-101407200D01*
X159983697Y-101407200D02*
X160126554Y-101454819D01*
X160126554Y-101454819D02*
X160221792Y-101454819D01*
X160221792Y-101454819D02*
X160364649Y-101407200D01*
X160364649Y-101407200D02*
X160412268Y-101359580D01*
X160412268Y-101359580D02*
X160412268Y-101026247D01*
X160412268Y-101026247D02*
X160221792Y-101026247D01*
X160840840Y-101454819D02*
X160840840Y-100454819D01*
X160840840Y-100454819D02*
X161221792Y-100454819D01*
X161221792Y-100454819D02*
X161317030Y-100502438D01*
X161317030Y-100502438D02*
X161364649Y-100550057D01*
X161364649Y-100550057D02*
X161412268Y-100645295D01*
X161412268Y-100645295D02*
X161412268Y-100788152D01*
X161412268Y-100788152D02*
X161364649Y-100883390D01*
X161364649Y-100883390D02*
X161317030Y-100931009D01*
X161317030Y-100931009D02*
X161221792Y-100978628D01*
X161221792Y-100978628D02*
X160840840Y-100978628D01*
X161840840Y-101454819D02*
X161840840Y-100454819D01*
X162507506Y-100454819D02*
X162697982Y-100454819D01*
X162697982Y-100454819D02*
X162793220Y-100502438D01*
X162793220Y-100502438D02*
X162888458Y-100597676D01*
X162888458Y-100597676D02*
X162936077Y-100788152D01*
X162936077Y-100788152D02*
X162936077Y-101121485D01*
X162936077Y-101121485D02*
X162888458Y-101311961D01*
X162888458Y-101311961D02*
X162793220Y-101407200D01*
X162793220Y-101407200D02*
X162697982Y-101454819D01*
X162697982Y-101454819D02*
X162507506Y-101454819D01*
X162507506Y-101454819D02*
X162412268Y-101407200D01*
X162412268Y-101407200D02*
X162317030Y-101311961D01*
X162317030Y-101311961D02*
X162269411Y-101121485D01*
X162269411Y-101121485D02*
X162269411Y-100788152D01*
X162269411Y-100788152D02*
X162317030Y-100597676D01*
X162317030Y-100597676D02*
X162412268Y-100502438D01*
X162412268Y-100502438D02*
X162507506Y-100454819D01*
X163793220Y-100788152D02*
X163793220Y-101454819D01*
X163555125Y-100407200D02*
X163317030Y-101121485D01*
X163317030Y-101121485D02*
X163936077Y-101121485D01*
X164459887Y-100883390D02*
X164364649Y-100835771D01*
X164364649Y-100835771D02*
X164317030Y-100788152D01*
X164317030Y-100788152D02*
X164269411Y-100692914D01*
X164269411Y-100692914D02*
X164269411Y-100645295D01*
X164269411Y-100645295D02*
X164317030Y-100550057D01*
X164317030Y-100550057D02*
X164364649Y-100502438D01*
X164364649Y-100502438D02*
X164459887Y-100454819D01*
X164459887Y-100454819D02*
X164650363Y-100454819D01*
X164650363Y-100454819D02*
X164745601Y-100502438D01*
X164745601Y-100502438D02*
X164793220Y-100550057D01*
X164793220Y-100550057D02*
X164840839Y-100645295D01*
X164840839Y-100645295D02*
X164840839Y-100692914D01*
X164840839Y-100692914D02*
X164793220Y-100788152D01*
X164793220Y-100788152D02*
X164745601Y-100835771D01*
X164745601Y-100835771D02*
X164650363Y-100883390D01*
X164650363Y-100883390D02*
X164459887Y-100883390D01*
X164459887Y-100883390D02*
X164364649Y-100931009D01*
X164364649Y-100931009D02*
X164317030Y-100978628D01*
X164317030Y-100978628D02*
X164269411Y-101073866D01*
X164269411Y-101073866D02*
X164269411Y-101264342D01*
X164269411Y-101264342D02*
X164317030Y-101359580D01*
X164317030Y-101359580D02*
X164364649Y-101407200D01*
X164364649Y-101407200D02*
X164459887Y-101454819D01*
X164459887Y-101454819D02*
X164650363Y-101454819D01*
X164650363Y-101454819D02*
X164745601Y-101407200D01*
X164745601Y-101407200D02*
X164793220Y-101359580D01*
X164793220Y-101359580D02*
X164840839Y-101264342D01*
X164840839Y-101264342D02*
X164840839Y-101073866D01*
X164840839Y-101073866D02*
X164793220Y-100978628D01*
X164793220Y-100978628D02*
X164745601Y-100931009D01*
X164745601Y-100931009D02*
X164650363Y-100883390D01*
X160364649Y-103042438D02*
X160269411Y-102994819D01*
X160269411Y-102994819D02*
X160126554Y-102994819D01*
X160126554Y-102994819D02*
X159983697Y-103042438D01*
X159983697Y-103042438D02*
X159888459Y-103137676D01*
X159888459Y-103137676D02*
X159840840Y-103232914D01*
X159840840Y-103232914D02*
X159793221Y-103423390D01*
X159793221Y-103423390D02*
X159793221Y-103566247D01*
X159793221Y-103566247D02*
X159840840Y-103756723D01*
X159840840Y-103756723D02*
X159888459Y-103851961D01*
X159888459Y-103851961D02*
X159983697Y-103947200D01*
X159983697Y-103947200D02*
X160126554Y-103994819D01*
X160126554Y-103994819D02*
X160221792Y-103994819D01*
X160221792Y-103994819D02*
X160364649Y-103947200D01*
X160364649Y-103947200D02*
X160412268Y-103899580D01*
X160412268Y-103899580D02*
X160412268Y-103566247D01*
X160412268Y-103566247D02*
X160221792Y-103566247D01*
X160840840Y-103994819D02*
X160840840Y-102994819D01*
X160840840Y-102994819D02*
X161221792Y-102994819D01*
X161221792Y-102994819D02*
X161317030Y-103042438D01*
X161317030Y-103042438D02*
X161364649Y-103090057D01*
X161364649Y-103090057D02*
X161412268Y-103185295D01*
X161412268Y-103185295D02*
X161412268Y-103328152D01*
X161412268Y-103328152D02*
X161364649Y-103423390D01*
X161364649Y-103423390D02*
X161317030Y-103471009D01*
X161317030Y-103471009D02*
X161221792Y-103518628D01*
X161221792Y-103518628D02*
X160840840Y-103518628D01*
X161840840Y-103994819D02*
X161840840Y-102994819D01*
X162507506Y-102994819D02*
X162697982Y-102994819D01*
X162697982Y-102994819D02*
X162793220Y-103042438D01*
X162793220Y-103042438D02*
X162888458Y-103137676D01*
X162888458Y-103137676D02*
X162936077Y-103328152D01*
X162936077Y-103328152D02*
X162936077Y-103661485D01*
X162936077Y-103661485D02*
X162888458Y-103851961D01*
X162888458Y-103851961D02*
X162793220Y-103947200D01*
X162793220Y-103947200D02*
X162697982Y-103994819D01*
X162697982Y-103994819D02*
X162507506Y-103994819D01*
X162507506Y-103994819D02*
X162412268Y-103947200D01*
X162412268Y-103947200D02*
X162317030Y-103851961D01*
X162317030Y-103851961D02*
X162269411Y-103661485D01*
X162269411Y-103661485D02*
X162269411Y-103328152D01*
X162269411Y-103328152D02*
X162317030Y-103137676D01*
X162317030Y-103137676D02*
X162412268Y-103042438D01*
X162412268Y-103042438D02*
X162507506Y-102994819D01*
X163793220Y-103328152D02*
X163793220Y-103994819D01*
X163555125Y-102947200D02*
X163317030Y-103661485D01*
X163317030Y-103661485D02*
X163936077Y-103661485D01*
X164221792Y-102994819D02*
X164888458Y-102994819D01*
X164888458Y-102994819D02*
X164459887Y-103994819D01*
X160364649Y-105582438D02*
X160269411Y-105534819D01*
X160269411Y-105534819D02*
X160126554Y-105534819D01*
X160126554Y-105534819D02*
X159983697Y-105582438D01*
X159983697Y-105582438D02*
X159888459Y-105677676D01*
X159888459Y-105677676D02*
X159840840Y-105772914D01*
X159840840Y-105772914D02*
X159793221Y-105963390D01*
X159793221Y-105963390D02*
X159793221Y-106106247D01*
X159793221Y-106106247D02*
X159840840Y-106296723D01*
X159840840Y-106296723D02*
X159888459Y-106391961D01*
X159888459Y-106391961D02*
X159983697Y-106487200D01*
X159983697Y-106487200D02*
X160126554Y-106534819D01*
X160126554Y-106534819D02*
X160221792Y-106534819D01*
X160221792Y-106534819D02*
X160364649Y-106487200D01*
X160364649Y-106487200D02*
X160412268Y-106439580D01*
X160412268Y-106439580D02*
X160412268Y-106106247D01*
X160412268Y-106106247D02*
X160221792Y-106106247D01*
X160840840Y-106534819D02*
X160840840Y-105534819D01*
X160840840Y-105534819D02*
X161221792Y-105534819D01*
X161221792Y-105534819D02*
X161317030Y-105582438D01*
X161317030Y-105582438D02*
X161364649Y-105630057D01*
X161364649Y-105630057D02*
X161412268Y-105725295D01*
X161412268Y-105725295D02*
X161412268Y-105868152D01*
X161412268Y-105868152D02*
X161364649Y-105963390D01*
X161364649Y-105963390D02*
X161317030Y-106011009D01*
X161317030Y-106011009D02*
X161221792Y-106058628D01*
X161221792Y-106058628D02*
X160840840Y-106058628D01*
X161840840Y-106534819D02*
X161840840Y-105534819D01*
X162507506Y-105534819D02*
X162697982Y-105534819D01*
X162697982Y-105534819D02*
X162793220Y-105582438D01*
X162793220Y-105582438D02*
X162888458Y-105677676D01*
X162888458Y-105677676D02*
X162936077Y-105868152D01*
X162936077Y-105868152D02*
X162936077Y-106201485D01*
X162936077Y-106201485D02*
X162888458Y-106391961D01*
X162888458Y-106391961D02*
X162793220Y-106487200D01*
X162793220Y-106487200D02*
X162697982Y-106534819D01*
X162697982Y-106534819D02*
X162507506Y-106534819D01*
X162507506Y-106534819D02*
X162412268Y-106487200D01*
X162412268Y-106487200D02*
X162317030Y-106391961D01*
X162317030Y-106391961D02*
X162269411Y-106201485D01*
X162269411Y-106201485D02*
X162269411Y-105868152D01*
X162269411Y-105868152D02*
X162317030Y-105677676D01*
X162317030Y-105677676D02*
X162412268Y-105582438D01*
X162412268Y-105582438D02*
X162507506Y-105534819D01*
X163317030Y-105630057D02*
X163364649Y-105582438D01*
X163364649Y-105582438D02*
X163459887Y-105534819D01*
X163459887Y-105534819D02*
X163697982Y-105534819D01*
X163697982Y-105534819D02*
X163793220Y-105582438D01*
X163793220Y-105582438D02*
X163840839Y-105630057D01*
X163840839Y-105630057D02*
X163888458Y-105725295D01*
X163888458Y-105725295D02*
X163888458Y-105820533D01*
X163888458Y-105820533D02*
X163840839Y-105963390D01*
X163840839Y-105963390D02*
X163269411Y-106534819D01*
X163269411Y-106534819D02*
X163888458Y-106534819D01*
X164840839Y-106534819D02*
X164269411Y-106534819D01*
X164555125Y-106534819D02*
X164555125Y-105534819D01*
X164555125Y-105534819D02*
X164459887Y-105677676D01*
X164459887Y-105677676D02*
X164364649Y-105772914D01*
X164364649Y-105772914D02*
X164269411Y-105820533D01*
X160364649Y-108122438D02*
X160269411Y-108074819D01*
X160269411Y-108074819D02*
X160126554Y-108074819D01*
X160126554Y-108074819D02*
X159983697Y-108122438D01*
X159983697Y-108122438D02*
X159888459Y-108217676D01*
X159888459Y-108217676D02*
X159840840Y-108312914D01*
X159840840Y-108312914D02*
X159793221Y-108503390D01*
X159793221Y-108503390D02*
X159793221Y-108646247D01*
X159793221Y-108646247D02*
X159840840Y-108836723D01*
X159840840Y-108836723D02*
X159888459Y-108931961D01*
X159888459Y-108931961D02*
X159983697Y-109027200D01*
X159983697Y-109027200D02*
X160126554Y-109074819D01*
X160126554Y-109074819D02*
X160221792Y-109074819D01*
X160221792Y-109074819D02*
X160364649Y-109027200D01*
X160364649Y-109027200D02*
X160412268Y-108979580D01*
X160412268Y-108979580D02*
X160412268Y-108646247D01*
X160412268Y-108646247D02*
X160221792Y-108646247D01*
X160840840Y-109074819D02*
X160840840Y-108074819D01*
X160840840Y-108074819D02*
X161221792Y-108074819D01*
X161221792Y-108074819D02*
X161317030Y-108122438D01*
X161317030Y-108122438D02*
X161364649Y-108170057D01*
X161364649Y-108170057D02*
X161412268Y-108265295D01*
X161412268Y-108265295D02*
X161412268Y-108408152D01*
X161412268Y-108408152D02*
X161364649Y-108503390D01*
X161364649Y-108503390D02*
X161317030Y-108551009D01*
X161317030Y-108551009D02*
X161221792Y-108598628D01*
X161221792Y-108598628D02*
X160840840Y-108598628D01*
X161840840Y-109074819D02*
X161840840Y-108074819D01*
X162507506Y-108074819D02*
X162697982Y-108074819D01*
X162697982Y-108074819D02*
X162793220Y-108122438D01*
X162793220Y-108122438D02*
X162888458Y-108217676D01*
X162888458Y-108217676D02*
X162936077Y-108408152D01*
X162936077Y-108408152D02*
X162936077Y-108741485D01*
X162936077Y-108741485D02*
X162888458Y-108931961D01*
X162888458Y-108931961D02*
X162793220Y-109027200D01*
X162793220Y-109027200D02*
X162697982Y-109074819D01*
X162697982Y-109074819D02*
X162507506Y-109074819D01*
X162507506Y-109074819D02*
X162412268Y-109027200D01*
X162412268Y-109027200D02*
X162317030Y-108931961D01*
X162317030Y-108931961D02*
X162269411Y-108741485D01*
X162269411Y-108741485D02*
X162269411Y-108408152D01*
X162269411Y-108408152D02*
X162317030Y-108217676D01*
X162317030Y-108217676D02*
X162412268Y-108122438D01*
X162412268Y-108122438D02*
X162507506Y-108074819D01*
X163317030Y-108170057D02*
X163364649Y-108122438D01*
X163364649Y-108122438D02*
X163459887Y-108074819D01*
X163459887Y-108074819D02*
X163697982Y-108074819D01*
X163697982Y-108074819D02*
X163793220Y-108122438D01*
X163793220Y-108122438D02*
X163840839Y-108170057D01*
X163840839Y-108170057D02*
X163888458Y-108265295D01*
X163888458Y-108265295D02*
X163888458Y-108360533D01*
X163888458Y-108360533D02*
X163840839Y-108503390D01*
X163840839Y-108503390D02*
X163269411Y-109074819D01*
X163269411Y-109074819D02*
X163888458Y-109074819D01*
X164507506Y-108074819D02*
X164602744Y-108074819D01*
X164602744Y-108074819D02*
X164697982Y-108122438D01*
X164697982Y-108122438D02*
X164745601Y-108170057D01*
X164745601Y-108170057D02*
X164793220Y-108265295D01*
X164793220Y-108265295D02*
X164840839Y-108455771D01*
X164840839Y-108455771D02*
X164840839Y-108693866D01*
X164840839Y-108693866D02*
X164793220Y-108884342D01*
X164793220Y-108884342D02*
X164745601Y-108979580D01*
X164745601Y-108979580D02*
X164697982Y-109027200D01*
X164697982Y-109027200D02*
X164602744Y-109074819D01*
X164602744Y-109074819D02*
X164507506Y-109074819D01*
X164507506Y-109074819D02*
X164412268Y-109027200D01*
X164412268Y-109027200D02*
X164364649Y-108979580D01*
X164364649Y-108979580D02*
X164317030Y-108884342D01*
X164317030Y-108884342D02*
X164269411Y-108693866D01*
X164269411Y-108693866D02*
X164269411Y-108455771D01*
X164269411Y-108455771D02*
X164317030Y-108265295D01*
X164317030Y-108265295D02*
X164364649Y-108170057D01*
X164364649Y-108170057D02*
X164412268Y-108122438D01*
X164412268Y-108122438D02*
X164507506Y-108074819D01*
X160364649Y-110662438D02*
X160269411Y-110614819D01*
X160269411Y-110614819D02*
X160126554Y-110614819D01*
X160126554Y-110614819D02*
X159983697Y-110662438D01*
X159983697Y-110662438D02*
X159888459Y-110757676D01*
X159888459Y-110757676D02*
X159840840Y-110852914D01*
X159840840Y-110852914D02*
X159793221Y-111043390D01*
X159793221Y-111043390D02*
X159793221Y-111186247D01*
X159793221Y-111186247D02*
X159840840Y-111376723D01*
X159840840Y-111376723D02*
X159888459Y-111471961D01*
X159888459Y-111471961D02*
X159983697Y-111567200D01*
X159983697Y-111567200D02*
X160126554Y-111614819D01*
X160126554Y-111614819D02*
X160221792Y-111614819D01*
X160221792Y-111614819D02*
X160364649Y-111567200D01*
X160364649Y-111567200D02*
X160412268Y-111519580D01*
X160412268Y-111519580D02*
X160412268Y-111186247D01*
X160412268Y-111186247D02*
X160221792Y-111186247D01*
X160840840Y-111614819D02*
X160840840Y-110614819D01*
X160840840Y-110614819D02*
X161221792Y-110614819D01*
X161221792Y-110614819D02*
X161317030Y-110662438D01*
X161317030Y-110662438D02*
X161364649Y-110710057D01*
X161364649Y-110710057D02*
X161412268Y-110805295D01*
X161412268Y-110805295D02*
X161412268Y-110948152D01*
X161412268Y-110948152D02*
X161364649Y-111043390D01*
X161364649Y-111043390D02*
X161317030Y-111091009D01*
X161317030Y-111091009D02*
X161221792Y-111138628D01*
X161221792Y-111138628D02*
X160840840Y-111138628D01*
X161840840Y-111614819D02*
X161840840Y-110614819D01*
X162507506Y-110614819D02*
X162697982Y-110614819D01*
X162697982Y-110614819D02*
X162793220Y-110662438D01*
X162793220Y-110662438D02*
X162888458Y-110757676D01*
X162888458Y-110757676D02*
X162936077Y-110948152D01*
X162936077Y-110948152D02*
X162936077Y-111281485D01*
X162936077Y-111281485D02*
X162888458Y-111471961D01*
X162888458Y-111471961D02*
X162793220Y-111567200D01*
X162793220Y-111567200D02*
X162697982Y-111614819D01*
X162697982Y-111614819D02*
X162507506Y-111614819D01*
X162507506Y-111614819D02*
X162412268Y-111567200D01*
X162412268Y-111567200D02*
X162317030Y-111471961D01*
X162317030Y-111471961D02*
X162269411Y-111281485D01*
X162269411Y-111281485D02*
X162269411Y-110948152D01*
X162269411Y-110948152D02*
X162317030Y-110757676D01*
X162317030Y-110757676D02*
X162412268Y-110662438D01*
X162412268Y-110662438D02*
X162507506Y-110614819D01*
X163888458Y-111614819D02*
X163317030Y-111614819D01*
X163602744Y-111614819D02*
X163602744Y-110614819D01*
X163602744Y-110614819D02*
X163507506Y-110757676D01*
X163507506Y-110757676D02*
X163412268Y-110852914D01*
X163412268Y-110852914D02*
X163317030Y-110900533D01*
X164364649Y-111614819D02*
X164555125Y-111614819D01*
X164555125Y-111614819D02*
X164650363Y-111567200D01*
X164650363Y-111567200D02*
X164697982Y-111519580D01*
X164697982Y-111519580D02*
X164793220Y-111376723D01*
X164793220Y-111376723D02*
X164840839Y-111186247D01*
X164840839Y-111186247D02*
X164840839Y-110805295D01*
X164840839Y-110805295D02*
X164793220Y-110710057D01*
X164793220Y-110710057D02*
X164745601Y-110662438D01*
X164745601Y-110662438D02*
X164650363Y-110614819D01*
X164650363Y-110614819D02*
X164459887Y-110614819D01*
X164459887Y-110614819D02*
X164364649Y-110662438D01*
X164364649Y-110662438D02*
X164317030Y-110710057D01*
X164317030Y-110710057D02*
X164269411Y-110805295D01*
X164269411Y-110805295D02*
X164269411Y-111043390D01*
X164269411Y-111043390D02*
X164317030Y-111138628D01*
X164317030Y-111138628D02*
X164364649Y-111186247D01*
X164364649Y-111186247D02*
X164459887Y-111233866D01*
X164459887Y-111233866D02*
X164650363Y-111233866D01*
X164650363Y-111233866D02*
X164745601Y-111186247D01*
X164745601Y-111186247D02*
X164793220Y-111138628D01*
X164793220Y-111138628D02*
X164840839Y-111043390D01*
X162745601Y-113202438D02*
X162650363Y-113154819D01*
X162650363Y-113154819D02*
X162507506Y-113154819D01*
X162507506Y-113154819D02*
X162364649Y-113202438D01*
X162364649Y-113202438D02*
X162269411Y-113297676D01*
X162269411Y-113297676D02*
X162221792Y-113392914D01*
X162221792Y-113392914D02*
X162174173Y-113583390D01*
X162174173Y-113583390D02*
X162174173Y-113726247D01*
X162174173Y-113726247D02*
X162221792Y-113916723D01*
X162221792Y-113916723D02*
X162269411Y-114011961D01*
X162269411Y-114011961D02*
X162364649Y-114107200D01*
X162364649Y-114107200D02*
X162507506Y-114154819D01*
X162507506Y-114154819D02*
X162602744Y-114154819D01*
X162602744Y-114154819D02*
X162745601Y-114107200D01*
X162745601Y-114107200D02*
X162793220Y-114059580D01*
X162793220Y-114059580D02*
X162793220Y-113726247D01*
X162793220Y-113726247D02*
X162602744Y-113726247D01*
X163221792Y-114154819D02*
X163221792Y-113154819D01*
X163221792Y-113154819D02*
X163793220Y-114154819D01*
X163793220Y-114154819D02*
X163793220Y-113154819D01*
X164269411Y-114154819D02*
X164269411Y-113154819D01*
X164269411Y-113154819D02*
X164507506Y-113154819D01*
X164507506Y-113154819D02*
X164650363Y-113202438D01*
X164650363Y-113202438D02*
X164745601Y-113297676D01*
X164745601Y-113297676D02*
X164793220Y-113392914D01*
X164793220Y-113392914D02*
X164840839Y-113583390D01*
X164840839Y-113583390D02*
X164840839Y-113726247D01*
X164840839Y-113726247D02*
X164793220Y-113916723D01*
X164793220Y-113916723D02*
X164745601Y-114011961D01*
X164745601Y-114011961D02*
X164650363Y-114107200D01*
X164650363Y-114107200D02*
X164507506Y-114154819D01*
X164507506Y-114154819D02*
X164269411Y-114154819D01*
X162745601Y-115742438D02*
X162650363Y-115694819D01*
X162650363Y-115694819D02*
X162507506Y-115694819D01*
X162507506Y-115694819D02*
X162364649Y-115742438D01*
X162364649Y-115742438D02*
X162269411Y-115837676D01*
X162269411Y-115837676D02*
X162221792Y-115932914D01*
X162221792Y-115932914D02*
X162174173Y-116123390D01*
X162174173Y-116123390D02*
X162174173Y-116266247D01*
X162174173Y-116266247D02*
X162221792Y-116456723D01*
X162221792Y-116456723D02*
X162269411Y-116551961D01*
X162269411Y-116551961D02*
X162364649Y-116647200D01*
X162364649Y-116647200D02*
X162507506Y-116694819D01*
X162507506Y-116694819D02*
X162602744Y-116694819D01*
X162602744Y-116694819D02*
X162745601Y-116647200D01*
X162745601Y-116647200D02*
X162793220Y-116599580D01*
X162793220Y-116599580D02*
X162793220Y-116266247D01*
X162793220Y-116266247D02*
X162602744Y-116266247D01*
X163221792Y-116694819D02*
X163221792Y-115694819D01*
X163221792Y-115694819D02*
X163793220Y-116694819D01*
X163793220Y-116694819D02*
X163793220Y-115694819D01*
X164269411Y-116694819D02*
X164269411Y-115694819D01*
X164269411Y-115694819D02*
X164507506Y-115694819D01*
X164507506Y-115694819D02*
X164650363Y-115742438D01*
X164650363Y-115742438D02*
X164745601Y-115837676D01*
X164745601Y-115837676D02*
X164793220Y-115932914D01*
X164793220Y-115932914D02*
X164840839Y-116123390D01*
X164840839Y-116123390D02*
X164840839Y-116266247D01*
X164840839Y-116266247D02*
X164793220Y-116456723D01*
X164793220Y-116456723D02*
X164745601Y-116551961D01*
X164745601Y-116551961D02*
X164650363Y-116647200D01*
X164650363Y-116647200D02*
X164507506Y-116694819D01*
X164507506Y-116694819D02*
X164269411Y-116694819D01*
X127999819Y-104914166D02*
X127999819Y-105390356D01*
X127999819Y-105390356D02*
X126999819Y-105390356D01*
X127999819Y-104057023D02*
X127999819Y-104628451D01*
X127999819Y-104342737D02*
X126999819Y-104342737D01*
X126999819Y-104342737D02*
X127142676Y-104437975D01*
X127142676Y-104437975D02*
X127237914Y-104533213D01*
X127237914Y-104533213D02*
X127285533Y-104628451D01*
X174833333Y-70954819D02*
X174500000Y-70478628D01*
X174261905Y-70954819D02*
X174261905Y-69954819D01*
X174261905Y-69954819D02*
X174642857Y-69954819D01*
X174642857Y-69954819D02*
X174738095Y-70002438D01*
X174738095Y-70002438D02*
X174785714Y-70050057D01*
X174785714Y-70050057D02*
X174833333Y-70145295D01*
X174833333Y-70145295D02*
X174833333Y-70288152D01*
X174833333Y-70288152D02*
X174785714Y-70383390D01*
X174785714Y-70383390D02*
X174738095Y-70431009D01*
X174738095Y-70431009D02*
X174642857Y-70478628D01*
X174642857Y-70478628D02*
X174261905Y-70478628D01*
X175166667Y-69954819D02*
X175785714Y-69954819D01*
X175785714Y-69954819D02*
X175452381Y-70335771D01*
X175452381Y-70335771D02*
X175595238Y-70335771D01*
X175595238Y-70335771D02*
X175690476Y-70383390D01*
X175690476Y-70383390D02*
X175738095Y-70431009D01*
X175738095Y-70431009D02*
X175785714Y-70526247D01*
X175785714Y-70526247D02*
X175785714Y-70764342D01*
X175785714Y-70764342D02*
X175738095Y-70859580D01*
X175738095Y-70859580D02*
X175690476Y-70907200D01*
X175690476Y-70907200D02*
X175595238Y-70954819D01*
X175595238Y-70954819D02*
X175309524Y-70954819D01*
X175309524Y-70954819D02*
X175214286Y-70907200D01*
X175214286Y-70907200D02*
X175166667Y-70859580D01*
X107774819Y-86293333D02*
X108489104Y-86293333D01*
X108489104Y-86293333D02*
X108631961Y-86340952D01*
X108631961Y-86340952D02*
X108727200Y-86436190D01*
X108727200Y-86436190D02*
X108774819Y-86579047D01*
X108774819Y-86579047D02*
X108774819Y-86674285D01*
X108774819Y-85293333D02*
X108774819Y-85864761D01*
X108774819Y-85579047D02*
X107774819Y-85579047D01*
X107774819Y-85579047D02*
X107917676Y-85674285D01*
X107917676Y-85674285D02*
X108012914Y-85769523D01*
X108012914Y-85769523D02*
X108060533Y-85864761D01*
X126928333Y-99427080D02*
X126880714Y-99474700D01*
X126880714Y-99474700D02*
X126737857Y-99522319D01*
X126737857Y-99522319D02*
X126642619Y-99522319D01*
X126642619Y-99522319D02*
X126499762Y-99474700D01*
X126499762Y-99474700D02*
X126404524Y-99379461D01*
X126404524Y-99379461D02*
X126356905Y-99284223D01*
X126356905Y-99284223D02*
X126309286Y-99093747D01*
X126309286Y-99093747D02*
X126309286Y-98950890D01*
X126309286Y-98950890D02*
X126356905Y-98760414D01*
X126356905Y-98760414D02*
X126404524Y-98665176D01*
X126404524Y-98665176D02*
X126499762Y-98569938D01*
X126499762Y-98569938D02*
X126642619Y-98522319D01*
X126642619Y-98522319D02*
X126737857Y-98522319D01*
X126737857Y-98522319D02*
X126880714Y-98569938D01*
X126880714Y-98569938D02*
X126928333Y-98617557D01*
X127261667Y-98522319D02*
X127880714Y-98522319D01*
X127880714Y-98522319D02*
X127547381Y-98903271D01*
X127547381Y-98903271D02*
X127690238Y-98903271D01*
X127690238Y-98903271D02*
X127785476Y-98950890D01*
X127785476Y-98950890D02*
X127833095Y-98998509D01*
X127833095Y-98998509D02*
X127880714Y-99093747D01*
X127880714Y-99093747D02*
X127880714Y-99331842D01*
X127880714Y-99331842D02*
X127833095Y-99427080D01*
X127833095Y-99427080D02*
X127785476Y-99474700D01*
X127785476Y-99474700D02*
X127690238Y-99522319D01*
X127690238Y-99522319D02*
X127404524Y-99522319D01*
X127404524Y-99522319D02*
X127309286Y-99474700D01*
X127309286Y-99474700D02*
X127261667Y-99427080D01*
X181924819Y-85318094D02*
X180924819Y-85318094D01*
X180924819Y-85318094D02*
X180924819Y-85079999D01*
X180924819Y-85079999D02*
X180972438Y-84937142D01*
X180972438Y-84937142D02*
X181067676Y-84841904D01*
X181067676Y-84841904D02*
X181162914Y-84794285D01*
X181162914Y-84794285D02*
X181353390Y-84746666D01*
X181353390Y-84746666D02*
X181496247Y-84746666D01*
X181496247Y-84746666D02*
X181686723Y-84794285D01*
X181686723Y-84794285D02*
X181781961Y-84841904D01*
X181781961Y-84841904D02*
X181877200Y-84937142D01*
X181877200Y-84937142D02*
X181924819Y-85079999D01*
X181924819Y-85079999D02*
X181924819Y-85318094D01*
X181020057Y-84365713D02*
X180972438Y-84318094D01*
X180972438Y-84318094D02*
X180924819Y-84222856D01*
X180924819Y-84222856D02*
X180924819Y-83984761D01*
X180924819Y-83984761D02*
X180972438Y-83889523D01*
X180972438Y-83889523D02*
X181020057Y-83841904D01*
X181020057Y-83841904D02*
X181115295Y-83794285D01*
X181115295Y-83794285D02*
X181210533Y-83794285D01*
X181210533Y-83794285D02*
X181353390Y-83841904D01*
X181353390Y-83841904D02*
X181924819Y-84413332D01*
X181924819Y-84413332D02*
X181924819Y-83794285D01*
X181554819Y-79761904D02*
X180554819Y-79761904D01*
X181554819Y-79190476D02*
X180983390Y-79619047D01*
X180554819Y-79190476D02*
X181126247Y-79761904D01*
X119094819Y-92512594D02*
X118094819Y-92512594D01*
X118094819Y-92512594D02*
X118094819Y-92274499D01*
X118094819Y-92274499D02*
X118142438Y-92131642D01*
X118142438Y-92131642D02*
X118237676Y-92036404D01*
X118237676Y-92036404D02*
X118332914Y-91988785D01*
X118332914Y-91988785D02*
X118523390Y-91941166D01*
X118523390Y-91941166D02*
X118666247Y-91941166D01*
X118666247Y-91941166D02*
X118856723Y-91988785D01*
X118856723Y-91988785D02*
X118951961Y-92036404D01*
X118951961Y-92036404D02*
X119047200Y-92131642D01*
X119047200Y-92131642D02*
X119094819Y-92274499D01*
X119094819Y-92274499D02*
X119094819Y-92512594D01*
X119094819Y-90988785D02*
X119094819Y-91560213D01*
X119094819Y-91274499D02*
X118094819Y-91274499D01*
X118094819Y-91274499D02*
X118237676Y-91369737D01*
X118237676Y-91369737D02*
X118332914Y-91464975D01*
X118332914Y-91464975D02*
X118380533Y-91560213D01*
X126833333Y-107359580D02*
X126785714Y-107407200D01*
X126785714Y-107407200D02*
X126642857Y-107454819D01*
X126642857Y-107454819D02*
X126547619Y-107454819D01*
X126547619Y-107454819D02*
X126404762Y-107407200D01*
X126404762Y-107407200D02*
X126309524Y-107311961D01*
X126309524Y-107311961D02*
X126261905Y-107216723D01*
X126261905Y-107216723D02*
X126214286Y-107026247D01*
X126214286Y-107026247D02*
X126214286Y-106883390D01*
X126214286Y-106883390D02*
X126261905Y-106692914D01*
X126261905Y-106692914D02*
X126309524Y-106597676D01*
X126309524Y-106597676D02*
X126404762Y-106502438D01*
X126404762Y-106502438D02*
X126547619Y-106454819D01*
X126547619Y-106454819D02*
X126642857Y-106454819D01*
X126642857Y-106454819D02*
X126785714Y-106502438D01*
X126785714Y-106502438D02*
X126833333Y-106550057D01*
X127690476Y-106788152D02*
X127690476Y-107454819D01*
X127452381Y-106407200D02*
X127214286Y-107121485D01*
X127214286Y-107121485D02*
X127833333Y-107121485D01*
X136359580Y-115166666D02*
X136407200Y-115214285D01*
X136407200Y-115214285D02*
X136454819Y-115357142D01*
X136454819Y-115357142D02*
X136454819Y-115452380D01*
X136454819Y-115452380D02*
X136407200Y-115595237D01*
X136407200Y-115595237D02*
X136311961Y-115690475D01*
X136311961Y-115690475D02*
X136216723Y-115738094D01*
X136216723Y-115738094D02*
X136026247Y-115785713D01*
X136026247Y-115785713D02*
X135883390Y-115785713D01*
X135883390Y-115785713D02*
X135692914Y-115738094D01*
X135692914Y-115738094D02*
X135597676Y-115690475D01*
X135597676Y-115690475D02*
X135502438Y-115595237D01*
X135502438Y-115595237D02*
X135454819Y-115452380D01*
X135454819Y-115452380D02*
X135454819Y-115357142D01*
X135454819Y-115357142D02*
X135502438Y-115214285D01*
X135502438Y-115214285D02*
X135550057Y-115166666D01*
X135454819Y-114309523D02*
X135454819Y-114499999D01*
X135454819Y-114499999D02*
X135502438Y-114595237D01*
X135502438Y-114595237D02*
X135550057Y-114642856D01*
X135550057Y-114642856D02*
X135692914Y-114738094D01*
X135692914Y-114738094D02*
X135883390Y-114785713D01*
X135883390Y-114785713D02*
X136264342Y-114785713D01*
X136264342Y-114785713D02*
X136359580Y-114738094D01*
X136359580Y-114738094D02*
X136407200Y-114690475D01*
X136407200Y-114690475D02*
X136454819Y-114595237D01*
X136454819Y-114595237D02*
X136454819Y-114404761D01*
X136454819Y-114404761D02*
X136407200Y-114309523D01*
X136407200Y-114309523D02*
X136359580Y-114261904D01*
X136359580Y-114261904D02*
X136264342Y-114214285D01*
X136264342Y-114214285D02*
X136026247Y-114214285D01*
X136026247Y-114214285D02*
X135931009Y-114261904D01*
X135931009Y-114261904D02*
X135883390Y-114309523D01*
X135883390Y-114309523D02*
X135835771Y-114404761D01*
X135835771Y-114404761D02*
X135835771Y-114595237D01*
X135835771Y-114595237D02*
X135883390Y-114690475D01*
X135883390Y-114690475D02*
X135931009Y-114738094D01*
X135931009Y-114738094D02*
X136026247Y-114785713D01*
X175050057Y-76532738D02*
X175002438Y-76627976D01*
X175002438Y-76627976D02*
X174907200Y-76723214D01*
X174907200Y-76723214D02*
X174764342Y-76866071D01*
X174764342Y-76866071D02*
X174716723Y-76961309D01*
X174716723Y-76961309D02*
X174716723Y-77056547D01*
X174954819Y-77008928D02*
X174907200Y-77104166D01*
X174907200Y-77104166D02*
X174811961Y-77199404D01*
X174811961Y-77199404D02*
X174621485Y-77247023D01*
X174621485Y-77247023D02*
X174288152Y-77247023D01*
X174288152Y-77247023D02*
X174097676Y-77199404D01*
X174097676Y-77199404D02*
X174002438Y-77104166D01*
X174002438Y-77104166D02*
X173954819Y-77008928D01*
X173954819Y-77008928D02*
X173954819Y-76818452D01*
X173954819Y-76818452D02*
X174002438Y-76723214D01*
X174002438Y-76723214D02*
X174097676Y-76627976D01*
X174097676Y-76627976D02*
X174288152Y-76580357D01*
X174288152Y-76580357D02*
X174621485Y-76580357D01*
X174621485Y-76580357D02*
X174811961Y-76627976D01*
X174811961Y-76627976D02*
X174907200Y-76723214D01*
X174907200Y-76723214D02*
X174954819Y-76818452D01*
X174954819Y-76818452D02*
X174954819Y-77008928D01*
X174050057Y-76199404D02*
X174002438Y-76151785D01*
X174002438Y-76151785D02*
X173954819Y-76056547D01*
X173954819Y-76056547D02*
X173954819Y-75818452D01*
X173954819Y-75818452D02*
X174002438Y-75723214D01*
X174002438Y-75723214D02*
X174050057Y-75675595D01*
X174050057Y-75675595D02*
X174145295Y-75627976D01*
X174145295Y-75627976D02*
X174240533Y-75627976D01*
X174240533Y-75627976D02*
X174383390Y-75675595D01*
X174383390Y-75675595D02*
X174954819Y-76247023D01*
X174954819Y-76247023D02*
X174954819Y-75627976D01*
X126928333Y-95927080D02*
X126880714Y-95974700D01*
X126880714Y-95974700D02*
X126737857Y-96022319D01*
X126737857Y-96022319D02*
X126642619Y-96022319D01*
X126642619Y-96022319D02*
X126499762Y-95974700D01*
X126499762Y-95974700D02*
X126404524Y-95879461D01*
X126404524Y-95879461D02*
X126356905Y-95784223D01*
X126356905Y-95784223D02*
X126309286Y-95593747D01*
X126309286Y-95593747D02*
X126309286Y-95450890D01*
X126309286Y-95450890D02*
X126356905Y-95260414D01*
X126356905Y-95260414D02*
X126404524Y-95165176D01*
X126404524Y-95165176D02*
X126499762Y-95069938D01*
X126499762Y-95069938D02*
X126642619Y-95022319D01*
X126642619Y-95022319D02*
X126737857Y-95022319D01*
X126737857Y-95022319D02*
X126880714Y-95069938D01*
X126880714Y-95069938D02*
X126928333Y-95117557D01*
X127309286Y-95117557D02*
X127356905Y-95069938D01*
X127356905Y-95069938D02*
X127452143Y-95022319D01*
X127452143Y-95022319D02*
X127690238Y-95022319D01*
X127690238Y-95022319D02*
X127785476Y-95069938D01*
X127785476Y-95069938D02*
X127833095Y-95117557D01*
X127833095Y-95117557D02*
X127880714Y-95212795D01*
X127880714Y-95212795D02*
X127880714Y-95308033D01*
X127880714Y-95308033D02*
X127833095Y-95450890D01*
X127833095Y-95450890D02*
X127261667Y-96022319D01*
X127261667Y-96022319D02*
X127880714Y-96022319D01*
X125012261Y-89897557D02*
X124917023Y-89849938D01*
X124917023Y-89849938D02*
X124821785Y-89754700D01*
X124821785Y-89754700D02*
X124678928Y-89611842D01*
X124678928Y-89611842D02*
X124583690Y-89564223D01*
X124583690Y-89564223D02*
X124488452Y-89564223D01*
X124536071Y-89802319D02*
X124440833Y-89754700D01*
X124440833Y-89754700D02*
X124345595Y-89659461D01*
X124345595Y-89659461D02*
X124297976Y-89468985D01*
X124297976Y-89468985D02*
X124297976Y-89135652D01*
X124297976Y-89135652D02*
X124345595Y-88945176D01*
X124345595Y-88945176D02*
X124440833Y-88849938D01*
X124440833Y-88849938D02*
X124536071Y-88802319D01*
X124536071Y-88802319D02*
X124726547Y-88802319D01*
X124726547Y-88802319D02*
X124821785Y-88849938D01*
X124821785Y-88849938D02*
X124917023Y-88945176D01*
X124917023Y-88945176D02*
X124964642Y-89135652D01*
X124964642Y-89135652D02*
X124964642Y-89468985D01*
X124964642Y-89468985D02*
X124917023Y-89659461D01*
X124917023Y-89659461D02*
X124821785Y-89754700D01*
X124821785Y-89754700D02*
X124726547Y-89802319D01*
X124726547Y-89802319D02*
X124536071Y-89802319D01*
X125917023Y-89802319D02*
X125345595Y-89802319D01*
X125631309Y-89802319D02*
X125631309Y-88802319D01*
X125631309Y-88802319D02*
X125536071Y-88945176D01*
X125536071Y-88945176D02*
X125440833Y-89040414D01*
X125440833Y-89040414D02*
X125345595Y-89088033D01*
X174833333Y-73329819D02*
X174500000Y-72853628D01*
X174261905Y-73329819D02*
X174261905Y-72329819D01*
X174261905Y-72329819D02*
X174642857Y-72329819D01*
X174642857Y-72329819D02*
X174738095Y-72377438D01*
X174738095Y-72377438D02*
X174785714Y-72425057D01*
X174785714Y-72425057D02*
X174833333Y-72520295D01*
X174833333Y-72520295D02*
X174833333Y-72663152D01*
X174833333Y-72663152D02*
X174785714Y-72758390D01*
X174785714Y-72758390D02*
X174738095Y-72806009D01*
X174738095Y-72806009D02*
X174642857Y-72853628D01*
X174642857Y-72853628D02*
X174261905Y-72853628D01*
X175690476Y-72663152D02*
X175690476Y-73329819D01*
X175452381Y-72282200D02*
X175214286Y-72996485D01*
X175214286Y-72996485D02*
X175833333Y-72996485D01*
X114965833Y-95352319D02*
X114632500Y-94876128D01*
X114394405Y-95352319D02*
X114394405Y-94352319D01*
X114394405Y-94352319D02*
X114775357Y-94352319D01*
X114775357Y-94352319D02*
X114870595Y-94399938D01*
X114870595Y-94399938D02*
X114918214Y-94447557D01*
X114918214Y-94447557D02*
X114965833Y-94542795D01*
X114965833Y-94542795D02*
X114965833Y-94685652D01*
X114965833Y-94685652D02*
X114918214Y-94780890D01*
X114918214Y-94780890D02*
X114870595Y-94828509D01*
X114870595Y-94828509D02*
X114775357Y-94876128D01*
X114775357Y-94876128D02*
X114394405Y-94876128D01*
X115918214Y-95352319D02*
X115346786Y-95352319D01*
X115632500Y-95352319D02*
X115632500Y-94352319D01*
X115632500Y-94352319D02*
X115537262Y-94495176D01*
X115537262Y-94495176D02*
X115442024Y-94590414D01*
X115442024Y-94590414D02*
X115346786Y-94638033D01*
X120711666Y-79678509D02*
X120378333Y-79678509D01*
X120378333Y-80202319D02*
X120378333Y-79202319D01*
X120378333Y-79202319D02*
X120854523Y-79202319D01*
X121759285Y-80202319D02*
X121187857Y-80202319D01*
X121473571Y-80202319D02*
X121473571Y-79202319D01*
X121473571Y-79202319D02*
X121378333Y-79345176D01*
X121378333Y-79345176D02*
X121283095Y-79440414D01*
X121283095Y-79440414D02*
X121187857Y-79488033D01*
X114878333Y-88607080D02*
X114830714Y-88654700D01*
X114830714Y-88654700D02*
X114687857Y-88702319D01*
X114687857Y-88702319D02*
X114592619Y-88702319D01*
X114592619Y-88702319D02*
X114449762Y-88654700D01*
X114449762Y-88654700D02*
X114354524Y-88559461D01*
X114354524Y-88559461D02*
X114306905Y-88464223D01*
X114306905Y-88464223D02*
X114259286Y-88273747D01*
X114259286Y-88273747D02*
X114259286Y-88130890D01*
X114259286Y-88130890D02*
X114306905Y-87940414D01*
X114306905Y-87940414D02*
X114354524Y-87845176D01*
X114354524Y-87845176D02*
X114449762Y-87749938D01*
X114449762Y-87749938D02*
X114592619Y-87702319D01*
X114592619Y-87702319D02*
X114687857Y-87702319D01*
X114687857Y-87702319D02*
X114830714Y-87749938D01*
X114830714Y-87749938D02*
X114878333Y-87797557D01*
X115830714Y-88702319D02*
X115259286Y-88702319D01*
X115545000Y-88702319D02*
X115545000Y-87702319D01*
X115545000Y-87702319D02*
X115449762Y-87845176D01*
X115449762Y-87845176D02*
X115354524Y-87940414D01*
X115354524Y-87940414D02*
X115259286Y-87988033D01*
%TO.C,R2*%
D13*
X134765000Y-74915436D02*
X134765000Y-75369564D01*
X136235000Y-74915436D02*
X136235000Y-75369564D01*
%TO.C,U1*%
X133850000Y-78030000D02*
X133850000Y-74430000D01*
X133838478Y-78068478D02*
G75*
G02*
X129399999Y-76230000I-1838478J1838478D01*
G01*
X129400000Y-76230000D02*
G75*
G02*
X133838478Y-74391522I2600000J0D01*
G01*
%TO.C,C5*%
X125761252Y-75735000D02*
X125238748Y-75735000D01*
X125761252Y-74265000D02*
X125238748Y-74265000D01*
%TO.C,J2*%
X182852500Y-79305000D02*
X192892500Y-79305000D01*
X182852500Y-89705000D02*
X182852500Y-79305000D01*
X185872500Y-89705000D02*
X185872500Y-79305000D01*
X190772500Y-89705000D02*
X190772500Y-79305000D01*
X192272500Y-89705000D02*
X192272500Y-79305000D01*
X192892500Y-79305000D02*
X192892500Y-86745000D01*
X192892500Y-87345000D02*
X192892500Y-89705000D01*
X192892500Y-89705000D02*
X182852500Y-89705000D01*
X192892500Y-87045000D02*
X193502500Y-86605000D01*
X193502500Y-87485000D01*
X192892500Y-87045000D01*
G36*
X193502500Y-87485000D02*
G01*
X192892500Y-87045000D01*
X193502500Y-86605000D01*
X193502500Y-87485000D01*
G37*
%TO.C,RV1*%
X129640000Y-69920000D02*
X129640000Y-68080000D01*
X130155000Y-65640000D02*
X136360000Y-65640000D01*
X136360000Y-65640000D02*
X136360000Y-67770000D01*
X136360000Y-70230000D02*
X136360000Y-72360000D01*
X136360000Y-72360000D02*
X130155000Y-72360000D01*
%TO.C,U2*%
D10*
X139700000Y-60990000D02*
X167700000Y-60990000D01*
X139700000Y-117990000D02*
X139700000Y-60990000D01*
X167700000Y-60990000D02*
X167700000Y-117990000D01*
X167700000Y-117990000D02*
X139700000Y-117990000D01*
X143700000Y-54990000D02*
X163700000Y-54990000D01*
X163700000Y-60990000D01*
X143700000Y-60990000D01*
X143700000Y-54990000D01*
%TO.C,L1*%
D13*
X128485000Y-104347878D02*
X128485000Y-105147122D01*
X129605000Y-104347878D02*
X129605000Y-105147122D01*
%TO.C,R3*%
X171772936Y-69765000D02*
X172227064Y-69765000D01*
X171772936Y-71235000D02*
X172227064Y-71235000D01*
%TO.C,J1*%
X97280000Y-80760000D02*
X107320000Y-80760000D01*
X97280000Y-83120000D02*
X97280000Y-80760000D01*
X97280000Y-91160000D02*
X97280000Y-83720000D01*
X97900000Y-80760000D02*
X97900000Y-91160000D01*
X99400000Y-80760000D02*
X99400000Y-91160000D01*
X104300000Y-80760000D02*
X104300000Y-91160000D01*
X107320000Y-80760000D02*
X107320000Y-91160000D01*
X107320000Y-91160000D02*
X97280000Y-91160000D01*
X97280000Y-83420000D02*
X96670000Y-83860000D01*
X96670000Y-82980000D01*
X97280000Y-83420000D01*
G36*
X97280000Y-83420000D02*
G01*
X96670000Y-83860000D01*
X96670000Y-82980000D01*
X97280000Y-83420000D01*
G37*
%TO.C,C3*%
X126833748Y-100012500D02*
X127356252Y-100012500D01*
X126833748Y-101482500D02*
X127356252Y-101482500D01*
%TO.C,D2*%
X179000000Y-80840000D02*
X179000000Y-81860000D01*
X179000000Y-88320000D02*
X179000000Y-87300000D01*
X180470000Y-82640000D02*
X177530000Y-82640000D01*
X180470000Y-82760000D02*
X177530000Y-82760000D01*
X180470000Y-82880000D02*
X177530000Y-82880000D01*
X177530000Y-81860000D02*
X180470000Y-81860000D01*
X180470000Y-87300000D01*
X177530000Y-87300000D01*
X177530000Y-81860000D01*
%TO.C,D1*%
X119545000Y-93857500D02*
X119545000Y-89997500D01*
X119545000Y-93857500D02*
X121545000Y-93857500D01*
X121545000Y-93857500D02*
X121545000Y-89997500D01*
%TO.C,C4*%
X127356252Y-108012500D02*
X126833748Y-108012500D01*
X127356252Y-109482500D02*
X126833748Y-109482500D01*
%TO.C,C6*%
X137265000Y-114738748D02*
X137265000Y-115261252D01*
X138735000Y-114738748D02*
X138735000Y-115261252D01*
%TO.C,Q2*%
X170440000Y-75677500D02*
X170490000Y-75677500D01*
X170440000Y-77197500D02*
X170440000Y-75677500D01*
X171440000Y-77197500D02*
X170440000Y-77197500D01*
X171610000Y-75677500D02*
X172390000Y-75677500D01*
X173510000Y-75677500D02*
X173560000Y-75677500D01*
X173560000Y-75677500D02*
X173560000Y-77197500D01*
X173560000Y-77197500D02*
X172560000Y-77197500D01*
X172380000Y-75137500D02*
X172050000Y-75377500D01*
X172050000Y-74897500D01*
X172380000Y-75137500D01*
G36*
X172380000Y-75137500D02*
G01*
X172050000Y-75377500D01*
X172050000Y-74897500D01*
X172380000Y-75137500D01*
G37*
%TO.C,C2*%
X126833748Y-96512500D02*
X127356252Y-96512500D01*
X126833748Y-97982500D02*
X127356252Y-97982500D01*
%TO.C,Q1*%
X124347500Y-90187500D02*
X125867500Y-90187500D01*
X124347500Y-90237500D02*
X124347500Y-90187500D01*
X124347500Y-92137500D02*
X124347500Y-91357500D01*
X124347500Y-93307500D02*
X124347500Y-93257500D01*
X125867500Y-90187500D02*
X125867500Y-91187500D01*
X125867500Y-92307500D02*
X125867500Y-93307500D01*
X125867500Y-93307500D02*
X124347500Y-93307500D01*
X123807500Y-91367500D02*
X124047500Y-91697500D01*
X123567500Y-91697500D01*
X123807500Y-91367500D01*
G36*
X124047500Y-91697500D02*
G01*
X123567500Y-91697500D01*
X123807500Y-91367500D01*
X124047500Y-91697500D01*
G37*
%TO.C,R4*%
X171860436Y-72140000D02*
X172314564Y-72140000D01*
X171860436Y-73610000D02*
X172314564Y-73610000D01*
%TO.C,R1*%
X115359564Y-92512500D02*
X114905436Y-92512500D01*
X115359564Y-93982500D02*
X114905436Y-93982500D01*
%TO.C,F1*%
X116945000Y-80917500D02*
X116945000Y-81697500D01*
X116945000Y-80917500D02*
X125145000Y-80917500D01*
X116945000Y-86577500D02*
X116945000Y-85797500D01*
X116945000Y-86577500D02*
X125145000Y-86577500D01*
X125145000Y-80917500D02*
X125145000Y-81697500D01*
X125145000Y-86577500D02*
X125145000Y-85797500D01*
%TO.C,C1*%
X115306252Y-89512500D02*
X114783748Y-89512500D01*
X115306252Y-90982500D02*
X114783748Y-90982500D01*
%TD*%
M02*
